<?xml version="1.0" standalone="no"?>
<!DOCTYPE svg PUBLIC "-//W3C//DTD SVG 1.1//EN" "http://www.w3.org/Graphics/SVG/1.1/DTD/svg11.dtd" >
<svg xmlns="http://www.w3.org/2000/svg" xmlns:xlink="http://www.w3.org/1999/xlink" version="1.1">
<metadata>
Created by FontForge 20201107 at Mon Jan  2 15:08:56 2017
 By 
(URW)++,Copyright 2016 by (URW)++ Design &#38; Development
</metadata>
<defs>
<font id="URWDINCondW05-Demi" horiz-adv-x="860" >
  <font-face 
    font-family="URWDINCondW05-Demi"
    font-weight="600"
    font-stretch="normal"
    units-per-em="2048"
    panose-1="1 0 0 0 0 0 0 0 0 0"
    ascent="1638"
    descent="-410"
    x-height="1051"
    cap-height="1462"
    bbox="-141 -499 2062 2105"
    underline-thickness="102"
    underline-position="-256"
    unicode-range="U+0020-FB04"
  />
<missing-glyph horiz-adv-x="328" 
d="M33 0v1462h262v-1462h-262zM262 33v1396h-196v-1396h196z" />
    <glyph glyph-name="uniFB00" unicode="ff" horiz-adv-x="1015" 
d="M138 875h-97v176h97v108q0 102 13.5 157.5t47.5 91.5q29 31 74 42.5t136 11.5h88v-164h-39q-45 0 -62 -5t-27 -22q-17 -27 -17 -123v-97h113v-176h-113v-875h-214v875zM622 875h-82v176h82v108q0 102 13.5 157.5t47.5 91.5q29 31 74 42.5t137 11.5h96v-164h-48
q-45 0 -62 -5t-27 -22q-17 -27 -17 -123v-97h159v-176h-159v-875h-214v875z" />
    <glyph glyph-name="uniFB01" unicode="fi" horiz-adv-x="954" 
d="M138 875h-97v176h97v108q0 102 13.5 157.5t47.5 91.5q29 31 74 42.5t136 11.5h96v-164h-48q-44 0 -61 -5t-28 -22q-16 -27 -16 -123v-97h158v-176h-158v-875h-214v875zM633 1225v246h214v-246h-214zM633 0v1051h214v-1051h-214z" />
    <glyph glyph-name="uniFB02" unicode="fl" horiz-adv-x="1007" 
d="M138 875h-97v176h97v108q0 102 13.5 157.5t47.5 91.5q29 31 74 42.5t136 11.5h96v-164h-48q-44 0 -61 -5t-28 -22q-16 -27 -16 -123v-97h158v-176h-158v-875h-214v875zM632 1462h214v-1081q0 -118 28 -159.5t107 -41.5h22v-180h-32q-118 0 -190 23q-85 28 -117 109.5
t-32 269.5v1060z" />
    <glyph glyph-name="uniFB03" unicode="ffi" horiz-adv-x="1438" 
d="M138 875h-97v176h97v108q0 102 13.5 157.5t47.5 91.5q29 31 74 42.5t136 11.5h88v-164h-39q-45 0 -62 -5t-27 -22q-17 -27 -17 -123v-97h113v-176h-113v-875h-214v875zM622 875h-82v176h82v108q0 102 13.5 157.5t47.5 91.5q29 31 74 42.5t137 11.5h96v-164h-48
q-45 0 -62 -5t-27 -22q-17 -27 -17 -123v-97h159v-176h-159v-875h-214v875zM1118 1225v246h214v-246h-214zM1118 0v1051h214v-1051h-214z" />
    <glyph glyph-name="uniFB04" unicode="ffl" horiz-adv-x="1492" 
d="M138 875h-97v176h97v108q0 102 13.5 157.5t47.5 91.5q29 31 74 42.5t136 11.5h88v-164h-39q-45 0 -62 -5t-27 -22q-17 -27 -17 -123v-97h113v-176h-113v-875h-214v875zM622 875h-82v176h82v108q0 102 13.5 157.5t47.5 91.5q29 31 74 42.5t137 11.5h96v-164h-48
q-45 0 -62 -5t-27 -22q-17 -27 -17 -123v-97h159v-176h-159v-875h-214v875zM1116 1462h214v-1081q0 -118 28 -159.5t107 -41.5h22v-180h-32q-118 0 -190 23q-85 28 -117 109.5t-32 269.5v1060z" />
    <glyph glyph-name=".notdef" horiz-adv-x="328" 
d="M33 0v1462h262v-1462h-262zM262 33v1396h-196v-1396h196z" />
    <glyph glyph-name="glyph1" horiz-adv-x="0" 
 />
    <glyph glyph-name="glyph2" horiz-adv-x="328" 
 />
    <glyph glyph-name="space" unicode=" " horiz-adv-x="328" 
 />
    <glyph glyph-name="exclam" unicode="!" horiz-adv-x="512" 
d="M169 405l-33 1057h242l-33 -1057h-176zM150 0v238h216v-238h-216z" />
    <glyph glyph-name="quotedbl" unicode="&#x22;" horiz-adv-x="689" 
d="M84 893l-16 569h223l-17 -569h-190zM414 893l-16 569h222l-16 -569h-190z" />
    <glyph glyph-name="numbersign" unicode="#" 
d="M174 594l23 219h-139l19 140h136l37 345h176l-37 -345h136l37 345h177l-37 -345h137l-19 -140h-134l-23 -219h137l-19 -141h-134l-38 -347h-176l38 347h-136l-38 -347h-177l38 347h-139l19 141h136zM351 594h135l24 219h-136z" />
    <glyph glyph-name="dollar" unicode="$" 
d="M61 450h206q2 -141 38 -202t118 -61q80 0 118 56.5t38 176.5q0 114 -43 165q-23 27 -48 40t-120 47q-139 51 -204 133q-80 100 -80 275q0 314 242 360v224h220v-234q212 -66 211 -358h-206q-5 109 -34 154t-95 45q-128 0 -128 -180q0 -92 41.5 -144.5t145.5 -91.5
q98 -37 136.5 -57.5t73.5 -53.5q98 -94 98 -307q0 -355 -243 -412v-300h-220v294q-140 32 -201.5 132.5t-63.5 298.5z" />
    <glyph glyph-name="percent" unicode="%" horiz-adv-x="1471" 
d="M47 1026v143q0 166 55 233q66 80 221 80q149 0 212 -71.5t63 -241.5v-143q0 -165 -55 -232q-66 -80 -220 -80q-150 0 -213 71.5t-63 240.5zM406 1005v186q0 87 -18.5 121.5t-65.5 34.5q-46 0 -64.5 -35t-18.5 -121v-186q0 -87 18.5 -121.5t64.5 -34.5q47 0 65.5 34.5
t18.5 121.5zM873 296v143q0 166 55 233q67 80 221 80q149 0 212 -71.5t63 -241.5v-143q0 -166 -55 -232q-67 -81 -220 -81q-150 0 -213 71.5t-63 241.5zM1232 275v186q0 86 -18.5 120.5t-64.5 34.5q-47 0 -65.5 -34.5t-18.5 -120.5v-186q0 -87 18.5 -122t65.5 -35
q46 0 64.5 35t18.5 122zM469 0l335 1462h197l-334 -1462h-198z" />
    <glyph glyph-name="ampersand" unicode="&#x26;" horiz-adv-x="1165" 
d="M345 793q-68 127 -94.5 206.5t-26.5 155.5q0 160 83 250t230 90q173 0 258 -111q71 -92 71 -237q0 -242 -238 -410l178 -301q28 83 33 104.5t30 148.5h207q-44 -258 -139 -443l159 -246h-249l-44 80q-11 -9 -73 -59q-47 -37 -127.5 -60t-167.5 -23q-357 0 -357 382
q0 203 130 352q35 40 97 88q24 20 40 33zM521 897q8 7 20 18q49 45 69 75q45 67 45 157q0 175 -112 175q-108 0 -108 -153q0 -124 86 -272zM459 622q-83 -65 -119.5 -134.5t-36.5 -165.5q0 -200 163 -200q82 0 158 55l66 67z" />
    <glyph glyph-name="quotesingle" unicode="'" horiz-adv-x="359" 
d="M84 893l-16 569h223l-17 -569h-190z" />
    <glyph glyph-name="parenleft" unicode="(" horiz-adv-x="671" 
d="M597 -157l-144 -99q-280 394 -280 962q0 567 280 961l144 -99q-199 -369 -199 -862q0 -494 199 -863z" />
    <glyph glyph-name="parenright" unicode=")" horiz-adv-x="671" 
d="M74 1568l143 99q281 -396 281 -961q0 -566 -281 -962l-143 99q199 370 199 863q0 492 -199 862z" />
    <glyph glyph-name="asterisk" unicode="*" 
d="M430 1052l-124 -249l-171 95l158 245l-235 63l53 173l229 -94l-13 290h205l-12 -290l228 94l53 -173l-235 -63l159 -245l-171 -95z" />
    <glyph glyph-name="plus" unicode="+" 
d="M74 652v170h264v317h184v-317h264v-170h-264v-319h-184v319h-264z" />
    <glyph glyph-name="comma" unicode="," horiz-adv-x="435" 
d="M50 -385l71 618h236l-113 -618h-194z" />
    <glyph glyph-name="hyphen" unicode="-" horiz-adv-x="670" 
d="M103 642v187h463v-187h-463z" />
    <glyph glyph-name="period" unicode="." horiz-adv-x="437" 
d="M106 0v238h225v-238h-225z" />
    <glyph glyph-name="slash" unicode="/" horiz-adv-x="591" 
d="M14 -43l354 1548h210l-354 -1548h-210z" />
    <glyph glyph-name="zero" unicode="0" 
d="M75 458v546q0 247 75 353q88 126 280 126q187 0 270.5 -112.5t83.5 -366.5v-546q0 -246 -75 -353q-88 -125 -279 -125q-189 0 -272 112t-83 366zM564 478v506q0 163 -24 231q-31 84 -110 84q-86 0 -115 -98q-20 -67 -20 -217v-506q0 -163 24 -231q31 -83 111 -83
q85 0 114 98q20 67 20 216z" />
    <glyph glyph-name="one" unicode="1" 
d="M340 0v1211l-168 -92l-88 174l332 169h149v-1462h-225z" />
    <glyph glyph-name="two" unicode="2" 
d="M56 0v159l311 492q163 257 163 446q0 106 -27.5 154t-87.5 48q-70 0 -100.5 -56.5t-33.5 -189.5h-207q2 183 55 277q85 153 290 153q200 0 283 -140q54 -91 54 -236q0 -175 -73 -323q-31 -62 -52 -98t-118 -187l-196 -312h435v-187h-696z" />
    <glyph glyph-name="three" unicode="3" 
d="M265 682v177h100q79 0 115 50q43 58 43 176q0 214 -120 214q-63 0 -90.5 -51t-32.5 -175h-207q3 172 54 259q89 151 286 151q165 0 250.5 -98.5t85.5 -288.5q0 -241 -124 -323q56 -36 87 -83q64 -96 64 -286q0 -424 -353 -424q-238 0 -322 195q-35 81 -37 237h207
q0 -91 16 -146q29 -102 123 -102q140 0 140 243q0 133 -44.5 204t-126.5 71h-114z" />
    <glyph glyph-name="four" unicode="4" 
d="M497 0v263h-439v137l344 1062h226l-327 -1016h196v349h206v-349h99v-184h-99v-262h-206z" />
    <glyph glyph-name="five" unicode="5" 
d="M117 689l36 773h584v-187h-390l-18 -391q66 35 143 35q170 0 241 -116q58 -95 58 -325q0 -144 -17 -230.5t-57 -144.5q-83 -123 -283 -123q-183 0 -272.5 106.5t-90.5 325.5h206q1 -91 17 -146q30 -102 127 -102q77 0 110.5 70t33.5 230q0 161 -27.5 220.5t-101.5 59.5
q-83 0 -137 -89z" />
    <glyph glyph-name="six" unicode="6" 
d="M430 905q38 14 81 14q153 0 220 -132q47 -93 47 -332q0 -153 -18.5 -235.5t-64.5 -134.5q-93 -105 -264 -105q-189 0 -280 124q-67 90 -67 335q0 138 17 216.5t76 221.5l245 585h246zM435 753q-76 0 -104.5 -67.5t-28.5 -244.5q0 -149 23 -209q30 -76 107 -76
q74 0 101.5 63t27.5 234q0 167 -22 222q-31 78 -104 78z" />
    <glyph glyph-name="seven" unicode="7" 
d="M161 0l348 1275h-418v187h641v-135l-332 -1327h-239z" />
    <glyph glyph-name="eight" unicode="8" 
d="M207 774q-59 41 -81.5 108.5t-22.5 202.5q0 219 80 306q84 92 246 92q170 0 248.5 -94.5t78.5 -299.5q0 -141 -21.5 -205.5t-82.5 -109.5q75 -42 105 -123.5t30 -240.5q0 -229 -80 -323q-48 -57 -113 -82t-165 -25q-106 0 -175 29.5t-116 95.5q-66 91 -66 306
q0 158 30 239.5t105 123.5zM431 1318q-81 0 -109 -74q-15 -40 -15 -162q0 -137 20 -178q30 -65 103 -65q79 0 108 77q14 39 14 166q0 132 -20 174q-31 62 -101 62zM432 683q-81 0 -111.5 -57t-30.5 -207q0 -148 26 -198q34 -65 113 -65q80 0 110 56.5t30 205.5t-26 199
q-34 66 -111 66z" />
    <glyph glyph-name="nine" unicode="9" 
d="M435 614q-46 -14 -83 -14q-156 0 -223 123q-47 88 -47 314q0 144 18.5 221.5t64.5 125.5q94 99 264 99q189 0 280 -116q67 -85 67 -315q0 -131 -17 -208.5t-75 -212.5l-270 -631h-245zM431 1307q-77 0 -104.5 -56.5t-27.5 -212.5q0 -151 22 -202q31 -70 105 -70
q75 0 103.5 61.5t28.5 223.5q0 141 -28.5 198.5t-98.5 57.5z" />
    <glyph glyph-name="colon" unicode=":" horiz-adv-x="437" 
d="M106 0v238h225v-238h-225zM106 807v237h225v-237h-225z" />
    <glyph glyph-name="semicolon" unicode=";" horiz-adv-x="434" 
d="M50 -385l71 618h236l-113 -618h-194zM129 807v237h225v-237h-225z" />
    <glyph glyph-name="less" unicode="&#x3c;" 
d="M303 744l410 -237v-199l-620 379v115l620 378v-198z" />
    <glyph glyph-name="equal" unicode="=" 
d="M100 492v166h659v-166h-659zM100 816v163h659v-163h-659z" />
    <glyph glyph-name="greater" unicode="&#x3e;" 
d="M557 744l-410 238v198l620 -378v-115l-620 -379v199z" />
    <glyph glyph-name="question" unicode="?" horiz-adv-x="851" 
d="M330 399v75q0 124 23.5 189.5t109.5 179.5q59 80 78 129t19 126q0 198 -127 198q-70 0 -99 -52t-36 -191h-206q2 427 350 427q175 0 259 -91t84 -281q0 -130 -34.5 -210.5t-151.5 -221.5q-55 -67 -75 -114t-20 -111v-52h-174zM311 0v238h216v-238h-216z" />
    <glyph glyph-name="at" unicode="@" horiz-adv-x="1436" 
d="M910 1044h129l-70 -480q-12 -85 -12 -109q0 -85 53 -85q33 0 67 22t55 56q68 115 68 332q0 224 -98 379q-116 183 -357 183q-233 0 -360 -187q-143 -212 -143 -585q0 -323 121 -480q118 -154 394 -154q99 0 176.5 19.5t184.5 71.5l52 -127q-80 -43 -140 -65
q-127 -46 -278 -46q-220 0 -389 92q-305 166 -305 690q0 432 182 683q84 115 219 177q127 58 280 58q310 0 488 -220q151 -187 151 -485q0 -306 -158 -464q-96 -97 -228 -97q-74 0 -113 33.5t-54 108.5q-42 -79 -86.5 -112t-111.5 -33q-94 0 -145 71q-56 77 -56 218
q0 111 24.5 221.5t65.5 187.5q81 148 225 148q63 0 98.5 -25.5t54.5 -84.5zM757 920q-66 0 -112 -133q-39 -115 -39 -267q0 -144 56 -144q64 0 116 139q48 130 48 257q0 148 -69 148z" />
    <glyph glyph-name="A" unicode="A" horiz-adv-x="922" 
d="M646 303h-364l-66 -303h-243l396 1462h189l396 -1462h-243zM607 484l-143 666l-143 -666h286z" />
    <glyph glyph-name="B" unicode="B" horiz-adv-x="982" 
d="M126 0v1462h360q118 0 185 -20t112 -69q94 -101 94 -299q0 -235 -129 -311q148 -93 148 -366q0 -217 -101 -319q-43 -43 -100.5 -60.5t-155.5 -17.5h-413zM351 839h136q85 0 125 53t40 165q0 120 -40.5 171t-135.5 51h-125v-440zM351 183h133q59 0 90 10.5t52 37.5
q45 58 45 182q0 130 -39.5 186.5t-130.5 56.5h-150v-473z" />
    <glyph glyph-name="C" unicode="C" horiz-adv-x="932" 
d="M657 432h206q-2 -185 -56 -280q-97 -172 -328 -172q-216 0 -310 146q-67 102 -67 343v521q0 263 82 367q97 123 295 123q237 0 328 -186q40 -81 43 -241h-207q-6 101 -22 147q-34 96 -138 96q-88 0 -122 -70t-34 -250v-493q0 -161 26 -229q35 -90 134 -90q89 0 128.5 62
t41.5 206z" />
    <glyph glyph-name="D" unicode="D" horiz-adv-x="1003" 
d="M126 0v1462h344q124 0 197.5 -20.5t124.5 -68.5q59 -56 83.5 -134.5t24.5 -211.5v-592q0 -133 -24.5 -211.5t-83.5 -134.5q-51 -48 -124.5 -68.5t-197.5 -20.5h-344zM351 183h126q114 0 154 57q44 62 44 234v514q0 170 -41.5 230.5t-156.5 60.5h-126v-1096z" />
    <glyph glyph-name="E" unicode="E" horiz-adv-x="861" 
d="M128 0v1462h664v-187h-439v-443h372v-187h-372v-458h447v-187h-672z" />
    <glyph glyph-name="F" unicode="F" horiz-adv-x="823" 
d="M128 0v1462h655v-187h-430v-454h359v-187h-359v-634h-225z" />
    <glyph glyph-name="G" unicode="G" horiz-adv-x="979" 
d="M514 612v176h383v-278q0 -264 -71 -375q-98 -155 -326 -155t-328 145q-70 103 -70 345v520q0 263 86 368q100 122 302 122q243 0 333 -188q39 -82 42 -239h-206q-5 97 -21 144q-34 99 -143 99q-94 0 -131 -70t-37 -250v-492q0 -161 30 -230q37 -89 144 -89q93 0 133.5 69
t40.5 229v149h-161z" />
    <glyph glyph-name="H" unicode="H" horiz-adv-x="1017" 
d="M126 0v1462h225v-630h314v630h225v-1462h-225v645h-314v-645h-225z" />
    <glyph glyph-name="I" unicode="I" horiz-adv-x="478" 
d="M126 0v1462h225v-1462h-225z" />
    <glyph glyph-name="J" unicode="J" horiz-adv-x="692" 
d="M349 1462h225v-982q0 -157 -8 -227t-31 -120q-72 -153 -279 -153q-96 0 -167 31t-139 103l131 144q86 -94 156 -94q80 0 101 108q11 55 11 204v986z" />
    <glyph glyph-name="K" unicode="K" horiz-adv-x="919" 
d="M129 0v1462h225v-611l335 611h242l-357 -604l373 -858h-246l-260 671l-87 -162v-509h-225z" />
    <glyph glyph-name="L" unicode="L" horiz-adv-x="821" 
d="M126 0v1462h225v-1275h450v-187h-675z" />
    <glyph glyph-name="M" unicode="M" horiz-adv-x="1220" 
d="M126 0v1462h212l271 -840l272 840h212v-1462h-216v955l-197 -649h-141l-197 649v-955h-216z" />
    <glyph glyph-name="N" unicode="N" horiz-adv-x="1065" 
d="M126 0v1462h224l377 -1000v1000h211v-1462h-213l-388 1011v-1011h-211z" />
    <glyph glyph-name="O" unicode="O" horiz-adv-x="1003" 
d="M102 446v570q0 229 77 335q95 132 322 132q151 0 238 -53q85 -53 123 -150t38 -264v-570q0 -228 -77 -334q-95 -132 -322 -132q-152 0 -238 53q-85 53 -123 149.5t-38 263.5zM675 467v529q0 169 -38.5 236t-135.5 67q-109 0 -149 -94q-25 -60 -25 -209v-529
q0 -169 38.5 -236t135.5 -67q109 0 149 93q25 61 25 210z" />
    <glyph glyph-name="P" unicode="P" horiz-adv-x="906" 
d="M352 546v-546h-225v1462h324q142 0 216 -34q193 -88 193 -423q0 -244 -101 -358q-49 -55 -119.5 -78t-188.5 -23h-99zM347 730h103q58 0 91.5 15.5t55.5 52.5q38 66 38 212q0 143 -47 213q-20 31 -50.5 43.5t-85.5 12.5h-105v-549z" />
    <glyph glyph-name="Q" unicode="Q" horiz-adv-x="1003" 
d="M752 42q-89 -62 -251 -62q-151 0 -238 53q-85 53 -123 149.5t-38 263.5v570q0 229 77 335q95 132 322 132q151 0 238 -53q85 -53 123 -150t38 -264v-570q0 -167 -41 -271l111 -108l-125 -116zM600 191l-179 174l125 115l125 -121q4 50 4 108v529q0 169 -38.5 236
t-135.5 67q-109 0 -149 -94q-25 -60 -25 -209v-529q0 -162 32 -223q41 -80 142 -80q61 0 99 27z" />
    <glyph glyph-name="R" unicode="R" horiz-adv-x="963" 
d="M353 616v-616h-225v1462h339q131 0 199 -24q109 -38 159.5 -133t50.5 -261q0 -182 -43.5 -272.5t-152.5 -135.5l234 -636h-249l-203 616h-109zM348 792h103q64 0 97.5 12.5t56.5 44.5q46 62 46 181q0 143 -50 201q-41 48 -144 48h-109v-487z" />
    <glyph glyph-name="S" unicode="S" horiz-adv-x="876" 
d="M50 432h207q0 -142 40 -205t129 -63t129.5 57t40.5 182q0 114 -45 164q-24 27 -50 40t-127 47q-145 50 -217 133q-84 98 -84 280q0 191 82 298q88 115 266 115q231 0 317 -186q39 -82 41 -241h-206q-4 95 -19 144q-30 99 -126 99q-139 0 -139 -219q0 -96 43 -148.5
t154 -92.5q105 -38 144.5 -57.5t76.5 -52.5q104 -94 104 -313q0 -193 -82 -304q-95 -129 -298 -129q-248 0 -338 188q-41 86 -43 264z" />
    <glyph glyph-name="T" unicode="T" horiz-adv-x="768" 
d="M271 0v1275h-256v187h738v-187h-257v-1275h-225z" />
    <glyph glyph-name="U" unicode="U" horiz-adv-x="1023" 
d="M122 1462h225v-1025q0 -137 23 -188q37 -85 135 -85q82 0 117 37q30 33 41.5 83t11.5 153v1025h225v-1025q0 -133 -14 -197q-56 -260 -375 -260q-168 0 -253 65q-79 60 -107.5 142t-28.5 250v1025z" />
    <glyph glyph-name="V" unicode="V" horiz-adv-x="925" 
d="M364 0l-355 1462h225l229 -1095l228 1095h225l-355 -1462h-197z" />
    <glyph glyph-name="W" unicode="W" horiz-adv-x="1400" 
d="M282 0l-244 1462h224l135 -1054l216 1054h173l217 -1054l135 1054h224l-245 -1462h-202l-215 1021l-215 -1021h-203z" />
    <glyph glyph-name="X" unicode="X" horiz-adv-x="890" 
d="M317 776l-294 686h244l208 -495l167 495h235l-298 -725l317 -737h-245l-229 546l-187 -546h-235z" />
    <glyph glyph-name="Y" unicode="Y" horiz-adv-x="828" 
d="M304 0v515l-338 947h237l214 -672l214 672h237l-339 -947v-515h-225z" />
    <glyph glyph-name="Z" unicode="Z" horiz-adv-x="794" 
d="M34 0v121l452 1154h-411v187h656v-121l-451 -1154h471v-187h-717z" />
    <glyph glyph-name="bracketleft" unicode="[" horiz-adv-x="671" 
d="M214 -201v1813h356v-159h-140v-1495h140v-159h-356z" />
    <glyph glyph-name="backslash" unicode="\" horiz-adv-x="591" 
d="M577 -43h-210l-354 1548h210z" />
    <glyph glyph-name="bracketright" unicode="]" horiz-adv-x="671" 
d="M456 1612v-1813h-354v159h139v1495h-139v159h354z" />
    <glyph glyph-name="asciicircum" unicode="^" 
d="M429 1210l-147 -436h-239l323 698h126l323 -698h-239z" />
    <glyph glyph-name="underscore" unicode="_" horiz-adv-x="694" 
d="M-36 -367v152h768v-152h-768z" />
    <glyph glyph-name="grave" unicode="`" horiz-adv-x="1024" 
d="M626 1189h-159l-202 304h237z" />
    <glyph glyph-name="a" unicode="a" horiz-adv-x="823" 
d="M513 626v47q0 125 -25 173t-92 48q-59 0 -85 -37t-26 -122h-199q3 153 49 222q78 115 266 115q172 0 249 -98t77 -317v-657h-167l-13 57q-36 -42 -81.5 -59.5t-120.5 -17.5q-153 0 -223 74q-68 73 -68 244q0 124 26 185q39 91 130 121q68 22 159 22h144zM513 472h-82
q-90 0 -126 -38q-37 -41 -37 -133q0 -83 27.5 -115t98.5 -32q67 0 93 36t26 131v151z" />
    <glyph glyph-name="b" unicode="b" horiz-adv-x="861" 
d="M102 0v1462h214v-460q74 70 178 70q144 0 210.5 -96t66.5 -305v-246q0 -216 -55 -317q-37 -68 -90 -98q-54 -30 -144 -30q-67 0 -109.5 19t-92.5 72l-13 -71h-165zM557 398v288q0 200 -113 200q-128 0 -128 -264v-193q0 -263 127 -263q59 0 86.5 55.5t27.5 176.5z" />
    <glyph glyph-name="c" unicode="c" horiz-adv-x="780" 
d="M534 331h199q-2 -159 -49 -232q-77 -119 -272 -119q-170 0 -246 99.5t-76 322.5v249q0 214 66 309q79 113 257 113q209 0 279 -150q32 -66 35 -205h-197q-1 176 -114 176q-61 0 -86.5 -51.5t-25.5 -175.5v-281q0 -117 20 -165q26 -62 94 -62q60 0 87.5 41t28.5 131z" />
    <glyph glyph-name="d" unicode="d" horiz-adv-x="861" 
d="M595 0l-14 71q-49 -52 -92 -71.5t-111 -19.5q-93 0 -151 35.5t-93 114.5q-44 98 -44 295v246q0 195 54 286q69 115 223 115q104 0 178 -70v460h214v-1462h-164zM304 686v-285q0 -123 27.5 -179t86.5 -56q127 0 127 263v193q0 264 -128 264q-113 0 -113 -200z" />
    <glyph glyph-name="e" unicode="e" horiz-adv-x="846" 
d="M304 475v-95q0 -123 28 -172t98 -49q64 0 93 40t30 127h199q-2 -152 -47 -224q-76 -122 -281 -122q-201 0 -280 143q-54 98 -54 303v195q0 230 67 330q82 121 270 121q205 0 284 -144q53 -98 53 -307v-146h-460zM304 636h254v49q0 119 -28.5 166t-101.5 47
q-70 0 -97 -46.5t-27 -166.5v-49z" />
    <glyph glyph-name="f" unicode="f" horiz-adv-x="530" 
d="M138 875h-97v176h97v108q0 102 13.5 157.5t47.5 91.5q29 31 74 42.5t136 11.5h96v-164h-48q-44 0 -61 -5t-28 -22q-16 -27 -16 -123v-97h158v-176h-158v-875h-214v875z" />
    <glyph glyph-name="g" unicode="g" horiz-adv-x="861" 
d="M545 35q-72 -55 -170 -55q-150 0 -217.5 104.5t-67.5 339.5v247q0 195 54 286q69 115 222 115q122 0 206 -97l22 76h165v-1087q0 -226 -69 -325q-83 -120 -272 -120q-196 0 -260 135q-29 60 -31 185h190q1 -81 24.5 -114.5t80.5 -33.5q69 0 96 52.5t27 189.5v102z
M304 686v-282q0 -125 27.5 -181.5t87.5 -56.5q126 0 126 263v193q0 264 -127 264q-114 0 -114 -200z" />
    <glyph glyph-name="h" unicode="h" horiz-adv-x="866" 
d="M102 0v1462h214v-452q69 62 178 62q89 0 153.5 -40.5t93.5 -113.5q29 -72 29 -242v-676h-214v648q0 105 -13 154q-23 84 -101 84q-71 0 -98.5 -57t-27.5 -203v-626h-214z" />
    <glyph glyph-name="i" unicode="i" horiz-adv-x="427" 
d="M106 1225v246h214v-246h-214zM106 0v1051h214v-1051h-214z" />
    <glyph glyph-name="j" unicode="j" horiz-adv-x="436" 
d="M115 1051h214v-1041q0 -189 -20 -264q-45 -168 -206 -204q-53 -12 -160 -13v180q59 0 89 14.5t52 54.5q31 57 31 209v1064zM115 1225v246h214v-246h-214z" />
    <glyph glyph-name="k" unicode="k" horiz-adv-x="825" 
d="M109 0v1462h214v-873l264 462h226l-275 -438l283 -613h-234l-180 452l-84 -146v-306h-214z" />
    <glyph glyph-name="l" unicode="l" horiz-adv-x="481" 
d="M105 1462h214v-1081q0 -118 28 -159.5t107 -41.5h22v-180h-32q-118 0 -190 23q-85 28 -117 109.5t-32 269.5v1060z" />
    <glyph glyph-name="m" unicode="m" horiz-adv-x="1287" 
d="M102 0v1051h160l16 -85q47 60 92.5 83t120.5 23q153 0 220 -112q42 61 90 86.5t120 25.5q86 0 149.5 -40.5t91.5 -113.5q29 -73 29 -242v-676h-214v647q0 102 -11 149q-22 90 -99 90q-62 0 -88 -56.5t-26 -193.5v-636h-214v647q0 136 -22.5 187.5t-82.5 51.5
q-66 0 -92 -58t-26 -202v-626h-214z" />
    <glyph glyph-name="n" unicode="n" horiz-adv-x="866" 
d="M102 0v1051h160l16 -85q48 60 94.5 83t121.5 23q88 0 153 -40.5t94 -113.5q29 -72 29 -242v-676h-214v647q0 105 -13 153q-23 86 -103 86q-69 0 -96.5 -57.5t-27.5 -202.5v-626h-214z" />
    <glyph glyph-name="o" unicode="o" horiz-adv-x="858" 
d="M90 399v253q0 214 68 307q82 113 271 113q181 0 260 -98t79 -322v-253q0 -214 -68 -307q-82 -112 -271 -112q-206 0 -285 134q-54 91 -54 285zM554 381v289q0 125 -27.5 174t-97.5 49t-97.5 -49t-27.5 -174v-289q0 -124 27.5 -173t97.5 -49t97.5 49t27.5 173z" />
    <glyph glyph-name="p" unicode="p" horiz-adv-x="861" 
d="M102 -461v1512h165l22 -76q83 97 206 97q166 0 232 -135q44 -89 44 -266v-247q0 -215 -55 -316q-37 -68 -90 -98q-54 -30 -140 -30q-104 0 -170 55v-496h-214zM557 398v288q0 200 -113 200q-128 0 -128 -264v-193q0 -263 127 -263q59 0 86.5 55.5t27.5 176.5z" />
    <glyph glyph-name="q" unicode="q" horiz-adv-x="861" 
d="M545 -461v496q-65 -55 -170 -55q-151 0 -218 105t-67 339v247q0 195 54 286q69 115 222 115q122 0 206 -97l22 76h165v-1512h-214zM304 686v-285q0 -123 27.5 -179t86.5 -56q127 0 127 263v193q0 264 -128 264q-113 0 -113 -200z" />
    <glyph glyph-name="r" unicode="r" horiz-adv-x="610" 
d="M102 0v1051h163l28 -86q32 58 71.5 82.5t99.5 24.5q80 0 162 -62l-95 -180q-56 56 -106 56q-59 0 -84 -86.5t-25 -289.5v-510h-214z" />
    <glyph glyph-name="s" unicode="s" horiz-adv-x="765" 
d="M41 331h199q2 -80 18 -111q33 -61 126 -61q136 0 136 141q0 74 -41 103q-23 17 -127 47q-160 48 -212 102q-71 74 -71 221q0 139 69 215q76 84 230 84q208 0 281 -140q32 -62 34 -189h-197q-1 150 -112 150q-106 0 -106 -125q0 -81 59 -117q25 -16 166 -56
q126 -35 176 -101.5t50 -196.5q0 -317 -341 -317q-232 0 -305 156q-30 64 -32 195z" />
    <glyph glyph-name="t" unicode="t" horiz-adv-x="544" 
d="M133 875h-96v176h96l12 309h202v-309h154v-176h-154v-535q0 -95 23 -127.5t90 -32.5h39v-180h-61q-101 0 -156.5 14.5t-88.5 48.5q-34 36 -47 100t-13 198v514z" />
    <glyph glyph-name="u" unicode="u" horiz-adv-x="846" 
d="M96 1051h214v-647q0 -105 12 -154q21 -84 94 -84q63 0 88.5 57.5t25.5 201.5v626h214v-1051h-160l-16 85q-35 -45 -57 -62q-56 -43 -148 -43q-179 0 -239 154q-28 71 -28 241v676z" />
    <glyph glyph-name="v" unicode="v" horiz-adv-x="773" 
d="M283 0l-260 1051h217l147 -749l147 749h217l-261 -1051h-207z" />
    <glyph glyph-name="w" unicode="w" horiz-adv-x="1170" 
d="M250 0l-214 1051h217l106 -709l150 709h152l149 -709l106 709h217l-214 -1051h-185l-149 680l-150 -680h-185z" />
    <glyph glyph-name="x" unicode="x" horiz-adv-x="725" 
d="M240 541l-237 510h234l140 -322l123 322h231l-253 -520l248 -531h-234l-149 340l-128 -340h-232z" />
    <glyph glyph-name="y" unicode="y" horiz-adv-x="774" 
d="M279 -4l-258 1055h216l151 -771l144 771h217l-269 -1175q-33 -143 -71 -212t-101 -98q-81 -37 -236 -37v180q102 0 133 35q35 40 55 151z" />
    <glyph glyph-name="z" unicode="z" horiz-adv-x="675" 
d="M30 0v124l345 748h-309v179h555v-124l-346 -748h368v-179h-613z" />
    <glyph glyph-name="braceleft" unicode="{" horiz-adv-x="671" 
d="M345 740q57 -30 71 -82.5t14 -230.5v-181q0 -181 22 -240.5t89 -59.5h36v-147h-86q-94 0 -146.5 18t-81.5 61q-31 44 -40.5 106.5t-9.5 221.5v228q0 156 -17 198.5t-79 42.5h-13v131h13q62 0 78 41q18 45 18 200v158q0 159 9.5 221.5t40.5 107.5q30 42 81.5 60t146.5 18
h86v-147h-36q-40 0 -60 -15t-31 -54q-20 -67 -20 -231v-111q0 -177 -13.5 -226t-71.5 -88z" />
    <glyph glyph-name="bar" unicode="|" 
d="M338 -201v1813h185v-1813h-185z" />
    <glyph glyph-name="braceright" unicode="}" horiz-adv-x="671" 
d="M325 740q-47 32 -63 66q-15 33 -18.5 74t-3.5 174v111q0 181 -22 240.5t-90 59.5h-36v147h86q96 0 147.5 -17.5t81.5 -60.5q31 -46 40.5 -108t9.5 -221v-158q0 -156 17 -198.5t78 -42.5h13v-131h-13q-62 0 -78 -41q-17 -46 -17 -200v-228q0 -159 -9.5 -221t-40.5 -107
q-29 -43 -81.5 -61t-147.5 -18h-86v147h36q41 0 60.5 14.5t31.5 54.5q20 66 20 231v181q0 131 3 171t17 72q18 45 65 70z" />
    <glyph glyph-name="asciitilde" unicode="~" 
d="M213 587l-125 30q53 272 216 272q43 0 64 -10t81 -61q63 -52 77.5 -60.5t36.5 -8.5q56 0 88 131l120 -38q-65 -256 -223 -256q-36 0 -61.5 15t-107.5 84q-48 41 -81 41q-53 0 -85 -139z" />
    <glyph glyph-name="uni00A0" unicode="&#xa0;" horiz-adv-x="328" 
 />
    <glyph glyph-name="exclamdown" unicode="&#xa1;" horiz-adv-x="512" 
d="M345 635l33 -1057h-242l33 1057h176zM365 1040v-238h-216v238h216z" />
    <glyph glyph-name="cent" unicode="&#xa2;" 
d="M353 75v225q-121 31 -174.5 125t-53.5 279v249q0 233 92 331q25 27 51.5 41t84.5 31v221h220v-225q108 -26 157 -105t51 -229h-198q0 179 -124 179q-67 0 -95 -51.5t-28 -177.5v-279q0 -119 22 -167q29 -63 102 -63q66 0 96.5 45t31.5 144h200q-1 -168 -55 -244
q-52 -74 -160 -100v-229h-220z" />
    <glyph glyph-name="sterling" unicode="&#xa3;" 
d="M74 0v161q85 32 131.5 113t46.5 197q0 61 -16 132h-165v187h102q-68 178 -68 314q0 376 347 376q218 0 302 -169q45 -90 47 -258h-207q-3 99 -19 150q-27 93 -114 93q-131 0 -131 -210q0 -63 15 -119t63 -177h255v-187h-211q11 -70 11 -114q0 -193 -91 -302h452v-187
h-750z" />
    <glyph glyph-name="currency" unicode="&#xa4;" 
d="M115 176l-107 101l125 148q-62 95 -62 254q0 147 62 254l-125 148l107 101l119 -144q90 60 197 60t196 -60l119 144l107 -101l-125 -148q63 -104 63 -254q0 -151 -63 -254l125 -148l-107 -101l-119 144q-90 -60 -197 -60q-103 0 -196 60zM434 942q-89 0 -137.5 -69
t-48.5 -195q0 -123 48.5 -192.5t134.5 -69.5t134.5 69.5t48.5 193.5q0 116 -43 185q-50 78 -137 78z" />
    <glyph glyph-name="yen" unicode="&#xa5;" 
d="M320 0v295h-223v135h223v102h-223v135h177l-289 795h237l211 -686l211 686h237l-290 -795h178v-135h-224v-102h224v-135h-224v-295h-225z" />
    <glyph glyph-name="brokenbar" unicode="&#xa6;" horiz-adv-x="740" 
d="M267 907v555h206v-555h-206zM267 0v531h206v-531h-206z" />
    <glyph glyph-name="section" unicode="&#xa7;" 
d="M226 891q-62 47 -87.5 107t-25.5 159q0 326 320 326q209 0 283 -140q31 -58 34 -183h-191q-2 148 -119 148q-111 0 -111 -138q0 -80 37 -120t153 -85q158 -62 211 -127q63 -78 63 -197q0 -81 -36 -145.5t-118 -132.5q71 -49 99.5 -105.5t28.5 -147.5q0 -337 -369 -337
q-242 0 -317 156q-30 62 -32 191h193q1 -93 35.5 -132t114.5 -39q160 0 160 145q0 74 -38.5 112t-157.5 82q-162 60 -219 127q-65 78 -65 199q0 82 32 139.5t122 137.5zM348 821q-6 -7 -10 -10q-36 -37 -49 -66.5t-13 -76.5q0 -74 32.5 -112.5t132.5 -86.5l75 -36
q9 11 33 38q41 49 41 121q0 69 -32.5 107t-133.5 86z" />
    <glyph glyph-name="dieresis" unicode="&#xa8;" horiz-adv-x="1024" 
d="M260 1200v238h191v-238h-191zM572 1200v238h191v-238h-191z" />
    <glyph glyph-name="copyright" unicode="&#xa9;" horiz-adv-x="1582" 
d="M883 586h152q-1 -62 -10 -93t-34 -57q-64 -67 -198 -67q-132 0 -189 72.5t-57 239.5v100q0 161 52 232q59 80 192 80q145 0 202 -84q28 -41 31 -132h-150q-11 90 -76 90q-47 0 -65.5 -37.5t-18.5 -132.5v-131q0 -95 19 -133t66 -38q39 0 58 21t26 70zM800 1495
q302 0 507 -218q203 -216 203 -546q0 -329 -203 -546q-203 -218 -516 -218q-314 0 -518 218q-202 217 -202 544q0 333 202 548q205 218 527 218zM797 1349q-255 0 -412 -187q-144 -171 -144 -433q0 -257 144 -429q157 -187 406 -187q248 0 404 187q145 172 145 431
q0 263 -145 431q-161 187 -398 187z" />
    <glyph glyph-name="ordfeminine" unicode="&#xaa;" horiz-adv-x="534" 
d="M312 1192v48q0 69 -13.5 93.5t-49.5 24.5q-31 0 -44 -14t-19 -55h-129q6 98 54.5 142t149.5 44q148 0 192 -86q23 -46 23 -170v-421h-130l-5 37q-48 -50 -130 -50q-96 0 -138 46.5t-42 152.5q0 128 69 174q51 34 156 34h56zM322 1091h-61q-77 0 -77 -95q0 -51 15 -72.5
t50 -21.5q73 0 73 90v99z" />
    <glyph glyph-name="guillemotleft" unicode="&#xab;" horiz-adv-x="751" 
d="M595 604l123 -258l-133 -90l-218 348l218 348l133 -90zM258 604l123 -258l-133 -90l-218 348l218 348l133 -90z" />
    <glyph glyph-name="logicalnot" unicode="&#xac;" 
d="M96 652v170h635v-553h-206v383h-429z" />
    <glyph glyph-name="uni00AD" unicode="&#xad;" horiz-adv-x="670" 
d="M103 642v187h463v-187h-463z" />
    <glyph glyph-name="registered" unicode="&#xae;" horiz-adv-x="1246" 
d="M576 1122v-220h-141v567h213q100 0 143.5 -39.5t43.5 -130.5q0 -130 -78 -162l100 -235h-149l-81 220h-51zM572 1205h58q36 0 50.5 19t14.5 65q0 81 -62 81h-61v-165zM630 1781q233 0 398 -160q174 -169 174 -435q0 -265 -174 -435q-164 -160 -405 -160t-405 160
q-174 170 -174 434q0 271 174 436q167 160 412 160zM629 1647q-202 0 -312 -127q-119 -137 -119 -335q0 -196 119 -333q110 -127 306 -127t306 127q119 137 119 334q0 199 -119 334q-112 127 -300 127z" />
    <glyph glyph-name="macron" unicode="&#xaf;" horiz-adv-x="1024" 
d="M274 1248v157h476v-157h-476z" />
    <glyph glyph-name="degree" unicode="&#xb0;" horiz-adv-x="659" 
d="M334 1531q138 0 215 -69q41 -36 65 -97.5t24 -130.5t-24 -130.5t-65 -98.5q-77 -68 -219 -68q-143 0 -220 68q-41 37 -65 98.5t-24 129.5q0 70 24 132.5t65 96.5q80 69 224 69zM331 1397q-131 0 -131 -164q0 -162 129 -162q130 0 130 163t-128 163z" />
    <glyph glyph-name="plusminus" unicode="&#xb1;" 
d="M74 652v170h264v317h184v-317h264v-170h-264v-319h-184v319h-264zM74 52v170h712v-170h-712z" />
    <glyph glyph-name="uni00B2" unicode="&#xb2;" horiz-adv-x="605" 
d="M44 790v118l203 286q103 146 103 246q0 101 -64 101q-38 0 -54.5 -31.5t-18.5 -109.5h-158q2 118 31 174q53 104 209 104q235 0 235 -231q0 -95 -26.5 -154.5t-133.5 -208.5l-108 -154h264v-140h-482z" />
    <glyph glyph-name="uni00B3" unicode="&#xb3;" horiz-adv-x="605" 
d="M179 1189v124h75q100 0 100 118q0 110 -75 110q-38 0 -54 -25.5t-18 -90.5h-157q2 110 32 158q57 95 206 95q234 0 234 -235q0 -130 -70 -190q48 -34 67.5 -82.5t19.5 -131.5q0 -123 -49 -186q-59 -74 -198 -74q-181 0 -229 126q-18 46 -19 141h157q1 -72 20 -101t64 -29
q86 0 86 122q0 151 -106 151h-86z" />
    <glyph glyph-name="acute" unicode="&#xb4;" horiz-adv-x="1024" 
d="M399 1189l124 304h237l-202 -304h-159z" />
    <glyph glyph-name="uni00B5" unicode="&#xb5;" 
d="M114 1040h206v-616q0 -121 13 -174q22 -91 95 -91q61 0 87.5 67t26.5 220v594h206v-1040h-138l-27 109q-21 -53 -39 -76q-43 -55 -122 -55q-61 0 -102 44v-483h-206v1501z" />
    <glyph glyph-name="paragraph" unicode="&#xb6;" horiz-adv-x="1074" 
d="M340 -279v960h-30q-105 0 -166 46q-63 47 -99 139t-36 207q0 124 38.5 216.5t107.5 133.5q44 27 83.5 33t161.5 6h494v-1741h-202v1564h-150v-1564h-202z" />
    <glyph glyph-name="periodcentered" unicode="&#xb7;" horiz-adv-x="436" 
d="M106 616v237h225v-237h-225z" />
    <glyph glyph-name="cedilla" unicode="&#xb8;" horiz-adv-x="1024" 
d="M381 -471l72 335h204l-132 -335h-144z" />
    <glyph glyph-name="uni00B9" unicode="&#xb9;" horiz-adv-x="605" 
d="M248 791v702l-103 -51l-53 108l212 117h118v-876h-174z" />
    <glyph glyph-name="ordmasculine" unicode="&#xba;" horiz-adv-x="541" 
d="M39 1042v176q0 127 45 184q56 73 186 73q142 0 195 -85q36 -57 36 -172v-176q0 -126 -45 -184q-55 -72 -186 -72q-141 0 -195 84q-36 56 -36 172zM339 1029v202q0 117 -68 117q-69 0 -69 -117v-202q0 -116 69 -116q68 0 68 116z" />
    <glyph glyph-name="guillemotright" unicode="&#xbb;" horiz-adv-x="751" 
d="M155 604l-123 258l133 90l218 -348l-218 -348l-133 90zM492 604l-123 258l133 90l218 -348l-218 -348l-133 90z" />
    <glyph glyph-name="onequarter" unicode="&#xbc;" horiz-adv-x="1489" 
d="M257 586v691l-111 -52l-62 133l228 104h119v-876h-174zM432 0l335 1462h198l-335 -1462h-198zM1145 0v153h-303v102l215 622h172l-202 -588h118v202h145v-202h62v-137h-62v-152h-145z" />
    <glyph glyph-name="onehalf" unicode="&#xbd;" horiz-adv-x="1489" 
d="M230 586v691l-111 -52l-62 133l228 104h119v-876h-174zM860 0v118l202 286q103 145 103 246t-64 101q-38 0 -54 -31.5t-18 -109.5h-158q1 117 30 174q53 104 209 104q235 0 235 -231q0 -95 -26.5 -154t-133.5 -209l-108 -154h265v-140h-482zM394 0l334 1462h198
l-335 -1462h-197z" />
    <glyph glyph-name="threequarters" unicode="&#xbe;" horiz-adv-x="1489" 
d="M199 984v124h75q100 0 100 118q0 110 -75 110q-38 0 -54 -25.5t-18 -90.5h-157q2 110 32 158q57 95 206 95q234 0 234 -235q0 -131 -70 -190q48 -34 67.5 -82.5t19.5 -131.5q0 -123 -49 -186q-59 -74 -198 -74q-181 0 -229 126q-18 46 -19 141h157q1 -72 20 -101t64 -29
q86 0 86 122q0 151 -106 151h-86zM1194 0v153h-302v102l215 622h172l-202 -588h117v202h145v-202h63v-137h-63v-152h-145zM496 0l335 1462h197l-334 -1462h-198z" />
    <glyph glyph-name="questiondown" unicode="&#xbf;" horiz-adv-x="852" 
d="M541 640v-75q0 -124 -23.5 -189t-109.5 -180q-59 -80 -78 -129.5t-19 -125.5q0 -198 127 -198q70 0 99 52.5t36 190.5h206q-2 -154 -42 -247q-79 -180 -308 -180q-175 0 -259 91t-84 281q0 130 35 211t151 221q55 66 75 114t20 111v52h174zM560 1040v-238h-216v238h216z
" />
    <glyph glyph-name="Agrave" unicode="&#xc0;" horiz-adv-x="922" 
d="M646 303h-364l-66 -303h-243l396 1462h189l396 -1462h-243zM607 484l-143 666l-143 -666h286zM553 1605h-159l-202 304h237z" />
    <glyph glyph-name="Aacute" unicode="&#xc1;" horiz-adv-x="922" 
d="M646 303h-364l-66 -303h-243l396 1462h189l396 -1462h-243zM607 484l-143 666l-143 -666h286zM367 1605l124 304h237l-202 -304h-159z" />
    <glyph glyph-name="Acircumflex" unicode="&#xc2;" horiz-adv-x="922" 
d="M646 303h-364l-66 -303h-243l396 1462h189l396 -1462h-243zM607 484l-143 666l-143 -666h286zM461 1774l-81 -162h-199l203 291h155l203 -291h-199z" />
    <glyph glyph-name="Atilde" unicode="&#xc3;" horiz-adv-x="922" 
d="M646 303h-364l-66 -303h-243l396 1462h189l396 -1462h-243zM607 484l-143 666l-143 -666h286zM316 1626h-128q32 266 180 266q38 0 64.5 -14t55.5 -49q52 -64 70 -64q40 0 50 112h127q-7 -104 -27 -158q-40 -107 -146 -107q-44 0 -72 15t-56 52q-43 59 -62 59
q-46 0 -56 -112z" />
    <glyph glyph-name="Adieresis" unicode="&#xc4;" horiz-adv-x="922" 
d="M646 303h-364l-66 -303h-243l396 1462h189l396 -1462h-243zM607 484l-143 666l-143 -666h286zM207 1617v236h191v-236h-191zM526 1617v236h191v-236h-191z" />
    <glyph glyph-name="Aring" unicode="&#xc5;" horiz-adv-x="922" 
d="M646 303h-364l-66 -303h-243l396 1462h189l396 -1462h-243zM607 484l-143 666l-143 -666h286zM465 2027q94 0 152 -57q63 -63 63 -161t-61 -160t-157 -62q-97 0 -155 60q-64 66 -64 162q0 100 60 159t162 59zM462 1922q-86 0 -86 -116q0 -114 85 -114q86 0 86 114
q0 116 -85 116z" />
    <glyph glyph-name="AE" unicode="&#xc6;" horiz-adv-x="1422" 
d="M690 326h-395l-126 -326h-260l634 1462h809v-187h-442v-443h374v-187h-374v-458h450v-187h-670v326zM690 509v766h-26l-298 -766h324z" />
    <glyph glyph-name="Ccedilla" unicode="&#xc7;" horiz-adv-x="932" 
d="M657 432h206q-2 -185 -56 -280q-97 -172 -328 -172q-216 0 -310 146q-67 102 -67 343v521q0 263 82 367q97 123 295 123q237 0 328 -186q40 -81 43 -241h-207q-6 101 -22 147q-34 96 -138 96q-88 0 -122 -70t-34 -250v-493q0 -161 26 -229q35 -90 134 -90q89 0 128.5 62
t41.5 206zM328 -471l72 335h204l-132 -335h-144z" />
    <glyph glyph-name="Egrave" unicode="&#xc8;" horiz-adv-x="861" 
d="M128 0v1462h664v-187h-439v-443h372v-187h-372v-458h447v-187h-672zM582 1605h-159l-202 304h237z" />
    <glyph glyph-name="Eacute" unicode="&#xc9;" horiz-adv-x="861" 
d="M128 0v1462h664v-187h-439v-443h372v-187h-372v-458h447v-187h-672zM350 1605l124 304h237l-202 -304h-159z" />
    <glyph glyph-name="Ecircumflex" unicode="&#xca;" horiz-adv-x="861" 
d="M128 0v1462h664v-187h-439v-443h372v-187h-372v-458h447v-187h-672zM449 1774l-81 -162h-199l203 291h155l203 -291h-199z" />
    <glyph glyph-name="Edieresis" unicode="&#xcb;" horiz-adv-x="861" 
d="M128 0v1462h664v-187h-439v-443h372v-187h-372v-458h447v-187h-672zM204 1617v236h191v-236h-191zM523 1617v236h191v-236h-191z" />
    <glyph glyph-name="Igrave" unicode="&#xcc;" horiz-adv-x="478" 
d="M126 0v1462h225v-1462h-225zM330 1605h-159l-202 304h237z" />
    <glyph glyph-name="Iacute" unicode="&#xcd;" horiz-adv-x="478" 
d="M121 0v1462h225v-1462h-225zM139 1605l124 304h237l-202 -304h-159z" />
    <glyph glyph-name="Icircumflex" unicode="&#xce;" horiz-adv-x="478" 
d="M126 0v1462h225v-1462h-225zM238 1774l-81 -162h-199l203 291h155l203 -291h-199z" />
    <glyph glyph-name="Idieresis" unicode="&#xcf;" horiz-adv-x="478" 
d="M126 0v1462h225v-1462h-225zM-16 1617v236h191v-236h-191zM303 1617v236h191v-236h-191z" />
    <glyph glyph-name="Eth" unicode="&#xd0;" horiz-adv-x="1001" 
d="M126 830v632h342q124 0 197.5 -20t125.5 -69q58 -55 83 -134t25 -212v-592q0 -133 -25 -212t-83 -134q-52 -49 -125.5 -69t-197.5 -20h-342v649h-109v181h109zM351 830h164v-181h-164v-466h126q114 0 154 57q44 63 44 234v514q0 170 -41 230.5t-157 60.5h-126v-449z" />
    <glyph glyph-name="Ntilde" unicode="&#xd1;" horiz-adv-x="1065" 
d="M126 0v1462h224l377 -1000v1000h211v-1462h-213l-388 1011v-1011h-211zM393 1626h-128q32 266 180 266q38 0 64.5 -14t55.5 -49q52 -64 70 -64q40 0 50 112h127q-7 -104 -27 -158q-40 -107 -146 -107q-44 0 -72 15t-56 52q-43 59 -62 59q-46 0 -56 -112z" />
    <glyph glyph-name="Ograve" unicode="&#xd2;" horiz-adv-x="1003" 
d="M102 446v570q0 229 77 335q95 132 322 132q151 0 238 -53q85 -53 123 -150t38 -264v-570q0 -228 -77 -334q-95 -132 -322 -132q-152 0 -238 53q-85 53 -123 149.5t-38 263.5zM675 467v529q0 169 -38.5 236t-135.5 67q-109 0 -149 -94q-25 -60 -25 -209v-529
q0 -169 38.5 -236t135.5 -67q109 0 149 93q25 61 25 210zM616 1605h-159l-202 304h237z" />
    <glyph glyph-name="Oacute" unicode="&#xd3;" horiz-adv-x="1003" 
d="M102 446v570q0 229 77 335q95 132 322 132q151 0 238 -53q85 -53 123 -150t38 -264v-570q0 -228 -77 -334q-95 -132 -322 -132q-152 0 -238 53q-85 53 -123 149.5t-38 263.5zM675 467v529q0 169 -38.5 236t-135.5 67q-109 0 -149 -94q-25 -60 -25 -209v-529
q0 -169 38.5 -236t135.5 -67q109 0 149 93q25 61 25 210zM388 1605l124 304h237l-202 -304h-159z" />
    <glyph glyph-name="Ocircumflex" unicode="&#xd4;" horiz-adv-x="1003" 
d="M102 446v570q0 229 77 335q95 132 322 132q151 0 238 -53q85 -53 123 -150t38 -264v-570q0 -228 -77 -334q-95 -132 -322 -132q-152 0 -238 53q-85 53 -123 149.5t-38 263.5zM675 467v529q0 169 -38.5 236t-135.5 67q-109 0 -149 -94q-25 -60 -25 -209v-529
q0 -169 38.5 -236t135.5 -67q109 0 149 93q25 61 25 210zM501 1774l-81 -162h-199l203 291h155l203 -291h-199z" />
    <glyph glyph-name="Otilde" unicode="&#xd5;" horiz-adv-x="1003" 
d="M102 446v570q0 229 77 335q95 132 322 132q151 0 238 -53q85 -53 123 -150t38 -264v-570q0 -228 -77 -334q-95 -132 -322 -132q-152 0 -238 53q-85 53 -123 149.5t-38 263.5zM675 467v529q0 169 -38.5 236t-135.5 67q-109 0 -149 -94q-25 -60 -25 -209v-529
q0 -169 38.5 -236t135.5 -67q109 0 149 93q25 61 25 210zM355 1626h-128q32 266 180 266q38 0 64.5 -14t55.5 -49q52 -64 70 -64q40 0 50 112h127q-7 -104 -27 -158q-40 -107 -146 -107q-44 0 -72 15t-56 52q-43 59 -62 59q-46 0 -56 -112z" />
    <glyph glyph-name="Odieresis" unicode="&#xd6;" horiz-adv-x="1003" 
d="M102 446v570q0 229 77 335q95 132 322 132q151 0 238 -53q85 -53 123 -150t38 -264v-570q0 -228 -77 -334q-95 -132 -322 -132q-152 0 -238 53q-85 53 -123 149.5t-38 263.5zM675 467v529q0 169 -38.5 236t-135.5 67q-109 0 -149 -94q-25 -60 -25 -209v-529
q0 -169 38.5 -236t135.5 -67q109 0 149 93q25 61 25 210zM246 1617v236h191v-236h-191zM565 1617v236h191v-236h-191z" />
    <glyph glyph-name="multiply" unicode="&#xd7;" 
d="M310 736l-258 258l120 120l258 -257l257 257l120 -120l-257 -258l257 -257l-120 -121l-257 258l-258 -258l-120 121z" />
    <glyph glyph-name="Oslash" unicode="&#xd8;" horiz-adv-x="1003" 
d="M864 1275q37 -95 37 -259v-570q0 -228 -77 -334q-96 -132 -323 -132q-147 0 -237 53l-35 -72l-161 76l72 148q-37 97 -37 261v570q0 229 77 335q95 132 322 132q150 0 239 -54l33 69l161 -75zM677 888l-315 -651q42 -73 139 -73q111 0 150 93q26 61 26 210v421zM327 572
l315 652q-44 75 -141 75q-109 0 -149 -94q-25 -60 -25 -209v-424z" />
    <glyph glyph-name="Ugrave" unicode="&#xd9;" horiz-adv-x="1023" 
d="M122 1462h225v-1025q0 -137 23 -188q37 -85 135 -85q82 0 117 37q30 33 41.5 83t11.5 153v1025h225v-1025q0 -133 -14 -197q-56 -260 -375 -260q-168 0 -253 65q-79 60 -107.5 142t-28.5 250v1025zM626 1605h-159l-202 304h237z" />
    <glyph glyph-name="Uacute" unicode="&#xda;" horiz-adv-x="1023" 
d="M122 1462h225v-1025q0 -137 23 -188q37 -85 135 -85q82 0 117 37q30 33 41.5 83t11.5 153v1025h225v-1025q0 -133 -14 -197q-56 -260 -375 -260q-168 0 -253 65q-79 60 -107.5 142t-28.5 250v1025zM398 1605l124 304h237l-202 -304h-159z" />
    <glyph glyph-name="Ucircumflex" unicode="&#xdb;" horiz-adv-x="1023" 
d="M122 1462h225v-1025q0 -137 23 -188q37 -85 135 -85q82 0 117 37q30 33 41.5 83t11.5 153v1025h225v-1025q0 -133 -14 -197q-56 -260 -375 -260q-168 0 -253 65q-79 60 -107.5 142t-28.5 250v1025zM511 1774l-81 -162h-199l203 291h155l203 -291h-199z" />
    <glyph glyph-name="Udieresis" unicode="&#xdc;" horiz-adv-x="1023" 
d="M122 1462h225v-1025q0 -137 23 -188q37 -85 135 -85q82 0 117 37q30 33 41.5 83t11.5 153v1025h225v-1025q0 -133 -14 -197q-56 -260 -375 -260q-168 0 -253 65q-79 60 -107.5 142t-28.5 250v1025zM256 1617v236h191v-236h-191zM575 1617v236h191v-236h-191z" />
    <glyph glyph-name="Yacute" unicode="&#xdd;" horiz-adv-x="828" 
d="M304 0v515l-338 947h237l214 -672l214 672h237l-339 -947v-515h-225zM321 1605l124 304h237l-202 -304h-159z" />
    <glyph glyph-name="Thorn" unicode="&#xde;" horiz-adv-x="906" 
d="M353 315v-315h-226v1462h226v-230h98q142 0 216 -34q193 -88 193 -423q0 -246 -101 -359q-48 -54 -119 -77.5t-188 -23.5h-99zM347 499h103q59 0 92 15.5t55 52.5q38 66 38 213q0 143 -46 213q-21 31 -51.5 43.5t-85.5 12.5h-105v-550z" />
    <glyph glyph-name="germandbls" unicode="&#xdf;" horiz-adv-x="864" 
d="M101 0v1120q0 186 65 264q79 95 248 95q152 0 233 -82t81 -235q0 -160 -66 -256q124 -90 122 -386v-71q0 -288 -92 -376q-76 -73 -226 -73h-62v175h36q82 0 106 48t24 213v95q0 160 -24.5 210t-104.5 50h-22v160h25q27 0 41.5 12t26.5 45q17 43 17 126q0 90 -27.5 131.5
t-86.5 41.5q-55 0 -77.5 -41t-22.5 -143v-1123h-214z" />
    <glyph glyph-name="agrave" unicode="&#xe0;" horiz-adv-x="823" 
d="M513 626v47q0 125 -25 173t-92 48q-59 0 -85 -37t-26 -122h-199q3 153 49 222q78 115 266 115q172 0 249 -98t77 -317v-657h-167l-13 57q-36 -42 -81.5 -59.5t-120.5 -17.5q-153 0 -223 74q-68 73 -68 244q0 124 26 185q39 91 130 121q68 22 159 22h144zM513 472h-82
q-90 0 -126 -38q-37 -41 -37 -133q0 -83 27.5 -115t98.5 -32q67 0 93 36t26 131v151zM538 1189h-159l-202 304h237z" />
    <glyph glyph-name="aacute" unicode="&#xe1;" horiz-adv-x="823" 
d="M513 626v47q0 125 -25 173t-92 48q-59 0 -85 -37t-26 -122h-199q3 153 49 222q78 115 266 115q172 0 249 -98t77 -317v-657h-167l-13 57q-36 -42 -81.5 -59.5t-120.5 -17.5q-153 0 -223 74q-68 73 -68 244q0 124 26 185q39 91 130 121q68 22 159 22h144zM513 472h-82
q-90 0 -126 -38q-37 -41 -37 -133q0 -83 27.5 -115t98.5 -32q67 0 93 36t26 131v151zM310 1189l124 304h237l-202 -304h-159z" />
    <glyph glyph-name="acircumflex" unicode="&#xe2;" horiz-adv-x="823" 
d="M513 626v47q0 125 -25 173t-92 48q-59 0 -85 -37t-26 -122h-199q3 153 49 222q78 115 266 115q172 0 249 -98t77 -317v-657h-167l-13 57q-36 -42 -81.5 -59.5t-120.5 -17.5q-153 0 -223 74q-68 73 -68 244q0 124 26 185q39 91 130 121q68 22 159 22h144zM513 472h-82
q-90 0 -126 -38q-37 -41 -37 -133q0 -83 27.5 -115t98.5 -32q67 0 93 36t26 131v151zM423 1358l-81 -162h-199l203 291h155l203 -291h-199z" />
    <glyph glyph-name="atilde" unicode="&#xe3;" horiz-adv-x="823" 
d="M513 626v47q0 125 -25 173t-92 48q-59 0 -85 -37t-26 -122h-199q3 153 49 222q78 115 266 115q172 0 249 -98t77 -317v-657h-167l-13 57q-36 -42 -81.5 -59.5t-120.5 -17.5q-153 0 -223 74q-68 73 -68 244q0 124 26 185q39 91 130 121q68 22 159 22h144zM513 472h-82
q-90 0 -126 -38q-37 -41 -37 -133q0 -83 27.5 -115t98.5 -32q67 0 93 36t26 131v151zM278 1210h-128q32 266 180 266q39 0 65 -13.5t55 -49.5q52 -64 70 -64q40 0 50 112h127q-7 -103 -27 -158q-40 -108 -146 -108q-43 0 -71.5 15t-56.5 53q-43 59 -62 59q-46 0 -56 -112z
" />
    <glyph glyph-name="adieresis" unicode="&#xe4;" horiz-adv-x="823" 
d="M513 626v47q0 125 -25 173t-92 48q-59 0 -85 -37t-26 -122h-199q3 153 49 222q78 115 266 115q172 0 249 -98t77 -317v-657h-167l-13 57q-36 -42 -81.5 -59.5t-120.5 -17.5q-153 0 -223 74q-68 73 -68 244q0 124 26 185q39 91 130 121q68 22 159 22h144zM513 472h-82
q-90 0 -126 -38q-37 -41 -37 -133q0 -83 27.5 -115t98.5 -32q67 0 93 36t26 131v151zM172 1200v238h191v-238h-191zM484 1200v238h191v-238h-191z" />
    <glyph glyph-name="aring" unicode="&#xe5;" horiz-adv-x="823" 
d="M513 626v47q0 125 -25 173t-92 48q-59 0 -85 -37t-26 -122h-199q3 153 49 222q78 115 266 115q172 0 249 -98t77 -317v-657h-167l-13 57q-36 -42 -81.5 -59.5t-120.5 -17.5q-153 0 -223 74q-68 73 -68 244q0 124 26 185q39 91 130 121q68 22 159 22h144zM513 472h-82
q-90 0 -126 -38q-37 -41 -37 -133q0 -83 27.5 -115t98.5 -32q67 0 93 36t26 131v151zM427 1611q94 0 152 -57q63 -63 63 -161t-61 -160t-157 -62q-97 0 -155 60q-64 66 -64 162q0 100 60 159t162 59zM424 1506q-86 0 -86 -116q0 -114 85 -114q86 0 86 114q0 116 -85 116z
" />
    <glyph glyph-name="ae" unicode="&#xe6;" horiz-adv-x="1270" 
d="M624 970q86 102 245 102q170 0 245 -105.5t75 -344.5v-147h-462v-95q0 -123 28 -172t99 -49q64 0 93.5 39.5t30.5 127.5h200q-3 -151 -46 -224q-72 -122 -268 -122q-165 0 -246 107q-92 -107 -274 -107q-152 0 -222 74q-68 73 -68 245q0 123 26 185q40 93 130 122
q68 22 159 22h144v45q0 125 -25 173t-91 48q-60 0 -86 -37t-26 -122h-199q3 154 47 222q76 115 257 115q82 0 136.5 -23.5t97.5 -78.5zM513 474h-82q-89 0 -126 -39q-37 -40 -37 -133q0 -83 27 -115.5t97 -32.5q45 0 69 13t38 46q14 35 14 108v153zM727 631h256v57
q0 118 -28.5 164.5t-102.5 46.5q-71 0 -98 -46t-27 -165v-57z" />
    <glyph glyph-name="ccedilla" unicode="&#xe7;" horiz-adv-x="780" 
d="M534 331h199q-2 -159 -49 -232q-77 -119 -272 -119q-170 0 -246 99.5t-76 322.5v249q0 214 66 309q79 113 257 113q209 0 279 -150q32 -66 35 -205h-197q-1 176 -114 176q-61 0 -86.5 -51.5t-25.5 -175.5v-281q0 -117 20 -165q26 -62 94 -62q60 0 87.5 41t28.5 131z
M244 -471l72 335h204l-132 -335h-144z" />
    <glyph glyph-name="egrave" unicode="&#xe8;" horiz-adv-x="846" 
d="M304 475v-95q0 -123 28 -172t98 -49q64 0 93 40t30 127h199q-2 -152 -47 -224q-76 -122 -281 -122q-201 0 -280 143q-54 98 -54 303v195q0 230 67 330q82 121 270 121q205 0 284 -144q53 -98 53 -307v-146h-460zM304 636h254v49q0 119 -28.5 166t-101.5 47
q-70 0 -97 -46.5t-27 -166.5v-49zM551 1189h-159l-202 304h237z" />
    <glyph glyph-name="eacute" unicode="&#xe9;" horiz-adv-x="846" 
d="M304 475v-95q0 -123 28 -172t98 -49q64 0 93 40t30 127h199q-2 -152 -47 -224q-76 -122 -281 -122q-201 0 -280 143q-54 98 -54 303v195q0 230 67 330q82 121 270 121q205 0 284 -144q53 -98 53 -307v-146h-460zM304 636h254v49q0 119 -28.5 166t-101.5 47
q-70 0 -97 -46.5t-27 -166.5v-49zM323 1189l124 304h237l-202 -304h-159z" />
    <glyph glyph-name="ecircumflex" unicode="&#xea;" horiz-adv-x="846" 
d="M304 475v-95q0 -123 28 -172t98 -49q64 0 93 40t30 127h199q-2 -152 -47 -224q-76 -122 -281 -122q-201 0 -280 143q-54 98 -54 303v195q0 230 67 330q82 121 270 121q205 0 284 -144q53 -98 53 -307v-146h-460zM304 636h254v49q0 119 -28.5 166t-101.5 47
q-70 0 -97 -46.5t-27 -166.5v-49zM435 1358l-81 -162h-199l203 291h155l203 -291h-199z" />
    <glyph glyph-name="edieresis" unicode="&#xeb;" horiz-adv-x="846" 
d="M304 475v-95q0 -123 28 -172t98 -49q64 0 93 40t30 127h199q-2 -152 -47 -224q-76 -122 -281 -122q-201 0 -280 143q-54 98 -54 303v195q0 230 67 330q82 121 270 121q205 0 284 -144q53 -98 53 -307v-146h-460zM304 636h254v49q0 119 -28.5 166t-101.5 47
q-70 0 -97 -46.5t-27 -166.5v-49zM184 1200v238h191v-238h-191zM496 1200v238h191v-238h-191z" />
    <glyph glyph-name="igrave" unicode="&#xec;" horiz-adv-x="427" 
d="M107 0v1051h214v-1051h-214zM328 1189h-159l-202 304h237z" />
    <glyph glyph-name="iacute" unicode="&#xed;" horiz-adv-x="427" 
d="M106 0v1051h214v-1051h-214zM100 1189l124 304h237l-202 -304h-159z" />
    <glyph glyph-name="icircumflex" unicode="&#xee;" horiz-adv-x="427" 
d="M107 0v1051h214v-1051h-214zM213 1358l-81 -162h-199l203 291h155l203 -291h-199z" />
    <glyph glyph-name="idieresis" unicode="&#xef;" horiz-adv-x="427" 
d="M107 0v1051h214v-1051h-214zM-38 1200v238h191v-238h-191zM274 1200v238h191v-238h-191z" />
    <glyph glyph-name="eth" unicode="&#xf0;" horiz-adv-x="858" 
d="M499 1014q-30 114 -76 178l-149 -95l-72 101l127 80q-10 7 -35 26q-39 29 -91 42l27 147q147 -20 260 -106l126 81l72 -101l-99 -62q174 -216 179 -667v-260q0 -199 -65 -287q-82 -111 -273 -111q-108 0 -177.5 31.5t-110.5 98.5q-52 85 -52 268v272q0 202 65 292
q75 106 223 106q79 0 121 -34zM554 390v248q0 126 -28.5 179t-96.5 53t-96.5 -53t-28.5 -179v-248q0 -126 28.5 -178.5t96.5 -52.5t96.5 52.5t28.5 178.5z" />
    <glyph glyph-name="ntilde" unicode="&#xf1;" horiz-adv-x="866" 
d="M102 0v1051h160l16 -85q48 60 94.5 83t121.5 23q88 0 153 -40.5t94 -113.5q29 -72 29 -242v-676h-214v647q0 105 -13 153q-23 86 -103 86q-69 0 -96.5 -57.5t-27.5 -202.5v-626h-214zM288 1210h-128q32 266 180 266q39 0 65 -13.5t55 -49.5q52 -64 70 -64q40 0 50 112
h127q-7 -103 -27 -158q-40 -108 -146 -108q-43 0 -71.5 15t-56.5 53q-43 59 -62 59q-46 0 -56 -112z" />
    <glyph glyph-name="ograve" unicode="&#xf2;" horiz-adv-x="858" 
d="M90 399v253q0 214 68 307q82 113 271 113q181 0 260 -98t79 -322v-253q0 -214 -68 -307q-82 -112 -271 -112q-206 0 -285 134q-54 91 -54 285zM554 381v289q0 125 -27.5 174t-97.5 49t-97.5 -49t-27.5 -174v-289q0 -124 27.5 -173t97.5 -49t97.5 49t27.5 173zM543 1189
h-159l-202 304h237z" />
    <glyph glyph-name="oacute" unicode="&#xf3;" horiz-adv-x="858" 
d="M90 399v253q0 214 68 307q82 113 271 113q181 0 260 -98t79 -322v-253q0 -214 -68 -307q-82 -112 -271 -112q-206 0 -285 134q-54 91 -54 285zM554 381v289q0 125 -27.5 174t-97.5 49t-97.5 -49t-27.5 -174v-289q0 -124 27.5 -173t97.5 -49t97.5 49t27.5 173zM315 1189
l124 304h237l-202 -304h-159z" />
    <glyph glyph-name="ocircumflex" unicode="&#xf4;" horiz-adv-x="858" 
d="M90 399v253q0 214 68 307q82 113 271 113q181 0 260 -98t79 -322v-253q0 -214 -68 -307q-82 -112 -271 -112q-206 0 -285 134q-54 91 -54 285zM554 381v289q0 125 -27.5 174t-97.5 49t-97.5 -49t-27.5 -174v-289q0 -124 27.5 -173t97.5 -49t97.5 49t27.5 173zM428 1358
l-81 -162h-199l203 291h155l203 -291h-199z" />
    <glyph glyph-name="otilde" unicode="&#xf5;" horiz-adv-x="858" 
d="M90 399v253q0 214 68 307q82 113 271 113q181 0 260 -98t79 -322v-253q0 -214 -68 -307q-82 -112 -271 -112q-206 0 -285 134q-54 91 -54 285zM554 381v289q0 125 -27.5 174t-97.5 49t-97.5 -49t-27.5 -174v-289q0 -124 27.5 -173t97.5 -49t97.5 49t27.5 173zM283 1210
h-128q32 266 180 266q39 0 65 -13.5t55 -49.5q52 -64 70 -64q40 0 50 112h127q-7 -103 -27 -158q-40 -108 -146 -108q-43 0 -71.5 15t-56.5 53q-43 59 -62 59q-46 0 -56 -112z" />
    <glyph glyph-name="odieresis" unicode="&#xf6;" horiz-adv-x="858" 
d="M90 399v253q0 214 68 307q82 113 271 113q181 0 260 -98t79 -322v-253q0 -214 -68 -307q-82 -112 -271 -112q-206 0 -285 134q-54 91 -54 285zM554 381v289q0 125 -27.5 174t-97.5 49t-97.5 -49t-27.5 -174v-289q0 -124 27.5 -173t97.5 -49t97.5 49t27.5 173zM177 1200
v238h191v-238h-191zM489 1200v238h191v-238h-191z" />
    <glyph glyph-name="divide" unicode="&#xf7;" 
d="M74 652v170h712v-170h-712zM334 306v204h192v-204h-192zM334 962v204h192v-204h-192z" />
    <glyph glyph-name="oslash" unicode="&#xf8;" horiz-adv-x="858" 
d="M714 922q53 -98 53 -293v-207q0 -219 -68 -319q-83 -123 -270 -123q-109 0 -192 46l-34 -64l-119 62l57 107q-51 99 -51 291v207q0 219 67 320q83 123 270 123q111 0 190 -46l34 63l119 -62zM553 619l-218 -409q30 -51 93 -51q79 0 107 81q18 53 18 167v212zM304 437
l216 407q-30 49 -92 49q-67 0 -95.5 -57t-28.5 -191v-208z" />
    <glyph glyph-name="ugrave" unicode="&#xf9;" horiz-adv-x="846" 
d="M96 1051h214v-647q0 -105 12 -154q21 -84 94 -84q63 0 88.5 57.5t25.5 201.5v626h214v-1051h-160l-16 85q-35 -45 -57 -62q-56 -43 -148 -43q-179 0 -239 154q-28 71 -28 241v676zM537 1189h-159l-202 304h237z" />
    <glyph glyph-name="uacute" unicode="&#xfa;" horiz-adv-x="846" 
d="M96 1051h214v-647q0 -105 12 -154q21 -84 94 -84q63 0 88.5 57.5t25.5 201.5v626h214v-1051h-160l-16 85q-35 -45 -57 -62q-56 -43 -148 -43q-179 0 -239 154q-28 71 -28 241v676zM309 1189l124 304h237l-202 -304h-159z" />
    <glyph glyph-name="ucircumflex" unicode="&#xfb;" horiz-adv-x="846" 
d="M96 1051h214v-647q0 -105 12 -154q21 -84 94 -84q63 0 88.5 57.5t25.5 201.5v626h214v-1051h-160l-16 85q-35 -45 -57 -62q-56 -43 -148 -43q-179 0 -239 154q-28 71 -28 241v676zM422 1358l-81 -162h-199l203 291h155l203 -291h-199z" />
    <glyph glyph-name="udieresis" unicode="&#xfc;" horiz-adv-x="846" 
d="M96 1051h214v-647q0 -105 12 -154q21 -84 94 -84q63 0 88.5 57.5t25.5 201.5v626h214v-1051h-160l-16 85q-35 -45 -57 -62q-56 -43 -148 -43q-179 0 -239 154q-28 71 -28 241v676zM171 1200v238h191v-238h-191zM483 1200v238h191v-238h-191z" />
    <glyph glyph-name="yacute" unicode="&#xfd;" horiz-adv-x="774" 
d="M279 -4l-258 1055h216l151 -771l144 771h217l-269 -1175q-33 -143 -71 -212t-101 -98q-81 -37 -236 -37v180q102 0 133 35q35 40 55 151zM294 1189l124 304h237l-202 -304h-159z" />
    <glyph glyph-name="thorn" unicode="&#xfe;" horiz-adv-x="861" 
d="M318 35v-496h-214v1923h214v-462q25 32 74.5 52t105.5 20q164 0 230 -135q44 -89 44 -266v-246q0 -215 -55 -317q-36 -68 -90 -98t-137 -30q-112 0 -172 55zM559 397v289q0 200 -114 200q-67 0 -97.5 -63t-30.5 -201v-193q0 -263 127 -263q115 0 115 231z" />
    <glyph glyph-name="ydieresis" unicode="&#xff;" horiz-adv-x="774" 
d="M279 -4l-258 1055h216l151 -771l144 771h217l-269 -1175q-33 -143 -71 -212t-101 -98q-81 -37 -236 -37v180q102 0 133 35q35 40 55 151zM136 1200v238h191v-238h-191zM448 1200v238h191v-238h-191z" />
    <glyph glyph-name="Amacron" unicode="&#x100;" horiz-adv-x="922" 
d="M646 303h-364l-66 -303h-243l396 1462h189l396 -1462h-243zM607 484l-143 666l-143 -666h286zM224 1664v157h476v-157h-476z" />
    <glyph glyph-name="amacron" unicode="&#x101;" horiz-adv-x="823" 
d="M513 626v47q0 125 -25 173t-92 48q-59 0 -85 -37t-26 -122h-199q3 153 49 222q78 115 266 115q172 0 249 -98t77 -317v-657h-167l-13 57q-36 -42 -81.5 -59.5t-120.5 -17.5q-153 0 -223 74q-68 73 -68 244q0 124 26 185q39 91 130 121q68 22 159 22h144zM513 472h-82
q-90 0 -126 -38q-37 -41 -37 -133q0 -83 27.5 -115t98.5 -32q67 0 93 36t26 131v151zM174 1248v157h476v-157h-476z" />
    <glyph glyph-name="Abreve" unicode="&#x102;" horiz-adv-x="922" 
d="M646 303h-364l-66 -303h-243l396 1462h189l396 -1462h-243zM607 484l-143 666l-143 -666h286zM201 1895h134q9 -84 35.5 -115.5t90.5 -31.5q63 0 90 31t35 116h134q-4 -136 -29 -185q-31 -61 -82 -89q-53 -28 -148 -28q-124 0 -182 52q-44 40 -59.5 89t-18.5 161z" />
    <glyph glyph-name="abreve" unicode="&#x103;" horiz-adv-x="823" 
d="M513 626v47q0 125 -25 173t-92 48q-59 0 -85 -37t-26 -122h-199q3 153 49 222q78 115 266 115q172 0 249 -98t77 -317v-657h-167l-13 57q-36 -42 -81.5 -59.5t-120.5 -17.5q-153 0 -223 74q-68 73 -68 244q0 124 26 185q39 91 130 121q68 22 159 22h144zM513 472h-82
q-90 0 -126 -38q-37 -41 -37 -133q0 -83 27.5 -115t98.5 -32q67 0 93 36t26 131v151zM163 1480h134q8 -85 35 -117t91 -32q63 0 90 31.5t35 117.5h134q-4 -137 -29 -187q-31 -61 -82 -88q-53 -29 -148 -29q-124 0 -182 52q-44 41 -59.5 90t-18.5 162z" />
    <glyph glyph-name="Aogonek" unicode="&#x104;" horiz-adv-x="922" 
d="M954 0q-9 -11 -53 -55q-78 -80 -78 -162q0 -71 68 -71q38 0 91 19l24 -112q-75 -34 -164 -34q-210 0 -210 157q0 70 31.5 121t121.5 127q5 4 12 10h-86l-65 303h-364l-66 -303h-243l396 1462h189zM607 484l-143 666l-143 -666h286z" />
    <glyph glyph-name="aogonek" unicode="&#x105;" horiz-adv-x="823" 
d="M727 0q-12 -13 -53 -55q-78 -80 -78 -163q0 -70 68 -70q38 0 91 19l24 -112q-75 -34 -164 -34q-210 0 -210 157q0 71 34.5 125.5t130.5 132.5h-10l-13 57q-36 -42 -81.5 -59.5t-120.5 -17.5q-153 0 -223 74q-68 73 -68 244q0 124 26 185q39 91 130 121q68 22 159 22h144
v47q0 125 -25 173t-92 48q-59 0 -85 -37t-26 -122h-199q3 153 49 222q78 115 266 115q172 0 249 -98t77 -317v-657zM513 472h-82q-90 0 -126 -38q-37 -41 -37 -133q0 -83 27.5 -115t98.5 -32q67 0 93 36t26 131v151z" />
    <glyph glyph-name="Cacute" unicode="&#x106;" horiz-adv-x="932" 
d="M657 432h206q-2 -185 -56 -280q-97 -172 -328 -172q-216 0 -310 146q-67 102 -67 343v521q0 263 82 367q97 123 295 123q237 0 328 -186q40 -81 43 -241h-207q-6 101 -22 147q-34 96 -138 96q-88 0 -122 -70t-34 -250v-493q0 -161 26 -229q35 -90 134 -90q89 0 128.5 62
t41.5 206zM368 1605l124 304h237l-202 -304h-159z" />
    <glyph glyph-name="cacute" unicode="&#x107;" horiz-adv-x="780" 
d="M534 331h199q-2 -159 -49 -232q-77 -119 -272 -119q-170 0 -246 99.5t-76 322.5v249q0 214 66 309q79 113 257 113q209 0 279 -150q32 -66 35 -205h-197q-1 176 -114 176q-61 0 -86.5 -51.5t-25.5 -175.5v-281q0 -117 20 -165q26 -62 94 -62q60 0 87.5 41t28.5 131z
M313 1189l124 304h237l-202 -304h-159z" />
    <glyph glyph-name="Ccircumflex" unicode="&#x108;" horiz-adv-x="932" 
d="M657 432h206q-2 -185 -56 -280q-97 -172 -328 -172q-216 0 -310 146q-67 102 -67 343v521q0 263 82 367q97 123 295 123q237 0 328 -186q40 -81 43 -241h-207q-6 101 -22 147q-34 96 -138 96q-88 0 -122 -70t-34 -250v-493q0 -161 26 -229q35 -90 134 -90q89 0 128.5 62
t41.5 206zM479 1774l-81 -162h-199l203 291h155l203 -291h-199z" />
    <glyph glyph-name="ccircumflex" unicode="&#x109;" horiz-adv-x="780" 
d="M534 331h199q-2 -159 -49 -232q-77 -119 -272 -119q-170 0 -246 99.5t-76 322.5v249q0 214 66 309q79 113 257 113q209 0 279 -150q32 -66 35 -205h-197q-1 176 -114 176q-61 0 -86.5 -51.5t-25.5 -175.5v-281q0 -117 20 -165q26 -62 94 -62q60 0 87.5 41t28.5 131z
M412 1358l-81 -162h-199l203 291h155l203 -291h-199z" />
    <glyph glyph-name="Cdotaccent" unicode="&#x10a;" horiz-adv-x="932" 
d="M657 432h206q-2 -185 -56 -280q-97 -172 -328 -172q-216 0 -310 146q-67 102 -67 343v521q0 263 82 367q97 123 295 123q237 0 328 -186q40 -81 43 -241h-207q-6 101 -22 147q-34 96 -138 96q-88 0 -122 -70t-34 -250v-493q0 -161 26 -229q35 -90 134 -90q89 0 128.5 62
t41.5 206zM380 1614v239h206v-239h-206z" />
    <glyph glyph-name="cdotaccent" unicode="&#x10b;" horiz-adv-x="780" 
d="M534 331h199q-2 -159 -49 -232q-77 -119 -272 -119q-170 0 -246 99.5t-76 322.5v249q0 214 66 309q79 113 257 113q209 0 279 -150q32 -66 35 -205h-197q-1 176 -114 176q-61 0 -86.5 -51.5t-25.5 -175.5v-281q0 -117 20 -165q26 -62 94 -62q60 0 87.5 41t28.5 131z
M316 1199v239h206v-239h-206z" />
    <glyph glyph-name="Ccaron" unicode="&#x10c;" horiz-adv-x="932" 
d="M657 432h206q-2 -185 -56 -280q-97 -172 -328 -172q-216 0 -310 146q-67 102 -67 343v521q0 263 82 367q97 123 295 123q237 0 328 -186q40 -81 43 -241h-207q-6 101 -22 147q-34 96 -138 96q-88 0 -122 -70t-34 -250v-493q0 -161 26 -229q35 -90 134 -90q89 0 128.5 62
t41.5 206zM491 1737l81 162h199l-203 -292h-155l-203 292h199z" />
    <glyph glyph-name="ccaron" unicode="&#x10d;" horiz-adv-x="780" 
d="M534 331h199q-2 -159 -49 -232q-77 -119 -272 -119q-170 0 -246 99.5t-76 322.5v249q0 214 66 309q79 113 257 113q209 0 279 -150q32 -66 35 -205h-197q-1 176 -114 176q-61 0 -86.5 -51.5t-25.5 -175.5v-281q0 -117 20 -165q26 -62 94 -62q60 0 87.5 41t28.5 131z
M415 1321l81 162h199l-203 -291h-155l-203 291h199z" />
    <glyph glyph-name="Dcaron" unicode="&#x10e;" horiz-adv-x="1001" 
d="M126 0v1462h344q124 0 197.5 -20.5t124.5 -68.5q59 -56 83.5 -134.5t24.5 -211.5v-592q0 -133 -24.5 -211.5t-83.5 -134.5q-51 -48 -124.5 -68.5t-197.5 -20.5h-344zM351 183h126q114 0 154 57q44 62 44 234v514q0 170 -41.5 230.5t-156.5 60.5h-126v-1096zM464 1737
l81 162h199l-203 -292h-155l-203 292h199z" />
    <glyph glyph-name="dcaron" unicode="&#x10f;" horiz-adv-x="1044" 
d="M595 0l-14 71q-49 -52 -92 -71.5t-111 -19.5q-93 0 -151 35.5t-93 114.5q-44 98 -44 295v246q0 195 54 286q69 115 223 115q104 0 178 -70v460h214v-1462h-164zM304 686v-285q0 -123 27.5 -179t86.5 -56q127 0 127 263v193q0 264 -128 264q-113 0 -113 -200zM833 969
l51 518h201l-103 -518h-149z" />
    <glyph glyph-name="Dcroat" unicode="&#x110;" horiz-adv-x="1001" 
d="M126 830v632h342q124 0 197.5 -20t125.5 -69q58 -55 83 -134t25 -212v-592q0 -133 -25 -212t-83 -134q-52 -49 -125.5 -69t-197.5 -20h-342v649h-109v181h109zM351 830h164v-181h-164v-466h126q114 0 154 57q44 63 44 234v514q0 170 -41 230.5t-157 60.5h-126v-449z" />
    <glyph glyph-name="dcroat" unicode="&#x111;" 
d="M544 1169h-213v152h213v141h214v-141h107v-152h-107v-1169h-164l-14 71q-49 -52 -92 -71.5t-111 -19.5q-92 0 -150 35.5t-93 114.5q-44 98 -44 295v246q0 196 54 286q69 115 222 115q104 0 178 -70v167zM303 686v-285q0 -123 27.5 -179t87.5 -56q126 0 126 263v193
q0 264 -128 264q-113 0 -113 -200z" />
    <glyph glyph-name="Emacron" unicode="&#x112;" horiz-adv-x="861" 
d="M128 0v1462h664v-187h-439v-443h372v-187h-372v-458h447v-187h-672zM218 1664v157h476v-157h-476z" />
    <glyph glyph-name="emacron" unicode="&#x113;" horiz-adv-x="846" 
d="M304 475v-95q0 -123 28 -172t98 -49q64 0 93 40t30 127h199q-2 -152 -47 -224q-76 -122 -281 -122q-201 0 -280 143q-54 98 -54 303v195q0 230 67 330q82 121 270 121q205 0 284 -144q53 -98 53 -307v-146h-460zM304 636h254v49q0 119 -28.5 166t-101.5 47
q-70 0 -97 -46.5t-27 -166.5v-49zM192 1248v157h476v-157h-476z" />
    <glyph glyph-name="Ebreve" unicode="&#x114;" horiz-adv-x="861" 
d="M128 0v1462h664v-187h-439v-443h372v-187h-372v-458h447v-187h-672zM209 1895h134q9 -84 35.5 -115.5t90.5 -31.5q63 0 90 31t35 116h134q-4 -136 -29 -185q-31 -61 -82 -89q-53 -28 -148 -28q-124 0 -182 52q-44 40 -59.5 89t-18.5 161z" />
    <glyph glyph-name="ebreve" unicode="&#x115;" horiz-adv-x="846" 
d="M304 475v-95q0 -123 28 -172t98 -49q64 0 93 40t30 127h199q-2 -152 -47 -224q-76 -122 -281 -122q-201 0 -280 143q-54 98 -54 303v195q0 230 67 330q82 121 270 121q205 0 284 -144q53 -98 53 -307v-146h-460zM304 636h254v49q0 119 -28.5 166t-101.5 47
q-70 0 -97 -46.5t-27 -166.5v-49zM180 1480h134q8 -85 35 -117t91 -32q63 0 90 31.5t35 117.5h134q-4 -137 -29 -187q-31 -61 -82 -88q-53 -29 -148 -29q-124 0 -182 52q-44 41 -59.5 90t-18.5 162z" />
    <glyph glyph-name="Edotaccent" unicode="&#x116;" horiz-adv-x="861" 
d="M128 0v1462h664v-187h-439v-443h372v-187h-372v-458h447v-187h-672zM374 1614v239h206v-239h-206z" />
    <glyph glyph-name="edotaccent" unicode="&#x117;" horiz-adv-x="846" 
d="M304 475v-95q0 -123 28 -172t98 -49q64 0 93 40t30 127h199q-2 -152 -47 -224q-76 -122 -281 -122q-201 0 -280 143q-54 98 -54 303v195q0 230 67 330q82 121 270 121q205 0 284 -144q53 -98 53 -307v-146h-460zM304 636h254v49q0 119 -28.5 166t-101.5 47
q-70 0 -97 -46.5t-27 -166.5v-49zM333 1199v239h206v-239h-206z" />
    <glyph glyph-name="Eogonek" unicode="&#x118;" horiz-adv-x="861" 
d="M128 0v1462h664v-187h-439v-443h372v-187h-372v-458h447v-187q-77 -77 -104 -121.5t-27 -96.5q0 -70 68 -70q38 0 91 19l24 -112q-75 -34 -164 -34q-210 0 -210 158q0 140 167 257h-517z" />
    <glyph glyph-name="eogonek" unicode="&#x119;" horiz-adv-x="846" 
d="M305 475v-95q0 -123 28 -172.5t98 -49.5q63 0 92.5 40t30.5 128h199q1 -218 -118 -296q-13 -13 -19 -20q-122 -129 -122 -226q0 -72 68 -72q39 0 91 20l25 -113q-75 -34 -165 -34q-209 0 -209 161q0 124 113 234q-149 6 -223 79q-104 99 -103 367v195q0 230 67 330
q82 121 270 121q205 0 284 -144q53 -98 53 -307v-146h-460zM305 636h254v49q0 119 -28.5 166t-101.5 47q-70 0 -97 -46.5t-27 -166.5v-49z" />
    <glyph glyph-name="Ecaron" unicode="&#x11a;" horiz-adv-x="861" 
d="M128 0v1462h664v-187h-439v-443h372v-187h-372v-458h447v-187h-672zM473 1737l81 162h199l-203 -292h-155l-203 292h199z" />
    <glyph glyph-name="ecaron" unicode="&#x11b;" horiz-adv-x="846" 
d="M304 475v-95q0 -123 28 -172t98 -49q64 0 93 40t30 127h199q-2 -152 -47 -224q-76 -122 -281 -122q-201 0 -280 143q-54 98 -54 303v195q0 230 67 330q82 121 270 121q205 0 284 -144q53 -98 53 -307v-146h-460zM304 636h254v49q0 119 -28.5 166t-101.5 47
q-70 0 -97 -46.5t-27 -166.5v-49zM436 1321l81 162h199l-203 -291h-155l-203 291h199z" />
    <glyph glyph-name="Gcircumflex" unicode="&#x11c;" horiz-adv-x="979" 
d="M514 612v176h383v-278q0 -264 -71 -375q-98 -155 -326 -155t-328 145q-70 103 -70 345v520q0 263 86 368q100 122 302 122q243 0 333 -188q39 -82 42 -239h-206q-5 97 -21 144q-34 99 -143 99q-94 0 -131 -70t-37 -250v-492q0 -161 30 -230q37 -89 144 -89q93 0 133.5 69
t40.5 229v149h-161zM495 1774l-81 -162h-199l203 291h155l203 -291h-199z" />
    <glyph glyph-name="gcircumflex" unicode="&#x11d;" horiz-adv-x="861" 
d="M545 35q-72 -55 -170 -55q-150 0 -217.5 104.5t-67.5 339.5v247q0 195 54 286q69 115 222 115q122 0 206 -97l22 76h165v-1087q0 -226 -69 -325q-83 -120 -272 -120q-196 0 -260 135q-29 60 -31 185h190q1 -81 24.5 -114.5t80.5 -33.5q69 0 96 52.5t27 189.5v102z
M304 686v-282q0 -125 27.5 -181.5t87.5 -56.5q126 0 126 263v193q0 264 -127 264q-114 0 -114 -200zM439 1358l-81 -162h-199l203 291h155l203 -291h-199z" />
    <glyph glyph-name="Gbreve" unicode="&#x11e;" horiz-adv-x="979" 
d="M514 612v176h383v-278q0 -264 -71 -375q-98 -155 -326 -155t-328 145q-70 103 -70 345v520q0 263 86 368q100 122 302 122q243 0 333 -188q39 -82 42 -239h-206q-5 97 -21 144q-34 99 -143 99q-94 0 -131 -70t-37 -250v-492q0 -161 30 -230q37 -89 144 -89q93 0 133.5 69
t40.5 229v149h-161zM229 1895h134q9 -84 35.5 -115.5t90.5 -31.5q63 0 90 31t35 116h134q-4 -136 -29 -185q-31 -61 -82 -89q-53 -28 -148 -28q-124 0 -182 52q-44 40 -59.5 89t-18.5 161z" />
    <glyph glyph-name="gbreve" unicode="&#x11f;" horiz-adv-x="861" 
d="M545 35q-72 -55 -170 -55q-150 0 -217.5 104.5t-67.5 339.5v247q0 195 54 286q69 115 222 115q122 0 206 -97l22 76h165v-1087q0 -226 -69 -325q-83 -120 -272 -120q-196 0 -260 135q-29 60 -31 185h190q1 -81 24.5 -114.5t80.5 -33.5q69 0 96 52.5t27 189.5v102z
M304 686v-282q0 -125 27.5 -181.5t87.5 -56.5q126 0 126 263v193q0 264 -127 264q-114 0 -114 -200zM183 1480h134q8 -85 35 -117t91 -32q63 0 90 31.5t35 117.5h134q-4 -137 -29 -187q-31 -61 -82 -88q-53 -29 -148 -29q-124 0 -182 52q-44 41 -59.5 90t-18.5 162z" />
    <glyph glyph-name="Gdotaccent" unicode="&#x120;" horiz-adv-x="979" 
d="M514 612v176h383v-278q0 -264 -71 -375q-98 -155 -326 -155t-328 145q-70 103 -70 345v520q0 263 86 368q100 122 302 122q243 0 333 -188q39 -82 42 -239h-206q-5 97 -21 144q-34 99 -143 99q-94 0 -131 -70t-37 -250v-492q0 -161 30 -230q37 -89 144 -89q93 0 133.5 69
t40.5 229v149h-161zM386 1614v239h206v-239h-206z" />
    <glyph glyph-name="gdotaccent" unicode="&#x121;" horiz-adv-x="861" 
d="M545 35q-72 -55 -170 -55q-150 0 -217.5 104.5t-67.5 339.5v247q0 195 54 286q69 115 222 115q122 0 206 -97l22 76h165v-1087q0 -226 -69 -325q-83 -120 -272 -120q-196 0 -260 135q-29 60 -31 185h190q1 -81 24.5 -114.5t80.5 -33.5q69 0 96 52.5t27 189.5v102z
M304 686v-282q0 -125 27.5 -181.5t87.5 -56.5q126 0 126 263v193q0 264 -127 264q-114 0 -114 -200zM359 1199v239h206v-239h-206z" />
    <glyph glyph-name="Gcommaaccent" unicode="&#x122;" horiz-adv-x="979" 
d="M514 612v176h383v-278q0 -264 -71 -375q-98 -155 -326 -155t-328 145q-70 103 -70 345v520q0 263 86 368q100 122 302 122q243 0 333 -188q39 -82 42 -239h-206q-5 97 -21 144q-34 99 -143 99q-94 0 -131 -70t-37 -250v-492q0 -161 30 -230q37 -89 144 -89q93 0 133.5 69
t40.5 229v149h-161zM338 -471l72 335h204l-132 -335h-144z" />
    <glyph glyph-name="gcommaaccent" unicode="&#x123;" horiz-adv-x="861" 
d="M545 35q-72 -55 -170 -55q-150 0 -217.5 104.5t-67.5 339.5v247q0 195 54 286q69 115 222 115q122 0 206 -97l22 76h165v-1087q0 -226 -69 -325q-83 -120 -272 -120q-196 0 -260 135q-29 60 -31 185h190q1 -81 24.5 -114.5t80.5 -33.5q69 0 96 52.5t27 189.5v102z
M304 686v-282q0 -125 27.5 -181.5t87.5 -56.5q126 0 126 263v193q0 264 -127 264q-114 0 -114 -200zM330 1189l202 304h159l-124 -304h-237z" />
    <glyph glyph-name="Hcircumflex" unicode="&#x124;" horiz-adv-x="1017" 
d="M126 0v1462h225v-630h314v630h225v-1462h-225v645h-314v-645h-225zM507 1774l-81 -162h-199l203 291h155l203 -291h-199z" />
    <glyph glyph-name="hcircumflex" unicode="&#x125;" horiz-adv-x="866" 
d="M101 0v1462h214v-452q69 62 178 62q89 0 153.5 -40.5t93.5 -113.5q29 -72 29 -242v-676h-214v648q0 105 -13 154q-23 84 -101 84q-71 0 -98.5 -57t-27.5 -203v-626h-214zM285 1774l-81 -162h-199l203 291h155l203 -291h-199z" />
    <glyph glyph-name="Hbar" unicode="&#x126;" horiz-adv-x="1017" 
d="M126 0v1015h-114v163h114v284h225v-284h314v284h225v-284h114v-163h-114v-1015h-225v645h-314v-645h-225zM351 832h314v183h-314v-183z" />
    <glyph glyph-name="hbar" unicode="&#x127;" horiz-adv-x="872" 
d="M104 1169h-110v152h110v141h214v-141h211v-152h-211v-159q70 62 178 62q89 0 153.5 -40t93.5 -114q29 -72 29 -242v-676h-214v648q0 104 -14 154q-23 84 -101 84q-70 0 -97.5 -57.5t-27.5 -202.5v-626h-214v1169z" />
    <glyph glyph-name="Itilde" unicode="&#x128;" horiz-adv-x="478" 
d="M126 0v1462h225v-1462h-225zM93 1626h-128q32 266 180 266q38 0 64.5 -14t55.5 -49q52 -64 70 -64q40 0 50 112h127q-7 -104 -27 -158q-40 -107 -146 -107q-44 0 -72 15t-56 52q-43 59 -62 59q-46 0 -56 -112z" />
    <glyph glyph-name="itilde" unicode="&#x129;" horiz-adv-x="427" 
d="M107 0v1051h214v-1051h-214zM68 1210h-128q32 266 180 266q39 0 65 -13.5t55 -49.5q52 -64 70 -64q40 0 50 112h127q-7 -103 -27 -158q-40 -108 -146 -108q-43 0 -71.5 15t-56.5 53q-43 59 -62 59q-46 0 -56 -112z" />
    <glyph glyph-name="Imacron" unicode="&#x12a;" horiz-adv-x="478" 
d="M126 0v1462h225v-1462h-225zM1 1664v157h476v-157h-476z" />
    <glyph glyph-name="imacron" unicode="&#x12b;" horiz-adv-x="427" 
d="M107 0v1051h214v-1051h-214zM-24 1248v157h476v-157h-476z" />
    <glyph glyph-name="Ibreve" unicode="&#x12c;" horiz-adv-x="478" 
d="M127 0v1462h225v-1462h-225zM-21 1895h134q9 -84 35.5 -115.5t90.5 -31.5q63 0 90 31t35 116h134q-4 -136 -29 -185q-31 -61 -82 -89q-53 -28 -148 -28q-124 0 -182 52q-44 40 -59.5 89t-18.5 161z" />
    <glyph glyph-name="ibreve" unicode="&#x12d;" horiz-adv-x="427" 
d="M106 0v1051h214v-1051h-214zM-47 1480h134q8 -85 35 -117t91 -32q63 0 90 31.5t35 117.5h134q-4 -137 -29 -187q-31 -61 -82 -88q-53 -29 -148 -29q-124 0 -182 52q-44 41 -59.5 90t-18.5 162z" />
    <glyph glyph-name="Iogonek" unicode="&#x12e;" horiz-adv-x="478" 
d="M352 0q-10 -11 -54 -55q-78 -80 -78 -163q0 -70 68 -70q39 0 92 19l24 -112q-75 -34 -164 -34q-210 0 -210 157q0 69 39 130t127 128h-69v1462h225v-1462z" />
    <glyph glyph-name="iogonek" unicode="&#x12f;" horiz-adv-x="427" 
d="M321 0q-8 -9 -53 -55q-78 -80 -78 -162q0 -71 68 -71q39 0 91 20l24 -113q-75 -34 -164 -34q-210 0 -210 157q0 61 26 109.5t88 105.5q8 7 51 43h-57v1051h214v-1051zM107 1225v246h214v-246h-214z" />
    <glyph glyph-name="Idotaccent" unicode="&#x130;" horiz-adv-x="478" 
d="M126 0v1462h225v-1462h-225zM135 1614v239h206v-239h-206z" />
    <glyph glyph-name="dotlessi" unicode="&#x131;" horiz-adv-x="427" 
d="M106 0v1051h214v-1051h-214z" />
    <glyph glyph-name="IJ" unicode="&#x132;" horiz-adv-x="956" 
d="M126 0v1462h225v-1462h-225zM604 1462h225v-1461q0 -156 -8 -227t-31 -120q-72 -153 -278 -153q-86 0 -175 34l84 170q37 -20 68 -20q83 0 104 108q11 55 11 204v1465z" />
    <glyph glyph-name="ij" unicode="&#x133;" horiz-adv-x="855" 
d="M106 1225v246h214v-246h-214zM106 0v1051h214v-1051h-214zM534 1051h214v-1041q0 -189 -20 -264q-45 -168 -206 -204q-53 -12 -160 -13v180q59 0 89 14.5t52 54.5q31 57 31 209v1064zM534 1225v246h214v-246h-214z" />
    <glyph glyph-name="Jcircumflex" unicode="&#x134;" horiz-adv-x="692" 
d="M349 1462h225v-982q0 -157 -8 -227t-31 -120q-72 -153 -279 -153q-96 0 -167 31t-139 103l131 144q86 -94 156 -94q80 0 101 108q11 55 11 204v986zM432 1774l-81 -162h-199l203 291h155l203 -291h-199z" />
    <glyph glyph-name="jcircumflex" unicode="&#x135;" horiz-adv-x="436" 
d="M113 1051h214v-1041q0 -189 -20 -264q-45 -168 -206 -204q-53 -12 -160 -13v180q59 0 89 14.5t52 54.5q31 57 31 209v1064zM215 1358l-81 -162h-199l203 291h155l203 -291h-199z" />
    <glyph glyph-name="Kcommaaccent" unicode="&#x136;" horiz-adv-x="919" 
d="M129 0v1462h225v-611l335 611h242l-357 -604l373 -858h-246l-260 671l-87 -162v-509h-225zM349 -471l72 335h204l-132 -335h-144z" />
    <glyph glyph-name="kcommaaccent" unicode="&#x137;" horiz-adv-x="825" 
d="M109 0v1462h214v-873l264 462h226l-275 -438l283 -613h-234l-180 452l-84 -146v-306h-214zM278 -471l72 335h204l-132 -335h-144z" />
    <glyph glyph-name="kgreenlandic" unicode="&#x138;" horiz-adv-x="825" 
d="M109 0v1051h214v-462l264 462h226l-275 -438l283 -613h-234l-180 453l-84 -147v-306h-214z" />
    <glyph glyph-name="Lacute" unicode="&#x139;" horiz-adv-x="821" 
d="M126 0v1462h225v-1275h450v-187h-675zM176 1605l124 304h237l-202 -304h-159z" />
    <glyph glyph-name="lacute" unicode="&#x13a;" horiz-adv-x="481" 
d="M105 1462h214v-1081q0 -118 28 -159.5t107 -41.5h22v-180h-32q-118 0 -190 23q-85 28 -117 109.5t-32 269.5v1060zM127 1605l124 304h237l-202 -304h-159z" />
    <glyph glyph-name="Lcommaaccent" unicode="&#x13b;" horiz-adv-x="821" 
d="M126 0v1462h225v-1275h450v-187h-675zM289 -471l72 335h204l-132 -335h-144z" />
    <glyph glyph-name="lcommaaccent" unicode="&#x13c;" horiz-adv-x="481" 
d="M104 1462h214v-1081q0 -118 28 -159.5t107 -41.5h22v-180h-32q-118 0 -190 23q-85 28 -117 109.5t-32 269.5v1060zM109 -471l72 335h204l-132 -335h-144z" />
    <glyph glyph-name="Lcaron" unicode="&#x13d;" horiz-adv-x="821" 
d="M126 0v1462h225v-1275h450v-187h-675zM494 969l51 518h201l-103 -518h-149z" />
    <glyph glyph-name="lcaron" unicode="&#x13e;" horiz-adv-x="637" 
d="M105 1462h214v-1081q0 -118 28 -159.5t107 -41.5h22v-180h-32q-118 0 -190 23q-85 28 -117 109.5t-32 269.5v1060zM427 969l51 518h201l-103 -518h-149z" />
    <glyph glyph-name="Ldot" unicode="&#x13f;" horiz-adv-x="821" 
d="M126 0v1462h225v-1275h450v-187h-675zM542 616v237h186v-237h-186z" />
    <glyph glyph-name="ldot" unicode="&#x140;" horiz-adv-x="609" 
d="M105 1462h214v-1081q0 -118 28 -159.5t107 -41.5h22v-180h-32q-118 0 -190 23q-85 28 -117 109.5t-32 269.5v1060zM420 616v237h186v-237h-186z" />
    <glyph glyph-name="Lslash" unicode="&#x141;" horiz-adv-x="820" 
d="M127 0v401l-100 -85v205l100 85v856h225v-686l259 222v-205l-259 -223v-383h448v-187h-673z" />
    <glyph glyph-name="lslash" unicode="&#x142;" horiz-adv-x="518" 
d="M125 741v721h214v-564l166 136v-214l-166 -136v-303q0 -118 28 -159.5t107 -41.5h22v-180h-32q-118 0 -190 23q-82 27 -115.5 106.5t-33.5 249.5v148l-127 -105v214z" />
    <glyph glyph-name="Nacute" unicode="&#x143;" horiz-adv-x="1065" 
d="M126 0v1462h224l377 -1000v1000h211v-1462h-213l-388 1011v-1011h-211zM441 1605l124 304h237l-202 -304h-159z" />
    <glyph glyph-name="nacute" unicode="&#x144;" horiz-adv-x="866" 
d="M102 0v1051h160l16 -85q48 60 94.5 83t121.5 23q88 0 153 -40.5t94 -113.5q29 -72 29 -242v-676h-214v647q0 105 -13 153q-23 86 -103 86q-69 0 -96.5 -57.5t-27.5 -202.5v-626h-214zM320 1189l124 304h237l-202 -304h-159z" />
    <glyph glyph-name="Ncommaaccent" unicode="&#x145;" horiz-adv-x="1065" 
d="M126 0v1462h224l377 -1000v1000h211v-1462h-213l-388 1011v-1011h-211zM375 -471l72 335h204l-132 -335h-144z" />
    <glyph glyph-name="ncommaaccent" unicode="&#x146;" horiz-adv-x="866" 
d="M102 0v1051h160l16 -85q48 60 94.5 83t121.5 23q88 0 153 -40.5t94 -113.5q29 -72 29 -242v-676h-214v647q0 105 -13 153q-23 86 -103 86q-69 0 -96.5 -57.5t-27.5 -202.5v-626h-214zM278 -471l72 335h204l-132 -335h-144z" />
    <glyph glyph-name="Ncaron" unicode="&#x147;" horiz-adv-x="1065" 
d="M126 0v1462h224l377 -1000v1000h211v-1462h-213l-388 1011v-1011h-211zM542 1737l81 162h199l-203 -292h-155l-203 292h199z" />
    <glyph glyph-name="ncaron" unicode="&#x148;" horiz-adv-x="866" 
d="M102 0v1051h160l16 -85q48 60 94.5 83t121.5 23q88 0 153 -40.5t94 -113.5q29 -72 29 -242v-676h-214v647q0 105 -13 153q-23 86 -103 86q-69 0 -96.5 -57.5t-27.5 -202.5v-626h-214zM434 1321l81 162h199l-203 -291h-155l-203 291h199z" />
    <glyph glyph-name="napostrophe" unicode="&#x149;" horiz-adv-x="1014" 
d="M250 0v1051h160l16 -98q35 49 60 70q57 49 157 49q87 0 151.5 -40.5t93.5 -113.5q29 -72 29 -242v-676h-214v647q0 135 -25 187t-91 52q-68 0 -95.5 -57.5t-27.5 -202.5v-626h-214zM-8 951l47 511h230l-89 -511h-188z" />
    <glyph glyph-name="Eng" unicode="&#x14a;" horiz-adv-x="1065" 
d="M126 0v1462h224l377 -1000v1000h211v-1477q5 -286 -93 -378q-45 -43 -106.5 -59.5t-177.5 -18.5v172q58 0 86.5 14t50.5 53q34 63 34 190v42l-395 1011v-1011h-211z" />
    <glyph glyph-name="eng" unicode="&#x14b;" horiz-adv-x="866" 
d="M102 0v1051h160l16 -98q37 51 60 70q58 49 157 49q88 0 152.5 -40.5t93.5 -113.5q29 -72 29 -242v-666q6 -307 -96 -403q-46 -43 -107.5 -59.5t-182.5 -18.5v180q60 0 89 14.5t51 54.5q32 60 32 209v661q0 105 -13 153q-23 85 -103 85q-69 0 -96.5 -57.5t-27.5 -202.5
v-626h-214z" />
    <glyph glyph-name="Omacron" unicode="&#x14c;" horiz-adv-x="1003" 
d="M102 446v570q0 229 77 335q95 132 322 132q151 0 238 -53q85 -53 123 -150t38 -264v-570q0 -228 -77 -334q-95 -132 -322 -132q-152 0 -238 53q-85 53 -123 149.5t-38 263.5zM675 467v529q0 169 -38.5 236t-135.5 67q-109 0 -149 -94q-25 -60 -25 -209v-529
q0 -169 38.5 -236t135.5 -67q109 0 149 93q25 61 25 210zM263 1664v157h476v-157h-476z" />
    <glyph glyph-name="omacron" unicode="&#x14d;" horiz-adv-x="858" 
d="M90 399v253q0 214 68 307q82 113 271 113q181 0 260 -98t79 -322v-253q0 -214 -68 -307q-82 -112 -271 -112q-206 0 -285 134q-54 91 -54 285zM554 381v289q0 125 -27.5 174t-97.5 49t-97.5 -49t-27.5 -174v-289q0 -124 27.5 -173t97.5 -49t97.5 49t27.5 173zM191 1248
v157h476v-157h-476z" />
    <glyph glyph-name="Obreve" unicode="&#x14e;" horiz-adv-x="1003" 
d="M102 446v570q0 229 77 335q95 132 322 132q151 0 238 -53q85 -53 123 -150t38 -264v-570q0 -228 -77 -334q-95 -132 -322 -132q-152 0 -238 53q-85 53 -123 149.5t-38 263.5zM675 467v529q0 169 -38.5 236t-135.5 67q-109 0 -149 -94q-25 -60 -25 -209v-529
q0 -169 38.5 -236t135.5 -67q109 0 149 93q25 61 25 210zM241 1895h134q9 -84 35.5 -115.5t90.5 -31.5q63 0 90 31t35 116h134q-4 -136 -29 -185q-31 -61 -82 -89q-53 -28 -148 -28q-124 0 -182 52q-44 40 -59.5 89t-18.5 161z" />
    <glyph glyph-name="obreve" unicode="&#x14f;" horiz-adv-x="858" 
d="M90 399v253q0 214 68 307q82 113 271 113q181 0 260 -98t79 -322v-253q0 -214 -68 -307q-82 -112 -271 -112q-206 0 -285 134q-54 91 -54 285zM554 381v289q0 125 -27.5 174t-97.5 49t-97.5 -49t-27.5 -174v-289q0 -124 27.5 -173t97.5 -49t97.5 49t27.5 173zM168 1480
h134q8 -85 35 -117t91 -32q63 0 90 31.5t35 117.5h134q-4 -137 -29 -187q-31 -61 -82 -88q-53 -29 -148 -29q-124 0 -182 52q-44 41 -59.5 90t-18.5 162z" />
    <glyph glyph-name="Ohungarumlaut" unicode="&#x150;" horiz-adv-x="1003" 
d="M102 446v570q0 229 77 335q95 132 322 132q151 0 238 -53q85 -53 123 -150t38 -264v-570q0 -228 -77 -334q-95 -132 -322 -132q-152 0 -238 53q-85 53 -123 149.5t-38 263.5zM675 467v529q0 169 -38.5 236t-135.5 67q-109 0 -149 -94q-25 -60 -25 -209v-529
q0 -169 38.5 -236t135.5 -67q109 0 149 93q25 61 25 210zM278 1605l97 304h216l-166 -304h-147zM539 1605l98 304h215l-166 -304h-147z" />
    <glyph glyph-name="ohungarumlaut" unicode="&#x151;" horiz-adv-x="858" 
d="M90 399v253q0 214 68 307q82 113 271 113q181 0 260 -98t79 -322v-253q0 -214 -68 -307q-82 -112 -271 -112q-206 0 -285 134q-54 91 -54 285zM554 381v289q0 125 -27.5 174t-97.5 49t-97.5 -49t-27.5 -174v-289q0 -124 27.5 -173t97.5 -49t97.5 49t27.5 173zM206 1189
l97 304h216l-166 -304h-147zM467 1189l98 304h215l-166 -304h-147z" />
    <glyph glyph-name="OE" unicode="&#x152;" horiz-adv-x="1409" 
d="M713 0v66q-79 -87 -243 -87q-221 0 -309 155q-59 105 -59 312v570q0 228 73 335q91 132 293 132q165 0 245 -87v66h627v-187h-440v-443h373v-187h-373v-458h447v-187h-634zM326 996v-529q0 -170 38.5 -237t136.5 -67q110 0 149 94q26 61 26 210v529q0 169 -38.5 236
t-136.5 67q-110 0 -149 -94q-26 -61 -26 -209z" />
    <glyph glyph-name="oe" unicode="&#x153;" horiz-adv-x="1312" 
d="M664 967q82 105 245 105q194 0 270 -144q51 -98 51 -307v-146h-462v-95q0 -123 28 -172t98 -49q65 0 94.5 39.5t30.5 127.5h199q-2 -152 -45 -224q-72 -122 -267 -122q-155 0 -242 104q-84 -104 -250 -104q-197 0 -273 134q-51 91 -51 284v254q0 214 65 307
q78 113 258 113q171 0 251 -105zM554 380v290q0 125 -27.5 174t-97.5 49t-97.5 -49.5t-27.5 -173.5v-290q0 -123 27.5 -172t97.5 -49t97.5 49t27.5 172zM768 638h256v49q0 118 -29 164.5t-102 46.5q-70 0 -97.5 -46t-27.5 -165v-49z" />
    <glyph glyph-name="Racute" unicode="&#x154;" horiz-adv-x="963" 
d="M353 616v-616h-225v1462h339q131 0 199 -24q109 -38 159.5 -133t50.5 -261q0 -182 -43.5 -272.5t-152.5 -135.5l234 -636h-249l-203 616h-109zM348 792h103q64 0 97.5 12.5t56.5 44.5q46 62 46 181q0 143 -50 201q-41 48 -144 48h-109v-487zM368 1605l124 304h237
l-202 -304h-159z" />
    <glyph glyph-name="racute" unicode="&#x155;" horiz-adv-x="610" 
d="M102 0v1051h163l28 -86q32 58 71.5 82.5t99.5 24.5q80 0 162 -62l-95 -180q-56 56 -106 56q-59 0 -84 -86.5t-25 -289.5v-510h-214zM221 1189l124 304h237l-202 -304h-159z" />
    <glyph glyph-name="Rcommaaccent" unicode="&#x156;" horiz-adv-x="963" 
d="M353 616v-616h-225v1462h339q131 0 199 -24q109 -38 159.5 -133t50.5 -261q0 -182 -43.5 -272.5t-152.5 -135.5l234 -636h-249l-203 616h-109zM348 792h103q64 0 97.5 12.5t56.5 44.5q46 62 46 181q0 143 -50 201q-41 48 -144 48h-109v-487zM346 -471l72 335h204
l-132 -335h-144z" />
    <glyph glyph-name="rcommaaccent" unicode="&#x157;" horiz-adv-x="610" 
d="M102 0v1051h163l28 -86q32 58 71.5 82.5t99.5 24.5q80 0 162 -62l-95 -180q-56 56 -106 56q-59 0 -84 -86.5t-25 -289.5v-510h-214zM44 -471l72 335h204l-132 -335h-144z" />
    <glyph glyph-name="Rcaron" unicode="&#x158;" horiz-adv-x="963" 
d="M353 616v-616h-225v1462h339q131 0 199 -24q109 -38 159.5 -133t50.5 -261q0 -182 -43.5 -272.5t-152.5 -135.5l234 -636h-249l-203 616h-109zM348 792h103q64 0 97.5 12.5t56.5 44.5q46 62 46 181q0 143 -50 201q-41 48 -144 48h-109v-487zM452 1737l81 162h199
l-203 -292h-155l-203 292h199z" />
    <glyph glyph-name="rcaron" unicode="&#x159;" horiz-adv-x="610" 
d="M102 0v1051h163l28 -86q32 58 71.5 82.5t99.5 24.5q80 0 162 -62l-95 -180q-56 56 -106 56q-59 0 -84 -86.5t-25 -289.5v-510h-214zM335 1321l81 162h199l-203 -291h-155l-203 291h199z" />
    <glyph glyph-name="Sacute" unicode="&#x15a;" horiz-adv-x="876" 
d="M50 432h207q0 -142 40 -205t129 -63t129.5 57t40.5 182q0 114 -45 164q-24 27 -50 40t-127 47q-145 50 -217 133q-84 98 -84 280q0 191 82 298q88 115 266 115q231 0 317 -186q39 -82 41 -241h-206q-4 95 -19 144q-30 99 -126 99q-139 0 -139 -219q0 -96 43 -148.5
t154 -92.5q105 -38 144.5 -57.5t76.5 -52.5q104 -94 104 -313q0 -193 -82 -304q-95 -129 -298 -129q-248 0 -338 188q-41 86 -43 264zM332 1605l124 304h237l-202 -304h-159z" />
    <glyph glyph-name="sacute" unicode="&#x15b;" horiz-adv-x="765" 
d="M41 331h199q2 -80 18 -111q33 -61 126 -61q136 0 136 141q0 74 -41 103q-23 17 -127 47q-160 48 -212 102q-71 74 -71 221q0 139 69 215q76 84 230 84q208 0 281 -140q32 -62 34 -189h-197q-1 150 -112 150q-106 0 -106 -125q0 -81 59 -117q25 -16 166 -56
q126 -35 176 -101.5t50 -196.5q0 -317 -341 -317q-232 0 -305 156q-30 64 -32 195zM269 1189l124 304h237l-202 -304h-159z" />
    <glyph glyph-name="Scircumflex" unicode="&#x15c;" horiz-adv-x="876" 
d="M50 432h207q0 -142 40 -205t129 -63t129.5 57t40.5 182q0 114 -45 164q-24 27 -50 40t-127 47q-145 50 -217 133q-84 98 -84 280q0 191 82 298q88 115 266 115q231 0 317 -186q39 -82 41 -241h-206q-4 95 -19 144q-30 99 -126 99q-139 0 -139 -219q0 -96 43 -148.5
t154 -92.5q105 -38 144.5 -57.5t76.5 -52.5q104 -94 104 -313q0 -193 -82 -304q-95 -129 -298 -129q-248 0 -338 188q-41 86 -43 264zM438 1774l-81 -162h-199l203 291h155l203 -291h-199z" />
    <glyph glyph-name="scircumflex" unicode="&#x15d;" horiz-adv-x="765" 
d="M41 331h199q2 -80 18 -111q33 -61 126 -61q136 0 136 141q0 74 -41 103q-23 17 -127 47q-160 48 -212 102q-71 74 -71 221q0 139 69 215q76 84 230 84q208 0 281 -140q32 -62 34 -189h-197q-1 150 -112 150q-106 0 -106 -125q0 -81 59 -117q25 -16 166 -56
q126 -35 176 -101.5t50 -196.5q0 -317 -341 -317q-232 0 -305 156q-30 64 -32 195zM382 1358l-81 -162h-199l203 291h155l203 -291h-199z" />
    <glyph glyph-name="Scedilla" unicode="&#x15e;" horiz-adv-x="876" 
d="M50 432h207q0 -142 40 -205t129 -63t129.5 57t40.5 182q0 114 -45 164q-24 27 -50 40t-127 47q-145 50 -217 133q-84 98 -84 280q0 191 82 298q88 115 266 115q231 0 317 -186q39 -82 41 -241h-206q-4 95 -19 144q-30 99 -126 99q-139 0 -139 -219q0 -96 43 -148.5
t154 -92.5q105 -38 144.5 -57.5t76.5 -52.5q104 -94 104 -313q0 -193 -82 -304q-95 -129 -298 -129q-248 0 -338 188q-41 86 -43 264zM267 -471l72 335h204l-132 -335h-144z" />
    <glyph glyph-name="scedilla" unicode="&#x15f;" horiz-adv-x="765" 
d="M41 331h199q2 -80 18 -111q33 -61 126 -61q136 0 136 141q0 74 -41 103q-23 17 -127 47q-160 48 -212 102q-71 74 -71 221q0 139 69 215q76 84 230 84q208 0 281 -140q32 -62 34 -189h-197q-1 150 -112 150q-106 0 -106 -125q0 -81 59 -117q25 -16 166 -56
q126 -35 176 -101.5t50 -196.5q0 -317 -341 -317q-232 0 -305 156q-30 64 -32 195zM222 -471l72 335h204l-132 -335h-144z" />
    <glyph glyph-name="Scaron" unicode="&#x160;" horiz-adv-x="876" 
d="M50 432h207q0 -142 40 -205t129 -63t129.5 57t40.5 182q0 114 -45 164q-24 27 -50 40t-127 47q-145 50 -217 133q-84 98 -84 280q0 191 82 298q88 115 266 115q231 0 317 -186q39 -82 41 -241h-206q-4 95 -19 144q-30 99 -126 99q-139 0 -139 -219q0 -96 43 -148.5
t154 -92.5q105 -38 144.5 -57.5t76.5 -52.5q104 -94 104 -313q0 -193 -82 -304q-95 -129 -298 -129q-248 0 -338 188q-41 86 -43 264zM430 1737l81 162h199l-203 -292h-155l-203 292h199z" />
    <glyph glyph-name="scaron" unicode="&#x161;" horiz-adv-x="765" 
d="M41 331h199q2 -80 18 -111q33 -61 126 -61q136 0 136 141q0 74 -41 103q-23 17 -127 47q-160 48 -212 102q-71 74 -71 221q0 139 69 215q76 84 230 84q208 0 281 -140q32 -62 34 -189h-197q-1 150 -112 150q-106 0 -106 -125q0 -81 59 -117q25 -16 166 -56
q126 -35 176 -101.5t50 -196.5q0 -317 -341 -317q-232 0 -305 156q-30 64 -32 195zM383 1321l81 162h199l-203 -291h-155l-203 291h199z" />
    <glyph glyph-name="Tcommaaccent" unicode="&#x162;" horiz-adv-x="768" 
d="M271 0v1275h-256v187h738v-187h-257v-1275h-225zM211 -471l72 335h204l-132 -335h-144z" />
    <glyph glyph-name="tcommaaccent" unicode="&#x163;" horiz-adv-x="544" 
d="M133 875h-96v176h96l12 309h202v-309h154v-176h-154v-535q0 -95 23 -127.5t90 -32.5h39v-180h-61q-101 0 -156.5 14.5t-88.5 48.5q-34 36 -47 100t-13 198v514zM144 -471l72 335h204l-132 -335h-144z" />
    <glyph glyph-name="Tcaron" unicode="&#x164;" horiz-adv-x="768" 
d="M271 0v1275h-256v187h738v-187h-257v-1275h-225zM384 1737l81 162h199l-203 -292h-155l-203 292h199z" />
    <glyph glyph-name="tcaron" unicode="&#x165;" horiz-adv-x="704" 
d="M133 875h-96v176h96l12 309h202v-309h154v-176h-154v-535q0 -95 23 -127.5t90 -32.5h39v-180h-61q-101 0 -156.5 14.5t-88.5 48.5q-34 36 -47 100t-13 198v514zM507 1105l37 426h201l-89 -426h-149z" />
    <glyph glyph-name="Tbar" unicode="&#x166;" horiz-adv-x="768" 
d="M271 0v650h-178v180h178v445h-256v187h738v-187h-257v-445h178v-180h-178v-650h-225z" />
    <glyph glyph-name="tbar" unicode="&#x167;" horiz-adv-x="544" 
d="M133 875h-96v176h96l12 309h202v-309h154v-176h-154v-156h145v-152h-145v-227q0 -95 23 -127.5t90 -32.5h39v-180h-61q-101 0 -156.5 14.5t-88.5 48.5q-34 36 -47 100t-13 197v207h-96v152h96v156z" />
    <glyph glyph-name="Utilde" unicode="&#x168;" horiz-adv-x="1023" 
d="M122 1462h225v-1025q0 -137 23 -188q37 -85 135 -85q82 0 117 37q30 33 41.5 83t11.5 153v1025h225v-1025q0 -133 -14 -197q-56 -260 -375 -260q-168 0 -253 65q-79 60 -107.5 142t-28.5 250v1025zM366 1626h-128q32 266 180 266q38 0 64.5 -14t55.5 -49q52 -64 70 -64
q40 0 50 112h127q-7 -104 -27 -158q-40 -107 -146 -107q-44 0 -72 15t-56 52q-43 59 -62 59q-46 0 -56 -112z" />
    <glyph glyph-name="utilde" unicode="&#x169;" horiz-adv-x="846" 
d="M96 1051h214v-647q0 -105 12 -154q21 -84 94 -84q63 0 88.5 57.5t25.5 201.5v626h214v-1051h-160l-16 85q-35 -45 -57 -62q-56 -43 -148 -43q-179 0 -239 154q-28 71 -28 241v676zM277 1210h-128q32 266 180 266q39 0 65 -13.5t55 -49.5q52 -64 70 -64q40 0 50 112h127
q-7 -103 -27 -158q-40 -108 -146 -108q-43 0 -71.5 15t-56.5 53q-43 59 -62 59q-46 0 -56 -112z" />
    <glyph glyph-name="Umacron" unicode="&#x16a;" horiz-adv-x="1023" 
d="M122 1462h225v-1025q0 -137 23 -188q37 -85 135 -85q82 0 117 37q30 33 41.5 83t11.5 153v1025h225v-1025q0 -133 -14 -197q-56 -260 -375 -260q-168 0 -253 65q-79 60 -107.5 142t-28.5 250v1025zM273 1664v157h476v-157h-476z" />
    <glyph glyph-name="umacron" unicode="&#x16b;" horiz-adv-x="846" 
d="M96 1051h214v-647q0 -105 12 -154q21 -84 94 -84q63 0 88.5 57.5t25.5 201.5v626h214v-1051h-160l-16 85q-35 -45 -57 -62q-56 -43 -148 -43q-179 0 -239 154q-28 71 -28 241v676zM185 1248v157h476v-157h-476z" />
    <glyph glyph-name="Ubreve" unicode="&#x16c;" horiz-adv-x="1023" 
d="M122 1462h225v-1025q0 -137 23 -188q37 -85 135 -85q82 0 117 37q30 33 41.5 83t11.5 153v1025h225v-1025q0 -133 -14 -197q-56 -260 -375 -260q-168 0 -253 65q-79 60 -107.5 142t-28.5 250v1025zM251 1895h134q9 -84 35.5 -115.5t90.5 -31.5q63 0 90 31t35 116h134
q-4 -136 -29 -185q-31 -61 -82 -89q-53 -28 -148 -28q-124 0 -182 52q-44 40 -59.5 89t-18.5 161z" />
    <glyph glyph-name="ubreve" unicode="&#x16d;" horiz-adv-x="846" 
d="M96 1051h214v-647q0 -105 12 -154q21 -84 94 -84q63 0 88.5 57.5t25.5 201.5v626h214v-1051h-160l-16 85q-35 -45 -57 -62q-56 -43 -148 -43q-179 0 -239 154q-28 71 -28 241v676zM162 1480h134q8 -85 35 -117t91 -32q63 0 90 31.5t35 117.5h134q-4 -137 -29 -187
q-31 -61 -82 -88q-53 -29 -148 -29q-124 0 -182 52q-44 41 -59.5 90t-18.5 162z" />
    <glyph glyph-name="Uring" unicode="&#x16e;" horiz-adv-x="1023" 
d="M122 1462h225v-1025q0 -137 23 -188q37 -85 135 -85q82 0 117 37q30 33 41.5 83t11.5 153v1025h225v-1025q0 -133 -14 -197q-56 -260 -375 -260q-168 0 -253 65q-79 60 -107.5 142t-28.5 250v1025zM515 2027q94 0 152 -57q63 -63 63 -161t-61 -160t-157 -62
q-97 0 -155 60q-64 66 -64 162q0 100 60 159t162 59zM512 1922q-86 0 -86 -116q0 -114 85 -114q86 0 86 114q0 116 -85 116z" />
    <glyph glyph-name="uring" unicode="&#x16f;" horiz-adv-x="846" 
d="M96 1051h214v-647q0 -105 12 -154q21 -84 94 -84q63 0 88.5 57.5t25.5 201.5v626h214v-1051h-160l-16 85q-35 -45 -57 -62q-56 -43 -148 -43q-179 0 -239 154q-28 71 -28 241v676zM426 1611q94 0 152 -57q63 -63 63 -161t-61 -160t-157 -62q-97 0 -155 60q-64 66 -64 162
q0 100 60 159t162 59zM423 1506q-86 0 -86 -116q0 -114 85 -114q86 0 86 114q0 116 -85 116z" />
    <glyph glyph-name="Uhungarumlaut" unicode="&#x170;" horiz-adv-x="1023" 
d="M122 1462h225v-1025q0 -137 23 -188q37 -85 135 -85q82 0 117 37q30 33 41.5 83t11.5 153v1025h225v-1025q0 -133 -14 -197q-56 -260 -375 -260q-168 0 -253 65q-79 60 -107.5 142t-28.5 250v1025zM288 1605l97 304h216l-166 -304h-147zM549 1605l98 304h215l-166 -304
h-147z" />
    <glyph glyph-name="uhungarumlaut" unicode="&#x171;" horiz-adv-x="846" 
d="M96 1051h214v-647q0 -105 12 -154q21 -84 94 -84q63 0 88.5 57.5t25.5 201.5v626h214v-1051h-160l-16 85q-35 -45 -57 -62q-56 -43 -148 -43q-179 0 -239 154q-28 71 -28 241v676zM199 1189l97 304h216l-166 -304h-147zM460 1189l98 304h215l-166 -304h-147z" />
    <glyph glyph-name="Uogonek" unicode="&#x172;" horiz-adv-x="1023" 
d="M122 1462h225v-1025q0 -137 23 -188q37 -85 135 -85q82 0 117 37q30 33 41.5 83t11.5 153v1025h225v-1025q0 -132 -14.5 -199.5t-53.5 -123.5q-49 -68 -127 -103q-123 -123 -123 -228q0 -71 68 -71q39 0 91 20l24 -113q-75 -34 -164 -34q-210 0 -210 161q0 123 119 234
q-110 2 -174.5 24t-115.5 75q-57 58 -77.5 133t-20.5 225v1025z" />
    <glyph glyph-name="uogonek" unicode="&#x173;" horiz-adv-x="846" 
d="M744 0q-9 -10 -53 -55q-78 -80 -78 -162q0 -71 68 -71q38 0 91 19l24 -112q-75 -34 -164 -34q-210 0 -210 157q0 71 35.5 126.5t129.5 131.5h-3l-16 85q-35 -45 -57 -62q-56 -43 -148 -43q-179 0 -239 154q-28 71 -28 241v676h214v-647q0 -105 12 -154q21 -84 94 -84
q63 0 88.5 57.5t25.5 201.5v626h214v-1051z" />
    <glyph glyph-name="Wcircumflex" unicode="&#x174;" horiz-adv-x="1400" 
d="M282 0l-244 1462h224l135 -1054l216 1054h173l217 -1054l135 1054h224l-245 -1462h-202l-215 1021l-215 -1021h-203zM699 1774l-81 -162h-199l203 291h155l203 -291h-199z" />
    <glyph glyph-name="wcircumflex" unicode="&#x175;" horiz-adv-x="1170" 
d="M250 0l-214 1051h217l106 -709l150 709h152l149 -709l106 709h217l-214 -1051h-185l-149 680l-150 -680h-185zM584 1358l-81 -162h-199l203 291h155l203 -291h-199z" />
    <glyph glyph-name="Ycircumflex" unicode="&#x176;" horiz-adv-x="828" 
d="M304 0v515l-338 947h237l214 -672l214 672h237l-339 -947v-515h-225zM414 1774l-81 -162h-199l203 291h155l203 -291h-199z" />
    <glyph glyph-name="ycircumflex" unicode="&#x177;" horiz-adv-x="774" 
d="M279 -4l-258 1055h216l151 -771l144 771h217l-269 -1175q-33 -143 -71 -212t-101 -98q-81 -37 -236 -37v180q102 0 133 35q35 40 55 151zM387 1358l-81 -162h-199l203 291h155l203 -291h-199z" />
    <glyph glyph-name="Ydieresis" unicode="&#x178;" horiz-adv-x="828" 
d="M304 0v515l-338 947h237l214 -672l214 672h237l-339 -947v-515h-225zM159 1617v236h191v-236h-191zM478 1617v236h191v-236h-191z" />
    <glyph glyph-name="Zacute" unicode="&#x179;" horiz-adv-x="794" 
d="M34 0v121l452 1154h-411v187h656v-121l-451 -1154h471v-187h-717zM331 1605l124 304h237l-202 -304h-159z" />
    <glyph glyph-name="zacute" unicode="&#x17a;" horiz-adv-x="675" 
d="M30 0v124l345 748h-309v179h555v-124l-346 -748h368v-179h-613zM266 1189l124 304h237l-202 -304h-159z" />
    <glyph glyph-name="Zdotaccent" unicode="&#x17b;" horiz-adv-x="794" 
d="M34 0v121l452 1154h-411v187h656v-121l-451 -1154h471v-187h-717zM330 1614v239h206v-239h-206z" />
    <glyph glyph-name="zdotaccent" unicode="&#x17c;" horiz-adv-x="675" 
d="M30 0v124l345 748h-309v179h555v-124l-346 -748h368v-179h-613zM257 1199v239h206v-239h-206z" />
    <glyph glyph-name="Zcaron" unicode="&#x17d;" horiz-adv-x="794" 
d="M34 0v121l452 1154h-411v187h656v-121l-451 -1154h471v-187h-717zM436 1737l81 162h199l-203 -292h-155l-203 292h199z" />
    <glyph glyph-name="zcaron" unicode="&#x17e;" horiz-adv-x="675" 
d="M30 0v124l345 748h-309v179h555v-124l-346 -748h368v-179h-613zM368 1321l81 162h199l-203 -291h-155l-203 291h199z" />
    <glyph glyph-name="Ohorn" unicode="&#x1a0;" horiz-adv-x="1075" 
d="M916 1485h183q14 -47 14 -99q0 -143 -96 -234q-45 -42 -118 -93l1 -43v-570q0 -228 -77 -334q-95 -132 -322 -132q-152 0 -238 53q-85 53 -123 149.5t-38 263.5v570q0 228 77 335q95 132 322 132q168 0 260.5 -68.5t124.5 -217.5q62 67 62 152q0 70 -32 136zM675 467v529
q0 168 -38.5 235t-135.5 67q-109 0 -149 -94q-25 -60 -25 -208v-529q0 -169 38.5 -236t135.5 -67q109 0 149 93q25 61 25 210z" />
    <glyph glyph-name="ohorn" unicode="&#x1a1;" horiz-adv-x="939" 
d="M779 1064h181q16 -58 16 -103q0 -182 -210 -317q2 -18 2 -58v-187q0 -214 -68 -307q-82 -112 -271 -112q-206 0 -285 134q-54 91 -54 285v253q0 214 68 307q82 113 271 113q152 0 230 -67.5t101 -218.5q6 10 27 48q22 39 22 109q0 57 -30 121zM554 381v289
q0 125 -27.5 174t-97.5 49t-97.5 -49t-27.5 -174v-289q0 -124 27.5 -173t97.5 -49t97.5 49t27.5 173z" />
    <glyph glyph-name="Uhorn" unicode="&#x1af;" horiz-adv-x="1141" 
d="M122 1462h225v-1025q0 -137 23 -188q37 -85 135 -85q82 0 117 37q30 33 41.5 83t11.5 153v1025h225v-311q65 47 93 95t28 112t-29 127h180q14 -49 14 -99q0 -80 -32.5 -144t-104.5 -126q-36 -31 -149 -103v-576q0 -133 -14 -197q-56 -260 -375 -260q-168 0 -253 65
q-79 60 -107.5 142t-28.5 250v1025z" />
    <glyph glyph-name="uhorn" unicode="&#x1b0;" horiz-adv-x="989" 
d="M96 1051h214v-647q0 -105 12 -154q21 -84 94 -84q63 0 88.5 57.5t25.5 201.5v626h214v-321q121 82 121 211q0 60 -29 123h181q13 -48 13 -99q0 -80 -31.5 -142.5t-105.5 -126.5q-47 -41 -149 -106v-590h-160l-16 85q-47 -61 -90 -83t-115 -22q-179 0 -239 154
q-28 71 -28 241v676z" />
    <glyph glyph-name="uni01C4" unicode="&#x1c4;" horiz-adv-x="1776" 
d="M126 0v1462h344q124 0 197.5 -20.5t124.5 -68.5q59 -56 83.5 -134.5t24.5 -211.5v-592q0 -133 -24.5 -211.5t-83.5 -134.5q-51 -48 -124.5 -68.5t-197.5 -20.5h-344zM351 183h126q114 0 154 57q44 62 44 234v514q0 170 -41.5 230.5t-156.5 60.5h-126v-1096zM1016 0v121
l452 1154h-411v187h656v-121l-451 -1154h470v-187h-716zM1417 1737l81 162h200l-203 -292h-155l-203 292h199z" />
    <glyph glyph-name="uni01C5" unicode="&#x1c5;" horiz-adv-x="1678" 
d="M126 0v1462h344q124 0 197.5 -20.5t124.5 -68.5q59 -56 83.5 -134.5t24.5 -211.5v-592q0 -133 -24.5 -211.5t-83.5 -134.5q-51 -48 -124.5 -68.5t-197.5 -20.5h-344zM351 183h126q114 0 154 57q44 62 44 234v514q0 170 -41.5 230.5t-156.5 60.5h-126v-1096zM1032 0v124
l346 748h-310v179h556v-124l-346 -748h367v-179h-613zM1370 1321l81 162h199l-202 -291h-156l-203 291h200z" />
    <glyph glyph-name="uni01C6" unicode="&#x1c6;" horiz-adv-x="1537" 
d="M595 0l-14 71q-49 -52 -92 -71.5t-111 -19.5q-93 0 -151 35.5t-93 114.5q-44 98 -44 295v246q0 195 54 286q69 115 223 115q104 0 178 -70v460h214v-1462h-164zM304 686v-285q0 -123 27.5 -179t86.5 -56q127 0 127 263v193q0 264 -128 264q-113 0 -113 -200zM891 0v124
l346 748h-310v179h555v-124l-346 -748h368v-179h-613zM1229 1321l81 162h199l-203 -291h-155l-203 291h199z" />
    <glyph glyph-name="uni01C7" unicode="&#x1c7;" horiz-adv-x="1299" 
d="M126 0v1462h225v-1275h450v-187h-675zM947 1462h225v-1461q0 -158 -8 -228t-31 -119q-72 -153 -278 -153q-86 0 -175 34l84 170q36 -20 68 -20q83 0 104 108q11 54 11 204v1465z" />
    <glyph glyph-name="uni01C8" unicode="&#x1c8;" horiz-adv-x="1257" 
d="M126 0v1462h225v-1275h450v-187h-675zM936 1225v246h214v-246h-214zM936 1051h214v-1041q0 -190 -20 -264q-45 -168 -206 -204q-53 -12 -160 -13v180q59 0 89 14.5t52 54.5q31 57 31 209v1064z" />
    <glyph glyph-name="uni01C9" unicode="&#x1c9;" horiz-adv-x="916" 
d="M105 1462h214v-1081q0 -118 28 -159.5t107 -41.5h22v-180h-32q-118 0 -190 23q-85 28 -117 109.5t-32 269.5v1060zM596 1225v246h214v-246h-214zM596 1051h214v-1041q0 -190 -20 -264q-45 -168 -206 -204q-53 -12 -160 -13v180q59 0 89 14.5t52 54.5q31 57 31 209v1064z
" />
    <glyph glyph-name="uni01CA" unicode="&#x1ca;" horiz-adv-x="1543" 
d="M126 0v1462h224l377 -1000v1000h211v-1462h-213l-388 1011v-1011h-211zM1191 1462h225v-1461q0 -156 -8 -227t-31 -120q-72 -153 -278 -153q-86 0 -175 34l83 170q37 -20 69 -20q83 0 104 108q11 55 11 204v1465z" />
    <glyph glyph-name="uni01CB" unicode="&#x1cb;" horiz-adv-x="1501" 
d="M126 0v1462h224l377 -1000v1000h211v-1462h-213l-388 1011v-1011h-211zM1180 1051h214v-1041q0 -190 -20 -264q-45 -168 -206 -204q-53 -12 -160 -13v180q59 0 89 14.5t52 54.5q31 57 31 209v1064zM1180 1225v246h214v-246h-214z" />
    <glyph glyph-name="uni01CC" unicode="&#x1cc;" horiz-adv-x="1302" 
d="M102 0v1051h160l16 -85q48 60 94.5 83t121.5 23q88 0 153 -40.5t94 -113.5q29 -72 29 -242v-676h-214v647q0 105 -13 153q-23 86 -103 86q-69 0 -96.5 -57.5t-27.5 -202.5v-626h-214zM981 1051h214v-1041q0 -189 -20 -264q-45 -168 -206 -204q-53 -12 -159 -13v180
q58 0 88 15t52 54q31 56 31 209v1064zM981 1225v246h214v-246h-214z" />
    <glyph glyph-name="uni01CD" unicode="&#x1cd;" horiz-adv-x="922" 
d="M646 303h-364l-66 -303h-243l396 1462h189l396 -1462h-243zM607 484l-143 666l-143 -666h286zM462 1737l81 162h199l-203 -292h-155l-203 292h199z" />
    <glyph glyph-name="uni01CE" unicode="&#x1ce;" horiz-adv-x="823" 
d="M513 626v47q0 125 -25 173t-92 48q-59 0 -85 -37t-26 -122h-199q3 153 49 222q78 115 266 115q172 0 249 -98t77 -317v-657h-167l-13 57q-36 -42 -81.5 -59.5t-120.5 -17.5q-153 0 -223 74q-68 73 -68 244q0 124 26 185q39 91 130 121q68 22 159 22h144zM513 472h-82
q-90 0 -126 -38q-37 -41 -37 -133q0 -83 27.5 -115t98.5 -32q67 0 93 36t26 131v151zM424 1321l81 162h199l-203 -291h-155l-203 291h199z" />
    <glyph glyph-name="uni01CF" unicode="&#x1cf;" horiz-adv-x="478" 
d="M126 0v1462h225v-1462h-225zM239 1737l81 162h199l-203 -292h-155l-203 292h199z" />
    <glyph glyph-name="uni01D0" unicode="&#x1d0;" horiz-adv-x="427" 
d="M107 0v1051h214v-1051h-214zM214 1321l81 162h199l-203 -291h-155l-203 291h199z" />
    <glyph glyph-name="uni01D1" unicode="&#x1d1;" horiz-adv-x="1003" 
d="M102 446v570q0 229 77 335q95 132 322 132q151 0 238 -53q85 -53 123 -150t38 -264v-570q0 -228 -77 -334q-95 -132 -322 -132q-152 0 -238 53q-85 53 -123 149.5t-38 263.5zM675 467v529q0 169 -38.5 236t-135.5 67q-109 0 -149 -94q-25 -60 -25 -209v-529
q0 -169 38.5 -236t135.5 -67q109 0 149 93q25 61 25 210zM501 1737l81 162h200l-203 -292h-155l-203 292h199z" />
    <glyph glyph-name="uni01D2" unicode="&#x1d2;" horiz-adv-x="858" 
d="M90 399v253q0 214 68 307q82 113 271 113q181 0 260 -98t79 -322v-253q0 -214 -68 -307q-82 -112 -271 -112q-206 0 -285 134q-54 91 -54 285zM554 381v289q0 125 -27.5 174t-97.5 49t-97.5 -49t-27.5 -174v-289q0 -124 27.5 -173t97.5 -49t97.5 49t27.5 173zM429 1321
l81 162h199l-203 -291h-155l-203 291h199z" />
    <glyph glyph-name="uni01D3" unicode="&#x1d3;" horiz-adv-x="1023" 
d="M122 1462h225v-1025q0 -137 23 -188q37 -85 135 -85q82 0 117 37q30 33 41.5 83t11.5 153v1025h225v-1025q0 -133 -14 -197q-56 -260 -375 -260q-168 0 -253 65q-79 60 -107.5 142t-28.5 250v1025zM512 1737l81 162h199l-203 -292h-155l-203 292h199z" />
    <glyph glyph-name="uni01D4" unicode="&#x1d4;" horiz-adv-x="846" 
d="M96 1051h214v-647q0 -105 12 -154q21 -84 94 -84q63 0 88.5 57.5t25.5 201.5v626h214v-1051h-160l-16 85q-35 -45 -57 -62q-56 -43 -148 -43q-179 0 -239 154q-28 71 -28 241v676zM423 1321l81 162h199l-203 -291h-155l-203 291h199z" />
    <glyph glyph-name="Gcaron" unicode="&#x1e6;" horiz-adv-x="979" 
d="M514 612v176h383v-278q0 -264 -71 -375q-98 -155 -326 -155t-328 145q-70 103 -70 345v520q0 263 86 368q100 122 302 122q243 0 333 -188q39 -82 42 -239h-206q-5 97 -21 144q-34 99 -143 99q-94 0 -131 -70t-37 -250v-492q0 -161 30 -230q37 -89 144 -89q93 0 133.5 69
t40.5 229v149h-161zM489 1737l81 162h199l-203 -292h-155l-203 292h199z" />
    <glyph glyph-name="gcaron" unicode="&#x1e7;" horiz-adv-x="861" 
d="M545 35q-72 -55 -170 -55q-150 0 -217.5 104.5t-67.5 339.5v247q0 195 54 286q69 115 222 115q122 0 206 -97l22 76h165v-1087q0 -226 -69 -325q-83 -120 -272 -120q-196 0 -260 135q-29 60 -31 185h190q1 -81 24.5 -114.5t80.5 -33.5q69 0 96 52.5t27 189.5v102z
M304 686v-282q0 -125 27.5 -181.5t87.5 -56.5q126 0 126 263v193q0 264 -127 264q-114 0 -114 -200zM444 1321l81 162h199l-203 -291h-155l-203 291h199z" />
    <glyph glyph-name="uni01EA" unicode="&#x1ea;" horiz-adv-x="1003" 
d="M694 9q-119 -124 -119 -225q0 -72 68 -72q39 0 91 20l24 -113q-75 -34 -164 -34q-210 0 -210 159q0 67 26 118.5t93 117.5q-190 1 -285 90q-116 111 -113 376v570q0 229 77 335q95 132 322 132q151 0 238 -53q85 -53 123 -150t38 -264v-570q0 -185 -50 -290t-159 -147z
M678 467v529q0 169 -38.5 236t-135.5 67q-109 0 -149 -94q-25 -60 -25 -209v-529q0 -169 38.5 -236t135.5 -67q109 0 149 93q25 61 25 210z" />
    <glyph glyph-name="uni01EB" unicode="&#x1eb;" horiz-adv-x="858" 
d="M611 17q-111 -128 -111 -234q0 -71 68 -71q39 0 91 20l24 -113q-74 -34 -164 -34q-210 0 -210 161q0 123 105 234q-175 6 -249.5 102.5t-74.5 316.5v253q0 214 68 307q82 113 271 113q181 0 260 -98t79 -322v-253q0 -161 -36 -249t-121 -133zM554 381v289
q0 125 -27.5 174t-97.5 49t-97.5 -49t-27.5 -174v-289q0 -124 27.5 -173.5t97.5 -49.5t97.5 49t27.5 174z" />
    <glyph glyph-name="uni01F1" unicode="&#x1f1;" horiz-adv-x="1776" 
d="M126 0v1462h344q124 0 197.5 -20.5t124.5 -68.5q59 -56 83.5 -134.5t24.5 -211.5v-592q0 -133 -24.5 -211.5t-83.5 -134.5q-51 -48 -124.5 -68.5t-197.5 -20.5h-344zM351 183h126q114 0 154 57q44 62 44 234v514q0 170 -41.5 230.5t-156.5 60.5h-126v-1096zM1016 0v121
l452 1154h-411v187h656v-121l-451 -1154h470v-187h-716z" />
    <glyph glyph-name="uni01F2" unicode="&#x1f2;" horiz-adv-x="1678" 
d="M126 0v1462h344q124 0 197.5 -20.5t124.5 -68.5q59 -56 83.5 -134.5t24.5 -211.5v-592q0 -133 -24.5 -211.5t-83.5 -134.5q-51 -48 -124.5 -68.5t-197.5 -20.5h-344zM351 183h126q114 0 154 57q44 62 44 234v514q0 170 -41.5 230.5t-156.5 60.5h-126v-1096zM1032 0v124
l346 748h-310v179h556v-124l-346 -748h367v-179h-613z" />
    <glyph glyph-name="uni01F3" unicode="&#x1f3;" horiz-adv-x="1537" 
d="M595 0l-14 71q-49 -52 -92 -71.5t-111 -19.5q-93 0 -151 35.5t-93 114.5q-44 98 -44 295v246q0 195 54 286q69 115 223 115q104 0 178 -70v460h214v-1462h-164zM304 686v-285q0 -123 27.5 -179t86.5 -56q127 0 127 263v193q0 264 -128 264q-113 0 -113 -200zM891 0v124
l346 748h-310v179h555v-124l-346 -748h368v-179h-613z" />
    <glyph glyph-name="uni01F4" unicode="&#x1f4;" horiz-adv-x="979" 
d="M514 612v176h383v-278q0 -264 -71 -375q-98 -155 -326 -155t-328 145q-70 103 -70 345v520q0 263 86 368q100 122 302 122q243 0 333 -188q39 -82 42 -239h-206q-5 97 -21 144q-34 99 -143 99q-94 0 -131 -70t-37 -250v-492q0 -161 30 -230q37 -89 144 -89q93 0 133.5 69
t40.5 229v149h-161zM385 1605l124 304h237l-202 -304h-159z" />
    <glyph glyph-name="uni01F5" unicode="&#x1f5;" horiz-adv-x="861" 
d="M545 35q-72 -55 -170 -55q-150 0 -217.5 104.5t-67.5 339.5v247q0 195 54 286q69 115 222 115q122 0 206 -97l22 76h165v-1087q0 -226 -69 -325q-83 -120 -272 -120q-196 0 -260 135q-29 60 -31 185h190q1 -81 24.5 -114.5t80.5 -33.5q69 0 96 52.5t27 189.5v102z
M304 686v-282q0 -125 27.5 -181.5t87.5 -56.5q126 0 126 263v193q0 264 -127 264q-114 0 -114 -200zM358 1189l124 304h237l-202 -304h-159z" />
    <glyph glyph-name="Aringacute" unicode="&#x1fa;" horiz-adv-x="922" 
d="M349 1386q-50 30 -78 82.5t-28 113.5q0 98 60 158t158 60t156 -57q63 -64 63 -161q0 -128 -102 -194l376 -1388h-243l-65 303h-364l-66 -303h-243zM607 484l-143 666l-143 -666h286zM462 1695q-86 0 -86 -116q0 -115 85 -115q86 0 86 116q0 115 -85 115zM364 1842
l108 258h275l-233 -258h-150z" />
    <glyph glyph-name="aringacute" unicode="&#x1fb;" horiz-adv-x="823" 
d="M513 626v47q0 125 -25 173t-92 48q-59 0 -85 -37t-26 -122h-199q3 153 49 222q78 115 266 115q172 0 249 -98t77 -317v-657h-167l-13 57q-36 -42 -81.5 -59.5t-120.5 -17.5q-153 0 -223 74q-68 73 -68 244q0 124 26 185q39 91 130 121q68 22 159 22h144zM513 472h-82
q-90 0 -126 -38q-37 -41 -37 -133q0 -83 27.5 -115t98.5 -32q67 0 93 36t26 131v151zM426 1583q94 0 152 -57q63 -63 63 -161t-61 -160t-157 -62q-97 0 -155 60q-64 66 -64 162q0 100 60 159t162 59zM423 1478q-86 0 -86 -116q0 -114 85 -114q86 0 86 114q0 116 -85 116z
M325 1625l108 258h275l-234 -258h-149z" />
    <glyph glyph-name="AEacute" unicode="&#x1fc;" horiz-adv-x="1422" 
d="M690 326h-395l-126 -326h-260l634 1462h809v-187h-442v-443h374v-187h-374v-458h450v-187h-670v326zM690 509v766h-26l-298 -766h324zM835 1605l124 304h237l-202 -304h-159z" />
    <glyph glyph-name="aeacute" unicode="&#x1fd;" horiz-adv-x="1270" 
d="M624 970q86 102 245 102q170 0 245 -105.5t75 -344.5v-147h-462v-95q0 -123 28 -172t99 -49q64 0 93.5 39.5t30.5 127.5h200q-3 -151 -46 -224q-72 -122 -268 -122q-165 0 -246 107q-92 -107 -274 -107q-152 0 -222 74q-68 73 -68 245q0 123 26 185q40 93 130 122
q68 22 159 22h144v45q0 125 -25 173t-91 48q-60 0 -86 -37t-26 -122h-199q3 154 47 222q76 115 257 115q82 0 136.5 -23.5t97.5 -78.5zM513 474h-82q-89 0 -126 -39q-37 -40 -37 -133q0 -83 27 -115.5t97 -32.5q45 0 69 13t38 46q14 35 14 108v153zM727 631h256v57
q0 118 -28.5 164.5t-102.5 46.5q-71 0 -98 -46t-27 -165v-57zM522 1189l124 304h237l-202 -304h-159z" />
    <glyph glyph-name="Oslashacute" unicode="&#x1fe;" horiz-adv-x="1003" 
d="M864 1275q37 -95 37 -259v-570q0 -228 -77 -334q-96 -132 -323 -132q-147 0 -237 53l-35 -72l-161 76l72 148q-37 97 -37 261v570q0 229 77 335q95 132 322 132q150 0 239 -54l33 69l161 -75zM677 888l-315 -651q42 -73 139 -73q111 0 150 93q26 61 26 210v421zM327 572
l315 652q-44 75 -141 75q-109 0 -149 -94q-25 -60 -25 -209v-424zM388 1605l124 304h237l-202 -304h-159z" />
    <glyph glyph-name="oslashacute" unicode="&#x1ff;" horiz-adv-x="858" 
d="M714 922q53 -98 53 -293v-207q0 -219 -68 -319q-83 -123 -270 -123q-109 0 -192 46l-34 -64l-119 62l57 107q-51 99 -51 291v207q0 219 67 320q83 123 270 123q111 0 190 -46l34 63l119 -62zM553 619l-218 -409q30 -51 93 -51q79 0 107 81q18 53 18 167v212zM304 437
l216 407q-30 49 -92 49q-67 0 -95.5 -57t-28.5 -191v-208zM315 1189l124 304h237l-202 -304h-159z" />
    <glyph glyph-name="uni0200" unicode="&#x200;" horiz-adv-x="922" 
d="M646 303h-364l-66 -303h-243l396 1462h189l396 -1462h-243zM607 484l-143 666l-143 -666h286zM684 1605h-147l-166 304h216zM423 1605h-147l-166 304h216z" />
    <glyph glyph-name="uni0201" unicode="&#x201;" horiz-adv-x="823" 
d="M498 626v47q0 125 -25 173t-92 48q-59 0 -85 -37t-26 -122h-199q3 153 49 222q78 115 266 115q172 0 249 -98t77 -317v-657h-167l-13 57q-36 -42 -81.5 -59.5t-120.5 -17.5q-153 0 -223 74q-68 73 -68 244q0 124 26 185q39 91 130 121q68 22 159 22h144zM498 472h-82
q-90 0 -126 -38q-37 -41 -37 -133q0 -83 27.5 -115t98.5 -32q67 0 93 36t26 131v151zM620 1189h-147l-166 304h216zM359 1189h-147l-166 304h216z" />
    <glyph glyph-name="uni0202" unicode="&#x202;" horiz-adv-x="922" 
d="M646 303h-364l-66 -303h-243l396 1462h189l396 -1462h-243zM607 484l-143 666l-143 -666h286zM722 1612h-134q-8 84 -35 116t-90 32q-64 0 -91 -31.5t-35 -116.5h-134q5 136 30 186q30 61 81 88q54 29 148 29q124 0 182 -52q45 -40 59.5 -88t18.5 -163z" />
    <glyph glyph-name="uni0203" unicode="&#x203;" horiz-adv-x="823" 
d="M513 626v47q0 125 -25 173t-92 48q-59 0 -85 -37t-26 -122h-199q3 153 49 222q78 115 266 115q172 0 249 -98t77 -317v-657h-167l-13 57q-36 -42 -81.5 -59.5t-120.5 -17.5q-153 0 -223 74q-68 73 -68 244q0 124 26 185q39 91 130 121q68 22 159 22h144zM513 472h-82
q-90 0 -126 -38q-37 -41 -37 -133q0 -83 27.5 -115t98.5 -32q67 0 93 36t26 131v151zM672 1196h-134q-8 84 -35 116t-90 32q-64 0 -91 -31.5t-35 -116.5h-134q5 136 30 186q30 61 81 88q54 29 148 29q124 0 182 -52q45 -41 59.5 -88.5t18.5 -162.5z" />
    <glyph glyph-name="uni0204" unicode="&#x204;" horiz-adv-x="862" 
d="M125 0v1462h664v-187h-439v-443h372v-187h-372v-458h447v-187h-672zM678 1605h-147l-166 304h216zM417 1605h-147l-166 304h216z" />
    <glyph glyph-name="uni0205" unicode="&#x205;" horiz-adv-x="846" 
d="M299 475v-95q0 -123 28 -172t98 -49q64 0 93 40t30 127h199q-2 -152 -47 -224q-76 -122 -281 -122q-201 0 -280 143q-54 98 -54 303v195q0 230 67 330q82 121 270 121q205 0 284 -144q53 -98 53 -307v-146h-460zM299 636h254v49q0 119 -28.5 166t-101.5 47
q-70 0 -97 -46.5t-27 -166.5v-49zM641 1189h-147l-166 304h216zM380 1189h-147l-166 304h216z" />
    <glyph glyph-name="uni0206" unicode="&#x206;" horiz-adv-x="861" 
d="M128 0v1462h664v-187h-439v-443h372v-187h-372v-458h447v-187h-672zM711 1612h-134q-8 84 -35 116t-90 32q-64 0 -91 -31.5t-35 -116.5h-134q5 136 30 186q30 61 81 88q54 29 148 29q124 0 182 -52q45 -40 59.5 -88t18.5 -163z" />
    <glyph glyph-name="uni0207" unicode="&#x207;" horiz-adv-x="846" 
d="M304 475v-95q0 -123 28 -172t98 -49q64 0 93 40t30 127h199q-2 -152 -47 -224q-76 -122 -281 -122q-201 0 -280 143q-54 98 -54 303v195q0 230 67 330q82 121 270 121q205 0 284 -144q53 -98 53 -307v-146h-460zM304 636h254v49q0 119 -28.5 166t-101.5 47
q-70 0 -97 -46.5t-27 -166.5v-49zM683 1196h-134q-8 84 -35 116t-90 32q-64 0 -91 -31.5t-35 -116.5h-134q5 136 30 186q30 61 81 88q54 29 148 29q124 0 182 -52q45 -41 59.5 -88.5t18.5 -162.5z" />
    <glyph glyph-name="uni0208" unicode="&#x208;" horiz-adv-x="478" 
d="M127 0v1462h225v-1462h-225zM462 1605h-147l-166 304h216zM201 1605h-147l-166 304h216z" />
    <glyph glyph-name="uni0209" unicode="&#x209;" horiz-adv-x="427" 
d="M106 0v1051h214v-1051h-214zM436 1189h-147l-166 304h216zM175 1189h-147l-166 304h216z" />
    <glyph glyph-name="uni020A" unicode="&#x20a;" horiz-adv-x="478" 
d="M126 0v1462h225v-1462h-225zM499 1612h-134q-8 84 -35 116t-90 32q-64 0 -91 -31.5t-35 -116.5h-134q5 136 30 186q30 61 81 88q54 29 148 29q124 0 182 -52q45 -40 59.5 -88t18.5 -163z" />
    <glyph glyph-name="uni020B" unicode="&#x20b;" horiz-adv-x="427" 
d="M107 0v1051h214v-1051h-214zM474 1196h-134q-8 84 -35 116t-90 32q-64 0 -91 -31.5t-35 -116.5h-134q5 136 30 186q30 61 81 88q54 29 148 29q124 0 182 -52q45 -41 59.5 -88.5t18.5 -162.5z" />
    <glyph glyph-name="uni020C" unicode="&#x20c;" horiz-adv-x="1003" 
d="M102 446v570q0 229 77 335q95 132 322 132q151 0 238 -53q85 -53 123 -150t38 -264v-570q0 -228 -77 -334q-95 -132 -322 -132q-152 0 -238 53q-85 53 -123 149.5t-38 263.5zM675 467v529q0 169 -38.5 236t-135.5 67q-109 0 -149 -94q-25 -60 -25 -209v-529
q0 -169 38.5 -236t135.5 -67q109 0 149 93q25 61 25 210zM724 1605h-147l-166 304h216zM463 1605h-147l-166 304h216z" />
    <glyph glyph-name="uni020D" unicode="&#x20d;" horiz-adv-x="858" 
d="M80 399v253q0 214 68 307q82 113 271 113q181 0 260 -98t79 -322v-253q0 -214 -68 -307q-82 -112 -271 -112q-206 0 -285 134q-54 91 -54 285zM544 381v289q0 125 -27.5 174t-97.5 49t-97.5 -49t-27.5 -174v-289q0 -124 27.5 -173t97.5 -49t97.5 49t27.5 173zM642 1189
h-147l-166 304h216zM381 1189h-147l-166 304h216z" />
    <glyph glyph-name="uni020E" unicode="&#x20e;" horiz-adv-x="1003" 
d="M102 446v570q0 229 77 335q95 132 322 132q151 0 238 -53q85 -53 123 -150t38 -264v-570q0 -228 -77 -334q-95 -132 -322 -132q-152 0 -238 53q-85 53 -123 149.5t-38 263.5zM675 467v529q0 169 -38.5 236t-135.5 67q-109 0 -149 -94q-25 -60 -25 -209v-529
q0 -169 38.5 -236t135.5 -67q109 0 149 93q25 61 25 210zM761 1612h-134q-8 84 -35 116t-90 32q-64 0 -91 -31.5t-35 -116.5h-134q5 136 30 186q30 61 81 88q54 29 148 29q124 0 182 -52q45 -40 59.5 -88t18.5 -163z" />
    <glyph glyph-name="uni020F" unicode="&#x20f;" horiz-adv-x="858" 
d="M90 399v253q0 214 68 307q82 113 271 113q181 0 260 -98t79 -322v-253q0 -214 -68 -307q-82 -112 -271 -112q-206 0 -285 134q-54 91 -54 285zM554 381v289q0 125 -27.5 174t-97.5 49t-97.5 -49t-27.5 -174v-289q0 -124 27.5 -173t97.5 -49t97.5 49t27.5 173zM689 1196
h-134q-8 84 -35 116t-90 32q-64 0 -91 -31.5t-35 -116.5h-134q5 136 30 186q30 61 81 88q54 29 148 29q124 0 182 -52q45 -41 59.5 -88.5t18.5 -162.5z" />
    <glyph glyph-name="uni0210" unicode="&#x210;" horiz-adv-x="963" 
d="M353 616v-616h-225v1462h339q131 0 199 -24q109 -38 159.5 -133t50.5 -261q0 -182 -43.5 -272.5t-152.5 -135.5l234 -636h-249l-203 616h-109zM348 792h103q64 0 97.5 12.5t56.5 44.5q46 62 46 181q0 143 -50 201q-41 48 -144 48h-109v-487zM636 1605h-147l-166 304h216z
M375 1605h-147l-166 304h216z" />
    <glyph glyph-name="uni0211" unicode="&#x211;" horiz-adv-x="610" 
d="M102 0v1051h163l28 -86q32 58 71.5 82.5t99.5 24.5q80 0 162 -62l-95 -180q-56 56 -106 56q-59 0 -84 -86.5t-25 -289.5v-510h-214zM545 1189h-147l-166 304h216zM284 1189h-147l-166 304h216z" />
    <glyph glyph-name="uni0212" unicode="&#x212;" horiz-adv-x="963" 
d="M353 616v-616h-225v1462h339q131 0 199 -24q109 -38 159.5 -133t50.5 -261q0 -182 -43.5 -272.5t-152.5 -135.5l234 -636h-249l-203 616h-109zM348 792h103q64 0 97.5 12.5t56.5 44.5q46 62 46 181q0 143 -50 201q-41 48 -144 48h-109v-487zM700 1612h-134q-8 84 -35 116
t-90 32q-64 0 -91 -31.5t-35 -116.5h-134q5 136 30 186q30 61 81 88q54 29 148 29q124 0 182 -52q45 -40 59.5 -88t18.5 -163z" />
    <glyph glyph-name="uni0213" unicode="&#x213;" horiz-adv-x="610" 
d="M102 0v1051h163l28 -86q32 58 71.5 82.5t99.5 24.5q80 0 162 -62l-95 -180q-56 56 -106 56q-59 0 -84 -86.5t-25 -289.5v-510h-214zM592 1196h-134q-8 84 -35 116t-90 32q-64 0 -91 -31.5t-35 -116.5h-134q5 136 30 186q30 61 81 88q54 29 148 29q124 0 182 -52
q45 -41 59.5 -88.5t18.5 -162.5z" />
    <glyph glyph-name="uni0214" unicode="&#x214;" horiz-adv-x="1023" 
d="M122 1462h225v-1025q0 -137 23 -188q37 -85 135 -85q82 0 117 37q30 33 41.5 83t11.5 153v1025h225v-1025q0 -133 -14 -197q-56 -260 -375 -260q-168 0 -253 65q-79 60 -107.5 142t-28.5 250v1025zM734 1605h-147l-166 304h216zM473 1605h-147l-166 304h216z" />
    <glyph glyph-name="uni0215" unicode="&#x215;" horiz-adv-x="846" 
d="M93 1051h214v-647q0 -105 12 -154q21 -84 94 -84q63 0 88.5 57.5t25.5 201.5v626h214v-1051h-160l-16 85q-35 -45 -57 -62q-56 -43 -148 -43q-179 0 -239 154q-28 71 -28 241v676zM642 1189h-147l-166 304h216zM381 1189h-147l-166 304h216z" />
    <glyph glyph-name="uni0216" unicode="&#x216;" horiz-adv-x="1023" 
d="M122 1462h225v-1025q0 -137 23 -188q37 -85 135 -85q82 0 117 37q30 33 41.5 83t11.5 153v1025h225v-1025q0 -133 -14 -197q-56 -260 -375 -260q-168 0 -253 65q-79 60 -107.5 142t-28.5 250v1025zM771 1612h-134q-8 84 -35 116t-90 32q-64 0 -91 -31.5t-35 -116.5h-134
q5 136 30 186q30 61 81 88q54 29 148 29q124 0 182 -52q45 -40 59.5 -88t18.5 -163z" />
    <glyph glyph-name="uni0217" unicode="&#x217;" horiz-adv-x="846" 
d="M96 1051h214v-647q0 -105 12 -154q21 -84 94 -84q63 0 88.5 57.5t25.5 201.5v626h214v-1051h-160l-16 85q-35 -45 -57 -62q-56 -43 -148 -43q-179 0 -239 154q-28 71 -28 241v676zM683 1196h-134q-8 84 -35 116t-90 32q-64 0 -91 -31.5t-35 -116.5h-134q5 136 30 186
q30 61 81 88q54 29 148 29q124 0 182 -52q45 -41 59.5 -88.5t18.5 -162.5z" />
    <glyph glyph-name="Scommaaccent" unicode="&#x218;" horiz-adv-x="876" 
d="M50 432h207q0 -142 40 -205t129 -63t129.5 57t40.5 182q0 114 -45 164q-24 27 -50 40t-127 47q-145 50 -217 133q-84 98 -84 280q0 191 82 298q88 115 266 115q231 0 317 -186q39 -82 41 -241h-206q-4 95 -19 144q-30 99 -126 99q-139 0 -139 -219q0 -96 43 -148.5
t154 -92.5q105 -38 144.5 -57.5t76.5 -52.5q104 -94 104 -313q0 -193 -82 -304q-95 -129 -298 -129q-248 0 -338 188q-41 86 -43 264zM263 -471l72 335h204l-132 -335h-144z" />
    <glyph glyph-name="scommaaccent" unicode="&#x219;" horiz-adv-x="765" 
d="M41 331h199q2 -80 18 -111q33 -61 126 -61q136 0 136 141q0 74 -41 103q-23 17 -127 47q-160 48 -212 102q-71 74 -71 221q0 139 69 215q76 84 230 84q208 0 281 -140q32 -62 34 -189h-197q-1 150 -112 150q-106 0 -106 -125q0 -81 59 -117q25 -16 166 -56
q126 -35 176 -101.5t50 -196.5q0 -317 -341 -317q-232 0 -305 156q-30 64 -32 195zM216 -471l72 335h204l-132 -335h-144z" />
    <glyph glyph-name="uni021A" unicode="&#x21a;" horiz-adv-x="768" 
d="M271 0v1275h-256v187h738v-187h-257v-1275h-225zM211 -471l72 335h204l-132 -335h-144z" />
    <glyph glyph-name="uni021B" unicode="&#x21b;" horiz-adv-x="544" 
d="M133 875h-96v176h96l12 309h202v-309h154v-176h-154v-535q0 -95 23 -127.5t90 -32.5h39v-180h-61q-101 0 -156.5 14.5t-88.5 48.5q-34 36 -47 100t-13 198v514zM144 -471l72 335h204l-132 -335h-144z" />
    <glyph glyph-name="uni0226" unicode="&#x226;" horiz-adv-x="922" 
d="M646 303h-364l-66 -303h-243l396 1462h189l396 -1462h-243zM607 484l-143 666l-143 -666h286zM358 1614v239h206v-239h-206z" />
    <glyph glyph-name="uni0227" unicode="&#x227;" horiz-adv-x="823" 
d="M513 626v47q0 125 -25 173t-92 48q-59 0 -85 -37t-26 -122h-199q3 153 49 222q78 115 266 115q172 0 249 -98t77 -317v-657h-167l-13 57q-36 -42 -81.5 -59.5t-120.5 -17.5q-153 0 -223 74q-68 73 -68 244q0 124 26 185q39 91 130 121q68 22 159 22h144zM513 472h-82
q-90 0 -126 -38q-37 -41 -37 -133q0 -83 27.5 -115t98.5 -32q67 0 93 36t26 131v151zM309 1199v239h206v-239h-206z" />
    <glyph glyph-name="uni0237" unicode="&#x237;" horiz-adv-x="436" 
d="M115 1051h214v-1041q0 -189 -20 -264q-45 -168 -206 -204q-53 -12 -160 -13v180q59 0 89 14.5t52 54.5q31 57 31 209v1064z" />
    <glyph glyph-name="afii57929" unicode="&#x2bc;" horiz-adv-x="337" 
d="M34 953l47 509h223l-89 -509h-181z" />
    <glyph glyph-name="uni02C0" unicode="&#x2c0;" horiz-adv-x="1024" 
d="M597 1581h-155q2 90 9.5 117t50.5 86q19 27 19 47q0 39 -51 39q-39 0 -111 -34l-42 140q111 37 191 37q108 0 156 -53q43 -48 43 -119q0 -40 -12 -63.5t-61 -78.5q-23 -25 -29.5 -46t-7.5 -72z" />
    <glyph glyph-name="circumflex" unicode="&#x2c6;" horiz-adv-x="1024" 
d="M511 1358l-81 -162h-199l203 291h155l203 -291h-199z" />
    <glyph glyph-name="caron" unicode="&#x2c7;" horiz-adv-x="1024" 
d="M512 1321l81 162h199l-203 -291h-155l-203 291h199z" />
    <glyph glyph-name="uni02C9" unicode="&#x2c9;" horiz-adv-x="1024" 
d="M274 1248v157h476v-157h-476z" />
    <glyph glyph-name="breve" unicode="&#x2d8;" horiz-adv-x="1024" 
d="M251 1480h134q8 -85 35 -117t91 -32q63 0 90 31.5t35 117.5h134q-4 -137 -29 -187q-31 -61 -82 -88q-53 -29 -148 -29q-124 0 -182 52q-44 41 -59.5 90t-18.5 162z" />
    <glyph glyph-name="dotaccent" unicode="&#x2d9;" horiz-adv-x="1024" 
d="M409 1199v239h206v-239h-206z" />
    <glyph glyph-name="ring" unicode="&#x2da;" horiz-adv-x="1024" 
d="M516 1611q94 0 152 -57q63 -63 63 -161t-61 -160t-157 -62q-97 0 -155 60q-64 66 -64 162q0 100 60 159t162 59zM513 1506q-86 0 -86 -116q0 -114 85 -114q86 0 86 114q0 116 -85 116z" />
    <glyph glyph-name="ogonek" unicode="&#x2db;" horiz-adv-x="1024" 
d="M556 0h158q-11 -12 -53 -55q-78 -80 -78 -163q0 -70 68 -70q38 0 91 19l24 -112q-75 -34 -164 -34q-210 0 -210 157q0 105 92 194q8 9 72 64z" />
    <glyph glyph-name="tilde" unicode="&#x2dc;" horiz-adv-x="1024" 
d="M366 1210h-128q32 266 180 266q39 0 65 -13.5t55 -49.5q52 -64 70 -64q40 0 50 112h127q-7 -103 -27 -158q-40 -108 -146 -108q-43 0 -71.5 15t-56.5 53q-43 59 -62 59q-46 0 -56 -112z" />
    <glyph glyph-name="hungarumlaut" unicode="&#x2dd;" horiz-adv-x="1024" 
d="M289 1189l97 304h216l-166 -304h-147zM550 1189l98 304h215l-166 -304h-147z" />
    <glyph glyph-name="hookabovecomb" unicode="&#x309;" horiz-adv-x="1024" 
d="M597 1179h-155q2 89 9.5 116t50.5 86q19 27 19 46q0 39 -51 39q-38 0 -111 -33l-42 140q107 37 192 37q107 0 155 -53q43 -48 43 -119q0 -40 -12 -63.5t-61 -77.5q-23 -26 -29.5 -46.5t-7.5 -71.5z" />
    <glyph glyph-name="uni0312" unicode="&#x312;" horiz-adv-x="1024" 
d="M399 1189l202 304h159l-124 -304h-237z" />
    <glyph glyph-name="uni0313" unicode="&#x313;" horiz-adv-x="183" 
d="M-24 969l51 518h201l-103 -518h-149z" />
    <glyph glyph-name="uni031B" unicode="&#x31b;" horiz-adv-x="183" 
d="M-24 969l51 518h201l-103 -518h-149z" />
    <glyph glyph-name="dotbelowcomb" unicode="&#x323;" horiz-adv-x="1024" 
d="M409 -414v239h206v-239h-206z" />
    <glyph glyph-name="uni0326" unicode="&#x326;" horiz-adv-x="1024" 
d="M381 -471l72 335h204l-132 -335h-144z" />
    <glyph glyph-name="uni037E" unicode="&#x37e;" horiz-adv-x="434" 
d="M50 -385l71 618h236l-113 -618h-194zM129 807v237h225v-237h-225z" />
    <glyph glyph-name="anoteleia" unicode="&#x387;" horiz-adv-x="436" 
d="M106 616v237h225v-237h-225z" />
    <glyph glyph-name="uni04D4" unicode="&#x4d4;" horiz-adv-x="1422" 
d="M690 326h-395l-126 -326h-260l634 1462h809v-187h-442v-443h374v-187h-374v-458h450v-187h-670v326zM690 509v766h-26l-298 -766h324z" />
    <glyph glyph-name="uni04D5" unicode="&#x4d5;" horiz-adv-x="1270" 
d="M624 970q86 102 245 102q170 0 245 -105.5t75 -344.5v-147h-462v-95q0 -123 28 -172t99 -49q64 0 93.5 39.5t30.5 127.5h200q-3 -151 -46 -224q-72 -122 -268 -122q-165 0 -246 107q-92 -107 -274 -107q-152 0 -222 74q-68 73 -68 245q0 123 26 185q40 93 130 122
q68 22 159 22h144v45q0 125 -25 173t-91 48q-60 0 -86 -37t-26 -122h-199q3 154 47 222q76 115 257 115q82 0 136.5 -23.5t97.5 -78.5zM513 474h-82q-89 0 -126 -39q-37 -40 -37 -133q0 -83 27 -115.5t97 -32.5q45 0 69 13t38 46q14 35 14 108v153zM727 631h256v57
q0 118 -28.5 164.5t-102.5 46.5q-71 0 -98 -46t-27 -165v-57z" />
    <glyph glyph-name="uni1E02" unicode="&#x1e02;" horiz-adv-x="982" 
d="M126 0v1462h360q118 0 185 -20t112 -69q94 -101 94 -299q0 -235 -129 -311q148 -93 148 -366q0 -217 -101 -319q-43 -43 -100.5 -60.5t-155.5 -17.5h-413zM351 839h136q85 0 125 53t40 165q0 120 -40.5 171t-135.5 51h-125v-440zM351 183h133q59 0 90 10.5t52 37.5
q45 58 45 182q0 130 -39.5 186.5t-130.5 56.5h-150v-473zM360 1614v239h206v-239h-206z" />
    <glyph glyph-name="uni1E03" unicode="&#x1e03;" horiz-adv-x="861" 
d="M102 0v1462h214v-460q74 70 178 70q144 0 210.5 -96t66.5 -305v-246q0 -216 -55 -317q-37 -68 -90 -98q-54 -30 -144 -30q-67 0 -109.5 19t-92.5 72l-13 -71h-165zM557 398v288q0 200 -113 200q-128 0 -128 -264v-193q0 -263 127 -263q59 0 86.5 55.5t27.5 176.5z
M460 1199v239h206v-239h-206z" />
    <glyph glyph-name="uni1E0C" unicode="&#x1e0c;" horiz-adv-x="1003" 
d="M126 0v1462h344q124 0 197.5 -20.5t124.5 -68.5q59 -56 83.5 -134.5t24.5 -211.5v-592q0 -133 -24.5 -211.5t-83.5 -134.5q-51 -48 -124.5 -68.5t-197.5 -20.5h-344zM351 183h126q114 0 154 57q44 62 44 234v514q0 170 -41.5 230.5t-156.5 60.5h-126v-1096zM350 -414v239
h206v-239h-206z" />
    <glyph glyph-name="uni1E0D" unicode="&#x1e0d;" horiz-adv-x="861" 
d="M595 0l-14 71q-49 -52 -92 -71.5t-111 -19.5q-93 0 -151 35.5t-93 114.5q-44 98 -44 295v246q0 195 54 286q69 115 223 115q104 0 178 -70v460h214v-1462h-164zM304 686v-285q0 -123 27.5 -179t86.5 -56q127 0 127 263v193q0 264 -128 264q-113 0 -113 -200zM351 -414
v239h206v-239h-206z" />
    <glyph glyph-name="uni1E1E" unicode="&#x1e1e;" horiz-adv-x="823" 
d="M128 0v1462h655v-187h-430v-454h359v-187h-359v-634h-225zM365 1614v239h206v-239h-206z" />
    <glyph glyph-name="uni1E1F" unicode="&#x1e1f;" horiz-adv-x="530" 
d="M138 875h-97v176h97v108q0 102 13.5 157.5t47.5 91.5q29 31 74 42.5t136 11.5h96v-164h-48q-44 0 -61 -5t-28 -22q-16 -27 -16 -123v-97h158v-176h-158v-875h-214v875zM240 1614v239h206v-239h-206z" />
    <glyph glyph-name="uni1E24" unicode="&#x1e24;" horiz-adv-x="1017" 
d="M126 0v1462h225v-630h314v630h225v-1462h-225v645h-314v-645h-225zM405 -414v239h206v-239h-206z" />
    <glyph glyph-name="uni1E25" unicode="&#x1e25;" horiz-adv-x="866" 
d="M102 0v1462h214v-452q69 62 178 62q89 0 153.5 -40.5t93.5 -113.5q29 -72 29 -242v-676h-214v648q0 105 -13 154q-23 84 -101 84q-71 0 -98.5 -57t-27.5 -203v-626h-214zM330 -414v239h206v-239h-206z" />
    <glyph glyph-name="uni1E44" unicode="&#x1e44;" horiz-adv-x="1065" 
d="M126 0v1462h224l377 -1000v1000h211v-1462h-213l-388 1011v-1011h-211zM446 1614v239h206v-239h-206z" />
    <glyph glyph-name="uni1E45" unicode="&#x1e45;" horiz-adv-x="866" 
d="M102 0v1051h160l16 -85q48 60 94.5 83t121.5 23q88 0 153 -40.5t94 -113.5q29 -72 29 -242v-676h-214v647q0 105 -13 153q-23 86 -103 86q-69 0 -96.5 -57.5t-27.5 -202.5v-626h-214zM330 1199v239h206v-239h-206z" />
    <glyph glyph-name="uni1E5A" unicode="&#x1e5a;" horiz-adv-x="963" 
d="M353 616v-616h-225v1462h339q131 0 199 -24q109 -38 159.5 -133t50.5 -261q0 -182 -43.5 -272.5t-152.5 -135.5l234 -636h-249l-203 616h-109zM348 792h103q64 0 97.5 12.5t56.5 44.5q46 62 46 181q0 143 -50 201q-41 48 -144 48h-109v-487zM385 -414v239h206v-239h-206z
" />
    <glyph glyph-name="uni1E5B" unicode="&#x1e5b;" horiz-adv-x="610" 
d="M102 0v1051h163l28 -86q32 58 71.5 82.5t99.5 24.5q80 0 162 -62l-95 -180q-56 56 -106 56q-59 0 -84 -86.5t-25 -289.5v-510h-214zM106 -414v239h206v-239h-206z" />
    <glyph glyph-name="uni1E62" unicode="&#x1e62;" horiz-adv-x="876" 
d="M50 432h207q0 -142 40 -205t129 -63t129.5 57t40.5 182q0 114 -45 164q-24 27 -50 40t-127 47q-145 50 -217 133q-84 98 -84 280q0 191 82 298q88 115 266 115q231 0 317 -186q39 -82 41 -241h-206q-4 95 -19 144q-30 99 -126 99q-139 0 -139 -219q0 -96 43 -148.5
t154 -92.5q105 -38 144.5 -57.5t76.5 -52.5q104 -94 104 -313q0 -193 -82 -304q-95 -129 -298 -129q-248 0 -338 188q-41 86 -43 264zM315 -414v239h206v-239h-206z" />
    <glyph glyph-name="uni1E63" unicode="&#x1e63;" horiz-adv-x="765" 
d="M41 331h199q2 -80 18 -111q33 -61 126 -61q136 0 136 141q0 74 -41 103q-23 17 -127 47q-160 48 -212 102q-71 74 -71 221q0 139 69 215q76 84 230 84q208 0 281 -140q32 -62 34 -189h-197q-1 150 -112 150q-106 0 -106 -125q0 -81 59 -117q25 -16 166 -56
q126 -35 176 -101.5t50 -196.5q0 -317 -341 -317q-232 0 -305 156q-30 64 -32 195zM255 -414v239h206v-239h-206z" />
    <glyph glyph-name="uni1E6C" unicode="&#x1e6c;" horiz-adv-x="768" 
d="M271 0v1275h-256v187h738v-187h-257v-1275h-225zM281 -414v239h206v-239h-206z" />
    <glyph glyph-name="uni1E6D" unicode="&#x1e6d;" horiz-adv-x="544" 
d="M133 875h-96v176h96l12 309h202v-309h154v-176h-154v-535q0 -95 23 -127.5t90 -32.5h39v-180h-61q-101 0 -156.5 14.5t-88.5 48.5q-34 36 -47 100t-13 198v514zM169 -414v239h206v-239h-206z" />
    <glyph glyph-name="Wgrave" unicode="&#x1e80;" horiz-adv-x="1400" 
d="M282 0l-244 1462h224l135 -1054l216 1054h173l217 -1054l135 1054h224l-245 -1462h-202l-215 1021l-215 -1021h-203zM814 1605h-159l-202 304h237z" />
    <glyph glyph-name="wgrave" unicode="&#x1e81;" horiz-adv-x="1170" 
d="M250 0l-214 1051h217l106 -709l150 709h152l149 -709l106 709h217l-214 -1051h-185l-149 680l-150 -680h-185zM699 1189h-159l-202 304h237z" />
    <glyph glyph-name="Wacute" unicode="&#x1e82;" horiz-adv-x="1400" 
d="M282 0l-244 1462h224l135 -1054l216 1054h173l217 -1054l135 1054h224l-245 -1462h-202l-215 1021l-215 -1021h-203zM586 1605l124 304h237l-202 -304h-159z" />
    <glyph glyph-name="wacute" unicode="&#x1e83;" horiz-adv-x="1170" 
d="M250 0l-214 1051h217l106 -709l150 709h152l149 -709l106 709h217l-214 -1051h-185l-149 680l-150 -680h-185zM471 1189l124 304h237l-202 -304h-159z" />
    <glyph glyph-name="Wdieresis" unicode="&#x1e84;" horiz-adv-x="1400" 
d="M282 0l-244 1462h224l135 -1054l216 1054h173l217 -1054l135 1054h224l-245 -1462h-202l-215 1021l-215 -1021h-203zM445 1617v236h191v-236h-191zM764 1617v236h191v-236h-191z" />
    <glyph glyph-name="wdieresis" unicode="&#x1e85;" horiz-adv-x="1170" 
d="M250 0l-214 1051h217l106 -709l150 709h152l149 -709l106 709h217l-214 -1051h-185l-149 680l-150 -680h-185zM333 1200v238h191v-238h-191zM645 1200v238h191v-238h-191z" />
    <glyph glyph-name="uni1E92" unicode="&#x1e92;" horiz-adv-x="794" 
d="M34 0v121l452 1154h-411v187h656v-121l-451 -1154h471v-187h-717zM314 -414v239h206v-239h-206z" />
    <glyph glyph-name="uni1E93" unicode="&#x1e93;" horiz-adv-x="675" 
d="M30 0v124l345 748h-309v179h555v-124l-346 -748h368v-179h-613zM252 -414v239h206v-239h-206z" />
    <glyph glyph-name="uni1EA0" unicode="&#x1ea0;" horiz-adv-x="922" 
d="M646 303h-364l-66 -303h-243l396 1462h189l396 -1462h-243zM607 484l-143 666l-143 -666h286zM358 -414v239h206v-239h-206z" />
    <glyph glyph-name="uni1EA1" unicode="&#x1ea1;" horiz-adv-x="823" 
d="M513 626v47q0 125 -25 173t-92 48q-59 0 -85 -37t-26 -122h-199q3 153 49 222q78 115 266 115q172 0 249 -98t77 -317v-657h-167l-13 57q-36 -42 -81.5 -59.5t-120.5 -17.5q-153 0 -223 74q-68 73 -68 244q0 124 26 185q39 91 130 121q68 22 159 22h144zM513 472h-82
q-90 0 -126 -38q-37 -41 -37 -133q0 -83 27.5 -115t98.5 -32q67 0 93 36t26 131v151zM309 -414v239h206v-239h-206z" />
    <glyph glyph-name="uni1EA2" unicode="&#x1ea2;" horiz-adv-x="922" 
d="M646 303h-364l-66 -303h-243l396 1462h189l396 -1462h-243zM607 484l-143 666l-143 -666h286zM547 1581h-155q2 92 9.5 118t49.5 85q19 27 19 47q0 39 -51 39q-38 0 -110 -34l-42 140q111 37 191 37q107 0 155 -53q43 -47 43 -118q0 -41 -12 -64.5t-61 -78.5
q-22 -24 -28 -45t-8 -73z" />
    <glyph glyph-name="uni1EA3" unicode="&#x1ea3;" horiz-adv-x="823" 
d="M513 626v47q0 125 -25 173t-92 48q-59 0 -85 -37t-26 -122h-199q3 153 49 222q78 115 266 115q172 0 249 -98t77 -317v-657h-167l-13 57q-36 -42 -81.5 -59.5t-120.5 -17.5q-153 0 -223 74q-68 73 -68 244q0 124 26 185q39 91 130 121q68 22 159 22h144zM513 472h-82
q-90 0 -126 -38q-37 -41 -37 -133q0 -83 27.5 -115t98.5 -32q67 0 93 36t26 131v151zM498 1179h-155q1 89 9 116t50 86q19 27 19 46q0 39 -51 39q-38 0 -111 -33l-42 140q107 37 192 37q107 0 155 -53q43 -48 43 -119q0 -40 -12 -63.5t-61 -77.5q-22 -26 -28.5 -46.5
t-7.5 -71.5z" />
    <glyph glyph-name="uni1EA4" unicode="&#x1ea4;" horiz-adv-x="922" 
d="M646 303h-364l-66 -303h-243l396 1462h189l396 -1462h-243zM607 484l-143 666l-143 -666h286zM391 1850l93 237h167l-144 -237h-116zM462 1672l-84 -113h-188l200 236h143l200 -236h-187z" />
    <glyph glyph-name="uni1EA5" unicode="&#x1ea5;" horiz-adv-x="823" 
d="M513 626v47q0 125 -25 173t-92 48q-59 0 -85 -37t-26 -122h-199q3 153 49 222q78 115 266 115q172 0 249 -98t77 -317v-657h-167l-13 57q-36 -42 -81.5 -59.5t-120.5 -17.5q-153 0 -223 74q-68 73 -68 244q0 124 26 185q39 91 130 121q68 22 159 22h144zM513 472h-82
q-90 0 -126 -38q-37 -41 -37 -133q0 -83 27.5 -115t98.5 -32q67 0 93 36t26 131v151zM348 1434l93 237h167l-145 -237h-115zM418 1256l-83 -113h-188l200 237h143l200 -237h-188z" />
    <glyph glyph-name="uni1EA6" unicode="&#x1ea6;" horiz-adv-x="922" 
d="M646 303h-364l-66 -303h-243l396 1462h189l396 -1462h-243zM607 484l-143 666l-143 -666h286zM528 1850h-115l-145 237h167zM462 1672l-84 -113h-188l200 236h143l200 -236h-188z" />
    <glyph glyph-name="uni1EA7" unicode="&#x1ea7;" horiz-adv-x="823" 
d="M513 626v47q0 125 -25 173t-92 48q-59 0 -85 -37t-26 -122h-199q3 153 49 222q78 115 266 115q172 0 249 -98t77 -317v-657h-167l-13 57q-36 -42 -81.5 -59.5t-120.5 -17.5q-153 0 -223 74q-68 73 -68 244q0 124 26 185q39 91 130 121q68 22 159 22h144zM513 472h-82
q-90 0 -126 -38q-37 -41 -37 -133q0 -83 27.5 -115t98.5 -32q67 0 93 36t26 131v151zM485 1434h-115l-145 237h167zM418 1256l-84 -113h-187l200 237h143l200 -237h-188z" />
    <glyph glyph-name="uni1EA8" unicode="&#x1ea8;" horiz-adv-x="922" 
d="M646 303h-364l-66 -303h-243l396 1462h189l396 -1462h-243zM607 484l-143 666l-143 -666h286zM519 1812h-123q1 53 5 72t18 41q23 35 23 55q0 23 -26 23q-23 0 -66 -24l-30 97q59 29 128 29q70 0 104 -37q32 -35 32 -84q0 -26 -8 -43t-39 -55q-16 -20 -18 -74zM460 1667
l-84 -108h-188l200 220h144l200 -220h-188z" />
    <glyph glyph-name="uni1EA9" unicode="&#x1ea9;" horiz-adv-x="823" 
d="M513 626v47q0 125 -25 173t-92 48q-59 0 -85 -37t-26 -122h-199q3 153 49 222q78 115 266 115q172 0 249 -98t77 -317v-657h-167l-13 57q-36 -42 -81.5 -59.5t-120.5 -17.5q-153 0 -223 74q-68 73 -68 244q0 124 26 185q39 91 130 121q68 22 159 22h144zM513 472h-82
q-90 0 -126 -38q-37 -41 -37 -133q0 -83 27.5 -115t98.5 -32q67 0 93 36t26 131v151zM475 1396h-123q2 53 5.5 72t18.5 41q23 35 23 55q0 23 -26 23q-22 0 -66 -23l-30 97q60 28 127 28q71 0 105 -37q32 -35 32 -84q0 -26 -8 -43t-39 -55q-16 -20 -19 -74zM417 1251
l-84 -108h-188l200 220h143l201 -220h-188z" />
    <glyph glyph-name="uni1EAA" unicode="&#x1eaa;" horiz-adv-x="922" 
d="M646 303h-364l-66 -303h-243l396 1462h189l396 -1462h-243zM607 484l-143 666l-143 -666h286zM334 1856h-106q14 91 34 134q40 86 121 86q56 0 100 -50q44 -51 59 -51q32 0 41 92h107q-10 -93 -27 -136q-33 -84 -118 -84q-36 0 -59 11.5t-47 42.5q-38 47 -53 47
q-16 0 -31 -27t-21 -65zM464 1672l-84 -113h-188l200 236h143l201 -236h-188z" />
    <glyph glyph-name="uni1EAB" unicode="&#x1eab;" horiz-adv-x="823" 
d="M513 626v47q0 125 -25 173t-92 48q-59 0 -85 -37t-26 -122h-199q3 153 49 222q78 115 266 115q172 0 249 -98t77 -317v-657h-167l-13 57q-36 -42 -81.5 -59.5t-120.5 -17.5q-153 0 -223 74q-68 73 -68 244q0 124 26 185q39 91 130 121q68 22 159 22h144zM513 472h-82
q-90 0 -126 -38q-37 -41 -37 -133q0 -83 27.5 -115t98.5 -32q67 0 93 36t26 131v151zM291 1441h-106q15 92 34 133q40 86 120 86q57 0 100 -50q45 -51 60 -51q32 0 41 92h106q-9 -93 -26 -136q-33 -83 -118 -83q-36 0 -59 11.5t-48 41.5q-37 47 -52 47q-17 0 -32 -26.5
t-20 -64.5zM421 1256l-84 -113h-188l200 237h143l201 -237h-188z" />
    <glyph glyph-name="uni1EAC" unicode="&#x1eac;" horiz-adv-x="922" 
d="M646 303h-364l-66 -303h-243l396 1462h189l396 -1462h-243zM607 484l-143 666l-143 -666h286zM461 1774l-80 -162h-200l203 291h155l203 -291h-199zM358 -414v239h206v-239h-206z" />
    <glyph glyph-name="uni1EAD" unicode="&#x1ead;" horiz-adv-x="823" 
d="M513 626v47q0 125 -25 173t-92 48q-59 0 -85 -37t-26 -122h-199q3 153 49 222q78 115 266 115q172 0 249 -98t77 -317v-657h-167l-13 57q-36 -42 -81.5 -59.5t-120.5 -17.5q-153 0 -223 74q-68 73 -68 244q0 124 26 185q39 91 130 121q68 22 159 22h144zM513 472h-82
q-90 0 -126 -38q-37 -41 -37 -133q0 -83 27.5 -115t98.5 -32q67 0 93 36t26 131v151zM423 1358l-81 -162h-199l202 291h156l203 -291h-200zM299 -414v239h206v-239h-206z" />
    <glyph glyph-name="uni1EAE" unicode="&#x1eae;" horiz-adv-x="922" 
d="M646 303h-364l-66 -303h-243l396 1462h189l396 -1462h-243zM607 484l-143 666l-143 -666h286zM392 1850l92 237h167l-144 -237h-115zM210 1831h124q7 -64 25 -89q30 -41 103 -41q64 0 91.5 28t36.5 102h123q-4 -124 -30 -172q-30 -58 -79 -83q-51 -26 -142 -26
q-120 0 -174 48q-43 38 -58 83.5t-20 149.5z" />
    <glyph glyph-name="uni1EAF" unicode="&#x1eaf;" horiz-adv-x="823" 
d="M513 626v47q0 125 -25 173t-92 48q-59 0 -85 -37t-26 -122h-199q3 153 49 222q78 115 266 115q172 0 249 -98t77 -317v-657h-167l-13 57q-36 -42 -81.5 -59.5t-120.5 -17.5q-153 0 -223 74q-68 73 -68 244q0 124 26 185q39 91 130 121q68 22 159 22h144zM513 472h-82
q-90 0 -126 -38q-37 -41 -37 -133q0 -83 27.5 -115t98.5 -32q67 0 93 36t26 131v151zM342 1434l93 237h167l-145 -237h-115zM161 1416h123q9 -74 37 -102t92 -28q63 0 90.5 28t36.5 102h123q-5 -125 -29 -173q-31 -57 -82.5 -82.5t-139.5 -25.5q-93 0 -147.5 30t-81.5 96
q-18 44 -22 155z" />
    <glyph glyph-name="uni1EB0" unicode="&#x1eb0;" horiz-adv-x="922" 
d="M646 303h-364l-66 -303h-243l396 1462h189l396 -1462h-243zM607 484l-143 666l-143 -666h286zM540 1850h-115l-145 237h167zM210 1831h124q7 -64 25 -89q30 -41 103 -41q64 0 91.5 28t36.5 102h123q-4 -124 -30 -172q-30 -58 -79 -83q-51 -26 -142 -26q-120 0 -174 48
q-43 38 -58 83.5t-20 149.5z" />
    <glyph glyph-name="uni1EB1" unicode="&#x1eb1;" horiz-adv-x="823" 
d="M513 626v47q0 125 -25 173t-92 48q-59 0 -85 -37t-26 -122h-199q3 153 49 222q78 115 266 115q172 0 249 -98t77 -317v-657h-167l-13 57q-36 -42 -81.5 -59.5t-120.5 -17.5q-153 0 -223 74q-68 73 -68 244q0 124 26 185q39 91 130 121q68 22 159 22h144zM513 472h-82
q-90 0 -126 -38q-37 -41 -37 -133q0 -83 27.5 -115t98.5 -32q67 0 93 36t26 131v151zM490 1434h-115l-144 237h167zM161 1416h123q9 -74 37 -102t92 -28q63 0 90.5 28t36.5 102h123q-5 -125 -29 -173q-31 -57 -82.5 -82.5t-139.5 -25.5q-93 0 -147.5 30t-81.5 96
q-18 44 -22 155z" />
    <glyph glyph-name="uni1EB2" unicode="&#x1eb2;" horiz-adv-x="922" 
d="M646 303h-364l-66 -303h-243l396 1462h189l396 -1462h-243zM607 484l-143 666l-143 -666h286zM520 1799h-123q1 56 5 74t19 42q23 36 23 57q0 30 -27 30q-22 0 -66 -23l-30 97q60 28 126 28q65 0 101.5 -34t36.5 -94q0 -25 -7.5 -40.5t-38.5 -53.5q-18 -22 -19 -83z
M210 1831h121q9 -76 37.5 -105t92.5 -29q66 0 94.5 29.5t36.5 104.5h121q-4 -124 -30 -172q-30 -58 -79 -83q-51 -26 -142 -26q-120 0 -174 48q-43 38 -58 83.5t-20 149.5z" />
    <glyph glyph-name="uni1EB3" unicode="&#x1eb3;" horiz-adv-x="823" 
d="M513 626v47q0 125 -25 173t-92 48q-59 0 -85 -37t-26 -122h-199q3 153 49 222q78 115 266 115q172 0 249 -98t77 -317v-657h-167l-13 57q-36 -42 -81.5 -59.5t-120.5 -17.5q-153 0 -223 74q-68 73 -68 244q0 124 26 185q39 91 130 121q68 22 159 22h144zM513 472h-82
q-90 0 -126 -38q-37 -41 -37 -133q0 -83 27.5 -115t98.5 -32q67 0 93 36t26 131v151zM470 1383h-123q2 57 5.5 75t19.5 42q23 36 23 57q0 30 -27 30q-22 0 -66 -24l-30 98q62 28 126 28q65 0 101.5 -34t36.5 -94q0 -25 -8 -41t-38 -53q-18 -22 -20 -84zM161 1416h121
q8 -67 26 -92q31 -42 104 -42q65 0 93.5 29t36.5 105h121q-5 -125 -29 -173q-31 -57 -82.5 -82.5t-139.5 -25.5q-93 0 -147.5 30t-81.5 96q-18 44 -22 155z" />
    <glyph glyph-name="uni1EB4" unicode="&#x1eb4;" horiz-adv-x="922" 
d="M646 303h-364l-66 -303h-243l396 1462h189l396 -1462h-243zM607 484l-143 666l-143 -666h286zM329 1875h-106q13 87 34 134q40 86 121 86q55 0 99 -51q46 -51 60 -51q31 0 41 93h106q-10 -95 -26 -137q-33 -84 -119 -84q-35 0 -58 11.5t-48 43.5q-37 47 -52 47
q-17 0 -31.5 -26t-20.5 -66zM208 1810h117q8 -67 35.5 -93t90.5 -26t90 25.5t36 93.5h117q-5 -116 -29 -159q-30 -53 -79.5 -76t-134.5 -23q-90 0 -142.5 27.5t-79.5 87.5q-17 40 -21 143z" />
    <glyph glyph-name="uni1EB5" unicode="&#x1eb5;" horiz-adv-x="823" 
d="M513 626v47q0 125 -25 173t-92 48q-59 0 -85 -37t-26 -122h-199q3 153 49 222q78 115 266 115q172 0 249 -98t77 -317v-657h-167l-13 57q-36 -42 -81.5 -59.5t-120.5 -17.5q-153 0 -223 74q-68 73 -68 244q0 124 26 185q39 91 130 121q68 22 159 22h144zM513 472h-82
q-90 0 -126 -38q-37 -41 -37 -133q0 -83 27.5 -115t98.5 -32q67 0 93 36t26 131v151zM280 1460h-106q13 89 34 134q39 85 120 85q56 0 100 -49q45 -51 59 -51q33 0 42 91h106q-10 -94 -26 -136q-34 -83 -119 -83q-37 0 -59 11t-47 42q-37 47 -53 47t-30.5 -25.5t-20.5 -65.5
zM159 1394h117q8 -67 35.5 -93t90.5 -26q62 0 89.5 26t35.5 93h117q-4 -114 -29 -159q-29 -53 -79 -76t-134 -23q-91 0 -143 27.5t-79 87.5q-17 39 -21 143z" />
    <glyph glyph-name="uni1EB6" unicode="&#x1eb6;" horiz-adv-x="922" 
d="M646 303h-364l-66 -303h-243l396 1462h189l396 -1462h-243zM607 484l-143 666l-143 -666h286zM201 1895h134q9 -84 35.5 -115.5t89.5 -31.5q64 0 91 31.5t36 115.5h134q-5 -136 -30 -185q-31 -61 -82 -89q-53 -28 -148 -28q-124 0 -182 52q-44 40 -59 89t-19 161z
M358 -414v239h206v-239h-206z" />
    <glyph glyph-name="uni1EB7" unicode="&#x1eb7;" horiz-adv-x="823" 
d="M513 626v47q0 125 -25 173t-92 48q-59 0 -85 -37t-26 -122h-199q3 153 49 222q78 115 266 115q172 0 249 -98t77 -317v-657h-167l-13 57q-36 -42 -81.5 -59.5t-120.5 -17.5q-153 0 -223 74q-68 73 -68 244q0 124 26 185q39 91 130 121q68 22 159 22h144zM513 472h-82
q-90 0 -126 -38q-37 -41 -37 -133q0 -83 27.5 -115t98.5 -32q67 0 93 36t26 131v151zM163 1480h134q9 -86 35.5 -117.5t89.5 -31.5q64 0 91 31.5t35 117.5h134q-4 -137 -29 -187q-31 -61 -82 -88q-53 -29 -148 -29q-124 0 -182 52q-44 41 -59 89.5t-19 162.5zM309 -414v239
h206v-239h-206z" />
    <glyph glyph-name="uni1EB8" unicode="&#x1eb8;" horiz-adv-x="861" 
d="M128 0v1462h664v-187h-439v-443h372v-187h-372v-458h447v-187h-672zM378 -414v239h206v-239h-206z" />
    <glyph glyph-name="uni1EB9" unicode="&#x1eb9;" horiz-adv-x="846" 
d="M304 475v-95q0 -123 28 -172t98 -49q64 0 93 40t30 127h199q-2 -152 -47 -224q-76 -122 -281 -122q-201 0 -280 143q-54 98 -54 303v195q0 230 67 330q82 121 270 121q205 0 284 -144q53 -98 53 -307v-146h-460zM304 636h254v49q0 119 -28.5 166t-101.5 47
q-70 0 -97 -46.5t-27 -166.5v-49zM320 -414v239h206v-239h-206z" />
    <glyph glyph-name="uni1EBA" unicode="&#x1eba;" horiz-adv-x="861" 
d="M128 0v1462h664v-187h-439v-443h372v-187h-372v-458h447v-187h-672zM552 1581h-155q1 92 8.5 118t50.5 85q19 27 19 47q0 39 -52 39q-38 0 -110 -34l-42 140q111 37 192 37q107 0 155 -53q43 -48 43 -118q0 -41 -12 -64.5t-61 -78.5q-23 -25 -29 -45.5t-7 -72.5z" />
    <glyph glyph-name="uni1EBB" unicode="&#x1ebb;" horiz-adv-x="846" 
d="M304 475v-95q0 -123 28 -172t98 -49q64 0 93 40t30 127h199q-2 -152 -47 -224q-76 -122 -281 -122q-201 0 -280 143q-54 98 -54 303v195q0 230 67 330q82 121 270 121q205 0 284 -144q53 -98 53 -307v-146h-460zM304 636h254v49q0 119 -28.5 166t-101.5 47
q-70 0 -97 -46.5t-27 -166.5v-49zM509 1179h-155q1 89 9 116t50 86q19 27 19 46q0 39 -51 39q-38 0 -111 -33l-42 140q107 37 192 37q107 0 155 -53q43 -48 43 -119q0 -40 -12 -63.5t-61 -77.5q-23 -25 -29 -46t-7 -72z" />
    <glyph glyph-name="uni1EBC" unicode="&#x1ebc;" horiz-adv-x="861" 
d="M128 0v1462h664v-187h-439v-443h372v-187h-372v-458h447v-187h-672zM316 1626h-128q32 266 180 266q38 0 64.5 -14t55.5 -49q52 -64 70 -64q40 0 50 112h127q-7 -104 -27 -158q-40 -107 -146 -107q-44 0 -72 15t-56 52q-43 59 -62 59q-46 0 -56 -112z" />
    <glyph glyph-name="uni1EBD" unicode="&#x1ebd;" horiz-adv-x="846" 
d="M304 475v-95q0 -123 28 -172t98 -49q64 0 93 40t30 127h199q-2 -152 -47 -224q-76 -122 -281 -122q-201 0 -280 143q-54 98 -54 303v195q0 230 67 330q82 121 270 121q205 0 284 -144q53 -98 53 -307v-146h-460zM304 636h254v49q0 119 -28.5 166t-101.5 47
q-70 0 -97 -46.5t-27 -166.5v-49zM277 1210h-128q32 266 180 266q39 0 65 -13.5t55 -49.5q52 -64 70 -64q40 0 50 112h127q-7 -103 -27 -158q-40 -108 -146 -108q-43 0 -71.5 15t-56.5 53q-43 59 -62 59q-46 0 -56 -112z" />
    <glyph glyph-name="uni1EBE" unicode="&#x1ebe;" horiz-adv-x="861" 
d="M128 0v1462h664v-187h-439v-443h372v-187h-372v-458h447v-187h-672zM386 1850l92 237h167l-145 -237h-114zM456 1672l-84 -113h-188l200 236h143l201 -236h-188z" />
    <glyph glyph-name="uni1EBF" unicode="&#x1ebf;" horiz-adv-x="846" 
d="M304 475v-95q0 -123 28 -172t98 -49q64 0 93 40t30 127h199q-2 -152 -47 -224q-76 -122 -281 -122q-201 0 -280 143q-54 98 -54 303v195q0 230 67 330q82 121 270 121q205 0 284 -144q53 -98 53 -307v-146h-460zM304 636h254v49q0 119 -28.5 166t-101.5 47
q-70 0 -97 -46.5t-27 -166.5v-49zM353 1434l93 237h167l-145 -237h-115zM423 1256l-84 -113h-188l200 237h143l201 -237h-188z" />
    <glyph glyph-name="uni1EC0" unicode="&#x1ec0;" horiz-adv-x="861" 
d="M128 0v1462h664v-187h-439v-443h372v-187h-372v-458h447v-187h-672zM522 1850h-115l-145 237h167zM456 1672l-84 -113h-188l200 236h143l200 -236h-187z" />
    <glyph glyph-name="uni1EC1" unicode="&#x1ec1;" horiz-adv-x="846" 
d="M304 475v-95q0 -123 28 -172t98 -49q64 0 93 40t30 127h199q-2 -152 -47 -224q-76 -122 -281 -122q-201 0 -280 143q-54 98 -54 303v195q0 230 67 330q82 121 270 121q205 0 284 -144q53 -98 53 -307v-146h-460zM304 636h254v49q0 119 -28.5 166t-101.5 47
q-70 0 -97 -46.5t-27 -166.5v-49zM489 1434h-115l-145 237h167zM423 1256l-84 -113h-188l201 237h143l200 -237h-188z" />
    <glyph glyph-name="uni1EC2" unicode="&#x1ec2;" horiz-adv-x="861" 
d="M128 0v1462h664v-187h-439v-443h372v-187h-372v-458h447v-187h-672zM512 1812h-122q1 53 5 71.5t18 41.5q23 35 23 55q0 23 -26 23q-22 0 -66 -24l-30 97q59 29 127 29q64 0 100.5 -32.5t36.5 -88.5q0 -27 -8 -43.5t-39 -54.5q-15 -18 -19 -74zM454 1667l-84 -108h-188
l200 220h143l201 -220h-188z" />
    <glyph glyph-name="uni1EC3" unicode="&#x1ec3;" horiz-adv-x="846" 
d="M304 475v-95q0 -123 28 -172t98 -49q64 0 93 40t30 127h199q-2 -152 -47 -224q-76 -122 -281 -122q-201 0 -280 143q-54 98 -54 303v195q0 230 67 330q82 121 270 121q205 0 284 -144q53 -98 53 -307v-146h-460zM304 636h254v49q0 119 -28.5 166t-101.5 47
q-70 0 -97 -46.5t-27 -166.5v-49zM480 1396h-123q1 53 5 71.5t19 41.5q22 34 22 55q0 23 -26 23q-22 0 -66 -23l-30 97q62 28 128 28q63 0 99.5 -32.5t36.5 -88.5q0 -26 -8 -43t-38 -55q-16 -18 -19 -74zM421 1251l-83 -108h-188l200 220h143l200 -220h-188z" />
    <glyph glyph-name="uni1EC4" unicode="&#x1ec4;" horiz-adv-x="861" 
d="M128 0v1462h664v-187h-439v-443h372v-187h-372v-458h447v-187h-672zM328 1856h-106q14 89 34 134q40 86 121 86q56 0 100 -50q44 -51 59 -51q32 0 41 92h106q-9 -94 -26 -136q-33 -84 -118 -84q-36 0 -59 11.5t-48 42.5q-37 47 -52 47q-16 0 -31.5 -27t-20.5 -65z
M458 1672l-84 -113h-188l200 236h143l201 -236h-188z" />
    <glyph glyph-name="uni1EC5" unicode="&#x1ec5;" horiz-adv-x="846" 
d="M304 475v-95q0 -123 28 -172t98 -49q64 0 93 40t30 127h199q-2 -152 -47 -224q-76 -122 -281 -122q-201 0 -280 143q-54 98 -54 303v195q0 230 67 330q82 121 270 121q205 0 284 -144q53 -98 53 -307v-146h-460zM304 636h254v49q0 119 -28.5 166t-101.5 47
q-70 0 -97 -46.5t-27 -166.5v-49zM296 1441h-106q13 89 34 133q39 86 120 86q56 0 100 -50q45 -51 60 -51q32 0 41 92h106q-9 -91 -27 -136q-32 -83 -118 -83q-36 0 -59 11.5t-47 41.5q-38 47 -53 47q-16 0 -31 -27t-20 -64zM425 1256l-84 -113h-188l201 237h143l200 -237
h-188z" />
    <glyph glyph-name="uni1EC6" unicode="&#x1ec6;" horiz-adv-x="861" 
d="M128 0v1462h664v-187h-439v-443h372v-187h-372v-458h447v-187h-672zM449 1774l-81 -162h-199l203 291h155l203 -291h-199zM346 -414v239h206v-239h-206z" />
    <glyph glyph-name="uni1EC7" unicode="&#x1ec7;" horiz-adv-x="846" 
d="M304 475v-95q0 -123 28 -172t98 -49q64 0 93 40t30 127h199q-2 -152 -47 -224q-76 -122 -281 -122q-201 0 -280 143q-54 98 -54 303v195q0 230 67 330q82 121 270 121q205 0 284 -144q53 -98 53 -307v-146h-460zM304 636h254v49q0 119 -28.5 166t-101.5 47
q-70 0 -97 -46.5t-27 -166.5v-49zM436 1358l-81 -162h-200l203 291h155l204 -291h-200zM320 -414v239h206v-239h-206z" />
    <glyph glyph-name="uni1EC8" unicode="&#x1ec8;" horiz-adv-x="478" 
d="M126 0v1462h225v-1462h-225zM324 1581h-155q2 90 9.5 117t50.5 86q19 27 19 47q0 39 -51 39q-39 0 -111 -34l-42 140q111 37 191 37q108 0 156 -53q43 -48 43 -119q0 -40 -12 -63.5t-61 -78.5q-23 -25 -29.5 -46t-7.5 -72z" />
    <glyph glyph-name="uni1EC9" unicode="&#x1ec9;" horiz-adv-x="427" 
d="M107 0v1051h214v-1051h-214zM299 1179h-155q2 89 9.5 116t50.5 86q19 27 19 46q0 39 -51 39q-38 0 -111 -33l-42 140q107 37 192 37q107 0 155 -53q43 -48 43 -119q0 -40 -12 -63.5t-61 -77.5q-23 -26 -29.5 -46.5t-7.5 -71.5z" />
    <glyph glyph-name="uni1ECA" unicode="&#x1eca;" horiz-adv-x="478" 
d="M126 0v1462h225v-1462h-225zM135 -414v239h206v-239h-206z" />
    <glyph glyph-name="uni1ECB" unicode="&#x1ecb;" horiz-adv-x="427" 
d="M106 1225v246h214v-246h-214zM106 0v1051h214v-1051h-214zM110 -414v239h206v-239h-206z" />
    <glyph glyph-name="uni1ECC" unicode="&#x1ecc;" horiz-adv-x="1003" 
d="M102 446v570q0 229 77 335q95 132 322 132q151 0 238 -53q85 -53 123 -150t38 -264v-570q0 -228 -77 -334q-95 -132 -322 -132q-152 0 -238 53q-85 53 -123 149.5t-38 263.5zM675 467v529q0 169 -38.5 236t-135.5 67q-109 0 -149 -94q-25 -60 -25 -209v-529
q0 -169 38.5 -236t135.5 -67q109 0 149 93q25 61 25 210zM398 -414v239h206v-239h-206z" />
    <glyph glyph-name="uni1ECD" unicode="&#x1ecd;" horiz-adv-x="858" 
d="M90 399v253q0 214 68 307q82 113 271 113q181 0 260 -98t79 -322v-253q0 -214 -68 -307q-82 -112 -271 -112q-206 0 -285 134q-54 91 -54 285zM554 381v289q0 125 -27.5 174t-97.5 49t-97.5 -49t-27.5 -174v-289q0 -124 27.5 -173t97.5 -49t97.5 49t27.5 173zM326 -414
v239h206v-239h-206z" />
    <glyph glyph-name="uni1ECE" unicode="&#x1ece;" horiz-adv-x="1003" 
d="M102 446v570q0 229 77 335q95 132 322 132q151 0 238 -53q85 -53 123 -150t38 -264v-570q0 -228 -77 -334q-95 -132 -322 -132q-152 0 -238 53q-85 53 -123 149.5t-38 263.5zM675 467v529q0 169 -38.5 236t-135.5 67q-109 0 -149 -94q-25 -60 -25 -209v-529
q0 -169 38.5 -236t135.5 -67q109 0 149 93q25 61 25 210zM587 1581h-155q1 92 9 118t50 85q19 27 19 47q0 39 -51 39q-38 0 -111 -34l-42 140q111 37 192 37q107 0 155 -53q43 -48 43 -118q0 -41 -12 -64.5t-61 -78.5q-22 -25 -28.5 -45.5t-7.5 -72.5z" />
    <glyph glyph-name="uni1ECF" unicode="&#x1ecf;" horiz-adv-x="858" 
d="M90 399v253q0 214 68 307q82 113 271 113q181 0 260 -98t79 -322v-253q0 -214 -68 -307q-82 -112 -271 -112q-206 0 -285 134q-54 91 -54 285zM554 381v289q0 125 -27.5 174t-97.5 49t-97.5 -49t-27.5 -174v-289q0 -124 27.5 -173t97.5 -49t97.5 49t27.5 173zM514 1179
h-154q1 91 9 117.5t50 84.5q19 26 19 46q0 39 -51 39q-38 0 -111 -33l-42 140q106 37 192 37q107 0 155 -53q43 -48 43 -119q0 -40 -12 -63.5t-61 -77.5q-23 -25 -29.5 -46.5t-7.5 -71.5z" />
    <glyph glyph-name="uni1ED0" unicode="&#x1ed0;" horiz-adv-x="1003" 
d="M102 446v570q0 229 77 335q95 132 322 132q151 0 238 -53q85 -53 123 -150t38 -264v-570q0 -228 -77 -334q-95 -132 -322 -132q-152 0 -238 53q-85 53 -123 149.5t-38 263.5zM675 467v529q0 169 -38.5 236t-135.5 67q-109 0 -149 -94q-25 -60 -25 -209v-529
q0 -169 38.5 -236t135.5 -67q109 0 149 93q25 61 25 210zM431 1850l93 237h167l-145 -237h-115zM501 1672l-84 -113h-188l200 236h143l201 -236h-188z" />
    <glyph glyph-name="uni1ED1" unicode="&#x1ed1;" horiz-adv-x="858" 
d="M90 399v253q0 214 68 307q82 113 271 113q181 0 260 -98t79 -322v-253q0 -214 -68 -307q-82 -112 -271 -112q-206 0 -285 134q-54 91 -54 285zM554 381v289q0 125 -27.5 174t-97.5 49t-97.5 -49t-27.5 -174v-289q0 -124 27.5 -173t97.5 -49t97.5 49t27.5 173zM359 1434
l93 237h167l-145 -237h-115zM429 1256l-84 -113h-188l200 237h143l201 -237h-188z" />
    <glyph glyph-name="uni1ED2" unicode="&#x1ed2;" horiz-adv-x="1003" 
d="M102 446v570q0 229 77 335q95 132 322 132q151 0 238 -53q85 -53 123 -150t38 -264v-570q0 -228 -77 -334q-95 -132 -322 -132q-152 0 -238 53q-85 53 -123 149.5t-38 263.5zM675 467v529q0 169 -38.5 236t-135.5 67q-109 0 -149 -94q-25 -60 -25 -209v-529
q0 -169 38.5 -236t135.5 -67q109 0 149 93q25 61 25 210zM567 1850h-115l-145 237h167zM501 1672l-84 -113h-188l201 236h143l200 -236h-188z" />
    <glyph glyph-name="uni1ED3" unicode="&#x1ed3;" horiz-adv-x="858" 
d="M90 399v253q0 214 68 307q82 113 271 113q181 0 260 -98t79 -322v-253q0 -214 -68 -307q-82 -112 -271 -112q-206 0 -285 134q-54 91 -54 285zM554 381v289q0 125 -27.5 174t-97.5 49t-97.5 -49t-27.5 -174v-289q0 -124 27.5 -173t97.5 -49t97.5 49t27.5 173zM495 1434
h-115l-145 237h167zM429 1256l-84 -113h-188l200 237h144l200 -237h-188z" />
    <glyph glyph-name="uni1ED4" unicode="&#x1ed4;" horiz-adv-x="1003" 
d="M102 446v570q0 229 77 335q95 132 322 132q151 0 238 -53q85 -53 123 -150t38 -264v-570q0 -228 -77 -334q-95 -132 -322 -132q-152 0 -238 53q-85 53 -123 149.5t-38 263.5zM675 467v529q0 169 -38.5 236t-135.5 67q-109 0 -149 -94q-25 -60 -25 -209v-529
q0 -169 38.5 -236t135.5 -67q109 0 149 93q25 61 25 210zM558 1812h-123q1 53 5 72t18 41q23 35 23 55q0 23 -26 23q-22 0 -65 -24l-30 97q59 29 127 29q71 0 105 -37q31 -35 31 -84q0 -26 -8 -43t-38 -55q-15 -18 -19 -74zM500 1667l-84 -108h-188l200 220h143l201 -220
h-188z" />
    <glyph glyph-name="uni1ED5" unicode="&#x1ed5;" horiz-adv-x="858" 
d="M90 399v253q0 214 68 307q82 113 271 113q181 0 260 -98t79 -322v-253q0 -214 -68 -307q-82 -112 -271 -112q-206 0 -285 134q-54 91 -54 285zM554 381v289q0 125 -27.5 174t-97.5 49t-97.5 -49t-27.5 -174v-289q0 -124 27.5 -173t97.5 -49t97.5 49t27.5 173zM486 1396
h-123q1 53 5 71.5t18 41.5q23 35 23 55q0 23 -26 23q-22 0 -66 -23l-30 97q61 28 128 28q63 0 99.5 -32.5t36.5 -88.5q0 -27 -8 -43t-38 -55q-16 -18 -19 -74zM427 1251l-84 -108h-187l200 220h143l200 -220h-188z" />
    <glyph glyph-name="uni1ED6" unicode="&#x1ed6;" horiz-adv-x="1003" 
d="M102 446v570q0 229 77 335q95 132 322 132q151 0 238 -53q85 -53 123 -150t38 -264v-570q0 -228 -77 -334q-95 -132 -322 -132q-152 0 -238 53q-85 53 -123 149.5t-38 263.5zM675 467v529q0 169 -38.5 236t-135.5 67q-109 0 -149 -94q-25 -60 -25 -209v-529
q0 -169 38.5 -236t135.5 -67q109 0 149 93q25 61 25 210zM374 1856h-106q14 91 34 134q40 86 120 86q56 0 100 -50q45 -51 60 -51q32 0 41 92h106q-10 -94 -26 -136q-34 -84 -119 -84q-36 0 -58.5 11.5t-47.5 42.5q-37 47 -53 47t-31 -27t-20 -65zM503 1672l-83 -113h-188
l200 236h143l200 -236h-187z" />
    <glyph glyph-name="uni1ED7" unicode="&#x1ed7;" horiz-adv-x="858" 
d="M90 399v253q0 214 68 307q82 113 271 113q181 0 260 -98t79 -322v-253q0 -214 -68 -307q-82 -112 -271 -112q-206 0 -285 134q-54 91 -54 285zM554 381v289q0 125 -27.5 174t-97.5 49t-97.5 -49t-27.5 -174v-289q0 -124 27.5 -173t97.5 -49t97.5 49t27.5 173zM302 1441
h-106q14 91 34 133q39 86 120 86q56 0 100 -50q44 -51 59 -51q33 0 42 92h106q-10 -94 -27 -136q-33 -83 -118 -83q-36 0 -59 11.5t-47 41.5q-38 47 -53 47q-16 0 -31 -27t-20 -64zM431 1256l-84 -113h-188l201 237h143l200 -237h-188z" />
    <glyph glyph-name="uni1ED8" unicode="&#x1ed8;" horiz-adv-x="1003" 
d="M102 446v570q0 229 77 335q95 132 322 132q151 0 238 -53q85 -53 123 -150t38 -264v-570q0 -228 -77 -334q-95 -132 -322 -132q-152 0 -238 53q-85 53 -123 149.5t-38 263.5zM675 467v529q0 169 -38.5 236t-135.5 67q-109 0 -149 -94q-25 -60 -25 -209v-529
q0 -169 38.5 -236t135.5 -67q109 0 149 93q25 61 25 210zM501 1774l-81 -162h-199l202 291h155l204 -291h-200zM398 -414v239h206v-239h-206z" />
    <glyph glyph-name="uni1ED9" unicode="&#x1ed9;" horiz-adv-x="858" 
d="M90 399v253q0 214 68 307q82 113 271 113q181 0 260 -98t79 -322v-253q0 -214 -68 -307q-82 -112 -271 -112q-206 0 -285 134q-54 91 -54 285zM554 381v289q0 125 -27.5 174t-97.5 49t-97.5 -49t-27.5 -174v-289q0 -124 27.5 -173t97.5 -49t97.5 49t27.5 173zM429 1358
l-81 -162h-200l203 291h155l203 -291h-199zM326 -414v239h206v-239h-206z" />
    <glyph glyph-name="uni1EDA" unicode="&#x1eda;" horiz-adv-x="1075" 
d="M916 1485h183q14 -47 14 -99q0 -143 -96 -234q-45 -42 -118 -93l1 -43v-570q0 -228 -77 -334q-95 -132 -322 -132q-152 0 -238 53q-85 53 -123 149.5t-38 263.5v570q0 228 77 335q95 132 322 132q168 0 260.5 -68.5t124.5 -217.5q62 67 62 152q0 70 -32 136zM675 467v529
q0 168 -38.5 235t-135.5 67q-109 0 -149 -94q-25 -60 -25 -208v-529q0 -169 38.5 -236t135.5 -67q109 0 149 93q25 61 25 210zM427 1605l124 304h237l-202 -304h-159z" />
    <glyph glyph-name="uni1EDB" unicode="&#x1edb;" horiz-adv-x="939" 
d="M779 1064h181q16 -58 16 -103q0 -182 -210 -317q2 -18 2 -58v-187q0 -214 -68 -307q-82 -112 -271 -112q-206 0 -285 134q-54 91 -54 285v253q0 214 68 307q82 113 271 113q152 0 230 -67.5t101 -218.5q6 10 27 48q22 39 22 109q0 57 -30 121zM554 381v289
q0 125 -27.5 174t-97.5 49t-97.5 -49t-27.5 -174v-289q0 -124 27.5 -173t97.5 -49t97.5 49t27.5 173zM352 1189l124 304h237l-202 -304h-159z" />
    <glyph glyph-name="uni1EDC" unicode="&#x1edc;" horiz-adv-x="1075" 
d="M916 1485h183q14 -47 14 -99q0 -143 -96 -234q-45 -42 -118 -93l1 -43v-570q0 -228 -77 -334q-95 -132 -322 -132q-152 0 -238 53q-85 53 -123 149.5t-38 263.5v570q0 228 77 335q95 132 322 132q168 0 260.5 -68.5t124.5 -217.5q62 67 62 152q0 70 -32 136zM675 467v529
q0 168 -38.5 235t-135.5 67q-109 0 -149 -94q-25 -60 -25 -208v-529q0 -169 38.5 -236t135.5 -67q109 0 149 93q25 61 25 210zM631 1605h-158l-203 304h238z" />
    <glyph glyph-name="uni1EDD" unicode="&#x1edd;" horiz-adv-x="939" 
d="M779 1064h181q16 -58 16 -103q0 -182 -210 -317q2 -18 2 -58v-187q0 -214 -68 -307q-82 -112 -271 -112q-206 0 -285 134q-54 91 -54 285v253q0 214 68 307q82 113 271 113q152 0 230 -67.5t101 -218.5q6 10 27 48q22 39 22 109q0 57 -30 121zM554 381v289
q0 125 -27.5 174t-97.5 49t-97.5 -49t-27.5 -174v-289q0 -124 27.5 -173t97.5 -49t97.5 49t27.5 173zM560 1189h-159l-202 304h237z" />
    <glyph glyph-name="uni1EDE" unicode="&#x1ede;" horiz-adv-x="1075" 
d="M916 1485h183q14 -47 14 -99q0 -143 -96 -234q-45 -42 -118 -93l1 -43v-570q0 -228 -77 -334q-95 -132 -322 -132q-152 0 -238 53q-85 53 -123 149.5t-38 263.5v570q0 228 77 335q95 132 322 132q168 0 260.5 -68.5t124.5 -217.5q62 67 62 152q0 70 -32 136zM675 467v529
q0 168 -38.5 235t-135.5 67q-109 0 -149 -94q-25 -60 -25 -208v-529q0 -169 38.5 -236t135.5 -67q109 0 149 93q25 61 25 210zM598 1581h-155q1 92 9 118t50 85q19 27 19 47q0 39 -51 39q-39 0 -111 -34l-42 140q111 37 192 37q107 0 155 -53q43 -48 43 -118
q0 -41 -12 -64.5t-61 -78.5q-22 -24 -28.5 -45t-7.5 -73z" />
    <glyph glyph-name="uni1EDF" unicode="&#x1edf;" horiz-adv-x="939" 
d="M779 1064h181q16 -58 16 -103q0 -182 -210 -317q2 -18 2 -58v-187q0 -214 -68 -307q-82 -112 -271 -112q-206 0 -285 134q-54 91 -54 285v253q0 214 68 307q82 113 271 113q152 0 230 -67.5t101 -218.5q6 10 27 48q22 39 22 109q0 57 -30 121zM554 381v289
q0 125 -27.5 174t-97.5 49t-97.5 -49t-27.5 -174v-289q0 -124 27.5 -173t97.5 -49t97.5 49t27.5 173zM516 1179h-155q2 91 9.5 117t50.5 85q19 27 19 46q0 39 -52 39q-37 0 -110 -33l-42 140q107 37 192 37q107 0 155 -53q43 -48 43 -119q0 -40 -12 -63t-61 -78
q-23 -25 -29.5 -46.5t-7.5 -71.5z" />
    <glyph glyph-name="uni1EE0" unicode="&#x1ee0;" horiz-adv-x="1075" 
d="M916 1485h183q14 -47 14 -99q0 -143 -96 -234q-45 -42 -118 -93l1 -43v-570q0 -228 -77 -334q-95 -132 -322 -132q-152 0 -238 53q-85 53 -123 149.5t-38 263.5v570q0 228 77 335q95 132 322 132q168 0 260.5 -68.5t124.5 -217.5q62 67 62 152q0 70 -32 136zM675 467v529
q0 168 -38.5 235t-135.5 67q-109 0 -149 -94q-25 -60 -25 -208v-529q0 -169 38.5 -236t135.5 -67q109 0 149 93q25 61 25 210zM360 1626h-128q31 266 180 266q38 0 64.5 -14t55.5 -49q52 -64 70 -64q39 0 50 112h127q-7 -101 -27 -158q-39 -107 -146 -107q-44 0 -72 15
t-56 52q-43 59 -62 59q-46 0 -56 -112z" />
    <glyph glyph-name="uni1EE1" unicode="&#x1ee1;" horiz-adv-x="939" 
d="M779 1064h181q16 -58 16 -103q0 -182 -210 -317q2 -18 2 -58v-187q0 -214 -68 -307q-82 -112 -271 -112q-206 0 -285 134q-54 91 -54 285v253q0 214 68 307q82 113 271 113q152 0 230 -67.5t101 -218.5q6 10 27 48q22 39 22 109q0 57 -30 121zM554 381v289
q0 125 -27.5 174t-97.5 49t-97.5 -49t-27.5 -174v-289q0 -124 27.5 -173t97.5 -49t97.5 49t27.5 173zM274 1210h-127q31 266 180 266q39 0 65 -13.5t55 -49.5q52 -64 70 -64q40 0 50 112h127q-7 -101 -27 -158q-40 -108 -146 -108q-43 0 -71.5 15t-56.5 53q-43 59 -62 59
q-46 0 -57 -112z" />
    <glyph glyph-name="uni1EE2" unicode="&#x1ee2;" horiz-adv-x="1075" 
d="M916 1485h183q14 -47 14 -99q0 -143 -96 -234q-45 -42 -118 -93l1 -43v-570q0 -228 -77 -334q-95 -132 -322 -132q-152 0 -238 53q-85 53 -123 149.5t-38 263.5v570q0 228 77 335q95 132 322 132q168 0 260.5 -68.5t124.5 -217.5q62 67 62 152q0 70 -32 136zM675 467v529
q0 168 -38.5 235t-135.5 67q-109 0 -149 -94q-25 -60 -25 -208v-529q0 -169 38.5 -236t135.5 -67q109 0 149 93q25 61 25 210zM396 -414v239h206v-239h-206z" />
    <glyph glyph-name="uni1EE3" unicode="&#x1ee3;" horiz-adv-x="939" 
d="M779 1064h181q16 -58 16 -103q0 -182 -210 -317q2 -18 2 -58v-187q0 -214 -68 -307q-82 -112 -271 -112q-206 0 -285 134q-54 91 -54 285v253q0 214 68 307q82 113 271 113q152 0 230 -67.5t101 -218.5q6 10 27 48q22 39 22 109q0 57 -30 121zM554 381v289
q0 125 -27.5 174t-97.5 49t-97.5 -49t-27.5 -174v-289q0 -124 27.5 -173t97.5 -49t97.5 49t27.5 173zM338 -414v239h206v-239h-206z" />
    <glyph glyph-name="uni1EE4" unicode="&#x1ee4;" horiz-adv-x="1023" 
d="M122 1462h225v-1025q0 -137 23 -188q37 -85 135 -85q82 0 117 37q30 33 41.5 83t11.5 153v1025h225v-1025q0 -133 -14 -197q-56 -260 -375 -260q-168 0 -253 65q-79 60 -107.5 142t-28.5 250v1025zM408 -414v239h206v-239h-206z" />
    <glyph glyph-name="uni1EE5" unicode="&#x1ee5;" horiz-adv-x="846" 
d="M96 1051h214v-647q0 -105 12 -154q21 -84 94 -84q63 0 88.5 57.5t25.5 201.5v626h214v-1051h-160l-16 85q-35 -45 -57 -62q-56 -43 -148 -43q-179 0 -239 154q-28 71 -28 241v676zM319 -414v239h206v-239h-206z" />
    <glyph glyph-name="uni1EE6" unicode="&#x1ee6;" horiz-adv-x="1023" 
d="M122 1462h225v-1025q0 -137 23 -188q37 -85 135 -85q82 0 117 37q30 33 41.5 83t11.5 153v1025h225v-1025q0 -133 -14 -197q-56 -260 -375 -260q-168 0 -253 65q-79 60 -107.5 142t-28.5 250v1025zM597 1581h-155q1 92 9 118t50 85q19 27 19 47q0 39 -51 39
q-38 0 -111 -34l-42 140q111 37 192 37q107 0 155 -53q43 -48 43 -118q0 -41 -12 -64.5t-61 -78.5q-22 -25 -28.5 -45.5t-7.5 -72.5z" />
    <glyph glyph-name="uni1EE7" unicode="&#x1ee7;" horiz-adv-x="846" 
d="M96 1051h214v-647q0 -105 12 -154q21 -84 94 -84q63 0 88.5 57.5t25.5 201.5v626h214v-1051h-160l-16 85q-35 -45 -57 -62q-56 -43 -148 -43q-179 0 -239 154q-28 71 -28 241v676zM508 1179h-155q2 91 9.5 117.5t49.5 84.5q19 27 19 46q0 39 -51 39q-38 0 -110 -33
l-42 140q106 37 192 37q106 0 154 -53q43 -48 43 -119q0 -40 -12 -63.5t-61 -77.5q-22 -25 -28.5 -46.5t-7.5 -71.5z" />
    <glyph glyph-name="uni1EE8" unicode="&#x1ee8;" horiz-adv-x="1141" 
d="M122 1462h225v-1025q0 -137 23 -188q37 -85 135 -85q82 0 117 37q30 33 41.5 83t11.5 153v1025h225v-311q65 47 93 95t28 112t-29 127h180q14 -49 14 -99q0 -80 -32.5 -144t-104.5 -126q-36 -31 -149 -103v-576q0 -133 -14 -197q-56 -260 -375 -260q-168 0 -253 65
q-79 60 -107.5 142t-28.5 250v1025zM453 1605l124 304h237l-202 -304h-159z" />
    <glyph glyph-name="uni1EE9" unicode="&#x1ee9;" horiz-adv-x="989" 
d="M96 1051h214v-647q0 -105 12 -154q21 -84 94 -84q63 0 88.5 57.5t25.5 201.5v626h214v-321q121 82 121 211q0 60 -29 123h181q13 -48 13 -99q0 -80 -31.5 -142.5t-105.5 -126.5q-47 -41 -149 -106v-590h-160l-16 85q-47 -61 -90 -83t-115 -22q-179 0 -239 154
q-28 71 -28 241v676zM369 1189l123 304h238l-203 -304h-158z" />
    <glyph glyph-name="uni1EEA" unicode="&#x1eea;" horiz-adv-x="1141" 
d="M122 1462h225v-1025q0 -137 23 -188q37 -85 135 -85q82 0 117 37q30 33 41.5 83t11.5 153v1025h225v-311q65 47 93 95t28 112t-29 127h180q14 -49 14 -99q0 -80 -32.5 -144t-104.5 -126q-36 -31 -149 -103v-576q0 -133 -14 -197q-56 -260 -375 -260q-168 0 -253 65
q-79 60 -107.5 142t-28.5 250v1025zM614 1605h-159l-202 304h237z" />
    <glyph glyph-name="uni1EEB" unicode="&#x1eeb;" horiz-adv-x="989" 
d="M96 1051h214v-647q0 -105 12 -154q21 -84 94 -84q63 0 88.5 57.5t25.5 201.5v626h214v-321q121 82 121 211q0 60 -29 123h181q13 -48 13 -99q0 -80 -31.5 -142.5t-105.5 -126.5q-47 -41 -149 -106v-590h-160l-16 85q-47 -61 -90 -83t-115 -22q-179 0 -239 154
q-28 71 -28 241v676zM539 1189h-158l-203 304h238z" />
    <glyph glyph-name="uni1EEC" unicode="&#x1eec;" horiz-adv-x="1141" 
d="M122 1462h225v-1025q0 -137 23 -188q37 -85 135 -85q82 0 117 37q30 33 41.5 83t11.5 153v1025h225v-311q65 47 93 95t28 112t-29 127h180q14 -49 14 -99q0 -80 -32.5 -144t-104.5 -126q-36 -31 -149 -103v-576q0 -133 -14 -197q-56 -260 -375 -260q-168 0 -253 65
q-79 60 -107.5 142t-28.5 250v1025zM594 1581h-155q1 90 8.5 117t50.5 86q19 27 19 47q0 39 -51 39q-38 0 -111 -34l-42 140q111 37 191 37q108 0 156 -53q43 -48 43 -118q0 -41 -12.5 -64.5t-60.5 -78.5q-23 -25 -29 -46t-7 -72z" />
    <glyph glyph-name="uni1EED" unicode="&#x1eed;" horiz-adv-x="989" 
d="M96 1051h214v-647q0 -105 12 -154q21 -84 94 -84q63 0 88.5 57.5t25.5 201.5v626h214v-321q121 82 121 211q0 60 -29 123h181q13 -48 13 -99q0 -80 -31.5 -142.5t-105.5 -126.5q-47 -41 -149 -106v-590h-160l-16 85q-47 -61 -90 -83t-115 -22q-179 0 -239 154
q-28 71 -28 241v676zM512 1179h-155q1 89 9 116t51 86q19 27 19 46q0 39 -52 39q-37 0 -110 -33l-42 140q107 37 192 37q107 0 155 -53q43 -48 43 -119q0 -40 -12.5 -63.5t-60.5 -77.5q-23 -26 -29.5 -46.5t-7.5 -71.5z" />
    <glyph glyph-name="uni1EEE" unicode="&#x1eee;" horiz-adv-x="1141" 
d="M122 1462h225v-1025q0 -137 23 -188q37 -85 135 -85q82 0 117 37q30 33 41.5 83t11.5 153v1025h225v-311q65 47 93 95t28 112t-29 127h180q14 -49 14 -99q0 -80 -32.5 -144t-104.5 -126q-36 -31 -149 -103v-576q0 -133 -14 -197q-56 -260 -375 -260q-168 0 -253 65
q-79 60 -107.5 142t-28.5 250v1025zM368 1626h-127q32 266 180 266q38 0 64.5 -14t55.5 -49q52 -64 70 -64q39 0 50 112h127q-7 -101 -27 -158q-39 -107 -146 -107q-44 0 -72 15t-56 52q-43 59 -62 59q-46 0 -57 -112z" />
    <glyph glyph-name="uni1EEF" unicode="&#x1eef;" horiz-adv-x="989" 
d="M96 1051h214v-647q0 -105 12 -154q21 -84 94 -84q63 0 88.5 57.5t25.5 201.5v626h214v-321q121 82 121 211q0 60 -29 123h181q13 -48 13 -99q0 -80 -31.5 -142.5t-105.5 -126.5q-47 -41 -149 -106v-590h-160l-16 85q-47 -61 -90 -83t-115 -22q-179 0 -239 154
q-28 71 -28 241v676zM277 1210h-127q31 266 180 266q39 0 65 -13.5t55 -49.5q52 -64 70 -64q39 0 49 112h128q-7 -103 -27 -158q-40 -108 -146 -108q-43 0 -71.5 15t-56.5 53q-43 59 -62 59q-47 0 -57 -112z" />
    <glyph glyph-name="uni1EF0" unicode="&#x1ef0;" horiz-adv-x="1141" 
d="M122 1462h225v-1025q0 -137 23 -188q37 -85 135 -85q82 0 117 37q30 33 41.5 83t11.5 153v1025h225v-311q65 47 93 95t28 112t-29 127h180q14 -49 14 -99q0 -80 -32.5 -144t-104.5 -126q-36 -31 -149 -103v-576q0 -133 -14 -197q-56 -260 -375 -260q-168 0 -253 65
q-79 60 -107.5 142t-28.5 250v1025zM425 -414v239h206v-239h-206z" />
    <glyph glyph-name="uni1EF1" unicode="&#x1ef1;" horiz-adv-x="989" 
d="M96 1051h214v-647q0 -105 12 -154q21 -84 94 -84q63 0 88.5 57.5t25.5 201.5v626h214v-321q121 82 121 211q0 60 -29 123h181q13 -48 13 -99q0 -80 -31.5 -142.5t-105.5 -126.5q-47 -41 -149 -106v-590h-160l-16 85q-47 -61 -90 -83t-115 -22q-179 0 -239 154
q-28 71 -28 241v676zM351 -414v239h206v-239h-206z" />
    <glyph glyph-name="Ygrave" unicode="&#x1ef2;" horiz-adv-x="828" 
d="M304 0v515l-338 947h237l214 -672l214 672h237l-339 -947v-515h-225zM529 1605h-159l-202 304h237z" />
    <glyph glyph-name="ygrave" unicode="&#x1ef3;" horiz-adv-x="774" 
d="M279 -4l-258 1055h216l151 -771l144 771h217l-269 -1175q-33 -143 -71 -212t-101 -98q-81 -37 -236 -37v180q102 0 133 35q35 40 55 151zM495 1189h-159l-202 304h237z" />
    <glyph glyph-name="uni1EF4" unicode="&#x1ef4;" horiz-adv-x="828" 
d="M304 0v515l-338 947h237l214 -672l214 672h237l-339 -947v-515h-225zM311 -414v239h206v-239h-206z" />
    <glyph glyph-name="uni1EF5" unicode="&#x1ef5;" horiz-adv-x="774" 
d="M279 -4l-258 1055h216l151 -771l144 771h217l-269 -1175q-33 -143 -71 -212t-101 -98q-81 -37 -236 -37v180q102 0 133 35q35 40 55 151zM549 -414v239h206v-239h-206z" />
    <glyph glyph-name="uni1EF6" unicode="&#x1ef6;" horiz-adv-x="828" 
d="M304 0v515l-338 947h237l214 -672l214 672h237l-339 -947v-515h-225zM500 1581h-155q2 92 9.5 118t49.5 85q19 27 19 47q0 39 -51 39q-38 0 -111 -34l-41 140q110 37 191 37q107 0 155 -53q43 -47 43 -118q0 -41 -12 -64.5t-61 -78.5q-22 -24 -28.5 -45t-7.5 -73z" />
    <glyph glyph-name="uni1EF7" unicode="&#x1ef7;" horiz-adv-x="774" 
d="M279 -4l-258 1055h216l151 -771l144 771h217l-269 -1175q-33 -143 -71 -212t-101 -98q-81 -37 -236 -37v180q102 0 133 35q35 40 55 151zM473 1179h-155q1 91 9 117t50 85q19 27 19 46q0 39 -51 39q-38 0 -111 -33l-42 140q107 37 192 37q107 0 155 -53q43 -48 43 -119
q0 -40 -12 -63t-61 -78q-22 -25 -28.5 -46.5t-7.5 -71.5z" />
    <glyph glyph-name="uni1EF8" unicode="&#x1ef8;" horiz-adv-x="828" 
d="M304 0v515l-338 947h237l214 -672l214 672h237l-339 -947v-515h-225zM268 1626h-127q31 266 180 266q38 0 64.5 -14t55.5 -49q52 -64 70 -64q39 0 49 112h128q-8 -104 -27 -158q-40 -107 -146 -107q-44 0 -72.5 15t-55.5 52q-43 59 -62 59q-46 0 -57 -112z" />
    <glyph glyph-name="uni1EF9" unicode="&#x1ef9;" horiz-adv-x="774" 
d="M279 -4l-258 1055h216l151 -771l144 771h217l-269 -1175q-33 -143 -71 -212t-101 -98q-81 -37 -236 -37v180q102 0 133 35q35 40 55 151zM245 1210h-128q31 266 180 266q39 0 65 -13.5t55 -49.5q52 -64 70 -64q39 0 50 112h127q-6 -102 -27 -158q-40 -108 -146 -108
q-43 0 -71.5 15t-56.5 53q-43 59 -62 59q-21 0 -36.5 -31t-19.5 -81z" />
    <glyph glyph-name="uni2002" unicode="&#x2002;" horiz-adv-x="1024" 
 />
    <glyph glyph-name="uni2003" unicode="&#x2003;" horiz-adv-x="2048" 
 />
    <glyph glyph-name="uni2004" unicode="&#x2004;" horiz-adv-x="683" 
 />
    <glyph glyph-name="uni2005" unicode="&#x2005;" horiz-adv-x="512" 
 />
    <glyph glyph-name="uni2006" unicode="&#x2006;" horiz-adv-x="341" 
 />
    <glyph glyph-name="uni2007" unicode="&#x2007;" 
 />
    <glyph glyph-name="uni2008" unicode="&#x2008;" horiz-adv-x="0" 
 />
    <glyph glyph-name="uni2009" unicode="&#x2009;" horiz-adv-x="410" 
 />
    <glyph glyph-name="uni200A" unicode="&#x200a;" horiz-adv-x="256" 
 />
    <glyph glyph-name="uni2011" unicode="&#x2011;" horiz-adv-x="670" 
d="M103 642v187h463v-187h-463z" />
    <glyph glyph-name="figuredash" unicode="&#x2012;" 
d="M105 642v187h650v-187h-650z" />
    <glyph glyph-name="endash" unicode="&#x2013;" 
d="M105 642v187h650v-187h-650z" />
    <glyph glyph-name="emdash" unicode="&#x2014;" 
d="M22 642v187h817v-187h-817z" />
    <glyph glyph-name="afii00208" unicode="&#x2015;" 
d="M22 642v187h817v-187h-817z" />
    <glyph glyph-name="underscoredbl" unicode="&#x2017;" horiz-adv-x="694" 
d="M-36 -459v120h768v-120h-768zM-36 -265v120h768v-120h-768z" />
    <glyph glyph-name="quoteleft" unicode="&#x2018;" horiz-adv-x="337" 
d="M304 1462l-47 -509h-223l88 509h182z" />
    <glyph glyph-name="quoteright" unicode="&#x2019;" horiz-adv-x="337" 
d="M34 953l47 509h223l-89 -509h-181z" />
    <glyph glyph-name="quotesinglbase" unicode="&#x201a;" horiz-adv-x="337" 
d="M34 -275l47 508h223l-89 -508h-181z" />
    <glyph glyph-name="quotedblleft" unicode="&#x201c;" horiz-adv-x="660" 
d="M626 1462l-47 -509h-223l88 509h182zM304 1462l-47 -509h-223l88 509h182z" />
    <glyph glyph-name="quotedblright" unicode="&#x201d;" horiz-adv-x="660" 
d="M34 953l47 509h223l-89 -509h-181zM356 953l47 509h223l-88 -509h-182z" />
    <glyph glyph-name="quotedblbase" unicode="&#x201e;" horiz-adv-x="660" 
d="M34 -275l47 508h223l-89 -508h-181zM356 -275l47 508h223l-88 -508h-182z" />
    <glyph glyph-name="dagger" unicode="&#x2020;" 
d="M321 837h-245v184h245v441h220v-441h244v-184h-244v-1153h-220v1153z" />
    <glyph glyph-name="daggerdbl" unicode="&#x2021;" 
d="M321 837h-245v184h245v441h220v-441h244v-184h-244v-283h224v-184h-224v-686h-220v686h-225v184h225v283z" />
    <glyph glyph-name="bullet" unicode="&#x2022;" 
d="M430 1070q175 0 277 -126q76 -93 76 -216q0 -124 -76 -217q-102 -126 -276 -126q-176 0 -278 126q-76 93 -76 220q0 123 76 213q106 126 277 126z" />
    <glyph glyph-name="ellipsis" unicode="&#x2026;" horiz-adv-x="1309" 
d="M106 0v238h225v-238h-225zM542 0v238h225v-238h-225zM979 0v238h225v-238h-225z" />
    <glyph glyph-name="perthousand" unicode="&#x2030;" horiz-adv-x="2109" 
d="M47 1026v143q0 166 55 233q66 80 221 80q149 0 212 -71.5t63 -241.5v-143q0 -165 -55 -232q-66 -80 -220 -80q-150 0 -213 71.5t-63 240.5zM406 1005v186q0 87 -18.5 121.5t-65.5 34.5q-46 0 -64.5 -35t-18.5 -121v-186q0 -87 18.5 -121.5t64.5 -34.5q47 0 65.5 34.5
t18.5 121.5zM873 296v143q0 166 55 233q67 80 221 80q149 0 212 -71.5t63 -241.5v-143q0 -166 -55 -232q-67 -81 -220 -81q-150 0 -213 71.5t-63 241.5zM1232 275v186q0 86 -18.5 120.5t-64.5 34.5q-47 0 -65.5 -34.5t-18.5 -120.5v-186q0 -87 18.5 -122t65.5 -35
q46 0 64.5 35t18.5 122zM1511 296v143q0 166 55 233q66 80 221 80q149 0 212 -71.5t63 -241.5v-143q0 -165 -55 -232q-66 -81 -220 -81q-150 0 -213 71.5t-63 241.5zM1870 275v186q0 86 -18.5 120.5t-65.5 34.5q-46 0 -64.5 -34.5t-18.5 -120.5v-186q0 -87 18.5 -122
t64.5 -35q47 0 65.5 35t18.5 122zM469 0l335 1462h197l-334 -1462h-198z" />
    <glyph glyph-name="guilsinglleft" unicode="&#x2039;" horiz-adv-x="413" 
d="M258 604l123 -258l-133 -90l-218 348l218 348l133 -90z" />
    <glyph glyph-name="guilsinglright" unicode="&#x203a;" horiz-adv-x="413" 
d="M155 604l-123 258l133 90l218 -348l-218 -348l-133 90z" />
    <glyph glyph-name="uni203E" unicode="&#x203e;" horiz-adv-x="694" 
d="M-36 1656v152h768v-152h-768z" />
    <glyph glyph-name="fraction" unicode="&#x2044;" horiz-adv-x="280" 
d="M-102 0l335 1462h197l-334 -1462h-198z" />
    <glyph glyph-name="uni2070" unicode="&#x2070;" horiz-adv-x="605" 
d="M50 1084v289q0 159 52 227q61 79 200 79q136 0 194 -70t58 -236v-289q0 -159 -52 -226q-60 -79 -200 -79q-136 0 -194 70t-58 235zM380 1082v293q0 94 -17 130.5t-61 36.5t-61 -36.5t-17 -130.5v-293q0 -93 17 -129.5t61 -36.5t61 36.5t17 129.5z" />
    <glyph glyph-name="uni2074" unicode="&#x2074;" horiz-adv-x="605" 
d="M350 791v152h-303v102l216 622h171l-202 -588h118v203h145v-203h62v-137h-62v-151h-145z" />
    <glyph glyph-name="uni2075" unicode="&#x2075;" horiz-adv-x="605" 
d="M85 1191l24 476h408v-140h-260l-10 -189q45 14 88 14q112 0 158 -63t46 -216q0 -158 -49 -219q-59 -75 -198 -75q-184 0 -231 128q-17 47 -18 139h157q1 -72 20 -101t64 -29q48 0 67.5 32t19.5 109q0 92 -16.5 128t-56.5 36q-50 0 -81 -54z" />
    <glyph glyph-name="uni2076" unicode="&#x2076;" horiz-adv-x="605" 
d="M326 1347q25 1 36 1q71 0 118 -39q37 -31 52 -85t15 -154q0 -165 -62 -229q-61 -62 -184 -62q-132 0 -189 63.5t-57 210.5q0 90 10.5 132t56.5 134l172 348h198zM304 1221q-47 0 -64 -34t-17 -127q0 -85 16.5 -116.5t61.5 -31.5q46 0 62 32t16 123q0 89 -16 121.5
t-59 32.5z" />
    <glyph glyph-name="uni2077" unicode="&#x2077;" horiz-adv-x="605" 
d="M103 791l235 736h-273v140h447v-101l-217 -775h-192z" />
    <glyph glyph-name="uni2078" unicode="&#x2078;" horiz-adv-x="605" 
d="M136 1257q-37 22 -51.5 62t-14.5 117q0 129 52 183q57 60 181 60q123 0 177 -57t54 -188q0 -76 -14.5 -115.5t-50.5 -61.5q48 -29 67 -78.5t19 -145.5q0 -137 -59 -195q-62 -59 -194 -59q-135 0 -194 59.5t-59 194.5q0 96 19 145.5t68 78.5zM304 1555q-46 0 -62.5 -26
t-16.5 -98q0 -75 15 -97q19 -28 63 -28t60 25.5t16 99.5q0 75 -15 97q-19 27 -60 27zM303 1182q-49 0 -67.5 -28.5t-18.5 -106.5q0 -77 18 -106t67 -29t67 29t18 106t-18 106t-66 29z" />
    <glyph glyph-name="uni2079" unicode="&#x2079;" horiz-adv-x="605" 
d="M286 1141q-19 -4 -35 -4q-76 0 -125 37q-38 29 -53.5 80.5t-15.5 147.5q0 156 62 218q60 59 184 59q132 0 189 -60.5t57 -199.5q0 -88 -11 -132t-54 -133l-178 -364h-198zM304 1546q-47 0 -63 -28t-16 -113q0 -84 15.5 -113t61.5 -29t62.5 31t16.5 119q0 76 -16.5 104.5
t-60.5 28.5z" />
    <glyph glyph-name="uni2080" unicode="&#x2080;" horiz-adv-x="605" 
d="M50 89v289q0 159 52 226q60 79 200 79q136 0 194 -70t58 -235v-289q0 -160 -52 -227q-60 -79 -200 -79q-136 0 -194 70.5t-58 235.5zM380 87v293q0 93 -17 129.5t-61 36.5t-61 -36.5t-17 -129.5v-293q0 -94 17 -130.5t61 -36.5t61 36.5t17 130.5z" />
    <glyph glyph-name="uni2081" unicode="&#x2081;" horiz-adv-x="605" 
d="M248 -205v703l-103 -52l-53 109l212 117h118v-877h-174z" />
    <glyph glyph-name="uni2082" unicode="&#x2082;" horiz-adv-x="605" 
d="M44 -205v118l203 286q103 146 103 247q0 100 -64 100q-38 0 -54.5 -31.5t-18.5 -109.5h-158q2 117 31 174q53 104 209 104q235 0 235 -231q0 -95 -26.5 -154.5t-133.5 -209.5l-108 -153h264v-140h-482z" />
    <glyph glyph-name="uni2083" unicode="&#x2083;" horiz-adv-x="605" 
d="M179 193v124h75q100 0 100 119q0 110 -75 110q-38 0 -54 -25.5t-18 -90.5h-157q2 110 32 158q57 95 206 95q234 0 234 -235q0 -131 -70 -191q48 -34 67.5 -82.5t19.5 -131.5q0 -123 -49 -185q-59 -75 -198 -75q-181 0 -229 126q-18 47 -19 142h157q1 -72 20 -101.5
t64 -29.5q86 0 86 123q0 150 -106 150h-86z" />
    <glyph glyph-name="uni2084" unicode="&#x2084;" horiz-adv-x="605" 
d="M350 -205v153h-303v102l216 622h171l-202 -588h118v202h145v-202h62v-137h-62v-152h-145z" />
    <glyph glyph-name="uni2085" unicode="&#x2085;" horiz-adv-x="605" 
d="M85 196l24 476h408v-140h-260l-10 -189q45 14 88 14q112 0 158 -63t46 -216q0 -158 -49 -220q-59 -75 -198 -75q-184 0 -231 129q-17 47 -18 139h157q1 -73 20 -102t64 -29q48 0 67.5 32t19.5 110q0 92 -16.5 128t-56.5 36q-49 0 -81 -54z" />
    <glyph glyph-name="uni2086" unicode="&#x2086;" horiz-adv-x="605" 
d="M326 352q25 1 36 1q71 0 118 -39q37 -31 52 -85t15 -154q0 -165 -62 -229q-61 -63 -184 -63q-132 0 -189 64t-57 211q0 90 10.5 132t56.5 134l172 348h198zM304 226q-47 0 -64 -34.5t-17 -127.5q0 -85 16.5 -116.5t61.5 -31.5q46 0 62 32.5t16 122.5q0 89 -16 122t-59 33
z" />
    <glyph glyph-name="uni2087" unicode="&#x2087;" horiz-adv-x="605" 
d="M103 -205l235 737h-273v140h447v-101l-217 -776h-192z" />
    <glyph glyph-name="uni2088" unicode="&#x2088;" horiz-adv-x="605" 
d="M136 261q-37 23 -51.5 62.5t-14.5 116.5q0 130 52 184q57 59 181 59q123 0 177 -57t54 -188q0 -75 -14.5 -114.5t-50.5 -62.5q48 -29 67 -78.5t19 -145.5q0 -138 -59 -195q-62 -59 -194 -59q-135 0 -194 59.5t-59 194.5q0 96 19 145.5t68 78.5zM304 559q-46 0 -62.5 -26
t-16.5 -97q0 -76 15 -97q19 -28 63 -28q45 0 60.5 25.5t15.5 98.5q0 75 -15 97q-19 27 -60 27zM303 187q-49 0 -67.5 -29t-18.5 -106q0 -78 18 -107t67 -29t67 29t18 106t-18 106.5t-66 29.5z" />
    <glyph glyph-name="uni2089" unicode="&#x2089;" horiz-adv-x="605" 
d="M286 146q-20 -4 -35 -4q-76 0 -125 37q-38 29 -53.5 80.5t-15.5 146.5q0 156 62 218q61 59 184 59q132 0 189 -60t57 -200q0 -87 -11 -131t-54 -133l-178 -364h-198zM304 550q-47 0 -63 -28t-16 -113q0 -83 15.5 -112t61.5 -29t62.5 31t16.5 118q0 76 -16.5 104.5
t-60.5 28.5z" />
    <glyph glyph-name="franc" unicode="&#x20a3;" horiz-adv-x="1213" 
d="M122 0v1462h589v-187h-369v-454h300v-187h-300v-634h-220zM724 0v896h158l24 -86q9 13 13 19q62 87 151 87q70 0 154 -52l-91 -172q-46 52 -88 52q-60 0 -87.5 -91t-27.5 -291v-362h-206z" />
    <glyph glyph-name="lira" unicode="&#x20a4;" 
d="M74 0v161q81 31 129 110t48 182q0 14 -2 39h-186v127h169q-12 50 -39 120h-130v127h83q-41 130 -41 238q0 376 347 376q218 0 302 -169q45 -90 47 -258h-207q-3 99 -18 150q-28 93 -114 93q-131 0 -131 -209q0 -103 51 -221h291v-127h-243q19 -65 26 -120h217v-127h-214
q1 -16 1 -28q0 -161 -88 -277h452v-187h-750z" />
    <glyph glyph-name="peseta" unicode="&#x20a7;" 
d="M140 931h-127v134h127v397h263q99 0 157.5 -15.5t105.5 -53.5q119 -97 129 -328h109v-134h-109q-10 -217 -101.5 -313t-289.5 -96h-44v-522h-220v931zM354 931v-232h58q155 -11 172 232h-230zM354 1065h228q-8 120 -46.5 170.5t-122.5 50.5h-59v-221z" />
    <glyph glyph-name="dong" unicode="&#x20ab;" 
d="M78 -367v152h717v-152h-717zM518 1169h-213v152h213v141h214v-141h107v-152h-107v-1169h-164l-14 71q-49 -52 -92 -71.5t-111 -19.5q-92 0 -150 35.5t-93 114.5q-44 98 -44 295v246q0 196 54 286q69 115 222 115q104 0 178 -70v167zM277 686v-285q0 -123 27.5 -179
t87.5 -56q126 0 126 263v193q0 264 -128 264q-113 0 -113 -200z" />
    <glyph glyph-name="Euro" unicode="&#x20ac;" 
d="M119 628v113h-131l49 135h82v117q0 263 77 367q91 123 273 123q227 0 310 -187q37 -83 40 -240h-207q-3 99 -18 146q-29 97 -117 97q-74 0 -103.5 -71t-29.5 -249v-103h384l-49 -135h-335v-113h304l-49 -135h-255q2 -133 11 -193q20 -136 132 -136q71 0 104 48t34 155
h207q-3 -153 -52 -235q-91 -152 -303 -152q-164 0 -252 94q-60 64 -82 152t-24 267h-131l49 135h82z" />
    <glyph glyph-name="uni20B4" unicode="&#x20b4;" 
d="M17 653l35 121l144 -49q35 29 116 67q36 17 60 29l-297 102l35 121l384 -132q58 77 58 200q0 184 -125 184q-59 0 -85.5 -33.5t-30.5 -113.5h-206q2 140 53 211q85 120 277 120q333 0 333 -376q0 -154 -61 -264l113 -39l-35 -120l-168 57q-34 -25 -122 -69
q-34 -17 -53 -27l320 -110l-35 -121l-408 140q-39 -64 -39 -186q0 -108 36.5 -154.5t121.5 -46.5q77 0 111.5 38.5t35.5 124.5h207q-3 -156 -58 -228q-91 -119 -305 -119q-196 0 -287 117q-78 101 -78 276q0 147 46 248z" />
    <glyph glyph-name="uni2101" unicode="&#x2101;" horiz-adv-x="1391" 
d="M620 704l174 758h173l-335 -1462h-173l134 586h-118l-39 165h-235l-39 -165h-181l266 876h143zM408 871l-89 380l-90 -380h179zM832 141l137 79q22 -54 47 -75.5t67 -21.5q94 0 94 124q0 53 -23.5 77t-102.5 54q-84 31 -126 80q-57 65 -57 174q0 126 68 192q64 64 178 64
q164 0 223 -137l-132 -80q-38 82 -96 82q-71 0 -71 -101q0 -53 24 -82.5t85 -52.5q95 -36 130 -68q70 -63 70 -204q0 -257 -245 -257q-108 0 -172.5 36.5t-97.5 116.5z" />
    <glyph glyph-name="afii61248" unicode="&#x2105;" horiz-adv-x="1393" 
d="M427 866l128 -74q-77 -155 -248 -155q-260 0 -260 363v106q0 370 255 370q86 0 144 -36.5t100 -117.5l-127 -74q-43 87 -107 87q-50 0 -72.5 -55t-22.5 -178v-97q0 -120 24 -173.5t77 -53.5q37 0 58 17t51 71zM797 302v204q0 153 53 226q67 91 223 91q143 0 208 -75
t65 -242v-204q0 -153 -53 -225q-66 -91 -220 -91q-145 0 -210.5 75t-65.5 241zM1175 311v186q0 98 -24 141.5t-78 43.5q-55 0 -79 -43.5t-24 -141.5v-186q0 -98 24 -141t79 -43q54 0 78 43.5t24 140.5zM426 0l335 1462h173l-335 -1462h-173z" />
    <glyph glyph-name="afii61289" unicode="&#x2113;" horiz-adv-x="798" 
d="M161 394q-89 -115 -118 -115q-16 0 -31 26t-15 54q0 26 10.5 42t74.5 88q28 32 82 106q34 361 101 589q46 157 112.5 232.5t159.5 75.5q98 0 152 -74q50 -70 50 -168q0 -313 -351 -681q-25 -260 -25 -342q0 -59 10.5 -83.5t35.5 -24.5q23 0 37.5 18t38.5 76q25 60 59 60
q47 0 47 -61q0 -92 -72 -178q-67 -80 -161 -80q-142 0 -182 174q-14 64 -15 266zM399 747q83 108 138 227q69 149 69 261q0 95 -51 95q-62 0 -99 -171q-30 -141 -57 -412z" />
    <glyph glyph-name="afii61352" unicode="&#x2116;" horiz-adv-x="1747" 
d="M119 0v1462h224l377 -1000v1000h211v-1462h-213l-388 1011v-1011h-211zM1060 702v161q0 175 59 258q74 106 243 106q159 0 232 -87t73 -277v-161q0 -175 -59 -258q-76 -105 -245 -105q-158 0 -230.5 86.5t-72.5 276.5zM1458 714v137q0 108 -22.5 155.5t-73.5 47.5
q-50 0 -72.5 -48t-22.5 -155v-137q0 -107 22.5 -154.5t72.5 -47.5q51 0 73.5 47.5t22.5 154.5zM1059 0v170h608v-170h-608z" />
    <glyph glyph-name="trademark" unicode="&#x2122;" horiz-adv-x="1309" 
d="M179 586v738h-181v138h532v-138h-177v-738h-174zM588 586v876h166l160 -491l159 491h166v-876h-159v530l-103 -352h-127l-103 352v-530h-159z" />
    <glyph glyph-name="uni2126" unicode="&#x2126;" horiz-adv-x="988" 
d="M79 0v164h178v62q-86 49 -124 150t-38 284v356q0 229 77 335q95 132 322 132q245 0 337 -155q62 -104 62 -312v-356q0 -182 -38 -283.5t-123 -150.5v-62h177v-164h-352v346q61 25 86 96t25 223v331q0 169 -38.5 236t-135.5 67q-109 0 -149 -94q-25 -60 -25 -209v-331
q0 -152 25 -223t86 -96v-346h-352z" />
    <glyph glyph-name="estimated" unicode="&#x212e;" horiz-adv-x="887" 
d="M823 638h-546v-247q17 -98 41 -157q41 -102 138 -102q137 0 190 243h152q-29 -161 -77 -236q-104 -161 -270 -161q-200 0 -297 202q-91 191 -91 496q0 331 109 529q49 89 129 141q65 42 148 42q135 0 232 -117q111 -135 135 -406q7 -87 7 -227zM622 779v210
q-40 245 -171 245q-70 0 -108.5 -54.5t-65.5 -188.5v-212h345z" />
    <glyph glyph-name="onethird" unicode="&#x2153;" horiz-adv-x="1489" 
d="M230 586v691l-111 -52l-62 133l228 104h119v-876h-174zM996 398v124h75q100 0 100 119q0 110 -74 110q-39 0 -55.5 -25.5t-18.5 -90.5h-156q2 110 31 158q58 95 207 95q234 0 234 -235q0 -132 -71 -191q48 -34 68 -83t20 -131q0 -123 -50 -186q-59 -74 -197 -74
q-182 0 -230 126q-17 45 -19 141h158q1 -72 19.5 -101t64.5 -29q86 0 86 122q0 151 -107 151h-85zM394 0l334 1462h198l-335 -1462h-197z" />
    <glyph glyph-name="twothirds" unicode="&#x2154;" horiz-adv-x="1489" 
d="M62 586v118l203 286q103 145 103 245q0 101 -64 101q-38 0 -54.5 -31.5t-18.5 -109.5h-158q2 118 31 174q53 104 209 104q235 0 235 -231q0 -95 -26.5 -154.5t-133.5 -208.5l-108 -153h264v-140h-482zM1046 398v124h75q100 0 100 119q0 110 -74 110q-39 0 -55 -25.5
t-18 -90.5h-157q2 110 32 158q58 95 206 95q234 0 234 -236q0 -131 -70 -190q48 -34 67.5 -83t19.5 -132q0 -122 -50 -185q-58 -74 -197 -74q-181 0 -229 126q-18 46 -19 141h157q1 -72 20 -101t64 -29q86 0 86 122q0 151 -106 151h-86zM485 0l335 1462h197l-335 -1462h-197
z" />
    <glyph glyph-name="uni2155" unicode="&#x2155;" horiz-adv-x="1489" 
d="M253 586v691l-111 -52l-62 133l228 104h119v-876h-174zM911 400l24 477h408v-140h-260l-10 -190q45 15 88 15q111 0 157.5 -63.5t46.5 -216.5q0 -158 -49 -219q-60 -75 -198 -75q-184 0 -231 129q-17 47 -18 138h157q0 -71 19.5 -100.5t64.5 -29.5q48 0 67.5 32t19.5 110
q0 91 -16.5 127t-57.5 36q-47 0 -81 -54zM410 0l335 1462h197l-334 -1462h-198z" />
    <glyph glyph-name="uni2156" unicode="&#x2156;" horiz-adv-x="1489" 
d="M58 586v118l203 286q103 145 103 245q0 101 -64 101q-38 0 -54.5 -31.5t-18.5 -109.5h-158q2 118 31 174q53 104 209 104q235 0 235 -231q0 -95 -26.5 -154.5t-133.5 -208.5l-108 -153h264v-140h-482zM951 400l25 477h407v-140h-259l-11 -190q45 15 88 15
q112 0 158 -63.5t46 -216.5q0 -158 -49 -219q-59 -75 -198 -75q-183 0 -230 129q-17 45 -19 138h157q1 -71 20 -100.5t64 -29.5q48 0 67.5 31.5t19.5 108.5q0 93 -16 129t-57 36q-48 0 -81 -54zM484 0l335 1462h197l-334 -1462h-198z" />
    <glyph glyph-name="uni2157" unicode="&#x2157;" horiz-adv-x="1489" 
d="M197 984v124h75q100 0 100 118q0 110 -75 110q-38 0 -54 -25.5t-18 -90.5h-157q2 110 32 158q57 95 206 95q234 0 234 -235q0 -131 -70 -190q48 -34 67.5 -82.5t19.5 -131.5q0 -123 -49 -186q-59 -74 -198 -74q-181 0 -229 126q-18 46 -19 141h157q1 -72 20 -101t64 -29
q86 0 86 122q0 151 -106 151h-86zM960 400l24 477h408v-140h-260l-10 -190q45 15 88 15q112 0 158 -63.5t46 -216.5q0 -158 -49 -219q-59 -75 -198 -75q-183 0 -230 129q-17 45 -19 138h157q1 -71 20 -100.5t65 -29.5q47 0 66.5 32t19.5 109q0 92 -16 128t-57 36
q-48 0 -81 -54zM490 0l335 1462h198l-335 -1462h-198z" />
    <glyph glyph-name="uni2158" unicode="&#x2158;" horiz-adv-x="1489" 
d="M361 586v152h-303v102l216 622h171l-202 -588h118v203h145v-203h62v-137h-62v-151h-145zM955 400l24 477h408v-140h-259l-11 -190q45 15 88 15q112 0 158 -63.5t46 -216.5q0 -158 -49 -219q-59 -75 -198 -75q-183 0 -230 129q-17 46 -19 138h157q2 -72 20.5 -101
t63.5 -29q48 0 67.5 32t19.5 109q0 92 -16 128t-57 36q-49 0 -81 -54zM488 0l335 1462h198l-335 -1462h-198z" />
    <glyph glyph-name="uni2159" unicode="&#x2159;" horiz-adv-x="1489" 
d="M244 586v691l-111 -52l-62 133l228 104h119v-876h-174zM1110 556q27 2 35 2q72 0 119 -39q36 -31 51.5 -85.5t15.5 -154.5q0 -164 -63 -228q-60 -63 -184 -63q-131 0 -188 63.5t-57 210.5q0 90 10.5 132.5t55.5 134.5l172 347h199zM1087 430q-46 0 -63 -34.5t-17 -125.5
q0 -85 16.5 -117t61.5 -32q46 0 62 32t16 123q0 89 -16 121.5t-60 32.5zM412 0l335 1462h198l-335 -1462h-198z" />
    <glyph glyph-name="uni215A" unicode="&#x215a;" horiz-adv-x="1489" 
d="M94 986l24 476h408v-140h-260l-10 -189q46 14 88 14q112 0 158 -63t46 -216q0 -158 -49 -219q-59 -75 -198 -75q-184 0 -231 129q-17 46 -18 138h157q1 -72 20 -101t64 -29q48 0 67.5 32t19.5 109q0 92 -16.5 128t-56.5 36q-49 0 -81 -54zM1157 556q29 2 36 2
q105 0 151 -79q34 -58 34 -200q0 -164 -62 -228q-61 -63 -184 -63q-138 0 -198 74q-48 59 -48 201q0 89 10.5 131.5t56.5 134.5l171 347h199zM1135 430q-47 0 -64 -34t-17 -126q0 -85 16.5 -117t61.5 -32q46 0 62 32t16 123q0 89 -16 121.5t-59 32.5zM486 0l335 1462h197
l-335 -1462h-197z" />
    <glyph glyph-name="oneeighth" unicode="&#x215b;" horiz-adv-x="1489" 
d="M244 586v691l-111 -52l-62 133l228 104h119v-876h-174zM955 466q-37 23 -51.5 62.5t-14.5 115.5q0 131 51 184q57 60 181 60t178 -57t54 -187q0 -76 -14.5 -115.5t-50.5 -62.5q48 -28 67.5 -78t19.5 -146q0 -138 -60 -195q-62 -59 -194 -59q-135 0 -194 59.5t-59 194.5
q0 96 19 145.5t68 78.5zM1122 764q-45 0 -61.5 -25.5t-16.5 -96.5q0 -77 14 -98q19 -28 63 -28q45 0 61 26t16 100q0 73 -15 95q-19 27 -61 27zM1122 392q-50 0 -68 -28.5t-18 -106.5t18 -107t67 -29t67.5 29t18.5 106q0 78 -18.5 107t-66.5 29zM408 0l334 1462h198
l-335 -1462h-197z" />
    <glyph glyph-name="threeeighths" unicode="&#x215c;" horiz-adv-x="1489" 
d="M186 984v124h75q100 0 100 118q0 110 -75 110q-38 0 -54 -25.5t-18 -90.5h-157q2 110 32 158q57 95 206 95q234 0 234 -235q0 -131 -70 -190q48 -34 67.5 -82.5t19.5 -131.5q0 -123 -49 -186q-59 -74 -198 -74q-181 0 -229 126q-18 46 -19 141h157q1 -72 20 -101t64 -29
q86 0 86 122q0 151 -106 151h-86zM1000 466q-36 23 -50.5 62.5t-14.5 116.5q0 130 52 183q57 60 181 60q123 0 177 -57t54 -187q0 -77 -14.5 -116t-50.5 -62q48 -28 67 -78t19 -146q0 -135 -59 -194.5t-194 -59.5t-194 59.5t-59 194.5q0 96 19 145.5t67 78.5zM1169 764
q-46 0 -62.5 -25.5t-16.5 -96.5q0 -77 15 -98q19 -28 63 -28q45 0 60.5 26t15.5 100q0 70 -16 96t-59 26zM1168 392q-49 0 -67.5 -29t-18.5 -106q0 -78 18 -107t67 -29t67 29t18 106t-18 106.5t-66 29.5zM468 0l335 1462h198l-335 -1462h-198z" />
    <glyph glyph-name="fiveeighths" unicode="&#x215d;" horiz-adv-x="1489" 
d="M91 986l24 476h408v-140h-260l-10 -189q46 14 88 14q112 0 158 -63t46 -216q0 -158 -49 -219q-59 -75 -198 -75q-184 0 -231 129q-17 46 -18 138h157q1 -72 20 -101t64 -29q48 0 67.5 32t19.5 109q0 92 -16.5 128t-56.5 36q-49 0 -81 -54zM1009 466q-37 23 -51.5 62.5
t-14.5 116.5q0 130 51 183q58 60 181 60q124 0 178 -57t54 -189q0 -75 -14.5 -114.5t-50.5 -61.5q48 -28 67.5 -78t19.5 -146q0 -135 -59.5 -194.5t-194.5 -59.5t-194 59.5t-59 194.5q0 96 19 145.5t68 78.5zM1176 764q-46 0 -62 -25.5t-16 -98.5q0 -75 14 -96
q19 -28 63 -28q46 0 61.5 25.5t15.5 100.5q0 73 -15 95q-19 27 -61 27zM1176 392q-50 0 -68 -28.5t-18 -106.5t18 -107t67 -29t67.5 29t18.5 106t-18.5 106.5t-66.5 29.5zM472 0l335 1462h197l-334 -1462h-198z" />
    <glyph glyph-name="seveneighths" unicode="&#x215e;" horiz-adv-x="1489" 
d="M145 586l235 736h-273v140h447v-101l-217 -775h-192zM974 466q-36 22 -50.5 62t-14.5 117q0 130 52 183q57 60 181 60q123 0 177 -57t54 -189q0 -75 -14.5 -114t-51.5 -62q48 -28 67.5 -78t19.5 -146q0 -138 -59 -195q-62 -59 -194 -59q-135 0 -194 59.5t-59 194.5
q0 96 19 145.5t67 78.5zM1143 764q-46 0 -62.5 -25.5t-16.5 -98.5q0 -75 14 -96q20 -28 64 -28q45 0 60.5 25.5t15.5 100.5q0 73 -15 95q-19 27 -60 27zM1142 392q-49 0 -67.5 -28.5t-18.5 -106.5t18 -107t67 -29t67 29t18 106q0 82 -18 107q-20 29 -66 29zM438 0l335 1462
h197l-335 -1462h-197z" />
    <glyph glyph-name="arrowleft" unicode="&#x2190;" horiz-adv-x="1638" 
d="M1499 642h-1100l361 -361l-132 -132l-527 546v81l527 546l132 -132l-361 -361h1100v-187z" />
    <glyph glyph-name="arrowup" unicode="&#x2191;" horiz-adv-x="1638" 
d="M707 0v1169l-360 -360l-132 132l546 528h80l546 -528l-132 -132l-360 359v-1168h-188z" />
    <glyph glyph-name="arrowright" unicode="&#x2192;" horiz-adv-x="1638" 
d="M139 642v187h1100l-361 361l132 132l527 -546v-81l-527 -546l-132 132l361 361h-1100z" />
    <glyph glyph-name="arrowdown" unicode="&#x2193;" horiz-adv-x="1638" 
d="M707 294v1168h188v-1169l360 360l133 -132l-547 -528h-80l-546 528l132 132z" />
    <glyph glyph-name="arrowboth" unicode="&#x2194;" horiz-adv-x="1638" 
d="M1290 642h-942l298 -298l-132 -133l-465 484v81l465 484l132 -133l-298 -298h942l-298 298l132 133l465 -484v-81l-465 -484l-132 133z" />
    <glyph glyph-name="arrowupdn" unicode="&#x2195;" horiz-adv-x="1638" 
d="M708 254v954l-299 -298l-132 133l484 465h80l484 -465l-132 -133l-298 298v-954l298 298l132 -133l-484 -465h-80l-484 465l132 133z" />
    <glyph glyph-name="uni2196" unicode="&#x2196;" horiz-adv-x="1638" 
d="M1263 174l-783 783v-511h-187v757l74 74h756v-188h-511l783 -783z" />
    <glyph glyph-name="uni2197" unicode="&#x2197;" horiz-adv-x="1638" 
d="M374 174l-131 132l783 783h-511v188h756l74 -74v-757h-187v510z" />
    <glyph glyph-name="uni2198" unicode="&#x2198;" horiz-adv-x="1638" 
d="M374 1274l784 -782v510h187v-756l-74 -74h-756v188h511l-783 782z" />
    <glyph glyph-name="uni2199" unicode="&#x2199;" horiz-adv-x="1638" 
d="M1264 1274l131 -132l-783 -782h511v-188h-756l-74 74v756h187v-510z" />
    <glyph glyph-name="partialdiff" unicode="&#x2202;" 
d="M498 995q-82 295 -298 343l27 141q520 -67 530 -847v-259q0 -198 -63 -284q-80 -109 -264 -109q-201 0 -277 128q-51 84 -51 265v272q0 199 61 287q72 105 209 105q81 0 126 -42zM550 384v250q0 127 -27.5 180.5t-93.5 53.5q-65 0 -92.5 -53.5t-27.5 -180.5v-250
q0 -128 27.5 -181.5t92.5 -53.5q66 0 93.5 53.5t27.5 181.5z" />
    <glyph glyph-name="emptyset" unicode="&#x2205;" 
d="M531 1189l117 330l115 -44l-119 -336q40 -29 71 -67q105 -130 105 -326q0 -197 -105 -326q-105 -130 -288 -130q-43 0 -80 10l-135 -381l-115 44l134 380q-91 57 -141 163t-50 240q0 197 105 326q104 130 288 130q54 0 98 -13zM483 1055q-30 8 -57 8q-106 0 -167 -85
q-62 -87 -62 -230q0 -159 86 -259zM589 986l-194 -552q27 -5 45 -5q98 0 160 85q62 87 62 230q0 142 -73 242z" />
    <glyph glyph-name="uni2206" unicode="&#x2206;" 
d="M923 0h-981l396 1462h189zM626 180l-193 971l-194 -971h387z" />
    <glyph glyph-name="product" unicode="&#x220f;" horiz-adv-x="1003" 
d="M131 -423v1885h741v-1885h-216v1692h-309v-1692h-216z" />
    <glyph glyph-name="summation" unicode="&#x2211;" horiz-adv-x="931" 
d="M111 -423v146l291 846l-274 738v155h694v-187h-463l262 -704l-262 -807h485v-187h-733z" />
    <glyph glyph-name="minus" unicode="&#x2212;" 
d="M74 652v170h712v-170h-712z" />
    <glyph glyph-name="uni2215" unicode="&#x2215;" horiz-adv-x="280" 
d="M-102 0l335 1462h197l-334 -1462h-198z" />
    <glyph glyph-name="uni2218" unicode="&#x2218;" 
d="M430 1084q180 0 287 -131q79 -97 79 -226q0 -128 -79 -225q-106 -131 -286 -131q-182 0 -289 131q-79 97 -79 229q0 128 79 222q110 131 288 131zM430 965q-119 0 -187 -87q-50 -64 -50 -148q0 -89 50 -153q68 -87 187 -87t186 86q50 65 50 151q0 87 -50 152
q-67 86 -186 86z" />
    <glyph glyph-name="uni2219" unicode="&#x2219;" horiz-adv-x="436" 
d="M106 616v237h225v-237h-225z" />
    <glyph glyph-name="radical" unicode="&#x221a;" 
d="M286 0l-157 591h-97v181h254l98 -481l262 1517h451v-152h-272l-320 -1656h-219z" />
    <glyph glyph-name="infinity" unicode="&#x221e;" horiz-adv-x="1281" 
d="M641 601q-12 -18 -17 -27q-47 -78 -93 -112q-77 -58 -180 -58q-139 0 -210 97q-67 91 -67 233t67 233q70 97 210 97q130 0 219 -92q15 -15 71 -105q10 17 15 25q32 53 48 72.5t46 41.5q78 58 180 58q139 0 210 -97q67 -91 67 -233q0 -143 -67 -233q-71 -97 -210 -97
q-131 0 -219 92q-15 15 -70 105zM562 734l-15 20q-54 77 -76 99q-54 55 -105 55q-55 0 -89.5 -48t-34.5 -125q0 -78 34.5 -126.5t88.5 -48.5q62 0 113 59l67 93zM719 734l17 -22q53 -76 75 -97q34 -34 54 -44.5t52 -10.5q58 0 90 48q35 52 35 126q0 78 -35 126t-91 48
q-54 0 -109 -58q-19 -19 -73 -96z" />
    <glyph glyph-name="integral" unicode="&#x222b;" horiz-adv-x="843" 
d="M158 -188l38 168q35 -20 65 -20q44 0 56.5 46.5t12.5 211.5v919q0 248 21 332q39 154 196 154q77 0 161 -26l-39 -169q-36 21 -64 21q-44 0 -56.5 -46.5t-12.5 -207.5v-923q0 -249 -22 -333q-41 -152 -198 -152q-78 0 -158 25z" />
    <glyph glyph-name="similar" unicode="&#x223c;" 
d="M213 587l-125 30q53 272 216 272q43 0 64 -10t81 -61q63 -52 77.5 -60.5t36.5 -8.5q56 0 88 131l120 -38q-65 -256 -223 -256q-36 0 -61.5 15t-107.5 84q-48 41 -81 41q-53 0 -85 -139z" />
    <glyph glyph-name="uni2243" unicode="&#x2243;" 
d="M99 492v166h659v-166h-659zM212 752l-125 30q53 272 216 272q43 0 63.5 -10t81.5 -61q63 -52 77.5 -60.5t36.5 -8.5q56 0 88 130l120 -38q-66 -255 -222 -255q-37 0 -61 14t-109 85q-49 41 -81 41q-53 0 -85 -139z" />
    <glyph glyph-name="approxequal" unicode="&#x2248;" 
d="M213 423l-125 29q53 273 216 273q43 0 63.5 -10t81.5 -62q63 -52 77.5 -60.5t36.5 -8.5q55 0 88 131l120 -38q-66 -256 -222 -256q-37 0 -61.5 14.5t-108.5 84.5q-48 42 -81 42q-53 0 -85 -139zM213 752l-125 30q53 272 216 272q43 0 63.5 -10t81.5 -61
q63 -52 77.5 -60.5t36.5 -8.5q56 0 88 130l120 -38q-66 -255 -222 -255q-37 0 -61 14t-109 85q-49 41 -81 41q-53 0 -85 -139z" />
    <glyph glyph-name="notequal" unicode="&#x2260;" 
d="M100 492v166h211l55 158h-266v163h327l83 241l161 -59l-61 -182h149v-163h-210l-55 -158h265v-166h-327l-83 -241l-161 59l61 182h-149z" />
    <glyph glyph-name="lessequal" unicode="&#x2264;" 
d="M302 744l410 -237v-199l-620 379v115l620 378v-198zM105 52v170h607v-170h-607z" />
    <glyph glyph-name="greaterequal" unicode="&#x2265;" 
d="M558 744l-410 238v198l620 -378v-115l-620 -379v199zM148 52v170h607v-170h-607z" />
    <glyph glyph-name="dotmath" unicode="&#x22c5;" horiz-adv-x="436" 
d="M106 616v237h225v-237h-225z" />
    <glyph glyph-name="filledrect" unicode="&#x25ac;" 
d="M112 408v637h636v-637h-636z" />
    <glyph glyph-name="uni25B4" unicode="&#x25b4;" 
d="M55 397l375 749l375 -749h-750z" />
    <glyph glyph-name="uni25B8" unicode="&#x25b8;" 
d="M138 352v750l748 -375z" />
    <glyph glyph-name="uni25BE" unicode="&#x25be;" 
d="M55 1057h750l-375 -748z" />
    <glyph glyph-name="uni25C2" unicode="&#x25c2;" 
d="M721 352l-748 375l748 375v-750z" />
    <glyph glyph-name="lozenge" unicode="&#x25ca;" 
d="M-6 718l436 778l437 -778l-437 -778zM213 718l217 -417l217 417l-217 417z" />
    <glyph glyph-name="openbullet" unicode="&#x25e6;" 
d="M430 1084q180 0 287 -131q79 -97 79 -226q0 -128 -79 -225q-106 -131 -286 -131q-182 0 -289 131q-79 97 -79 229q0 128 79 222q110 131 288 131zM430 965q-119 0 -187 -87q-50 -64 -50 -148q0 -89 50 -153q68 -87 187 -87t186 86q50 65 50 151q0 87 -50 152
q-67 86 -186 86z" />
    <glyph glyph-name="glyph155" horiz-adv-x="328" 
 />
    <glyph glyph-name="glyph166" horiz-adv-x="328" 
 />
    <glyph glyph-name="glyph172" 
 />
    <glyph glyph-name="glyph210" horiz-adv-x="328" 
 />
    <glyph glyph-name="Gcircumflex.aalt" horiz-adv-x="840" 
d="M430 449v172h343v-222q0 -206 -61 -294q-83 -121 -278 -121q-198 0 -283 112q-62 80 -62 271v383q0 208 75 290q86 94 260 94q214 0 289 -152q30 -62 34 -200h-204q-5 75 -17 107q-23 65 -96 65q-68 0 -94.5 -47.5t-26.5 -167.5v-360q0 -114 22 -160q28 -59 102 -59
q65 0 94 47.5t29 154.5v87h-126zM425 1425l-81 -161h-200l203 290h155l203 -290h-199z" />
    <glyph glyph-name="i.locl" horiz-adv-x="427" 
d="M106 1225v246h214v-246h-214zM106 0v1051h214v-1051h-214z" />
    <glyph glyph-name="one.pnum" horiz-adv-x="578" 
d="M208 0v1211l-158 -82l-86 170l320 163h149v-1462h-225z" />
    <glyph glyph-name="two.pnum" horiz-adv-x="779" 
d="M-4 0v159l311 492q163 257 163 446q0 106 -27.5 154t-87.5 48q-70 0 -100.5 -56.5t-33.5 -189.5h-207q2 183 55 277q85 153 290 153q200 0 283 -140q54 -91 54 -236q0 -175 -73 -323q-31 -62 -52 -98t-118 -187l-196 -312h435v-187h-696z" />
    <glyph glyph-name="three.pnum" horiz-adv-x="782" 
d="M220 682v177h100q79 0 115 50q43 58 43 176q0 214 -120 214q-63 0 -90.5 -51t-32.5 -175h-207q3 172 54 259q89 151 286 151q165 0 250.5 -98.5t85.5 -288.5q0 -241 -124 -323q56 -36 87 -83q64 -96 64 -286q0 -424 -353 -424q-238 0 -322 195q-35 81 -37 237h207
q0 -91 16 -146q29 -102 123 -102q140 0 140 243q0 133 -44.5 204t-126.5 71h-114z" />
    <glyph glyph-name="four.pnum" horiz-adv-x="821" 
d="M469 0v263h-439v137l344 1062h226l-327 -1016h196v349h206v-349h99v-184h-99v-262h-206z" />
    <glyph glyph-name="five.pnum" horiz-adv-x="840" 
d="M100 689l36 773h584v-187h-390l-18 -391q66 35 143 35q170 0 241 -116q58 -95 58 -325q0 -144 -17 -230.5t-57 -144.5q-83 -123 -283 -123q-183 0 -272.5 106.5t-90.5 325.5h206q1 -91 17 -146q30 -102 127 -102q77 0 110.5 70t33.5 230q0 161 -27.5 220.5t-101.5 59.5
q-83 0 -137 -89z" />
    <glyph glyph-name="six.pnum" horiz-adv-x="850" 
d="M430 905q38 14 81 14q153 0 220 -132q47 -93 47 -332q0 -153 -18.5 -235.5t-64.5 -134.5q-93 -105 -264 -105q-189 0 -280 124q-67 90 -67 335q0 138 17 216.5t76 221.5l245 585h246zM435 753q-76 0 -104.5 -67.5t-28.5 -244.5q0 -149 23 -209q30 -76 107 -76
q74 0 101.5 63t27.5 234q0 167 -22 222q-31 78 -104 78z" />
    <glyph glyph-name="seven.pnum" horiz-adv-x="617" 
d="M43 0l318 1275h-388v187h611v-135l-302 -1327h-239z" />
    <glyph glyph-name="eight.pnum" horiz-adv-x="871" 
d="M213 774q-59 41 -81.5 108.5t-22.5 202.5q0 219 80 306q84 92 246 92q170 0 248.5 -94.5t78.5 -299.5q0 -141 -21.5 -205.5t-82.5 -109.5q75 -42 105 -123.5t30 -240.5q0 -229 -80 -323q-48 -57 -113 -82t-165 -25q-106 0 -175 29.5t-116 95.5q-66 91 -66 306
q0 158 30 239.5t105 123.5zM437 1318q-81 0 -109 -74q-15 -40 -15 -162q0 -137 20 -178q30 -65 103 -65q79 0 108 77q14 39 14 166q0 132 -20 174q-31 62 -101 62zM438 683q-81 0 -111.5 -57t-30.5 -207q0 -148 26 -198q34 -65 113 -65q80 0 110 56.5t30 205.5t-26 199
q-34 66 -111 66z" />
    <glyph glyph-name="nine.pnum" horiz-adv-x="850" 
d="M425 614q-46 -14 -83 -14q-156 0 -223 123q-47 88 -47 314q0 144 18.5 221.5t64.5 125.5q94 99 264 99q189 0 280 -116q67 -85 67 -315q0 -131 -17 -208.5t-75 -212.5l-270 -631h-245zM421 1307q-77 0 -104.5 -56.5t-27.5 -212.5q0 -151 22 -202q31 -70 105 -70
q75 0 103.5 61.5t28.5 223.5q0 141 -28.5 198.5t-98.5 57.5z" />
    <glyph glyph-name="zero.pnum" horiz-adv-x="893" 
d="M92 458v546q0 247 75 353q88 126 280 126q187 0 270.5 -112.5t83.5 -366.5v-546q0 -246 -75 -353q-88 -125 -279 -125q-189 0 -272 112t-83 366zM581 478v506q0 163 -24 231q-31 84 -110 84q-86 0 -115 -98q-20 -67 -20 -217v-506q0 -163 24 -231q31 -83 111 -83
q85 0 114 98q20 67 20 216z" />
    <glyph glyph-name="sterling.pnum" horiz-adv-x="846" 
d="M77 0v161q85 32 131.5 113t46.5 197q0 61 -16 132h-165v187h102q-68 178 -68 314q0 376 347 376q218 0 302 -169q45 -90 47 -258h-207q-3 99 -19 150q-27 93 -114 93q-131 0 -131 -210q0 -63 15 -119t63 -177h255v-187h-211q11 -70 11 -114q0 -193 -91 -302h452v-187
h-750z" />
    <glyph glyph-name="dollar.pnum" horiz-adv-x="821" 
d="M39 450h206q2 -141 38 -202t118 -61q80 0 118 56.5t38 176.5q0 114 -43 165q-23 27 -48 40t-120 47q-139 51 -204 133q-80 100 -80 275q0 314 242 360v224h220v-234q212 -66 211 -358h-206q-5 109 -34 154t-95 45q-128 0 -128 -180q0 -92 41.5 -144.5t145.5 -91.5
q98 -37 136.5 -57.5t73.5 -53.5q98 -94 98 -307q0 -355 -243 -412v-300h-220v294q-140 32 -201.5 132.5t-63.5 298.5z" />
    <glyph glyph-name="cent.pnum" horiz-adv-x="846" 
d="M341 75v225q-121 30 -174.5 124.5t-53.5 279.5v249q0 233 92 331q26 27 52.5 41t83.5 31v221h220v-225q108 -26 157 -105t51 -229h-198q-1 179 -123 179q-68 0 -96 -51.5t-28 -177.5v-279q0 -118 22 -167q29 -63 102 -63q66 0 96.5 45.5t31.5 143.5h200q-1 -168 -56 -244
q-52 -74 -159 -100v-229h-220z" />
    <glyph glyph-name="Euro.pnum" horiz-adv-x="865" 
d="M133 628v113h-131l49 135h82v117q0 263 77 367q91 123 273 123q227 0 310 -187q37 -83 40 -240h-207q-3 99 -18 146q-29 97 -117 97q-74 0 -103.5 -71t-29.5 -249v-103h384l-49 -135h-335v-113h304l-49 -135h-255q2 -133 11 -193q20 -136 132 -136q71 0 104 48t34 155
h207q-3 -153 -52 -235q-91 -152 -303 -152q-164 0 -252 94q-60 64 -82 152t-24 267h-131l49 135h82z" />
    <glyph glyph-name="yen.pnum" horiz-adv-x="859" 
d="M316 0v295h-223v135h223v102h-223v135h177l-289 795h237l211 -686l211 686h237l-290 -795h178v-135h-224v-102h224v-135h-224v-295h-225z" />
    <glyph glyph-name="one.oldstyle" horiz-adv-x="578" 
d="M208 0v873l-155 -83l-82 172l314 159h148v-1121h-225z" />
    <glyph glyph-name="two.oldstyle" horiz-adv-x="755" 
d="M22 0v153l303 361q158 188 158 307q0 136 -115 136q-67 0 -97 -41t-33 -135h-203q2 143 48 222q82 138 289 138q171 0 256 -94q70 -76 70 -216q0 -119 -43 -202t-197 -259l-165 -190h402v-180h-673z" />
    <glyph glyph-name="three.oldstyle" horiz-adv-x="802" 
d="M212 357v177h92q104 0 146 48q48 55 48 172q0 204 -113 204q-99 0 -111 -162h-206q4 143 55 219q87 127 272 127q173 0 256 -110q73 -96 73 -262q0 -121 -33 -196.5t-107 -125.5q62 -34 99 -83q71 -93 71 -279q0 -406 -366 -406q-225 0 -306 155q-34 68 -38 200h207
q1 -171 127 -171q71 0 110.5 60t39.5 169q0 129 -53.5 196.5t-156.5 67.5h-106z" />
    <glyph glyph-name="four.oldstyle" horiz-adv-x="765" 
d="M459 -300v300h-460v138l344 983h230l-328 -938h214v350h203v-350h113v-183h-113v-300h-203z" />
    <glyph glyph-name="five.oldstyle" horiz-adv-x="840" 
d="M97 360l38 761h580v-187h-385l-21 -376q65 32 142 32q159 0 229.5 -101t70.5 -329q0 -133 -17 -214t-57 -138q-88 -128 -293 -128q-225 0 -306 155q-34 68 -38 200h207q0 -171 126 -171q152 0 152 283q0 147 -29.5 207.5t-101.5 60.5q-80 0 -135 -89z" />
    <glyph glyph-name="six.oldstyle" horiz-adv-x="850" 
d="M430 905q44 14 79 14q155 0 222 -132q47 -93 47 -332q0 -153 -18.5 -235.5t-64.5 -134.5q-93 -105 -264 -105q-189 0 -280 124q-67 90 -67 335q0 134 19 224t74 214l245 553h246zM435 753q-76 0 -104.5 -67.5t-28.5 -244.5q0 -149 23 -209q30 -76 107 -76q74 0 101.5 63
t27.5 234q0 167 -22 222q-31 78 -104 78z" />
    <glyph glyph-name="seven.oldstyle" horiz-adv-x="617" 
d="M43 -300l318 1234h-388v187h611v-135l-302 -1286h-239z" />
    <glyph glyph-name="eight.oldstyle" horiz-adv-x="871" 
d="M221 759q-62 41 -86 108t-24 197q0 211 79 296q84 90 246 90q168 0 246 -92.5t78 -291.5q0 -134 -23 -198t-87 -109q79 -41 111 -122t32 -236q0 -223 -80 -316q-48 -56 -113 -80.5t-165 -24.5q-105 0 -174.5 29t-116.5 94q-66 90 -66 299q0 155 32 235t111 122zM437 1285
q-70 0 -96 -48t-26 -179q0 -132 19 -172q30 -62 102 -62q78 0 106 74q14 38 14 159q0 129 -20 168q-30 60 -99 60zM438 668q-81 0 -111.5 -55t-30.5 -201q0 -145 26 -193q34 -63 113 -63q80 0 110 55t30 200t-26 193q-34 64 -111 64z" />
    <glyph glyph-name="nine.oldstyle" horiz-adv-x="850" 
d="M420 217q-8 -2 -43 -11q-9 -3 -35 -3q-156 0 -223 132q-47 93 -47 332q0 153 18.5 235.5t64.5 134.5q93 105 264 105q189 0 280 -124q67 -90 67 -335q0 -135 -19 -223t-74 -216l-245 -559h-246zM418 966q-83 0 -112 -92q-17 -54 -17 -206q0 -165 22 -221q31 -78 104 -78
q76 0 104.5 67.5t28.5 244.5q0 149 -23 209q-30 76 -107 76z" />
    <glyph glyph-name="zero.oldstyle" horiz-adv-x="886" 
d="M92 433v254q0 233 77 336q87 118 277 118q182 0 265 -107.5t83 -344.5v-257q0 -231 -77 -334q-87 -118 -274 -118q-185 0 -268 107t-83 346zM574 457v206q0 154 -23 216q-29 78 -108 78q-74 0 -102.5 -63.5t-28.5 -228.5v-209q0 -152 23 -215q28 -77 108 -77
q74 0 102.5 64t28.5 229z" />
    <glyph glyph-name="one.numr" horiz-adv-x="605" 
d="M230 586v691l-111 -52l-62 133l228 104h119v-876h-174z" />
    </font>
</defs>
</svg>
