<svg width="30" height="30" viewBox="0 0 30 30" fill="none" xmlns="http://www.w3.org/2000/svg">
<path d="M24.5016 15.9187C24.7031 15.8625 24.8438 15.675 24.8438 15.4688V13.5938C24.8438 13.3828 24.7031 13.2 24.5016 13.1438L21.5625 12.3047V6.09375C21.5625 5.32031 20.9297 4.6875 20.1562 4.6875C19.3828 4.6875 18.75 5.32031 18.75 6.09375V6.69375L7.89375 10.3125H2.34375C1.05 10.3125 0 11.3625 0 12.6562V16.4062C0 17.7 1.05 18.75 2.34375 18.75H3.34219L4.05 23.7047C4.18125 24.6234 4.97813 25.3125 5.90625 25.3125H7.5C7.63594 25.3125 7.7625 25.2563 7.85156 25.1531C7.94063 25.05 7.98281 24.9141 7.96406 24.7828L7.12031 18.7547H7.89375L18.75 22.3734V22.9734C18.75 23.7469 19.3828 24.3797 20.1562 24.3797C20.9297 24.3797 21.5625 23.7469 21.5625 22.9734V16.7625L24.5016 15.9234V15.9187ZM23.9062 13.9453V15.1125L21.5625 15.7828V13.275L23.9062 13.9453ZM0.9375 16.4062V12.6562C0.9375 11.8828 1.57031 11.25 2.34375 11.25H7.5V17.8125H2.34375C1.57031 17.8125 0.9375 17.1797 0.9375 16.4062ZM5.90625 24.375C5.44219 24.375 5.04375 24.0281 4.97813 23.5687L4.82344 22.5H6.69375L6.95625 24.375H5.90156H5.90625ZM6.56719 21.5625H4.69219L4.28906 18.75H6.16875L6.5625 21.5625H6.56719ZM8.4375 17.9437V11.1187L18.75 7.68281V21.3844L8.4375 17.9484V17.9437ZM20.625 22.9688C20.625 23.2266 20.4141 23.4375 20.1562 23.4375C19.8984 23.4375 19.6875 23.2266 19.6875 22.9688V6.09375C19.6875 5.83594 19.8984 5.625 20.1562 5.625C20.4141 5.625 20.625 5.83594 20.625 6.09375V22.9688Z" fill="white"/>
<path d="M3.28125 14.0625H5.15625C5.41406 14.0625 5.625 13.8516 5.625 13.5938C5.625 13.3359 5.41406 13.125 5.15625 13.125H3.28125C3.02344 13.125 2.8125 13.3359 2.8125 13.5938C2.8125 13.8516 3.02344 14.0625 3.28125 14.0625Z" fill="white"/>
<path d="M5.15625 15H3.28125C3.02344 15 2.8125 15.2109 2.8125 15.4688C2.8125 15.7266 3.02344 15.9375 3.28125 15.9375H5.15625C5.41406 15.9375 5.625 15.7266 5.625 15.4688C5.625 15.2109 5.41406 15 5.15625 15Z" fill="white"/>
<path d="M29.5312 14.0625H27.6562C27.3984 14.0625 27.1875 14.2734 27.1875 14.5312C27.1875 14.7891 27.3984 15 27.6562 15H29.5312C29.7891 15 30 14.7891 30 14.5312C30 14.2734 29.7891 14.0625 29.5312 14.0625Z" fill="white"/>
<path d="M25.425 7.9828C25.1718 7.91718 24.9187 8.07187 24.8578 8.32499L24.389 10.2C24.3281 10.4531 24.4781 10.7062 24.7312 10.7672C24.7687 10.7766 24.8062 10.7812 24.8437 10.7812C25.0547 10.7812 25.2468 10.6406 25.2984 10.425L25.7672 8.54999C25.8281 8.29687 25.6781 8.04374 25.425 7.9828Z" fill="white"/>
<path d="M27.1874 12.1875C27.2765 12.1875 27.3656 12.1641 27.4453 12.1078L28.8515 11.1703C29.0671 11.025 29.1234 10.7344 28.9828 10.5188C28.8374 10.3031 28.5468 10.2469 28.3312 10.3875L26.9249 11.325C26.7093 11.4703 26.6531 11.7609 26.7937 11.9766C26.8828 12.1125 27.0328 12.1875 27.1828 12.1875H27.1874Z" fill="white"/>
<path d="M25.2984 18.6375C25.2375 18.3843 24.9797 18.2343 24.7312 18.2953C24.4781 18.3562 24.3281 18.614 24.389 18.8625L24.8578 20.7375C24.9093 20.9531 25.1015 21.0937 25.3125 21.0937C25.35 21.0937 25.3875 21.0937 25.425 21.0797C25.6781 21.0187 25.8281 20.7609 25.7672 20.5125L25.2984 18.6375Z" fill="white"/>
<path d="M27.4454 16.9547C27.2297 16.8094 26.9391 16.8703 26.7938 17.0859C26.6485 17.3016 26.7094 17.5922 26.9251 17.7375L28.3313 18.675C28.411 18.7266 28.5001 18.7547 28.5891 18.7547C28.7391 18.7547 28.8891 18.6797 28.9782 18.5438C29.1235 18.3281 29.0626 18.0375 28.8469 17.8922L27.4407 16.9547H27.4454Z" fill="white"/>
</svg>
