<svg width="253" height="67" viewBox="0 0 253 67" fill="none" xmlns="http://www.w3.org/2000/svg">
<path d="M90.5966 57.6806V58.4054C90.5966 61.8747 88.8177 63.8362 85.5448 63.8362C84.7619 63.8362 84.3082 63.7919 83.6608 63.7144V62.4778C84.3248 62.5525 84.8062 62.5995 85.6057 62.5995C88.3501 62.5995 89.2714 61.0005 89.2714 58.3003V58.043C88.7291 59.2354 87.5976 59.8219 86.1645 59.8219C83.813 59.8219 82.5293 58.2671 82.5293 56.1562C82.5293 54.0149 83.8572 52.4297 86.4218 52.4297C89.6476 52.4297 90.5966 54.8891 90.5966 57.6806ZM83.9153 56.1562C83.9153 57.6031 84.7453 58.6157 86.3139 58.6157C87.8521 58.6157 88.9975 57.7415 88.9975 56.1424C88.9975 54.8144 88.198 53.6995 86.4191 53.6995C84.7591 53.6968 83.9153 54.7093 83.9153 56.1562Z" fill="white"/>
<path d="M94.9141 58.9316H100.525V60.1683H94.9141V58.9316Z" fill="white"/>
<path d="M106.828 53.9671H104.385V52.7305H108.277V63.7413H106.83V53.9671H106.828Z" fill="white"/>
<path d="M110.631 61.9328C110.631 60.6214 111.129 59.9409 112.742 59.2022L114.808 58.2533C115.804 57.7996 116.438 57.0913 116.438 55.9294C116.438 54.5267 115.608 53.6968 114.191 53.6968C112.789 53.6968 111.928 54.5267 111.928 55.9294H110.512C110.512 54.0288 111.687 52.4297 114.191 52.4297C116.681 52.4297 117.857 54.0287 117.857 55.8242V56.0345C117.857 57.6336 116.861 58.6738 115.323 59.382L113.256 60.3309C112.321 60.7542 112.08 61.1 112.08 61.8083V62.5027H117.992V63.7393H110.631V61.9328Z" fill="white"/>
<path d="M125.426 52.7305H127.93L132.016 63.7413H130.492L129.286 60.4519H124.112L122.936 63.7413H121.459L125.426 52.7305ZM128.79 59.1267L126.934 54.0584H126.375L124.582 59.1267H128.79Z" fill="white"/>
<path d="M133.438 52.6738H136.802C139.502 52.6738 140.918 54.0322 140.918 56.1735V56.4142C140.918 58.5417 139.502 59.9139 136.802 59.9139H134.918V63.7456H133.44V52.6738H133.438ZM134.915 53.9686V58.6136H137.073C138.628 58.6136 139.41 57.6038 139.41 56.2897C139.41 54.9618 138.628 53.9658 137.073 53.9658H134.915V53.9686Z" fill="white"/>
<path d="M142.488 52.6738H146.093C148.506 52.6738 150.105 53.714 150.105 56.0988V56.3395C150.105 58.0603 149.261 59.0839 147.889 59.521L151.087 63.7456H149.291L146.32 59.7645C146.245 59.7645 146.171 59.7645 146.093 59.7645H143.966V63.7456H142.488V52.6738ZM143.966 53.9686V58.4476H146.364C147.736 58.4476 148.597 57.5125 148.597 56.215C148.597 54.9175 147.736 53.9686 146.364 53.9686H143.966Z" fill="white"/>
<path d="M152.477 52.7305H153.954V63.7413H152.477V52.7305Z" fill="white"/>
<path d="M156.576 52.7305H158.053V62.4134H162.79V63.7413H156.576V52.7305Z" fill="white"/>
<path d="M162.979 65.6738L164.381 61.7812L165.574 62.235L164.14 66.1109L162.979 65.6738Z" fill="white"/>
<path d="M169.916 61.9328C169.916 60.6214 170.414 59.9409 172.027 59.2022L174.093 58.2533C175.089 57.7996 175.723 57.0913 175.723 55.9294C175.723 54.5267 174.893 53.6968 173.476 53.6968C172.074 53.6968 171.213 54.5267 171.213 55.9294H169.797C169.797 54.0288 170.973 52.4297 173.476 52.4297C175.966 52.4297 177.142 54.0287 177.142 55.8242V56.0345C177.142 57.6336 176.146 58.6738 174.608 59.382L172.541 60.3309C171.606 60.7542 171.366 61.1 171.366 61.8083V62.5027H177.278V63.7393H169.916V61.9328Z" fill="white"/>
<path d="M178.574 58.6453V57.8319C178.574 54.7998 179.946 52.4316 183.1 52.4316C186.238 52.4316 187.61 54.7998 187.61 57.8319V58.6453C187.61 61.5419 186.387 64.0152 183.1 64.0152C179.794 64.0124 178.574 61.5391 178.574 58.6453ZM186.13 58.2525C186.13 55.0405 185.15 53.7568 183.098 53.7568C181.031 53.7568 180.052 55.0377 180.052 58.222C180.052 61.3289 181 62.6872 183.098 62.6872C185.178 62.6872 186.13 61.3289 186.13 58.2525Z" fill="white"/>
<path d="M189.236 61.9328C189.236 60.6214 189.734 59.9409 191.347 59.2022L193.414 58.2533C194.41 57.7996 195.043 57.0913 195.043 55.9294C195.043 54.5267 194.213 53.6968 192.797 53.6968C191.394 53.6968 190.534 54.5267 190.534 55.9294H189.117C189.117 54.0288 190.293 52.4297 192.797 52.4297C195.287 52.4297 196.462 54.0287 196.462 55.8242V56.0345C196.462 57.6336 195.466 58.6738 193.928 59.382L191.862 60.3309C190.927 60.7542 190.686 61.1 190.686 61.8083V62.5027H196.598V63.7393H189.236V61.9328Z" fill="white"/>
<path d="M197.533 59.3532L202.104 52.459L203.113 53.2585L198.845 59.7129L198.98 59.984H203.279V55.9448H204.638V59.9868H206.101V61.1321H204.638V63.741H203.279V61.1321H197.533V59.3532Z" fill="white"/>
<path d="M195.178 44.5332H138.188V46.2706H195.178V44.5332Z" fill="white"/>
<path d="M252.171 44.5332H195.18V46.2706H252.171V44.5332Z" fill="white"/>
<path d="M138.186 44.5332H81.1953V46.2706H138.186V44.5332Z" fill="white"/>
<path d="M85.7539 0.230469H87.3087V8.22856H85.7539V0.230469Z" fill="white"/>
<path d="M88.8672 0.230469H91.4207L94.7848 6.93658H94.9259V0.230469H96.395V8.22856H93.8304L90.4663 1.52245H90.3141V8.22856H88.8672V0.230469Z" fill="white"/>
<path d="M99.5003 1.59991H97.1875V0.230469H103.368V1.59991H101.055V8.22856H99.5003V1.59991Z" fill="white"/>
<path d="M104.166 0.230469H109.007V1.54458H105.688V3.50606H108.811V4.82017H105.688V6.91168H109.096V8.22579H104.166V0.230469Z" fill="white"/>
<path d="M110.262 0.173828H113.23C115.147 0.173828 116.373 1.01762 116.373 2.77992V2.96527C116.373 4.16042 115.792 4.92676 114.829 5.29747L116.965 8.22172H115.147L113.263 5.54923H111.817V8.22172H110.262V0.173828ZM111.817 1.499V4.29322H113.393C114.248 4.29322 114.796 3.72331 114.796 2.90164C114.796 2.06891 114.248 1.499 113.393 1.499H111.817Z" fill="white"/>
<path d="M117.707 0.230469H120.261L123.625 6.93658H123.766V0.230469H125.235V8.22856H122.67L119.306 1.52245H119.154V8.22856H117.707V0.230469Z" fill="white"/>
<path d="M128.703 0.230469H131.245L134.05 8.22856H132.451L131.718 6.10385H128.235L127.535 8.22856H125.98L128.703 0.230469ZM131.267 4.78697L130.161 1.53351H129.757L128.672 4.78697H131.267Z" fill="white"/>
<path d="M135.694 1.59991H133.381V0.230469H139.561V1.59991H137.249V8.22856H135.694V1.59991Z" fill="white"/>
<path d="M140.383 0.230469H141.938V8.22856H140.383V0.230469Z" fill="white"/>
<path d="M143.021 4.32688V4.08619C143.021 2.12471 144.435 0 147.249 0C150.043 0 151.468 2.12471 151.468 4.08619V4.32688C151.468 6.11131 150.132 8.43521 147.249 8.43521C144.358 8.43521 143.021 6.11407 143.021 4.32688ZM149.891 4.21899C149.891 2.63099 148.873 1.44691 147.252 1.44691C145.619 1.44691 144.601 2.63099 144.601 4.21899C144.601 5.72122 145.608 6.99107 147.252 6.99107C148.884 6.9883 149.891 5.71846 149.891 4.21899Z" fill="white"/>
<path d="M152.531 0.230469H155.085L158.449 6.93658H158.59V0.230469H160.059V8.22856H157.494L154.13 1.52245H153.978V8.22856H152.531V0.230469Z" fill="white"/>
<path d="M163.529 0.230469H166.071L168.877 8.22856H167.278L166.544 6.10385H163.061L162.361 8.22856H160.807L163.529 0.230469ZM166.091 4.78697L164.984 1.53351H164.58L163.496 4.78697H166.091Z" fill="white"/>
<path d="M169.618 0.230469H171.173V6.85912H174.404V8.22856H169.615V0.230469H169.618Z" fill="white"/>
<path d="M115.121 11.3516V19.8781H114.938L110.661 11.3516H107.416V21.5214H109.253V12.9949H109.447L113.727 21.5214H116.988V11.3516H115.121Z" fill="white"/>
<path d="M100.691 11.0723C97.1088 11.0723 95.3105 13.7752 95.3105 16.2706V16.5777C95.3105 18.849 97.012 21.8009 100.691 21.8009C104.354 21.8009 106.053 18.849 106.053 16.5777V16.2706C106.056 13.7779 104.244 11.0723 100.691 11.0723ZM100.691 19.964C98.6 19.964 97.3163 18.3455 97.3163 16.4394C97.3163 14.4198 98.611 12.912 100.691 12.912C102.753 12.912 104.047 14.4198 104.047 16.4394C104.047 18.3455 102.769 19.964 100.691 19.964Z" fill="white"/>
<path d="M92.8164 17.8182C92.5923 19.1683 91.4498 19.9651 89.9309 19.9651C87.8699 19.9651 86.7549 18.4463 86.7549 16.4405C86.7549 14.3905 87.8394 12.9132 89.8618 12.9132C91.3253 12.9132 92.4264 13.6657 92.6505 15.06H94.6424C94.3934 12.6642 92.6117 11.0762 89.8645 11.0762C86.3095 11.0762 84.752 13.7653 84.752 16.2745V16.5816C84.752 18.8668 86.2404 21.8048 89.9337 21.8048C92.8303 21.8048 94.5483 20.0066 94.8111 17.821H92.8164V17.8182Z" fill="white"/>
<path d="M124.904 13.0374V11.3691H118.939V21.539H120.92V17.3034L124.708 17.2896V15.6158L120.92 15.6296V13.0374H124.904Z" fill="white"/>
<path d="M128.122 19.866V17.2074H132.095V15.5336H128.122V13.0354H132.344V11.3672H126.186V21.537H132.455V19.8633H128.122V19.866Z" fill="white"/>
<path d="M139.744 17.8176C140.973 17.3418 141.711 16.368 141.711 14.8464V14.6112C141.711 12.3675 140.154 11.2969 137.714 11.2969H133.938V21.5359H135.918V18.1358H137.755L140.154 21.5359H142.464L139.744 17.8176ZM137.921 16.5339H135.916V12.9817H137.921C139.006 12.9817 139.703 13.7065 139.703 14.7689C139.706 15.8119 139.009 16.5339 137.921 16.5339Z" fill="white"/>
<path d="M145.348 19.866V17.2074H149.315V15.5336H145.348V13.0354H149.569V11.3672H143.408V21.537H149.68V19.8633H145.348V19.866Z" fill="white"/>
<path d="M158.861 11.37V19.8965H158.681L154.401 11.37H151.156V21.5398H152.993V13.0105H153.192L157.47 21.537H160.731V11.3672H158.861V11.37Z" fill="white"/>
<path d="M170.148 17.8182C169.924 19.1683 168.785 19.9651 167.266 19.9651C165.202 19.9651 164.087 18.4463 164.087 16.4405C164.087 14.3905 165.177 12.9132 167.197 12.9132C168.66 12.9132 169.761 13.6657 169.985 15.06H171.977C171.728 12.6642 169.941 11.0762 167.199 11.0762C163.644 11.0762 162.084 13.7653 162.084 16.2745V16.5816C162.084 18.8668 163.578 21.8048 167.271 21.8048C170.168 21.8048 171.88 20.0066 172.149 17.821H170.148V17.8182Z" fill="white"/>
<path d="M175.197 19.866V17.2074H179.164V15.5336H175.197V13.0354H179.419V11.3672H173.258V21.537H179.53V19.8633H175.197V19.866Z" fill="white"/>
<path d="M192.153 19.0843C192.04 19.1535 191.907 19.1867 191.78 19.1867C191.602 19.1867 191.423 19.1203 191.284 18.9958C191.127 18.8492 191.046 18.65 191.046 18.4452C190.485 19.3554 189.511 19.9641 188.238 19.9641C186.147 19.9641 184.863 18.3456 184.863 16.4395C184.863 15.2499 185.311 14.2428 186.103 13.6121C185.757 13.2967 185.469 12.8872 185.303 12.475C185.226 12.2841 185.176 12.1043 185.143 11.9355C183.621 12.9343 182.857 14.6468 182.857 16.2707V16.5778C182.857 18.8492 184.559 21.8011 188.238 21.8011C191.304 21.8011 192.994 19.7317 193.467 17.7287C193.146 18.2599 192.709 18.7496 192.153 19.0843Z" fill="white"/>
<path d="M85.796 26.7695H89.7936L94.2035 39.349H91.6887L90.5351 36.007H85.0573L83.9534 39.349H81.5078L85.796 26.7695ZM89.8296 33.9377L88.0894 28.8195H87.4531L85.7462 33.9377H89.8296Z" fill="white"/>
<path d="M94.1504 33.1602V32.7812C94.1504 29.6107 96.3719 26.4043 100.475 26.4043C103.767 26.4043 106.094 28.4017 106.367 31.2624H103.902C103.678 29.6439 102.231 28.6784 100.475 28.6784C98.1149 28.6784 96.632 30.4186 96.632 32.9859C96.632 35.794 98.2338 37.4484 100.751 37.4484C102.096 37.4484 103.216 36.967 103.905 36.1896V34.7814H100.356V32.9555H107.214V34.7814H106.163V37.0915C105.078 38.7293 103.164 39.6754 100.751 39.6754C96.4273 39.6754 94.1504 36.505 94.1504 33.1602Z" fill="white"/>
<path d="M108.539 26.6816H113.209C116.225 26.6816 118.156 28.0096 118.156 30.7817V31.0749C118.156 32.9534 117.243 34.1596 115.727 34.7461L119.088 39.3469H116.227L113.264 35.1417H110.99V39.3469H108.545V26.6816H108.539ZM110.985 28.7676V33.1609H113.466C114.811 33.1609 115.671 32.2645 115.671 30.9726C115.671 29.664 114.811 28.7676 113.466 28.7676H110.985Z" fill="white"/>
<path d="M119.342 33.2139V32.8349C119.342 29.7502 121.563 26.4082 125.993 26.4082C130.386 26.4082 132.627 29.7502 132.627 32.8349V33.2139C132.627 36.022 130.524 39.6766 125.993 39.6766C121.444 39.6766 119.342 36.022 119.342 33.2139ZM130.145 33.0424C130.145 30.5442 128.543 28.6823 125.993 28.6823C123.425 28.6823 121.823 30.5442 121.823 33.0424C121.823 35.4023 123.409 37.4025 125.993 37.4025C128.56 37.4025 130.145 35.4023 130.145 33.0424Z" fill="white"/>
<path d="M134.296 26.6816H138.811C141.655 26.6816 143.171 27.9045 143.171 30.1454V30.386C143.171 31.5923 142.706 32.3863 141.912 32.8842C143.016 33.349 143.685 34.2122 143.685 35.6591V35.8998C143.685 38.1407 142.186 39.4327 139.325 39.4327H134.293V26.6816H134.296ZM136.689 28.6459V32.057H139.032C140.202 32.057 140.739 31.3848 140.739 30.3501C140.739 29.3154 140.205 28.6431 139.032 28.6431H136.689V28.6459ZM136.689 33.9549V37.4712H139.497C140.65 37.4712 141.254 36.8155 141.254 35.6978C141.254 34.594 140.65 33.9577 139.497 33.9577H136.689V33.9549Z" fill="white"/>
<path d="M145.492 26.7695H147.941V39.349H145.492V26.7695Z" fill="white"/>
<path d="M164.602 26.6816H169.15C173.681 26.6816 175.939 29.6446 175.939 32.8344V33.2135C175.939 36.2456 173.681 39.4161 169.15 39.4161H164.602V26.6816ZM167.047 28.9585V37.1447H169.305C171.905 37.1447 173.457 35.4378 173.457 33.0253C173.457 30.5105 171.905 28.9585 169.305 28.9585H167.047Z" fill="white"/>
<path d="M177.473 26.7695H179.921V39.349H177.473V26.7695Z" fill="white"/>
<path d="M181.174 26.7695H183.708L186.914 37.3156H187.518L190.497 26.7695H192.945L189.224 39.349H185.194L181.174 26.7695Z" fill="white"/>
<path d="M194.232 26.7695H201.849V28.8361H196.628V31.9208H201.539V33.9875H196.628V37.2796H201.987V39.3463H194.232V26.7695Z" fill="white"/>
<path d="M203.814 26.6816H208.484C211.5 26.6816 213.431 28.0096 213.431 30.7817V31.0749C213.431 32.9534 212.518 34.1596 211.002 34.7461L214.363 39.3469H211.503L208.54 35.1417H206.266V39.3469H203.82V26.6816H203.814ZM206.26 28.7676V33.1609H208.742C210.086 33.1609 210.947 32.2645 210.947 30.9726C210.947 29.664 210.086 28.7676 208.742 28.7676H206.26Z" fill="white"/>
<path d="M214.545 35.5406H216.941C216.941 36.5753 217.715 37.574 219.716 37.574C221.508 37.574 222.405 36.7468 222.405 35.6789C222.405 34.7991 221.663 34.232 220.078 34.0937L218.974 34.0079C216.562 33.8004 215.01 32.4393 215.01 30.3035C215.01 27.9243 216.819 26.4082 219.577 26.4082C222.421 26.4082 224.214 27.9934 224.214 30.4391H221.818C221.818 29.4237 221.077 28.508 219.577 28.508C218.114 28.508 217.406 29.3352 217.406 30.3007C217.406 31.0754 217.939 31.731 219.198 31.8334L220.302 31.9358C222.991 32.1599 224.801 33.4518 224.801 35.6761C224.801 38.072 222.82 39.6738 219.718 39.6738C216.371 39.6766 214.545 37.9364 214.545 35.5406Z" fill="white"/>
<path d="M226.383 26.7695H228.828V39.349H226.383V26.7695Z" fill="white"/>
<path d="M233.754 28.9227H230.119V26.7676H239.838V28.9227H236.203V39.3471H233.757V28.9227H233.754Z" fill="white"/>
<path d="M244.248 34.5408H243.628L239.838 26.7695H242.353L245.161 32.6789H245.816L248.384 26.7695H250.763L247.266 34.5408H246.646V39.349H244.251V34.5408H244.248Z" fill="white"/>
<path d="M159.558 34.2749C159.218 35.8878 158.05 36.9999 156.183 36.9999C153.964 36.9999 152.73 35.3981 152.73 33.2457C152.73 31.1846 153.878 29.6437 155.823 29.4749C155.569 28.6505 155.438 27.7679 155.438 26.8633C151.842 27.1953 149.676 29.9424 149.676 33.0216V33.4864C149.676 36.6513 152 39.6226 156.183 39.6226C159.539 39.6226 161.699 37.7358 162.435 35.3676C161.403 35.1629 160.427 34.7922 159.558 34.2749Z" fill="white"/>
<path d="M163.501 34.9682C161.376 34.7967 159.401 33.9059 157.971 32.293C156.54 30.6801 155.898 28.6107 155.984 26.4805C158.109 26.652 160.084 27.5428 161.514 29.1557C162.942 30.7686 163.587 32.838 163.501 34.9682Z" fill="white"/>
<path d="M158.453 22.5C157.692 22.583 156.99 22.9233 156.492 23.5153C155.994 24.1101 155.783 24.8599 155.836 25.6234C156.597 25.5404 157.299 25.2001 157.797 24.6081C158.295 24.0133 158.506 23.2663 158.453 22.5Z" fill="white"/>
<path d="M195.657 13.8903C195.419 13.8903 195.184 13.8571 194.951 13.7962V21.5398H196.794V13.6026C196.44 13.7907 196.063 13.8903 195.657 13.8903ZM202.659 11.3672V19.8937H202.479L198.199 11.3672H196.882C197.095 11.4889 197.303 11.6162 197.513 11.7573C197.685 11.8679 197.803 12.0505 197.831 12.2525C197.864 12.4544 197.809 12.6619 197.682 12.8252C197.516 13.0299 197.344 13.2069 197.162 13.3536L201.264 21.5398H204.526V11.37H202.659V11.3672Z" fill="white"/>
<path d="M188.207 12.551C188.23 12.5095 188.257 12.468 188.285 12.4265C188.431 12.2162 188.628 12.0475 188.866 11.9313C189.212 11.7598 189.643 11.6906 190.122 11.7404C191.215 11.8511 192.258 12.8111 192.72 14.1279C193.013 14.969 193.041 15.8321 192.816 16.64C192.684 16.9747 192.504 17.2984 192.283 17.6027C192.299 17.0632 192.069 16.5127 191.754 16.1281C191.311 15.5831 190.706 15.229 190.116 14.8832C190.047 14.8417 189.978 14.8002 189.906 14.7615L189.82 14.7117C189.209 14.3493 188.678 14.0366 188.332 13.3367C188.21 13.0849 188.169 12.8111 188.207 12.551Z" fill="white"/>
<path d="M183.524 10.6308C183.508 10.5644 183.549 10.498 183.616 10.4814C183.826 10.4316 184.044 10.3929 184.263 10.3763C184.482 10.3624 184.706 10.3735 184.921 10.4205C185.137 10.4675 185.339 10.5505 185.533 10.6474C185.674 10.7193 185.81 10.7995 185.942 10.8853C185.989 10.7802 186.053 10.6833 186.122 10.6003C185.953 10.4399 185.776 10.2905 185.591 10.1549C185.397 10.0138 185.19 9.88657 184.977 9.78421C184.761 9.67908 184.537 9.59885 184.31 9.54629C184.08 9.49372 183.845 9.47159 183.616 9.48266C183.613 9.48266 183.61 9.48266 183.607 9.48266C183.538 9.47989 183.486 9.42456 183.488 9.35539C183.491 9.28623 183.546 9.23367 183.616 9.23643C183.87 9.24473 184.122 9.28623 184.363 9.36093C184.603 9.43286 184.833 9.53522 185.046 9.65971C185.262 9.78421 185.461 9.92807 185.649 10.0858C185.829 10.2379 185.995 10.4011 186.15 10.5727C186.269 10.4399 186.413 10.3403 186.565 10.2739C187.079 10.047 187.71 10.2684 187.779 10.9157C187.84 11.4912 187.431 11.9338 187.193 12.4595C187.057 12.7583 186.911 13.0958 187.049 13.3918C186.604 13.1649 186.169 12.6559 185.987 12.1966C185.782 11.6793 185.793 11.2532 185.923 10.9296C185.782 10.8549 185.641 10.7857 185.497 10.7248C185.303 10.6446 185.101 10.5837 184.899 10.5561C184.695 10.5256 184.49 10.5339 184.288 10.5644C184.086 10.5948 183.884 10.6474 183.688 10.7138C183.685 10.7138 183.682 10.7165 183.679 10.7165C183.607 10.7387 183.541 10.6972 183.524 10.6308ZM186.175 11.6433C186.222 11.7402 186.341 11.7789 186.438 11.7319C186.534 11.6848 186.573 11.5659 186.526 11.469C186.479 11.3722 186.36 11.3335 186.263 11.3805C186.166 11.4303 186.125 11.5465 186.175 11.6433Z" fill="white"/>
<path d="M188.545 10.863C190.65 8.46438 193.552 6.91235 196.64 6.28711C197.16 10.8657 190.545 9.66783 188.545 10.863Z" fill="white"/>
<path d="M191.26 10.741C193.337 10.6055 195.393 11.2279 197.105 12.365C195.235 14.7165 192.737 11.1117 191.26 10.741Z" fill="white"/>
<path d="M193.367 16.0167C193.53 15.2144 193.472 14.3706 193.192 13.5793C192.949 12.8822 192.553 12.268 192.047 11.8005C191.524 11.3163 190.921 11.0258 190.304 10.965C189.82 10.9152 189.38 10.9705 188.998 11.1309C188.644 11.2776 188.351 11.5072 188.149 11.8005C187.798 12.3067 187.753 12.9375 188.027 13.4908C188.42 14.282 189.015 14.6334 189.649 15.0069L189.734 15.0567C189.803 15.0982 189.875 15.1397 189.945 15.1812C190.506 15.5104 191.054 15.8783 191.488 16.3459C191.917 16.8051 192.111 17.7568 191.776 18.454C192.606 17.9588 193.181 16.9269 193.367 16.0167ZM189.015 11.4961C189.361 11.3246 189.792 11.2554 190.271 11.3052C191.364 11.4159 192.407 12.3759 192.869 13.6928C193.342 15.0456 193.121 16.4593 192.282 17.6019C192.299 17.0624 192.069 16.5119 191.754 16.1273C191.311 15.5823 190.705 15.2282 190.116 14.8824C190.047 14.8409 189.978 14.7994 189.906 14.7607L189.82 14.7109C189.209 14.3484 188.677 14.0358 188.332 13.3359C188.113 12.896 188.149 12.3953 188.428 11.9913C188.581 11.7811 188.777 11.6123 189.015 11.4961Z" fill="white"/>
<path d="M191.529 15.8757C191.438 15.7844 191.341 15.7014 191.244 15.6184C191.961 14.7995 192.354 13.7427 192.342 12.6582C192.472 12.8463 192.591 13.0483 192.694 13.2613C192.655 13.5905 192.58 13.917 192.472 14.2351C192.265 14.8521 191.944 15.4054 191.529 15.8757Z" fill="white"/>
<path d="M189.289 12.645C189.142 13.0821 188.937 13.486 188.68 13.854C188.594 13.7544 188.514 13.6437 188.439 13.522C188.846 12.8995 189.09 12.1802 189.145 11.4388C189.267 11.389 189.399 11.353 189.538 11.3281C189.516 11.7708 189.433 12.2134 189.289 12.645Z" fill="white"/>
<path d="M190.351 13.1754C190.176 13.6872 189.925 14.1603 189.604 14.5752C189.49 14.5061 189.382 14.4397 189.277 14.3677C189.958 13.5018 190.293 12.4007 190.207 11.2969C190.229 11.2996 190.251 11.2996 190.273 11.3024C190.381 11.3135 190.489 11.3328 190.597 11.3605C190.63 11.9691 190.55 12.5833 190.351 13.1754Z" fill="white"/>
<path d="M191.41 13.7058C191.227 14.248 190.956 14.7405 190.607 15.1748C190.497 15.1056 190.386 15.0392 190.275 14.9756C191.036 14.0461 191.393 12.8343 191.246 11.6309C191.388 11.7139 191.526 11.8079 191.656 11.9158C191.689 12.5134 191.609 13.122 191.41 13.7058Z" fill="white"/>
<path d="M191.99 16.4734C192.488 16.0114 192.864 15.447 193.105 14.8301C193.127 15.1482 193.111 15.4664 193.058 15.779C192.812 16.1746 192.508 16.5315 192.156 16.8386C192.109 16.7141 192.054 16.5896 191.99 16.4734Z" fill="white"/>
<path fill-rule="evenodd" clip-rule="evenodd" d="M53.3839 16.9729C55.8074 18.4585 56.3165 20.2347 55.3952 22.7412C52.7864 21.4464 51.3588 19.5707 52.6148 16.8844C49.6629 16.5773 46.5284 16.8539 43.7453 17.6341C41.1696 18.3313 38.7655 19.4822 36.5605 20.9678C45.5214 24.6418 51.4944 31.4032 55.279 40.7846C57.6223 40.0459 60.1869 39.6475 62.9783 39.595C61.4927 37.1742 62.082 34.6401 64.1403 33.243C65.6204 35.4977 65.8362 38.0125 63.7225 39.7776L65.4682 43.4792C66.8626 38.9144 69.2335 35.0053 72.5865 31.7463C69.3441 23.892 62.0958 18.1155 53.3839 16.9729ZM59.913 24.4315C61.5923 27.2838 61.2547 29.2564 59.166 31.1432C57.3263 28.3434 57.6195 26.0057 59.913 24.4315ZM57.8574 20.0493C59.6225 22.8989 59.2545 24.841 57.0192 26.6752C55.3786 24.1493 55.1379 21.7314 57.8574 20.0493ZM50.5925 22.3372C53.6191 21.3109 55.3316 23.0372 56.2335 25.9089C53.4033 26.4677 51.6687 25.5105 50.5925 22.3372ZM52.6674 26.7139C55.3454 25.9448 57.3346 27.2036 58.3222 30.4073C55.5363 30.8139 53.8017 29.8208 52.6674 26.7139ZM54.7617 31.2262C57.4895 30.3713 59.5367 31.8348 60.3778 34.7867C57.3014 35.1879 56.2252 34.6788 54.7617 31.2262ZM62.5467 39.3017C59.6197 40.1206 57.6416 38.3362 56.7785 35.5779C59.2711 34.8974 61.7693 36.0095 62.5467 39.3017ZM61.2382 35.5143C59.4952 32.9912 59.6585 30.4792 62.0598 28.9161C63.8 32.2443 63.5095 33.3951 61.2382 35.5143Z" fill="white"/>
<path fill-rule="evenodd" clip-rule="evenodd" d="M84.6206 23.7129C69.092 30.5656 65.2243 46.7029 67.8415 62.3394C76.5644 55.293 80.4653 42.0634 76.1439 31.2877C78.2769 28.2445 81.0877 25.7242 84.6206 23.7129ZM53.7625 52.5099C53.7238 52.2139 53.6823 51.9234 53.638 51.6301C49.4495 54.4326 46.4063 57.7663 44.4918 61.728C44.7796 61.7059 45.0783 61.6782 45.3854 61.645C48.318 61.3158 50.6197 61.1803 52.6338 61.3905C53.3033 61.4597 53.9396 61.5676 54.5593 61.7225C54.4376 58.4718 54.1747 55.3982 53.7625 52.5099ZM51.9919 43.9613C47.0011 47.6463 43.601 53.7106 41.9023 61.764C42.0185 61.7723 42.1403 61.7751 42.2648 61.7778C44.5831 56.1617 48.412 52.6371 53.6159 51.4946C53.2009 48.8276 52.6642 46.3128 51.9919 43.9613Z" fill="white"/>
<path fill-rule="evenodd" clip-rule="evenodd" d="M64.9629 64.3028C63.9255 64.9501 62.8465 65.5311 61.7233 66.0346C61.1063 65.4675 60.5143 64.9584 59.9389 64.5075C59.5211 56.3683 58.0327 47.8916 55.6562 41.7637C57.8557 40.7262 60.3013 40.0014 62.9848 39.6113L65.2202 44.3449C63.5962 49.9555 63.6792 57.6022 64.9629 64.3028Z" fill="white"/>
<path fill-rule="evenodd" clip-rule="evenodd" d="M53.3839 16.9729C55.8074 18.4585 56.3165 20.2347 55.3952 22.7412C52.7864 21.4464 51.3588 19.5707 52.6148 16.8844C49.6629 16.5773 46.5284 16.8539 43.7453 17.6341C41.1696 18.3313 38.7655 19.4822 36.5605 20.9678C45.5214 24.6418 51.4944 31.4032 55.279 40.7846C57.6223 40.0459 60.1869 39.6475 62.9783 39.595C61.4927 37.1742 62.082 34.6401 64.1403 33.243C65.6204 35.4977 65.8362 38.0125 63.7225 39.7776L65.4682 43.4792C66.8626 38.9144 69.2335 35.0053 72.5865 31.7463C69.3441 23.892 62.0958 18.1155 53.3839 16.9729ZM59.913 24.4315C61.5923 27.2838 61.2547 29.2564 59.166 31.1432C57.3263 28.3434 57.6195 26.0057 59.913 24.4315ZM57.8574 20.0493C59.6225 22.8989 59.2545 24.841 57.0192 26.6752C55.3786 24.1493 55.1379 21.7314 57.8574 20.0493ZM50.5925 22.3372C53.6191 21.3109 55.3316 23.0372 56.2335 25.9089C53.4033 26.4677 51.6687 25.5105 50.5925 22.3372ZM52.6674 26.7139C55.3454 25.9448 57.3346 27.2036 58.3222 30.4073C55.5363 30.8139 53.8017 29.8208 52.6674 26.7139ZM54.7617 31.2262C57.4895 30.3713 59.5367 31.8348 60.3778 34.7867C57.3014 35.1879 56.2252 34.6788 54.7617 31.2262ZM62.5467 39.3017C59.6197 40.1206 57.6416 38.3362 56.7785 35.5779C59.2711 34.8974 61.7693 36.0095 62.5467 39.3017ZM61.2382 35.5143C59.4952 32.9912 59.6585 30.4792 62.0598 28.9161C63.8 32.2443 63.5095 33.3951 61.2382 35.5143Z" fill="white"/>
<path fill-rule="evenodd" clip-rule="evenodd" d="M40.7039 25.3844C39.0495 24.0122 37.2761 22.842 35.3479 21.8516C34.5234 22.4906 33.6852 23.2238 32.8718 24.051C32.8746 24.0593 32.8801 24.0593 32.8829 24.062C31.5798 25.3927 30.44 26.8563 29.4856 28.4332C30.9435 28.0044 33.6298 27.57 37.9069 28.0929C37.9069 28.0929 30.4483 29.8884 29.4939 31.9799C28.5394 34.0714 29.2891 35.4796 31.198 38.0774C33.107 40.6724 34.7171 44.3381 33.7128 49.2183L35.9288 47.5556C35.9288 47.5556 34.7807 51.6307 34.8858 55.4568C34.9439 57.5373 35.7656 60.1489 39.1131 61.2527C40.6707 46.6703 51.1504 42.5066 51.5073 42.3711C51.51 42.3683 51.5156 42.3683 51.5156 42.3683C49.2027 35.0923 45.5979 29.4291 40.7039 25.3844ZM42.2393 27.8411C42.7622 28.3668 43.2657 28.909 43.7471 29.4706C43.3985 29.7279 42.9974 29.9658 42.5603 30.1872C42.2338 29.3074 42.1176 28.53 42.2393 27.8411ZM40.466 27.8909C42.7816 29.324 42.5686 31.3796 41.1742 33.5319C39.2736 31.9744 38.9582 30.3144 40.466 27.8909ZM38.712 31.6258C40.6652 32.962 40.9169 34.9512 39.3483 37.3332C37.5722 35.7203 37.2844 34.0465 38.712 31.6258ZM36.8833 35.4409C38.925 36.766 39.0689 38.9101 37.5805 41.0542C35.6522 39.2587 35.406 38.2683 36.8833 35.4409ZM35.6356 45.63C35.5139 45.4585 35.3894 45.2925 35.2566 45.1293L35.4696 44.6811C33.663 43.19 33.8595 41.0348 35.1127 39.1204C37.633 40.7416 36.8058 43.3255 35.6356 45.63ZM39.3483 43.9784C38.4381 44.4626 37.6524 44.6064 36.4738 44.2772C37.1323 41.4775 39.2625 40.5285 41.3817 41.1095C40.8533 42.4651 40.4743 43.3725 39.3483 43.9784ZM38.3136 40.4345C39.0301 37.928 40.7731 36.672 43.0942 37.4079C41.852 40.3459 40.9363 40.7803 38.3136 40.4345ZM40.0648 36.7079C40.9086 33.9801 42.599 32.9122 44.8786 33.5651C43.9131 36.2127 42.4385 37.0537 40.0648 36.7079ZM41.8437 32.8763C42.303 31.4211 43.0029 30.3089 44.0487 29.8386C44.5909 30.4915 45.1055 31.1638 45.5952 31.8637C44.7016 32.9288 43.487 33.2027 41.8437 32.8763Z" fill="white"/>
<path d="M56.4531 3.08082C54.9868 2.87333 54.8125 14.7003 54.8125 14.7003C54.8125 14.7003 57.9996 3.30215 56.4531 3.08082Z" fill="white"/>
<path d="M49.9679 6.37903C48.9526 6.41499 50.2418 14.4186 50.2418 14.4186C50.2418 14.4186 51.0385 6.34306 49.9679 6.37903Z" fill="white"/>
<path d="M43.252 3.45185C41.8023 3.75894 45.6838 14.933 45.6838 14.933C45.6838 14.933 44.7791 3.12816 43.252 3.45185Z" fill="white"/>
<path d="M38.5334 9.39253C37.6702 9.74112 41.2916 16.2314 41.2916 16.2314C41.2916 16.2314 39.4436 9.02458 38.5334 9.39253Z" fill="white"/>
<path d="M36.7948 13.9802C36.3826 14.2237 38.7231 17.2475 38.7231 17.2475C38.7231 17.2475 37.2291 13.7229 36.7948 13.9802Z" fill="white"/>
<path d="M42.4038 11.6435C41.9501 11.7929 43.5851 15.2483 43.5851 15.2483C43.5851 15.2483 42.8824 11.4858 42.4038 11.6435Z" fill="white"/>
<path d="M47.6695 10.5315C47.1909 10.5647 47.9406 14.3134 47.9406 14.3134C47.9406 14.3134 48.173 10.4955 47.6695 10.5315Z" fill="white"/>
<path d="M52.7246 10.5236C52.246 10.4959 52.5061 14.311 52.5061 14.311C52.5061 14.311 53.2281 10.5513 52.7246 10.5236Z" fill="white"/>
<path d="M58.0163 10.9716C57.5543 10.8499 57.0508 14.6401 57.0508 14.6401C57.0508 14.6401 58.506 11.1016 58.0163 10.9716Z" fill="white"/>
<path d="M63.121 12.9324C62.6895 12.7249 61.4805 16.3519 61.4805 16.3519C61.4805 16.3519 63.5775 13.151 63.121 12.9324Z" fill="white"/>
<path d="M67.3721 15.4357C66.9792 15.1618 65.2031 18.5481 65.2031 18.5481C65.2031 18.5481 67.7843 15.7234 67.3721 15.4357Z" fill="white"/>
<path d="M71.6923 18.8607C71.3659 18.5121 68.9258 21.4557 68.9258 21.4557C68.9258 21.4557 72.0381 19.2314 71.6923 18.8607Z" fill="white"/>
<path d="M75.3241 22.8859C75.0641 22.4847 72.1426 24.9525 72.1426 24.9525C72.1426 24.9525 75.598 23.3092 75.3241 22.8859Z" fill="white"/>
<path d="M76.1914 27.2904C76.0614 27.0055 73.9395 28.3196 73.9395 28.3196C73.9395 28.3196 76.327 27.592 76.1914 27.2904Z" fill="white"/>
<path d="M79.8412 22.937C79.3294 22.1154 73.3398 26.9928 73.3398 26.9928C73.3398 26.9928 80.3807 23.8029 79.8412 22.937Z" fill="white"/>
<path d="M79.3456 15.4591C78.3552 14.358 70.6172 23.3051 70.6172 23.3051C70.6172 23.3051 80.3886 16.6211 79.3456 15.4591Z" fill="white"/>
<path d="M72.4498 13.555C71.6171 12.9048 67.293 20.1449 67.293 20.1449C67.293 20.1449 73.3268 14.2411 72.4498 13.555Z" fill="white"/>
<path d="M68.9931 7.25234C67.6845 6.55517 63.4766 17.6103 63.4766 17.6103C63.4766 17.6103 70.3708 7.98548 68.9931 7.25234Z" fill="white"/>
<path d="M61.9119 7.67752C60.8883 7.34554 59.2754 15.7752 59.2754 15.7752C59.2754 15.7752 62.9909 8.02888 61.9119 7.67752Z" fill="white"/>
<path d="M8.25391 44.0562C8.25391 44.0562 9.03131 37.1509 14.0332 39.1096C14.7304 42.2469 12.2018 42.8915 10.3178 43.3147C9.05344 43.5942 8.25391 44.0562 8.25391 44.0562Z" fill="white"/>
<path d="M14.8136 51.779C14.8136 51.779 12.996 45.0701 18.3686 45.0508C20.1696 47.7122 18.056 49.2421 16.4597 50.3266C15.3863 51.0597 14.8136 51.779 14.8136 51.779Z" fill="white"/>
<path d="M22.2317 49.8624C22.2317 49.8624 16.8977 45.4083 21.2883 42.3125C24.29 43.4606 23.4351 45.9256 22.749 47.7294C22.287 48.9439 22.2317 49.8624 22.2317 49.8624Z" fill="white"/>
<path d="M13.7847 46.2719C13.7847 46.2719 12.3184 40.8411 16.6674 40.8301C18.1226 42.9852 16.4129 44.2219 15.1182 45.0989C14.2495 45.6881 13.7847 46.2719 13.7847 46.2719Z" fill="white"/>
<path d="M10.6284 53.5512C10.6284 53.5512 9.16218 48.1204 13.5112 48.1094C14.9664 50.2645 13.2567 51.5012 11.9619 52.3782C11.0932 52.9674 10.6284 53.5512 10.6284 53.5512Z" fill="white"/>
<path d="M8.43212 49.1902C8.43212 49.1902 8.05864 43.5769 12.3247 44.4179C13.3289 46.8165 11.4089 47.6935 9.97032 48.3021C9.00203 48.7088 8.43212 49.1902 8.43212 49.1902Z" fill="white"/>
<path d="M10.7793 31.3077C10.7793 31.3077 16.2737 27.0528 18.3569 32.0049C16.5918 34.6912 14.3675 33.3273 12.7518 32.2705C11.6646 31.5595 10.7793 31.3077 10.7793 31.3077Z" fill="white"/>
<path d="M3.56641 28.8408C3.56641 28.8408 9.04417 24.5665 11.144 29.5103C9.38999 32.2022 7.16015 30.8494 5.54172 29.7953C4.45447 29.0898 3.56641 28.8408 3.56641 28.8408Z" fill="white"/>
<path d="M5.58789 37.3827C5.58789 37.3827 9.50809 33.3491 11.7379 37.0839C10.6285 39.4355 8.68919 38.5972 7.27548 37.9305C6.32656 37.4851 5.58789 37.3827 5.58789 37.3827Z" fill="white"/>
<path d="M0.0488281 40.0579C0.0488281 40.0579 0.887093 34.4971 4.87369 36.2318C5.34123 38.7908 3.27739 39.2362 1.74196 39.5184C0.710034 39.7093 0.0488281 40.0579 0.0488281 40.0579Z" fill="white"/>
<path d="M0 33.2479C0 33.2479 3.9202 29.2143 6.15004 32.9491C5.04065 35.3007 3.1013 34.4624 1.68759 33.7957C0.738668 33.3503 0 33.2479 0 33.2479Z" fill="white"/>
<path d="M4.43768 44.4339C4.43768 44.4339 4.10569 38.8178 8.36618 39.692C9.35383 42.0989 7.42555 42.9621 5.98141 43.5569C5.01035 43.958 4.43768 44.4339 4.43768 44.4339Z" fill="white"/>
<path d="M6.83008 33.1614C6.83008 33.1614 11.4668 29.9743 12.9192 34.0716C11.37 36.1603 9.63536 34.9569 8.37658 34.0273C7.53278 33.4049 6.83008 33.1614 6.83008 33.1614Z" fill="white"/>
<path d="M20.2285 21.2344C20.2285 21.2344 18.1536 27.8686 23.5207 28.0926C25.4241 25.5032 23.3713 23.893 21.8165 22.7477C20.7735 21.9758 20.2285 21.2344 20.2285 21.2344Z" fill="white"/>
<path d="M12.5352 16.8392C12.5352 16.8392 19.4681 16.3634 18.4417 21.6364C15.4815 22.8842 14.3915 20.516 13.639 18.7371C13.13 17.542 12.5352 16.8392 12.5352 16.8392Z" fill="white"/>
<path d="M15.6211 27.2497C15.6211 27.2497 20.8803 25.2522 21.323 29.5763C19.3227 31.239 17.9229 29.6593 16.9214 28.4587C16.2491 27.6564 15.6211 27.2497 15.6211 27.2497Z" fill="white"/>
<path d="M9.54492 22.4453C9.54492 22.4453 15.0033 23.8009 12.9007 27.6077C10.3113 27.8345 10.0595 25.7375 9.92117 24.1799C9.82711 23.1342 9.54492 22.4453 9.54492 22.4453Z" fill="white"/>
<path d="M5.27535 20.8086C5.27535 20.8086 4.63904 26.397 8.94103 25.7579C10.0559 23.4091 8.18022 22.4436 6.76929 21.7686C5.82036 21.3176 5.27535 20.8086 5.27535 20.8086Z" fill="white"/>
<path d="M8.60547 16.1641C8.60547 16.1641 14.0639 17.5197 11.9641 21.3264C9.3718 21.5533 9.12281 19.4563 8.98449 17.8987C8.89042 16.8529 8.60547 16.1641 8.60547 16.1641Z" fill="white"/>
<path d="M12.2734 21.9921C12.2734 21.9921 17.8204 21.0625 17.4082 25.3922C15.1202 26.6316 14.0579 24.8084 13.3109 23.4335C12.8074 22.5122 12.2734 21.9921 12.2734 21.9921Z" fill="white"/>
<path d="M29.2647 17.4824C29.2647 17.4824 34.5848 21.9532 30.1832 25.0351C27.1843 23.8787 28.0475 21.4137 28.7391 19.6127C29.2066 18.4009 29.2647 17.4824 29.2647 17.4824Z" fill="white"/>
<path d="M27.8408 8.26758C27.8408 8.26758 21.9259 11.9167 25.8323 15.6072C28.9668 14.899 28.4716 12.3372 28.0483 10.4531C27.7633 9.18607 27.8408 8.26758 27.8408 8.26758Z" fill="white"/>
<path d="M23.8652 21.3652C23.8652 21.3652 29.4509 22.0264 27.8435 26.0656C25.3011 26.6134 24.7893 24.5661 24.4573 23.039C24.2332 22.0126 23.8652 21.3652 23.8652 21.3652Z" fill="white"/>
<path d="M18.9863 16.5117C18.9863 16.5117 24.572 17.1729 22.9646 21.2121C20.4222 21.7599 19.9104 19.7126 19.5784 18.1855C19.3543 17.1591 18.9863 16.5117 18.9863 16.5117Z" fill="white"/>
<path d="M24.1582 15.9648C24.1582 15.9648 29.5059 17.7078 27.1378 21.3541C24.5372 21.3928 24.4376 19.2847 24.41 17.7216C24.3934 16.6731 24.1582 15.9648 24.1582 15.9648Z" fill="white"/>
<path d="M19.3672 11.1152C19.3672 11.1152 24.7758 12.659 22.546 16.3883C19.9482 16.5238 19.7711 14.4213 19.6853 12.8609C19.63 11.8152 19.3672 11.1152 19.3672 11.1152Z" fill="white"/>
<path d="M13.3242 11.8835C13.3242 11.8835 18.9486 11.7313 17.9388 15.9614C15.5015 16.8716 14.702 14.9184 14.1514 13.4549C13.7807 12.4728 13.3242 11.8835 13.3242 11.8835Z" fill="white"/>
<path d="M29.9548 11.1953C29.9548 11.1953 34.2208 14.8638 30.6298 17.3177C28.2146 16.3522 28.9339 14.3685 29.5121 12.9161C29.8995 11.9367 29.9548 11.1953 29.9548 11.1953Z" fill="white"/>
<path d="M35.5176 13.4316C35.5176 13.4316 30.4769 15.9271 33.3458 19.1944C35.9243 18.8596 35.7195 16.757 35.5203 15.2078C35.3875 14.1675 35.5176 13.4316 35.5176 13.4316Z" fill="white"/>
<path d="M34.5403 50.3496C34.5403 50.3496 30.6146 60.1294 39.3209 62.3675C45.2469 63.8919 49.6872 61.8501 53.9809 62.8931C58.4516 63.9776 60.1171 66.8604 60.1171 66.8604C54.0058 62.113 46.6744 66.1494 41.8246 65.798C38.4273 65.5518 34.911 64.3954 33.2041 59.9108C32.2884 57.5011 32.529 54.1204 34.5403 50.3496Z" fill="white"/>
<path d="M27.5996 29.7304C27.5443 30.2284 27.0989 30.588 26.6009 30.5327C26.1029 30.4774 25.7433 30.032 25.7986 29.534C25.8539 29.036 26.2993 28.6791 26.7973 28.7317C27.2953 28.787 27.6549 29.2324 27.5996 29.7304Z" fill="white"/>
<path d="M24.3296 34.5074C24.2743 35.022 23.8095 35.3955 23.2949 35.3374C22.7803 35.2821 22.4068 34.8173 22.4649 34.3027C22.5203 33.7881 22.9851 33.4147 23.4996 33.4728C24.0142 33.5281 24.3877 33.9929 24.3296 34.5074Z" fill="white"/>
<path d="M25.269 39.1152C25.2137 39.6297 24.7489 40.0032 24.2344 39.9451C23.7198 39.8898 23.3463 39.425 23.4044 38.9104C23.4597 38.3959 23.9245 38.0224 24.4391 38.0777C24.9537 38.1358 25.3244 38.6006 25.269 39.1152Z" fill="white"/>
<path d="M19.1367 34.8793C19.0814 35.3773 18.636 35.7342 18.138 35.6816C17.64 35.6263 17.2804 35.1809 17.3357 34.6829C17.391 34.1849 17.8364 33.8253 18.3344 33.8806C18.8324 33.9332 19.1921 34.3814 19.1367 34.8793Z" fill="white"/>
<path d="M34.1997 63.9577C34.1997 63.9577 34.1969 63.9549 34.1914 63.9494C34.1886 63.9494 34.1886 63.9494 34.1886 63.9494C33.9894 63.836 30.7858 61.963 29.5906 57.5531C28.6306 54.0203 31.1399 46.8383 27.6457 43.4963C22.8624 38.9149 17.6087 43.4548 17.1744 43.8421C19.1524 41.5044 21.5068 40.4033 23.5844 40.2982C25.7755 40.1931 27.4106 40.7491 28.6832 41.6344C25.5791 34.4691 15.6444 37.0945 15.0469 37.2577C16.9669 36.4914 18.8011 36.0515 20.4859 35.8828C20.0931 35.4789 19.7555 34.9255 19.5314 34.1647C19.2327 33.1688 19.3323 31.8408 20.0322 30.4354C19.9547 30.6485 18.7402 34.1758 21.5842 35.4125C22.1458 35.6587 22.6659 35.7804 23.1612 35.8496C24.0797 35.927 24.9345 36.0875 25.7174 36.331C25.5349 35.7749 25.438 35.1967 25.4546 34.5991C25.3329 34.494 25.2167 34.3916 25.1143 34.2809C24.0658 33.1356 23.3548 31.6029 24.6385 29.3454C25.3301 28.1364 26.8102 26.9053 29.0594 26.0781C29.0594 26.0781 23.673 28.6289 25.6925 32.1867C25.7811 32.3333 25.8668 32.4772 25.9581 32.6155C26.1463 32.2337 26.387 31.8491 26.6913 31.4591C27.8256 30.0094 30.1495 28.8585 33.5772 28.5874C32.9713 28.7036 25.4048 30.2639 28.0358 35.963C28.4038 36.7653 28.8381 37.4763 29.3084 38.1292C29.3084 38.1292 29.3112 38.132 29.3195 38.1403C29.5436 38.3865 33.5634 42.8379 32.6283 49.7321V49.7349C31.6628 56.8338 31.1675 57.7164 34.1997 63.9577Z" fill="white"/>
<path d="M53.9789 62.8931C49.6852 61.8501 45.2449 63.8919 39.319 62.3675C30.6126 60.1266 34.5384 50.3496 34.5384 50.3496C32.5271 54.1204 32.2864 57.5011 33.2021 59.9108C34.9063 64.3954 38.4254 65.5518 41.8227 65.798C46.6752 66.1494 54.0038 62.113 60.1151 66.8604C60.1151 66.8604 58.4469 63.9776 53.9789 62.8931Z" fill="white"/>
<path d="M32.6244 49.736V49.7333C33.5595 42.839 29.5397 38.3876 29.3156 38.1414C29.3073 38.1331 29.3045 38.1303 29.3045 38.1303C28.8342 37.4774 28.3999 36.7664 28.0319 35.9641C25.4009 30.2651 32.9674 28.7047 33.5733 28.5913C30.1456 28.8624 27.8217 30.0105 26.6874 31.463C26.3831 31.853 26.1451 32.2376 25.9542 32.6194C25.8629 32.4838 25.7744 32.34 25.6886 32.1906C23.6691 28.6328 29.0555 26.082 29.0555 26.082C26.8091 26.9092 25.3262 28.1403 24.6346 29.3493C23.3509 31.6068 24.0619 33.1395 25.1104 34.2848C25.2128 34.3983 25.329 34.4979 25.4507 34.603C25.4341 35.1978 25.531 35.776 25.7135 36.3349C24.9306 36.0942 24.0757 35.9309 23.1573 35.8535C22.662 35.7843 22.1419 35.6598 21.5803 35.4164C18.7335 34.1797 19.9508 30.6524 20.0283 30.4393C19.3284 31.8448 19.2288 33.1727 19.5275 34.1687C19.7516 34.9295 20.0892 35.4828 20.482 35.8867C18.7972 36.0554 16.963 36.4926 15.043 37.2617C15.6433 37.1012 25.5752 34.4757 28.6793 41.6383C27.4067 40.7558 25.7689 40.197 23.5805 40.3021C21.5029 40.4072 19.1458 41.5083 17.1704 43.846C17.6048 43.456 22.8585 38.9188 27.6418 43.5002C31.136 46.845 28.6267 54.0242 29.5867 57.5571C30.7819 61.9669 33.9855 63.8426 34.1847 63.9533C34.1847 63.9533 34.1847 63.9533 34.1875 63.9533C34.1903 63.9561 34.1958 63.9616 34.1958 63.9616C31.1664 57.7175 31.6616 56.835 32.6244 49.736Z" fill="white"/>
<path d="M22.7124 31.7617C23.8826 32.2542 24.7983 32.683 24.7983 32.683C24.7983 32.683 23.7637 32.4976 22.4883 32.2182L22.7124 31.7617Z" fill="white"/>
</svg>
