<svg width="12" height="13" viewBox="0 0 12 13" fill="none" xmlns="http://www.w3.org/2000/svg">
<g clip-path="url(#clip0_27_244)">
<path d="M12 3.00514C12 2.93405 12 2.86212 12 2.79019C11.9944 2.50542 11.9334 2.22471 11.8207 1.96467C11.6976 1.67123 11.5141 1.40886 11.2829 1.19571C11.0518 0.982558 10.7784 0.823713 10.4818 0.730163C10.421 0.709254 10.395 0.683326 10.4007 0.616414C10.4052 0.537861 10.4052 0.459106 10.4007 0.380553C10.3981 0.283295 10.3606 0.190493 10.2954 0.120168C10.2301 0.0498423 10.1419 0.00701256 10.0477 -4.60166e-06C9.95451 -0.00905199 9.86135 0.0179558 9.78637 0.0757685C9.71139 0.133581 9.65994 0.218068 9.64203 0.312805C9.63064 0.39056 9.62656 0.469267 9.62986 0.547831C9.62986 0.603032 9.61525 0.631469 9.55683 0.631469C9.23227 0.631469 8.91338 0.631469 8.59125 0.631469C8.53364 0.631469 8.51741 0.606378 8.51822 0.547831C8.52121 0.476072 8.5185 0.404181 8.51011 0.332878C8.49582 0.237026 8.44788 0.149921 8.37538 0.0881105C8.30289 0.0263 8.21089 -0.00590996 8.11687 -0.00240084C8.02285 0.00110829 7.93336 0.0400921 7.86539 0.107145C7.79742 0.174198 7.75571 0.264649 7.74819 0.361316C7.74373 0.419214 7.74373 0.477386 7.74819 0.535285C7.75387 0.607214 7.72709 0.629797 7.65731 0.62896C7.34573 0.62896 7.03334 0.62896 6.72175 0.62896C6.69241 0.627471 6.66316 0.6244 6.63412 0.61976C6.63412 0.546994 6.63412 0.479247 6.63412 0.411499C6.63677 0.357761 6.62883 0.304026 6.61076 0.253541C6.5927 0.203056 6.5649 0.156869 6.52904 0.11777C6.49318 0.0786711 6.45 0.0474713 6.40211 0.0260555C6.35422 0.00463971 6.30262 -0.00654754 6.25042 -0.00683043C6.19822 -0.00711333 6.1465 0.00351399 6.0984 0.0244096C6.05029 0.0453051 6.0068 0.0760352 5.97054 0.114744C5.93428 0.153452 5.90601 0.199335 5.88743 0.249621C5.86886 0.299907 5.86036 0.353553 5.86247 0.407317C5.86247 0.477574 5.86247 0.54783 5.86247 0.62896H4.93908C4.74434 0.62896 4.74434 0.62896 4.74353 0.4299C4.74353 0.178983 4.58124 0.00334096 4.3581 0.00250457C4.13496 0.00166818 3.97593 0.173128 3.97025 0.41819C3.97025 0.484265 3.97025 0.551176 3.97025 0.618924H2.86916C2.86348 0.519393 2.86916 0.42739 2.85212 0.336224C2.83834 0.241761 2.79186 0.155629 2.72127 0.0937336C2.65068 0.0318383 2.56075 -0.00163979 2.46808 -0.00051843C2.37542 0.000602924 2.28627 0.036248 2.21712 0.0998344C2.14796 0.163421 2.10345 0.250654 2.09183 0.345424C2.08425 0.406433 2.08235 0.468048 2.08615 0.52943C2.09101 0.602196 2.06829 0.62896 1.99364 0.634815C1.45274 0.677095 0.947156 0.927926 0.577666 1.33731C0.208176 1.7467 0.00191645 2.28457 0 2.84372C0 3.18915 0 3.53458 0 3.88001C0 6.17171 0 8.46342 0 10.756C0.00143716 10.988 0.0350449 11.2187 0.0998039 11.441C0.361079 12.3292 1.18629 13.0075 2.24031 13.0025C4.7557 12.9908 7.26459 13.0025 9.77673 12.995C9.99199 12.9966 10.2065 12.9685 10.4145 12.9113C11.3809 12.6311 11.9951 11.7655 11.9951 10.7058C11.9995 8.13807 12.0011 5.57119 12 3.00514ZM11.2227 4.151V10.7392C11.2264 10.9322 11.1923 11.124 11.1222 11.3029C11.0521 11.4819 10.9475 11.6444 10.8148 11.7806C10.6821 11.9167 10.524 12.0238 10.35 12.0952C10.1761 12.1666 9.98988 12.201 9.80269 12.1962H2.16729C1.85131 12.1972 1.54452 12.0867 1.29788 11.8832C1.05123 11.6796 0.879571 11.3952 0.811414 11.0771C0.789664 10.9738 0.778782 10.8684 0.778957 10.7627C0.778957 8.55626 0.778957 6.34986 0.778957 4.14347V4.03641H11.2227V4.151ZM11.2081 3.22679H0.79194C0.564744 2.41298 1.2869 1.40178 2.0902 1.43775C2.0902 1.49881 2.0902 1.56237 2.0902 1.6251C2.08924 1.67749 2.0983 1.72957 2.11687 1.77835C2.13543 1.82713 2.16314 1.87166 2.1984 1.90941C2.23366 1.94716 2.27579 1.97737 2.32238 1.99834C2.36898 2.0193 2.41912 2.0306 2.46994 2.03159C2.52077 2.03257 2.57129 2.02323 2.61862 2.0041C2.66594 1.98496 2.70915 1.9564 2.74576 1.92006C2.78238 1.88371 2.8117 1.84028 2.83203 1.79226C2.85237 1.74423 2.86333 1.69255 2.86429 1.64016C2.86835 1.57575 2.86429 1.51051 2.86429 1.43189H3.97025C3.97025 1.49881 3.97025 1.56237 3.97025 1.62594C3.96828 1.68013 3.97695 1.73418 3.99572 1.78484C4.01449 1.8355 4.04299 1.88174 4.0795 1.92078C4.11602 1.95983 4.1598 1.99088 4.20823 2.01207C4.25666 2.03326 4.30874 2.04417 4.36135 2.04413C4.41384 2.04367 4.46569 2.03218 4.51374 2.01037C4.56178 1.98856 4.605 1.95689 4.64077 1.91728C4.67654 1.87767 4.7041 1.83096 4.72176 1.78001C4.73943 1.72905 4.74684 1.67492 4.74353 1.62092V1.43608C4.77362 1.43101 4.80396 1.42766 4.8344 1.42604C5.14274 1.42604 5.45189 1.42604 5.76023 1.42604C5.84137 1.42604 5.86328 1.45448 5.85841 1.53226C5.84705 1.69452 5.86571 1.84842 6.00527 1.95631C6.05937 2.00248 6.12508 2.03187 6.19475 2.04105C6.26442 2.05023 6.33518 2.03883 6.39881 2.00817C6.46574 1.9808 6.52333 1.93364 6.56434 1.87263C6.60534 1.81161 6.62792 1.73946 6.62925 1.66525C6.63412 1.59164 6.62925 1.51637 6.62925 1.43524H7.74251C7.74251 1.50131 7.74251 1.56153 7.74251 1.62259C7.73986 1.67655 7.74784 1.73051 7.76598 1.7812C7.78412 1.83189 7.81204 1.87827 7.84805 1.91753C7.88407 1.95679 7.92743 1.98811 7.97552 2.00961C8.02361 2.03112 8.07542 2.04235 8.12784 2.04263C8.18026 2.04291 8.23218 2.03224 8.28049 2.01126C8.32879 1.99028 8.37247 1.95942 8.40888 1.92055C8.44529 1.88169 8.47368 1.83561 8.49233 1.78512C8.51099 1.73463 8.51952 1.68076 8.51741 1.62677C8.51741 1.56655 8.51741 1.5055 8.51741 1.43608H9.62661V1.62092C9.62337 1.67455 9.63068 1.72831 9.6481 1.77897C9.66551 1.82962 9.69267 1.87612 9.72795 1.91569C9.76323 1.95526 9.8059 1.98707 9.85341 2.00921C9.90091 2.03136 9.95226 2.04339 10.0044 2.04457C10.0565 2.04575 10.1083 2.03607 10.1567 2.0161C10.2051 1.99613 10.2491 1.96629 10.2861 1.92837C10.323 1.89044 10.3521 1.84521 10.3717 1.7954C10.3912 1.74559 10.4008 1.69221 10.3999 1.63848C10.3999 1.6159 10.3999 1.59332 10.4064 1.56906C10.9468 1.72547 11.3549 2.57106 11.2081 3.22679Z" fill="#6D7278"/>
<path d="M4.01082 5.38623H2.93732V6.49612H4.01082V5.38623Z" fill="#6D7278"/>
<path d="M2.93813 7.65894V8.7705H4.01081V7.65894H2.93813Z" fill="#6D7278"/>
<path d="M7.98756 8.77113H9.06106V7.6604H7.98756V8.77113Z" fill="#6D7278"/>
<path d="M9.05863 5.38623H7.98756V6.49696H9.05863V5.38623Z" fill="#6D7278"/>
<path d="M6.53594 5.3938H5.46407V6.49616H6.53594V5.3938Z" fill="#6D7278"/>
<path d="M6.53512 7.66138H5.46243V8.7721H6.53512V7.66138Z" fill="#6D7278"/>
<path d="M2.93732 11.0403C2.94763 11.0454 2.95854 11.049 2.96977 11.0512C3.29434 11.0512 3.62621 11.0512 3.95402 11.0512C4.01893 11.0512 4.01893 11.0119 4.01893 10.9675C4.01893 10.7116 4.01893 10.4548 4.01893 10.1989V9.93628H2.93732V11.0403Z" fill="#6D7278"/>
<path d="M9.05701 9.93726H7.98351V11.0405H9.05701V9.93726Z" fill="#6D7278"/>
<path d="M5.46407 11.0445H6.53351V9.93457H5.46407V11.0445Z" fill="#6D7278"/>
</g>
<defs>
<clipPath id="clip0_27_244">
<rect width="12" height="13" fill="white"/>
</clipPath>
</defs>
</svg>
