<svg width="51" height="51" viewBox="0 0 51 51" fill="none" xmlns="http://www.w3.org/2000/svg">
<path fill-rule="evenodd" clip-rule="evenodd" d="M25.5608 2.17773C12.7098 2.17773 2.2915 12.596 2.2915 25.447C2.2915 38.298 12.7098 48.7163 25.5608 48.7163C38.4117 48.7163 48.83 38.298 48.83 25.447C48.83 12.596 38.4117 2.17773 25.5608 2.17773ZM35.6469 21.5124C35.8327 21.3001 35.9741 21.0528 36.0628 20.785C36.1515 20.5173 36.1858 20.2345 36.1637 19.9533C36.1415 19.6721 36.0633 19.3982 35.9337 19.1476C35.8041 18.8971 35.6257 18.675 35.4091 18.4944C35.1924 18.3139 34.9417 18.1784 34.672 18.0962C34.4022 18.0139 34.1186 17.9864 33.838 18.0153C33.5574 18.0442 33.2855 18.1289 33.0381 18.2645C32.7908 18.4 32.573 18.5837 32.3977 18.8047L23.3015 29.718L18.5948 25.0091C18.1958 24.6238 17.6615 24.4106 17.1068 24.4154C16.5522 24.4202 16.0216 24.6427 15.6294 25.0349C15.2372 25.4271 15.0147 25.9577 15.0099 26.5123C15.0051 27.067 15.2183 27.6013 15.6036 28.0003L21.9498 34.3464C22.1577 34.5542 22.4065 34.7163 22.6805 34.8225C22.9545 34.9287 23.2476 34.9767 23.5411 34.9634C23.8347 34.9501 24.1223 34.8757 24.3855 34.7451C24.6487 34.6145 24.8818 34.4304 25.07 34.2047L35.6469 21.5124Z" fill="#22C55E"/>
</svg>
