<svg width="59" height="59" viewBox="0 0 59 59" fill="none" xmlns="http://www.w3.org/2000/svg">
<g clip-path="url(#clip0_18_187)">
<path d="M16.4189 59C15.2178 58.6417 14.2682 58.0031 13.9237 56.7442C13.8184 56.3344 13.7683 55.9127 13.7747 55.49C13.8073 52.0948 13.9237 48.6904 13.8818 45.2952C13.7937 43.9166 13.6086 42.5458 13.3278 41.1925C12.4961 35.906 11.6566 30.618 10.8094 25.3284C10.707 24.8092 10.707 24.2579 10.5487 23.7388C10.4597 23.4705 10.3082 23.2266 10.1064 23.0266C7.00297 19.7279 3.89951 16.4323 0.79604 13.1397C-0.381726 11.8855 -0.265346 10.1948 1.0288 9.26672C1.4901 8.92364 2.05822 8.75015 2.63523 8.77615C3.21224 8.80215 3.76198 9.02601 4.18968 9.40914C4.59468 9.7675 4.95313 10.1764 5.32555 10.5669L12.4247 18.1245L12.8065 18.5288C15.6182 17.3766 18.6683 16.904 21.7025 17.1505C21.7398 17.0816 21.8375 16.9024 21.9213 16.7141C23.5507 13.253 25.1784 9.792 26.8046 6.33096C27.3865 5.09509 28.4153 4.46108 29.5512 4.62647C29.9542 4.67628 30.3391 4.82119 30.6734 5.04894C31.0076 5.27669 31.2813 5.58058 31.4713 5.93487C31.6613 6.28915 31.762 6.6834 31.7649 7.08424C31.7677 7.48508 31.6727 7.8807 31.4878 8.23759C30.6731 10.0432 29.8119 11.8257 28.9693 13.6175C27.866 15.9698 26.7534 18.3129 25.6688 20.6744C25.5288 20.9808 25.4788 21.3199 25.5245 21.653C26.1669 25.8399 26.8264 30.0284 27.5029 34.2184C27.5508 34.4726 27.6593 34.712 27.8195 34.9167C29.0065 36.3869 30.2029 37.8525 31.4273 39.2951C32.0932 40.0605 32.4467 41.0431 32.4188 42.0516C32.4188 45.185 32.4188 48.3137 32.4188 51.447C32.4188 53.2847 31.3062 54.5619 29.5419 54.7733C29.1334 54.8196 28.7196 54.7845 28.325 54.6701C27.9305 54.5557 27.5632 54.3643 27.245 54.1072C26.9268 53.8502 26.6641 53.5327 26.4725 53.1736C26.2809 52.8145 26.1643 52.4211 26.1296 52.0167C26.0505 50.2754 26.0877 48.525 26.0831 46.7746C26.0831 45.5847 26.0831 44.3947 26.0831 43.2048C26.0733 42.9054 25.9728 42.6157 25.7945 42.3732C24.8262 41.1481 23.8331 39.9429 22.8151 38.7575C22.7265 38.6704 22.62 38.6032 22.5027 38.5604C22.3854 38.5176 22.2602 38.5002 22.1355 38.5094C21.4232 38.6013 20.7389 38.8173 20.0174 38.8862C19.4448 38.9413 19.4261 39.2078 19.5006 39.6488C19.752 41.1052 19.9662 42.5662 20.2036 44.0272C20.2563 44.4062 20.2812 44.7886 20.278 45.1712C20.2408 48.3872 20.1384 51.6032 20.1803 54.8514C20.2036 56.8223 19.631 58.3063 17.6106 58.9862L16.4189 59Z" fill="white"/>
<path d="M40.9145 20.2976C43.4739 20.0868 46.047 20.4903 48.4141 21.4738C48.4894 21.3354 48.5783 21.2046 48.6794 21.0833C50.8348 18.7861 53.0041 16.489 55.1501 14.1918C55.4113 13.8528 55.7675 13.5969 56.1746 13.4556C56.5817 13.3143 57.0218 13.294 57.4405 13.397C57.767 13.4807 58.0681 13.6411 58.3181 13.8646C58.5681 14.0881 58.7596 14.368 58.8763 14.6803C58.9929 14.9927 59.0312 15.3283 58.9879 15.6584C58.9446 15.9886 58.821 16.3035 58.6276 16.5763C58.4187 16.8524 58.19 17.1134 57.9433 17.3573C55.5365 19.9209 53.1112 22.4753 50.723 25.0527C50.4348 25.3732 50.2415 25.7658 50.1644 26.1875C49.2334 31.8339 48.3535 37.4849 47.4597 43.1359C47.4183 43.4404 47.4027 43.7477 47.4132 44.0548C47.4411 46.8113 47.4877 49.5679 47.5063 52.3521C47.5063 53.8131 46.6637 54.8743 45.3603 55.1087C44.9907 55.1842 44.6087 55.1786 44.2416 55.0923C43.8744 55.0059 43.531 54.841 43.2356 54.6091C42.9402 54.3772 42.7001 54.084 42.5323 53.7503C42.3645 53.4167 42.2731 53.0507 42.2645 52.6783C42.1668 49.4898 42.1063 46.3014 42.1621 43.1129C42.1621 41.7806 42.5439 40.4574 42.7487 39.1297C42.7766 38.9459 42.7952 38.7575 42.8278 38.537C42.0225 38.3854 41.2637 38.2246 40.5002 38.1097C40.4129 38.1081 40.3261 38.1249 40.2459 38.159C40.1656 38.193 40.0936 38.2436 40.0347 38.3073C39.1735 39.3226 38.3216 40.3472 37.493 41.3901C37.3637 41.5966 37.3004 41.8367 37.3114 42.0792C37.3114 44.3258 37.3114 46.577 37.3114 48.8237C37.3114 50.2479 36.5992 51.2357 35.3702 51.5802C35.1015 51.6344 34.8293 51.6697 34.5555 51.6859V50.9968C34.5555 48.0197 34.5555 45.0242 34.5555 42.0654C34.6232 40.8059 34.2573 39.5608 33.5174 38.5324C33.4369 38.4418 33.3957 38.3236 33.4027 38.2033C33.4096 38.083 33.4642 37.9702 33.5547 37.8892C34.3042 37.0071 35.0443 36.1158 35.7612 35.2061C35.9514 34.969 36.0808 34.69 36.1383 34.393C36.7062 30.9044 37.254 27.4157 37.7816 23.9271C37.795 23.6637 37.7355 23.4016 37.6093 23.1691C36.0576 19.7999 34.4842 16.44 32.889 13.0892C32.7322 12.823 32.6312 12.5285 32.592 12.2231C32.5528 11.9176 32.5762 11.6075 32.6609 11.3112C32.7827 10.9447 33.0055 10.6189 33.3045 10.3704C33.6034 10.1218 33.9665 9.96035 34.3532 9.90406C34.7398 9.84778 35.1347 9.89889 35.4936 10.0517C35.8525 10.2045 36.1612 10.4529 36.385 10.7691C36.523 10.9786 36.6414 11.2 36.7388 11.4306L40.6911 19.8336C40.7702 20.0036 40.854 20.1782 40.9145 20.2976Z" fill="white"/>
<path d="M16.0977 1.77795C17.052 1.75498 17.9598 1.69985 18.8908 1.7366C19.0329 1.75665 19.1676 1.81123 19.283 1.89544C19.3984 1.97964 19.4908 2.09083 19.5518 2.219C19.5937 2.42575 19.3377 2.73816 19.1422 2.94031C18.9065 3.15491 18.6509 3.34718 18.3787 3.5146C18.9001 3.88214 19.4122 4.18536 19.8544 4.56669C20.7333 5.33898 21.365 6.34739 21.6721 7.46851C21.9793 8.58962 21.9486 9.77479 21.5838 10.8789C21.219 11.9831 20.5359 12.9583 19.6181 13.6853C18.7004 14.4122 17.5878 14.8593 16.4166 14.9719C15.2454 15.0844 14.0663 14.8575 13.0237 14.319C11.9812 13.7804 11.1203 12.9535 10.5465 11.9396C9.97273 10.9256 9.71094 9.76854 9.79318 8.61001C9.87542 7.45148 10.2981 6.34174 11.0095 5.41664C11.185 5.16177 11.3259 4.88528 11.4285 4.59426C12.0308 2.81895 13.2623 1.31799 14.8966 0.367502C15.2092 0.198581 15.5447 0.0748041 15.8928 -4.2398e-05C15.9964 -0.0300356 16.1066 -0.0297632 16.21 0.000741826C16.3135 0.0312469 16.4057 0.0906776 16.4757 0.171845C16.5456 0.253013 16.5902 0.35244 16.6041 0.458099C16.618 0.563758 16.6005 0.671123 16.5539 0.767206C16.4841 0.964761 16.3677 1.14394 16.2792 1.3369L16.0977 1.77795Z" fill="white"/>
<path d="M43.6984 8.96804C43.4301 8.79213 43.1763 8.59549 42.9396 8.37997C42.867 8.31073 42.8091 8.22798 42.7691 8.1365C42.7292 8.04502 42.708 7.94663 42.7068 7.84703C42.7419 7.75529 42.8001 7.67386 42.8758 7.61038C42.9515 7.54689 43.0423 7.50344 43.1397 7.48408C43.8101 7.45651 44.4804 7.48408 45.1554 7.51624C45.3245 7.54056 45.4911 7.57898 45.6535 7.6311C45.5144 7.38065 45.396 7.11944 45.2998 6.85006C45.2173 6.6323 45.2173 6.39247 45.2998 6.1747C45.3789 6.05985 45.7187 6.03228 45.9142 6.08282C47.3108 6.45955 48.1999 7.48867 48.8936 8.66941C49.415 9.5607 49.9037 10.4704 50.3367 11.426C50.7817 12.2895 50.9488 13.2665 50.8157 14.2264C50.6826 15.1862 50.2556 16.083 49.5918 16.7967C49.0207 17.4938 48.2581 18.0135 47.3953 18.2938C46.5325 18.5741 45.6062 18.6031 44.7272 18.3772C43.7815 18.2045 42.9095 17.7573 42.2228 17.0927C41.5361 16.4281 41.066 15.5764 40.8727 14.6466C40.6151 13.6007 40.7124 12.5004 41.1497 11.5144C41.587 10.5284 42.3401 9.71135 43.2934 9.18856L43.6984 8.96804Z" fill="white"/>
</g>
<defs>
<clipPath id="clip0_18_187">
<rect width="59" height="59" fill="white"/>
</clipPath>
</defs>
</svg>
