<svg width="30" height="30" viewBox="0 0 30 30" fill="none" xmlns="http://www.w3.org/2000/svg">
<g clip-path="url(#clip0_183_4001)">
<path d="M29.1314 8.17582L16.0965 2.23387C15.4 1.91635 14.6 1.91635 13.9035 2.23387L0.869057 8.17582C0.341658 8.40317 0 8.92248 0 9.49681C0 10.0711 0.341658 10.5905 0.869057 10.8178L5.00001 12.7008V19.4968C5.00001 20.6468 5.74549 21.6873 6.99998 22.5222V24.0678C6.02481 24.3195 5.38901 25.2571 5.51592 26.2562C5.64284 27.2553 6.49285 28.0042 7.49996 28.0042C8.50706 28.0042 9.35707 27.2553 9.48399 26.2562C9.6109 25.2571 8.9751 24.3195 7.99993 24.0678V23.0968C10.2021 24.072 12.5921 24.55 14.9999 24.4967C20.6074 24.4967 24.9999 22.3002 24.9999 19.4968V12.7008L29.1308 10.8178C29.6582 10.5905 29.9999 10.0711 29.9999 9.49681C29.9999 8.92248 29.6582 8.40317 29.1308 8.17582H29.1314ZM8.50003 25.9967C8.50003 26.549 8.05232 26.9967 7.50002 26.9967C6.94771 26.9967 6.5 26.549 6.5 25.9967C6.5 25.4444 6.94771 24.9967 7.50002 24.9967C8.05232 24.9967 8.50003 25.4445 8.50003 25.9967ZM6.00002 19.4968V13.1568L7.00004 13.6128V21.2902C6.4192 20.8686 6.0534 20.2125 6.00002 19.4968ZM23.9999 19.4968C23.9999 21.6653 19.8785 23.4968 15 23.4968C12.2065 23.4968 9.66551 22.8968 7.99999 21.9743V14.0688L13.9035 16.7598C14.5999 17.0777 15.4 17.0777 16.0964 16.7598L23.9999 13.1568V19.4968H23.9999ZM28.7164 9.90732L15.682 15.8498C15.2483 16.0443 14.7522 16.0443 14.3185 15.8498L8.65454 13.2678L13.064 11.0354C13.6603 11.3494 14.3261 11.5081 15 11.4968C16.682 11.4968 18 10.6183 18 9.49687C18 8.37539 16.682 7.4969 15 7.4969C13.318 7.4969 12 8.37539 12 9.49687C12.0027 9.79148 12.0932 10.0785 12.26 10.3213L7.48947 12.7363L1.28355 9.90732C1.11298 9.84263 1.00013 9.67927 1.00013 9.49681C1.00013 9.31441 1.11292 9.15099 1.28355 9.08631L14.318 3.14388C14.7517 2.94917 15.2478 2.94917 15.6815 3.14388L28.7164 9.08636C28.887 9.15105 28.9998 9.31441 28.9998 9.49687C28.9998 9.67927 28.887 9.84269 28.7164 9.90732ZM13 9.49681C13 9.02484 13.855 8.4968 15 8.4968C16.1449 8.4968 16.9999 9.02478 16.9999 9.49681C16.9999 9.96884 16.1449 10.4968 15 10.4968C13.855 10.4968 13 9.96884 13 9.49681Z" fill="white"/>
</g>
<defs>
<clipPath id="clip0_183_4001">
<rect width="30" height="30" fill="white"/>
</clipPath>
</defs>
</svg>
