<svg width="24" height="25" viewBox="0 0 24 25" fill="none" xmlns="http://www.w3.org/2000/svg">
<g clip-path="url(#clip0_2833_1383)">
<path d="M24 12.5039C24 5.87653 18.6274 0.503906 12 0.503906C5.37262 0.503906 0 5.87653 0 12.5039C0 18.4934 4.38825 23.4579 10.125 24.3581V15.9727H7.07812V12.5039H10.125V9.86016C10.125 6.85266 11.9166 5.19141 14.6576 5.19141C15.9705 5.19141 17.3438 5.42578 17.3438 5.42578V8.37891H15.8306C14.3399 8.37891 13.875 9.30394 13.875 10.253V12.5039H17.2031L16.6711 15.9727H13.875V24.3581C19.6117 23.4579 24 18.4935 24 12.5039Z" fill="#1877F2"/>
<path d="M16.6711 15.9727L17.2031 12.5039H13.875V10.253C13.875 9.30384 14.3399 8.37891 15.8306 8.37891H17.3438V5.42578C17.3438 5.42578 15.9705 5.19141 14.6575 5.19141C11.9166 5.19141 10.125 6.85266 10.125 9.86016V12.5039H7.07812V15.9727H10.125V24.3581C10.7453 24.4553 11.3722 24.5041 12 24.5039C12.6278 24.5041 13.2547 24.4554 13.875 24.3581V15.9727H16.6711Z" fill="white"/>
</g>
<defs>
<clipPath id="clip0_2833_1383">
<rect width="24" height="24" fill="white" transform="translate(0 0.503906)"/>
</clipPath>
</defs>
</svg>
