<svg width="30" height="28" viewBox="0 0 30 28" fill="none" xmlns="http://www.w3.org/2000/svg">
<path d="M0.471622 15.82C0.710977 15.8688 0.962931 15.756 1.08803 15.5468C1.21213 15.3392 1.19443 15.0715 1.04467 14.8816C0.888751 14.684 0.615118 14.6088 0.379806 14.6973C0.154102 14.7822 0.000352376 15.0046 8.13775e-07 15.2458C-0.000467936 15.5225 0.201622 15.7652 0.471622 15.82Z" fill="white"/>
<path d="M22.8691 12.6811C21.7649 8.81246 18.2237 6.13191 14.1685 6.13191L14.1313 6.13215C13.566 6.13865 13.0784 6.47709 12.7167 6.77123C12.5553 6.90254 12.3781 7.00138 12.1929 7.06777V7.05933C12.1943 6.95539 12.1943 6.84804 12.1929 6.73777V4.9376C12.1929 3.73683 13.1697 2.75996 14.3705 2.75996C14.6941 2.75996 14.9564 2.49763 14.9564 2.17402C14.9564 1.85041 14.6941 1.58808 14.3705 1.58808C13.1422 1.58808 12.0662 2.25265 11.4832 3.24113C11.2309 2.69861 10.8944 2.18527 10.4491 1.74096C8.17046 -0.532072 4.02483 0.0629476 3.8494 0.0893734C3.59534 0.127694 3.39595 0.326971 3.35745 0.580975C3.33114 0.754412 2.74485 4.82017 4.9536 7.10627C4.50671 7.33367 4.07628 7.5998 3.666 7.90338C2.13102 9.03916 1.01235 10.5934 0.430927 12.398C0.331669 12.7061 0.500946 13.0362 0.808974 13.1354C1.11677 13.2345 1.44712 13.0654 1.54632 12.7573C2.59725 9.49537 5.6095 7.30373 9.03846 7.30373L9.06923 7.3039C9.15237 7.30484 9.25093 7.34258 9.34825 7.39467C9.35915 7.40117 9.37028 7.40732 9.38153 7.41301C9.54009 7.50324 9.69009 7.62523 9.7577 7.68025C10.8293 8.55177 12.3847 8.55183 13.4562 7.68031C13.5699 7.58785 13.9158 7.30654 14.1415 7.30396L14.172 7.30379C17.5958 7.30379 20.6007 9.50199 21.6525 12.7102C17.8541 13.1089 14.8829 16.3532 14.8829 20.2834C14.8829 22.4706 15.8031 24.4454 17.274 25.8355C16.1282 26.6096 15.011 26.7237 14.0498 26.7237L13.9881 26.7229C13.9762 26.7226 13.9486 26.7228 13.9064 26.7243C12.9683 26.758 12.2352 26.5931 11.7855 26.4492C11.6693 26.4121 11.5445 26.4121 11.4283 26.4492C10.9787 26.5931 10.2457 26.758 9.30729 26.7243C9.26522 26.7228 9.23751 26.7225 9.22608 26.7229L9.16403 26.7237C7.91464 26.7237 5.31495 26.7237 3.08862 22.2319C2.39833 20.8391 1.83401 19.2491 1.49968 17.7545C1.42907 17.4387 1.11577 17.2399 0.79995 17.3106C0.48413 17.3813 0.285439 17.6945 0.356044 18.0103C0.710302 19.5938 1.30784 21.2779 2.03856 22.7523C4.29811 27.311 7.03345 27.8956 9.16403 27.8956H9.20247C9.20739 27.8956 9.21231 27.8955 9.21723 27.8954L9.24389 27.8947L9.26575 27.8954C10.075 27.9243 10.8803 27.829 11.6069 27.6196C12.2489 27.8046 12.9521 27.9004 13.6653 27.9004C13.7594 27.9004 13.8537 27.8988 13.948 27.8954L13.9698 27.8947L13.9965 27.8954C14.0014 27.8955 14.0064 27.8956 14.0113 27.8956H14.0498C15.2062 27.8956 16.7082 27.7426 18.2217 26.5978C19.4276 27.4183 20.88 27.8977 22.4414 27.8977C26.6092 27.8977 30 24.4819 30 20.2833C30 16.2293 26.8387 12.9051 22.8691 12.6811ZM10.0282 6.43461L7.24491 3.19824C7.03386 2.95285 6.6639 2.92502 6.41856 3.13607C6.17323 3.34707 6.14534 3.71703 6.35634 3.96236L8.25126 6.16578C7.52786 6.22806 6.82134 6.37584 6.14241 6.60553C6.03583 6.5208 5.93487 6.43109 5.84118 6.33769C4.37013 4.87004 4.39479 2.24803 4.47132 1.20347C5.51862 1.12701 8.14907 1.10187 9.62141 2.57064C10.8562 3.8024 11.0353 5.85406 11.0198 7.0673C10.835 7.00086 10.6582 6.90219 10.4972 6.77117C10.3585 6.65844 10.2013 6.5392 10.0282 6.43461ZM9.25233 27.8945L9.25614 27.8944C9.25503 27.8944 9.25374 27.8945 9.25233 27.8945ZM13.9581 27.8944L13.9614 27.8944C13.9602 27.8944 13.9591 27.8945 13.9581 27.8944ZM22.4415 26.7259C18.9199 26.7259 16.0548 23.8358 16.0548 20.2834C16.0548 16.731 18.9199 13.8409 22.4415 13.8409C25.9631 13.8409 28.8282 16.7309 28.8282 20.2834C28.8282 23.8357 25.9631 26.7259 22.4415 26.7259Z" fill="white"/>
<path d="M25.2415 18.2735H24.4394V17.4592C24.4394 16.7414 23.8579 16.1574 23.1432 16.1574H21.7395C21.0248 16.1574 20.4433 16.7414 20.4433 17.4592V18.2735H19.6411C18.9264 18.2735 18.345 18.8575 18.345 19.5754V20.9914C18.345 21.7092 18.9265 22.2933 19.6411 22.2933H20.4433V23.1074C20.4433 23.8253 21.0248 24.4093 21.7395 24.4093H23.1432C23.8579 24.4093 24.4394 23.8253 24.4394 23.1074V22.2933H25.2415C25.9562 22.2933 26.5377 21.7093 26.5377 20.9914V19.5754C26.5377 18.8575 25.9562 18.2735 25.2415 18.2735ZM25.3658 20.9913C25.3658 21.0631 25.3101 21.1214 25.2415 21.1214H23.8534C23.5298 21.1214 23.2675 21.3837 23.2675 21.7073V23.1074C23.2675 23.1791 23.2117 23.2374 23.1432 23.2374H21.7395C21.6709 23.2374 21.6151 23.1791 21.6151 23.1074V21.7073C21.6151 21.3837 21.3528 21.1214 21.0292 21.1214H19.6411C19.5726 21.1214 19.5168 21.0631 19.5168 20.9913V19.5753C19.5168 19.5036 19.5726 19.4453 19.6411 19.4453H21.0292C21.3528 19.4453 21.6151 19.183 21.6151 18.8593V17.4592C21.6151 17.3875 21.6709 17.3292 21.7395 17.3292H23.1432C23.2117 17.3292 23.2675 17.3875 23.2675 17.4592V18.8593C23.2675 19.183 23.5298 19.4453 23.8534 19.4453H25.2415C25.3101 19.4453 25.3658 19.5036 25.3658 19.5753V20.9913Z" fill="white"/>
</svg>
