<svg width="1312" height="377" viewBox="0 0 1312 377" fill="none" xmlns="http://www.w3.org/2000/svg">
<g clip-path="url(#clip0_4056_479)">
<g clip-path="url(#clip1_4056_479)">
<path d="M1167.45 122.308C1167.27 122.238 1167.1 122.16 1166.93 122.075L1166.78 121.996C1166.4 121.8 1166.15 121.431 1166.1 121.003C1166.05 120.572 1166.22 120.15 1166.56 119.875C1167.28 119.272 1168.09 118.655 1169.04 117.977C1169.89 117.375 1170.77 116.786 1171.62 116.216C1172.93 115.338 1174.28 114.431 1175.54 113.465C1179.17 110.689 1181.69 105.607 1178.64 101.008C1176.04 97.0873 1170.38 95.1156 1166.02 96.6157C1161.06 98.3187 1160.77 103.978 1160.87 106.333C1161.04 110.081 1161.71 114.184 1162.87 118.529L1163.09 119.353C1163.14 119.572 1163.32 119.662 1163.47 119.67C1163.62 119.679 1163.81 119.613 1163.89 119.403L1168.15 108.843C1168.37 108.315 1168.26 107.725 1167.89 107.338C1167.07 106.497 1166.86 105.523 1166.82 105.336C1166.82 105.317 1166.81 105.302 1166.81 105.281C1166.66 103.971 1167.27 102.773 1168.4 102.152C1169.68 101.449 1171.38 101.553 1172.63 102.412C1172.75 102.489 1172.86 102.573 1172.96 102.663C1174.11 103.643 1174.62 105.221 1174.2 106.498C1173.77 107.809 1172.47 108.529 1170.72 108.428C1170.69 108.428 1170.52 108.404 1170.3 108.373C1169.78 108.301 1169.29 108.591 1169.1 109.078C1169.05 109.225 1168.88 109.3 1168.73 109.242C1168.69 109.231 1168.66 109.21 1168.64 109.185L1164.43 119.616C1164.26 120.024 1163.87 120.269 1163.43 120.243C1163 120.217 1162.64 119.922 1162.52 119.496L1162.31 118.675C1161.14 114.291 1160.46 110.148 1160.29 106.358C1160.18 103.875 1160.5 97.8992 1165.83 96.0671C1170.42 94.4879 1176.39 96.5583 1179.12 100.687C1182.37 105.597 1179.73 110.99 1175.89 113.922C1174.62 114.897 1173.26 115.811 1171.94 116.693C1171.1 117.261 1170.22 117.848 1169.38 118.447C1168.44 119.115 1167.64 119.723 1166.94 120.307C1166.74 120.469 1166.65 120.701 1166.67 120.939C1166.7 121.177 1166.83 121.373 1167.05 121.481L1167.2 121.559C1169.14 122.544 1171.5 122.406 1173.37 121.195C1176.21 119.351 1180.95 117.02 1187.42 116.392C1195.23 115.633 1203.51 117.55 1212.02 122.088C1212.38 122.279 1212.7 122.437 1213 122.564C1221.59 126.215 1228.8 126.729 1234.42 124.092C1240.49 121.249 1243.42 115.259 1244.73 111.379C1243.31 111.057 1241.83 110.624 1240.29 110.08C1239.11 109.665 1238.17 108.755 1237.71 107.588C1237.26 106.415 1237.33 105.107 1237.92 103.996C1238.62 102.675 1239.47 101.923 1240.44 101.762C1241.42 101.598 1242.49 102.054 1243.63 103.119C1245.63 104.983 1246.4 107.916 1245.59 110.595C1245.56 110.711 1245.52 110.827 1245.48 110.949C1250.78 112.036 1255.22 111.522 1258.73 109.41C1264.56 105.898 1266.39 98.8606 1266.97 94.9777C1267.04 94.4763 1266.9 93.9655 1266.56 93.5809C1266.23 93.1929 1265.74 92.9683 1265.22 92.9673L1260.09 92.9605C1259.75 92.9595 1259.44 92.7703 1259.29 92.4669C1259.14 92.1636 1259.17 91.803 1259.37 91.529L1259.51 91.343C1260.13 90.4884 1261.1 89.9167 1262.15 89.7743L1267.34 89.0689C1267.9 88.9936 1268.33 88.5745 1268.42 88.0257C1268.87 85.3698 1270.12 78.679 1272.09 73.9491C1272.17 73.7619 1272.16 73.55 1272.06 73.3697C1271.97 73.1859 1271.8 73.0567 1271.59 73.014L1265.96 71.8636C1265.48 71.7643 1264.98 71.7086 1264.48 71.6989L1254.38 71.4924C1254.05 71.485 1253.75 71.2953 1253.59 70.9978C1253.44 70.7003 1253.47 70.3437 1253.66 70.0682L1254.23 69.2404C1254.7 68.564 1255.48 68.1365 1256.3 68.0963L1267.89 67.5139C1268.15 67.4735 1268.42 67.4312 1268.68 67.3899C1268.84 67.3639 1269 67.3389 1269.17 67.3125C1269.1 67.2261 1269.04 67.1257 1269 67.0071C1268.88 66.6373 1269.03 66.2693 1269.13 66.0249L1269.44 65.2545C1269.55 65.0087 1269.67 64.7032 1269.92 64.4812C1270.28 64.152 1270.84 64.0591 1271.4 64.2379C1271.92 64.4062 1272.32 64.7729 1272.45 65.2181C1272.6 65.6991 1272.45 66.1895 1272.27 66.6069C1272.18 66.8161 1272.07 67.0555 1271.88 67.2458C1271.78 67.3512 1271.66 67.4292 1271.53 67.49C1272.25 67.541 1272.99 67.4511 1273.52 67.0998C1273.84 66.8898 1274.03 66.4074 1274.2 65.9846C1274.27 65.8086 1274.34 65.6448 1274.41 65.4924C1274.65 65.011 1274.87 64.5091 1275.09 64.0233C1275.39 63.3621 1275.7 62.6798 1276.04 62.0256C1277.11 59.9949 1278.14 58.2484 1279.19 56.6786L1279.24 56.6136C1280.24 55.1201 1281.38 53.4277 1282.96 52.4917C1283.84 51.9716 1284.58 51.8411 1285.16 52.1065C1286.19 50.6952 1287.68 49.0034 1289.72 48.261C1291.28 47.6963 1292.86 47.7997 1294.39 47.8975C1295.53 47.9722 1296.72 48.0485 1297.85 47.8364C1301.01 47.247 1302.88 44.4924 1304.54 41.7215C1304.62 41.5837 1304.8 41.5397 1304.93 41.6223C1305.07 41.7034 1305.12 41.8807 1305.03 42.0175C1303.31 44.9003 1301.35 47.7681 1297.96 48.4015C1296.75 48.6275 1295.53 48.5482 1294.35 48.4729C1292.81 48.3721 1291.36 48.2784 1289.92 48.8008C1288.02 49.4903 1286.61 51.0952 1285.63 52.4386C1286.96 53.818 1286.4 57.8874 1286.17 58.9564C1285.63 61.3664 1284.76 63.7055 1283.92 65.9678L1283.61 66.7856C1283.5 67.0794 1283.36 67.4069 1283.2 67.7563C1282.81 68.6199 1282.37 69.5998 1282.4 70.3216C1282.41 70.8194 1282.77 71.2153 1283.14 71.6357C1283.23 71.7373 1283.32 71.8388 1283.4 71.9384C1283.53 72.0969 1283.66 72.2651 1283.79 72.4343C1283.93 72.6157 1284.08 72.8006 1284.22 72.9767C1283.95 72.4215 1283.83 71.7527 1284.25 71.0512C1284.55 70.547 1285.08 70.2212 1285.65 70.2018C1286.25 70.1805 1286.82 70.5222 1287.07 71.0495C1287.35 71.6257 1287.2 72.2835 1287.01 72.8506C1286.74 73.6739 1286.37 74.1886 1285.9 74.3811C1286.1 74.664 1286.3 74.9293 1286.55 75.1522L1294.52 83.8537C1295.01 84.3899 1295.23 85.1373 1295.1 85.8544L1294.9 86.9994C1294.85 87.329 1294.61 87.6009 1294.29 87.7057C1293.98 87.8105 1293.63 87.7346 1293.38 87.5035L1286.05 80.5523C1285.7 80.2111 1285.3 79.9022 1284.89 79.6294L1280.07 76.4921C1279.9 76.3796 1279.69 76.3496 1279.49 76.4117C1279.29 76.4723 1279.14 76.6172 1279.06 76.8054C1277.14 81.5603 1273.33 87.198 1271.78 89.4001C1271.46 89.8562 1271.47 90.4582 1271.81 90.9001L1275.01 95.055C1275.66 95.8956 1275.95 96.9794 1275.79 98.0286L1275.76 98.2571C1275.71 98.5955 1275.48 98.8719 1275.16 98.9796C1274.83 99.0883 1274.48 99.0065 1274.24 98.7685C1274.24 98.7685 1269.01 93.6158 1268.97 93.5775C1268.7 93.3086 1268.79 92.5797 1269.38 90.4507C1269.43 90.2561 1269.47 90.1109 1269.48 90.0473C1270.12 87.0699 1270.98 83.9381 1272.13 80.4738C1273.71 75.7169 1275.69 70.8295 1278.01 65.946C1278.54 64.8382 1279.06 63.697 1279.56 62.5915C1281.08 59.2428 1282.65 55.7797 1284.76 52.6789C1284.78 52.6525 1284.8 52.6227 1284.82 52.5939C1284.42 52.4743 1283.9 52.6074 1283.26 52.9868C1281.79 53.857 1280.69 55.4908 1279.72 56.9331L1279.68 56.998C1278.63 58.5493 1277.61 60.2806 1276.56 62.2928C1276.22 62.9333 1275.92 63.6058 1275.62 64.2597C1275.4 64.7504 1275.17 65.2548 1274.93 65.7459C1274.87 65.8788 1274.81 66.0328 1274.74 66.1965C1274.54 66.701 1274.31 67.2704 1273.84 67.5798C1272.78 68.2834 1271.16 68.1432 1269.98 67.7782C1269.58 67.8343 1269.17 67.8977 1268.78 67.9602C1268.51 68.0016 1268.25 68.0453 1267.98 68.0842C1267.96 68.0871 1267.95 68.0885 1267.93 68.089L1256.34 68.6714C1255.69 68.7033 1255.09 69.0393 1254.71 69.5716L1254.14 70.3994C1254.07 70.502 1254.06 70.6258 1254.12 70.737C1254.17 70.8473 1254.28 70.9141 1254.4 70.9184L1264.51 71.1249C1265.04 71.1343 1265.57 71.1955 1266.09 71.3002L1271.72 72.4506C1272.09 72.5271 1272.41 72.7629 1272.58 73.102C1272.76 73.4353 1272.78 73.8263 1272.64 74.1738C1270.68 78.8509 1269.44 85.4889 1269 88.1233C1268.87 88.924 1268.24 89.5338 1267.43 89.6446L1262.22 90.3451C1261.33 90.4669 1260.5 90.9563 1259.97 91.6829L1259.83 91.869C1259.76 91.9696 1259.75 92.0934 1259.8 92.2046C1259.86 92.3149 1259.97 92.3817 1260.09 92.3801L1265.22 92.387C1265.9 92.3889 1266.55 92.6844 1267 93.2019C1267.44 93.715 1267.63 94.3943 1267.54 95.062C1266.95 99.0442 1265.05 106.268 1259.02 109.903C1255.37 112.103 1250.77 112.634 1245.3 111.499C1243.96 115.473 1240.95 121.664 1234.66 124.613C1228.88 127.321 1221.52 126.809 1212.77 123.094C1212.46 122.961 1212.12 122.797 1211.75 122.598C1192.18 112.167 1178.61 118.481 1173.68 121.678C1171.8 122.897 1169.46 123.122 1167.45 122.308ZM1171.65 102.54C1170.69 102.15 1169.55 102.18 1168.68 102.66C1167.75 103.172 1167.26 104.13 1167.39 105.217C1167.41 105.328 1167.58 106.198 1168.3 106.936C1168.68 107.325 1168.87 107.86 1168.83 108.402C1169.2 107.956 1169.78 107.719 1170.38 107.803C1170.57 107.831 1170.72 107.852 1170.76 107.852C1171.31 107.884 1173.14 107.867 1173.65 106.32C1174 105.258 1173.56 103.933 1172.58 103.102C1172.49 103.027 1172.4 102.955 1172.31 102.888C1172.1 102.747 1171.88 102.632 1171.65 102.54ZM1241.7 102.492C1241.29 102.325 1240.89 102.273 1240.53 102.333C1239.75 102.464 1239.04 103.115 1238.43 104.268C1237.92 105.23 1237.86 106.363 1238.25 107.381C1238.64 108.392 1239.46 109.182 1240.48 109.538C1242.01 110.081 1243.49 110.509 1244.91 110.829C1244.96 110.693 1245 110.559 1245.04 110.43C1245.78 107.959 1245.07 105.257 1243.24 103.542C1242.7 103.036 1242.18 102.687 1241.7 102.492ZM1269.39 93.2088C1269.68 93.4822 1270.71 94.4922 1274.63 98.3561C1274.72 98.4435 1274.84 98.4702 1274.96 98.4314C1275.08 98.3911 1275.16 98.295 1275.18 98.1717L1275.21 97.9408C1275.34 97.0447 1275.1 96.1196 1274.54 95.4026L1271.34 91.2476C1270.85 90.6042 1270.83 89.7272 1271.3 89.063C1272.83 86.8761 1276.62 81.2857 1278.51 76.5846C1278.66 76.2351 1278.94 75.9707 1279.3 75.8567C1279.67 75.7422 1280.06 75.7957 1280.38 76.0056L1285.19 79.1429C1285.63 79.4324 1286.05 79.7639 1286.44 80.1301L1293.77 87.0813C1293.86 87.1662 1293.98 87.193 1294.1 87.1551C1294.22 87.1173 1294.3 87.0197 1294.32 86.8974L1294.52 85.7524C1294.61 85.2104 1294.45 84.6467 1294.07 84.2405C1287.01 76.5232 1286.22 75.6621 1286.13 75.564C1285.79 75.2494 1285.53 74.8767 1285.28 74.5163C1285.26 74.4884 1285.24 74.4604 1285.22 74.4325C1285.04 74.3928 1284.85 74.3096 1284.66 74.1828C1284.12 73.8176 1283.71 73.2909 1283.32 72.7808C1283.19 72.6161 1283.07 72.4547 1282.94 72.3017C1282.87 72.2075 1282.78 72.1104 1282.69 72.0157C1282.29 71.5599 1281.83 71.0438 1281.8 70.3361C1281.78 69.4821 1282.25 68.4396 1282.66 67.5174C1282.81 67.1777 1282.95 66.8576 1283.05 66.5809L1283.36 65.7631C1284.2 63.5204 1285.06 61.1994 1285.59 58.8304C1285.85 57.6435 1286.23 54.0846 1285.28 52.9201C1285.26 52.9465 1285.24 52.9738 1285.22 53.0002C1283.14 56.0586 1281.58 59.4982 1280.07 62.8249C1279.57 63.9319 1279.05 65.0755 1278.52 66.1882C1276.2 71.0497 1274.23 75.9151 1272.66 80.65C1271.52 84.0938 1270.66 87.2075 1270.03 90.1644C1270.01 90.2328 1269.97 90.3888 1269.91 90.6005C1269.5 92.1169 1269.33 92.9942 1269.39 93.2088ZM1269.35 93.1729C1269.36 93.1828 1269.38 93.1945 1269.39 93.2088C1269.39 93.2019 1269.38 93.1838 1269.36 93.1651L1269.35 93.1729ZM1286.05 70.8528C1285.93 70.8025 1285.79 70.7767 1285.66 70.7817C1285.29 70.7943 1284.93 71.0174 1284.73 71.3491C1284.3 72.0692 1284.64 72.7489 1285.33 73.6112C1285.4 73.6999 1285.47 73.7926 1285.54 73.8843C1285.57 73.8805 1285.6 73.8718 1285.64 73.8596C1285.94 73.7534 1286.23 73.3319 1286.45 72.6714C1286.6 72.1893 1286.72 71.6925 1286.54 71.2985C1286.45 71.0976 1286.27 70.9395 1286.05 70.8528ZM1271.3 64.8189C1271.27 64.8071 1271.24 64.7953 1271.22 64.7869C1270.95 64.702 1270.55 64.6822 1270.3 64.9066C1270.15 65.0427 1270.06 65.2617 1269.98 65.4743L1269.66 66.2446C1269.57 66.4621 1269.49 66.6719 1269.54 66.8261C1269.59 66.9677 1269.75 67.0876 1270.03 67.1857C1270.25 67.157 1270.48 67.1283 1270.7 67.1079C1271.07 67.0732 1271.32 66.9839 1271.47 66.8321C1271.59 66.7175 1271.66 66.5445 1271.73 66.3793C1271.87 66.0586 1271.99 65.6915 1271.9 65.3859C1271.81 65.1091 1271.55 64.9175 1271.3 64.8189Z" fill="black"/>
</g>
</g>
<g clip-path="url(#clip2_4056_479)">
<path d="M14.4046 376.851C14.2155 376.85 14.0292 376.841 13.8402 376.825L13.6696 376.809C13.247 376.767 12.8751 376.519 12.6745 376.14C12.4712 375.759 12.4756 375.305 12.6819 374.927C13.1289 374.102 13.6522 373.232 14.2836 372.253C14.8463 371.383 15.4405 370.514 16.0163 369.673C16.9036 368.377 17.82 367.039 18.6315 365.68C20.9654 361.771 21.4209 356.138 16.904 353.007C13.0522 350.337 7.08305 350.602 3.60005 353.6C-0.359805 357.005 1.45964 362.351 2.42529 364.492C3.96359 367.898 6.09734 371.448 8.7718 375.043L9.27585 375.725C9.41167 375.907 9.61116 375.923 9.7505 375.877C9.89247 375.83 10.0427 375.699 10.0435 375.473L10.0884 364.128C10.0907 363.561 9.77761 363.053 9.28748 362.833C8.22072 362.356 7.66207 361.535 7.56031 361.374C7.54987 361.359 7.54204 361.345 7.53161 361.327C6.91128 360.169 7.03209 358.836 7.84997 357.844C8.7734 356.721 10.3877 356.189 11.862 356.523C11.9931 356.553 12.1269 356.59 12.2554 356.635C13.6792 357.119 14.7323 358.391 14.8163 359.728C14.9054 361.099 13.9661 362.245 12.3098 362.798C12.2835 362.808 12.1153 362.85 11.9024 362.901C11.3951 363.025 11.0468 363.476 11.0526 363.995C11.0546 364.153 10.928 364.284 10.7679 364.286C10.7311 364.288 10.6944 364.28 10.6603 364.267L10.6159 375.473C10.6142 375.912 10.3423 376.283 9.92689 376.421C9.51149 376.558 9.07094 376.417 8.80977 376.065L8.3057 375.385C5.60773 371.759 3.45049 368.174 1.8966 364.729C0.878888 362.472 -1.03389 356.824 3.22106 353.162C6.89111 350.005 13.1755 349.72 17.2289 352.533C22.0521 355.876 21.59 361.845 19.1239 365.973C18.3046 367.346 17.3829 368.694 16.4902 369.996C15.9171 370.834 15.3229 371.7 14.7655 372.565C14.1394 373.531 13.6266 374.387 13.1929 375.187C13.0712 375.409 13.0702 375.659 13.1823 375.869C13.2944 376.08 13.4908 376.212 13.727 376.234L13.895 376.25C16.0551 376.445 18.1911 375.445 19.4717 373.636C21.4204 370.882 24.9516 366.973 30.7057 364.005C37.6569 360.419 46.0221 359.14 55.5753 360.199C55.9795 360.243 56.3339 360.27 56.6594 360.277C65.9535 360.487 72.8125 358.303 77.0445 353.788C81.6115 348.917 82.1129 342.292 81.898 338.216C80.4608 338.444 78.9295 338.59 77.304 338.655C76.0618 338.705 74.856 338.209 74.0036 337.297C73.1486 336.38 72.7361 335.142 72.8723 333.895C73.033 332.415 73.5385 331.406 74.3755 330.9C75.223 330.386 76.3861 330.412 77.8332 330.977C80.3657 331.966 82.1599 334.397 82.4036 337.173C82.4136 337.294 82.4237 337.415 82.4337 337.541C87.736 336.593 91.6566 334.479 94.1219 331.23C98.2235 325.827 97.3251 318.637 96.4238 314.831C96.3076 314.34 95.9837 313.921 95.533 313.688C95.0797 313.453 94.5468 313.425 94.0681 313.614L89.3161 315.502C89.0005 315.627 88.6463 315.565 88.3925 315.341C88.1387 315.116 88.0324 314.772 88.1177 314.444L88.1764 314.221C88.443 313.198 89.1239 312.313 90.0423 311.795L94.5923 309.224C95.0765 308.95 95.3228 308.402 95.2042 307.861C94.6369 305.238 93.3242 298.585 93.4074 293.478C93.4108 293.276 93.3223 293.084 93.1679 292.952C93.0109 292.817 92.8037 292.762 92.5987 292.797L86.9653 293.81C86.4792 293.897 85.9982 294.029 85.5354 294.203L76.111 297.739C75.7981 297.856 75.4491 297.792 75.1979 297.573C74.9467 297.354 74.8378 297.015 74.9126 296.69L75.1396 295.711C75.3266 294.911 75.8833 294.231 76.6303 293.89L87.1416 289.074C87.3732 288.938 87.5995 288.802 87.8285 288.667C87.968 288.583 88.1101 288.5 88.2548 288.414C88.1553 288.361 88.0637 288.29 87.9826 288.195C87.7344 287.897 87.7386 287.501 87.7396 287.238L87.7481 286.408C87.7518 286.143 87.7531 285.815 87.8987 285.519C88.1105 285.081 88.6 284.786 89.1805 284.747C89.7267 284.71 90.2275 284.903 90.5201 285.264C90.8363 285.654 90.871 286.166 90.8614 286.618C90.8578 286.843 90.8437 287.106 90.7377 287.352C90.6794 287.489 90.6001 287.604 90.5078 287.706C91.1914 287.488 91.8387 287.133 92.2005 286.612C92.417 286.301 92.4164 285.784 92.4182 285.329C92.419 285.14 92.4197 284.964 92.4308 284.796C92.4723 284.264 92.4981 283.715 92.5212 283.185C92.553 282.463 92.5874 281.717 92.6639 280.985C92.9013 278.712 93.2111 276.715 93.607 274.873L93.6231 274.797C94.0002 273.045 94.4282 271.059 95.5472 269.609C96.1701 268.802 96.807 268.409 97.4423 268.44C97.8691 266.756 98.631 264.637 100.246 263.197C101.474 262.102 102.975 261.614 104.429 261.139C105.515 260.787 106.638 260.421 107.612 259.805C110.312 258.096 111.034 254.853 111.543 251.678C111.567 251.521 111.717 251.414 111.872 251.441C112.029 251.465 112.137 251.612 112.11 251.77C111.579 255.073 110.82 258.452 107.917 260.289C106.882 260.944 105.726 261.32 104.606 261.686C103.144 262.161 101.766 262.61 100.628 263.624C99.126 264.962 98.4065 266.971 98.0011 268.573C99.7388 269.36 100.726 273.331 100.9 274.409C101.295 276.836 101.351 279.323 101.404 281.728L101.425 282.598C101.431 282.91 101.417 283.267 101.402 283.648C101.362 284.59 101.318 285.659 101.604 286.319C101.802 286.774 102.276 287.009 102.777 287.261C102.897 287.322 103.018 287.383 103.133 287.443C103.314 287.541 103.495 287.65 103.678 287.758C103.874 287.874 104.074 287.993 104.275 288.102C103.82 287.688 103.46 287.114 103.587 286.311C103.678 285.734 104.056 285.234 104.571 285.007C105.121 284.765 105.777 284.87 106.203 285.266C106.669 285.698 106.771 286.363 106.808 286.956C106.863 287.818 106.708 288.432 106.347 288.782C106.638 288.97 106.92 289.141 107.227 289.258L117.815 294.37C118.467 294.685 118.945 295.296 119.095 296.006L119.335 297.138C119.404 297.464 119.287 297.803 119.032 298.017C118.776 298.231 118.424 298.29 118.115 298.165L108.766 294.437C108.308 294.254 107.83 294.113 107.345 294.014L101.733 292.886C101.531 292.846 101.321 292.898 101.16 293.028C101.002 293.156 100.912 293.348 100.911 293.55C100.888 298.659 99.4417 305.283 98.8196 307.893C98.6914 308.434 98.9256 308.986 99.4049 309.269L103.9 311.933C104.809 312.473 105.472 313.371 105.718 314.398L105.772 314.622C105.852 314.953 105.74 315.294 105.48 315.513C105.221 315.733 104.867 315.786 104.552 315.657C104.552 315.657 97.8103 312.818 97.7604 312.797C97.4092 312.648 97.2282 311.939 96.9822 309.753C96.9593 309.553 96.9442 309.404 96.9313 309.341C96.4206 306.351 96.0657 303.133 95.849 299.503C95.5537 294.518 95.5823 289.265 95.9345 283.886C96.0154 282.665 96.0729 281.418 96.1275 280.211C96.2969 276.551 96.4747 272.766 97.2847 269.117C97.2927 269.085 97.2981 269.051 97.3061 269.017C96.8964 269.052 96.4619 269.368 96.0053 269.957C94.9655 271.305 94.5509 273.223 94.1871 274.915L94.1711 274.991C93.7779 276.812 93.4734 278.79 93.2387 281.042C93.1649 281.759 93.1305 282.494 93.0988 283.208C93.0757 283.743 93.0499 284.295 93.0083 284.838C92.9972 284.985 92.9966 285.15 92.9959 285.326C92.9964 285.867 92.994 286.479 92.6771 286.937C91.9561 287.979 90.4025 288.449 89.1759 288.546C88.8233 288.747 88.4706 288.956 88.1285 289.159C87.8995 289.295 87.6705 289.433 87.4416 289.566C87.4232 289.576 87.4074 289.584 87.389 289.592L76.8777 294.408C76.2912 294.676 75.8558 295.21 75.7089 295.839L75.4818 296.818C75.4551 296.939 75.4914 297.057 75.5856 297.139C75.6772 297.22 75.8031 297.242 75.9188 297.2L85.3432 293.664C85.8376 293.477 86.3528 293.337 86.873 293.242L92.5065 292.23C92.8796 292.163 93.2599 292.264 93.5504 292.512C93.8382 292.755 93.9996 293.11 93.9929 293.486C93.9125 298.534 95.215 305.135 95.7771 307.737C95.9472 308.528 95.5896 309.325 94.887 309.724L90.3239 312.295C89.5397 312.738 88.9591 313.494 88.7298 314.365L88.6712 314.588C88.6392 314.709 88.6755 314.827 88.7697 314.909C88.8612 314.991 88.9872 315.012 89.1003 314.965L93.8523 313.078C94.4835 312.828 95.1923 312.863 95.7949 313.177C96.3924 313.49 96.826 314.045 96.981 314.7C97.9055 318.603 98.8189 325.987 94.5747 331.579C92.0092 334.961 87.9465 337.15 82.4655 338.118C82.6958 342.289 82.1961 349.129 77.4604 354.181C73.1124 358.819 66.1087 361.062 56.644 360.852C56.3027 360.845 55.93 360.817 55.51 360.771C33.5559 358.337 23.3202 369.19 19.9378 373.969C18.6519 375.788 16.5707 376.859 14.4046 376.851ZM11.0015 357.003C9.96435 356.999 8.92282 357.446 8.29488 358.211C7.61947 359.03 7.52336 360.095 8.03944 361.056C8.09945 361.151 8.5849 361.89 9.52061 362.309C10.016 362.529 10.3845 362.956 10.5558 363.468C10.7313 362.92 11.1767 362.489 11.7654 362.344C11.9494 362.3 12.0966 362.264 12.1308 362.251C12.6513 362.077 14.3476 361.383 14.2438 359.765C14.172 358.654 13.2782 357.59 12.0694 357.181C11.9593 357.143 11.8465 357.111 11.7337 357.085C11.495 357.029 11.2483 357.004 11.0015 357.003ZM75.8109 331.11C75.3672 331.109 74.9861 331.204 74.6702 331.395C73.9965 331.804 73.5834 332.667 73.4418 333.96C73.3246 335.039 73.6827 336.112 74.4226 336.908C75.1599 337.698 76.2032 338.13 77.28 338.082C78.9029 338.018 80.429 337.869 81.8609 337.641C81.8509 337.499 81.8384 337.36 81.8284 337.226C81.6048 334.665 79.9543 332.424 77.6237 331.514C76.9342 331.246 76.3308 331.112 75.8109 331.11ZM98.0171 312.299C98.3867 312.445 99.7079 313.001 104.764 315.13C104.88 315.177 105.003 315.157 105.095 315.078C105.19 314.997 105.227 314.879 105.199 314.759L105.145 314.532C104.936 313.655 104.369 312.888 103.594 312.428L99.0984 309.764C98.4016 309.352 98.0608 308.547 98.2477 307.76C98.8645 305.168 100.301 298.599 100.323 293.547C100.325 293.172 100.494 292.821 100.784 292.583C101.079 292.343 101.463 292.247 101.832 292.325L107.444 293.452C107.961 293.557 108.473 293.708 108.965 293.905L118.314 297.633C118.429 297.678 118.553 297.658 118.647 297.579C118.742 297.501 118.782 297.38 118.756 297.26L118.517 296.127C118.403 295.591 118.043 295.13 117.547 294.892C108.16 290.357 107.112 289.851 106.994 289.793C106.567 289.626 106.187 289.377 105.82 289.137C105.792 289.119 105.763 289.1 105.734 289.082C105.55 289.112 105.348 289.104 105.127 289.056C104.487 288.919 103.919 288.581 103.369 288.253C103.191 288.147 103.015 288.044 102.842 287.949C102.735 287.891 102.62 287.833 102.504 287.777C101.962 287.504 101.343 287.197 101.062 286.55C100.724 285.769 100.771 284.632 100.811 283.627C100.826 283.257 100.84 282.908 100.834 282.614L100.814 281.744C100.76 279.36 100.707 276.892 100.317 274.506C100.122 273.311 99.1643 269.875 97.8491 269.15C97.8411 269.182 97.8357 269.213 97.8277 269.245C97.0284 272.844 96.8534 276.603 96.6841 280.239C96.6268 281.449 96.5693 282.699 96.4883 283.925C96.1363 289.28 96.1077 294.51 96.4032 299.471C96.6173 303.08 96.9697 306.279 97.4778 309.248C97.4906 309.317 97.5084 309.477 97.5312 309.695C97.7167 311.247 97.876 312.125 98.0171 312.299ZM97.9673 312.28C97.9804 312.285 97.9988 312.291 98.0171 312.299C98.0119 312.293 97.9962 312.28 97.9726 312.27L97.9673 312.28ZM105.184 285.461C105.05 285.461 104.916 285.486 104.792 285.541C104.461 285.687 104.207 286.027 104.145 286.408C104.016 287.232 104.581 287.735 105.535 288.28C105.634 288.336 105.731 288.396 105.826 288.457C105.855 288.441 105.884 288.421 105.91 288.397C106.155 288.185 106.265 287.689 106.22 286.999C106.188 286.494 106.116 285.99 105.797 285.695C105.64 285.542 105.415 285.462 105.184 285.461ZM89.3069 285.32C89.2753 285.32 89.2438 285.319 89.2149 285.322C88.9365 285.342 88.5579 285.472 88.4123 285.77C88.325 285.951 88.3214 286.187 88.3205 286.416L88.312 287.246C88.3111 287.479 88.3154 287.702 88.42 287.826C88.5167 287.94 88.7055 287.993 88.9996 287.981C89.197 287.871 89.3943 287.762 89.5943 287.66C89.9258 287.491 90.1182 287.318 90.203 287.122C90.2692 286.972 90.2778 286.783 90.2811 286.605C90.2878 286.258 90.2683 285.872 90.0671 285.625C89.8842 285.401 89.5694 285.321 89.3069 285.32Z" fill="black"/>
</g>
<path d="M32.5 363.504C34.4653 362.63 39.5 360.004 51.5 360.004C63.5 360.004 136.099 352.31 188 361.377C242.879 370.965 398.725 345.775 409 337.004C429.5 319.504 445.642 322.318 457.5 323.504C492.5 327.004 680.941 310.35 743 281.004C786.105 260.621 815 247.004 825 245.004C837.829 242.438 840 248.004 860 239.004C902.01 220.099 1006.5 354.378 1048.5 313.878C1090.5 273.378 1119.65 111.964 1164.5 118.999C1215.5 126.999 1231 129.5 1239.5 121" stroke="black" stroke-width="0.6"/>
<defs>
<clipPath id="clip0_4056_479">
<rect width="85" height="162" fill="white" transform="translate(1227)"/>
</clipPath>
<clipPath id="clip1_4056_479">
<rect width="118.955" height="126.257" fill="white" transform="translate(1201.73) rotate(21.9652)"/>
</clipPath>
<clipPath id="clip2_4056_479">
<rect width="50.2487" height="125.797" fill="white" transform="translate(1.0033 251) rotate(0.226691)"/>
</clipPath>
</defs>
</svg>
