<svg width="64" height="52" viewBox="0 0 64 52" fill="none" xmlns="http://www.w3.org/2000/svg">
<path d="M43.7866 47.9939L25.1447 39.488L22.7869 46.4608C22.6726 46.8029 22.3798 46.9905 22.0296 46.9942C21.6776 46.9771 21.3912 46.7675 21.2783 46.4205L18.1423 36.2834L3.20469 24.4062L59.1099 1.0004L43.7866 47.9939ZM24.7814 38.6365L43.4029 47.1438L58.113 2.09355L4.45421 24.5482L18.7057 35.8889L18.7352 35.9912L21.9008 46.2306C21.9304 46.333 22.0347 46.3465 22.057 46.3658C22.098 46.363 22.1799 46.3572 22.2323 46.2491L24.7814 38.6365Z" fill="#231F20"/>
<path d="M26.7511 40.6053L21.5085 46.4092L22.0062 46.8186L27.2487 41.0147L26.7511 40.6053Z" fill="#231F20"/>
<path d="M25.4303 39.2799L24.9602 38.8535L55.377 4.93229L18.8646 36.3159L18.4523 35.8436L58.6262 1.32093L59.0571 1.77102L25.4303 39.2799Z" fill="#231F20"/>
<path d="M52.4324 7.34314L50.3569 11.2764L50.5503 11.3729L52.6258 7.43972L52.4324 7.34314Z" fill="black"/>
<path d="M47.8096 11.2032L46.2854 15.668L46.4967 15.7341L48.0209 11.2694L47.8096 11.2032Z" fill="black"/>
<path d="M43.4514 14.8058L41.3965 20.9004L41.609 20.9656L43.6639 14.871L43.4514 14.8058Z" fill="black"/>
<path d="M38.6724 18.7751L36.5627 26.0781L36.7813 26.1343L38.8909 18.8313L38.6724 18.7751Z" fill="black"/>
<path d="M33.971 22.6793L32.1672 30.7939L32.396 30.837L34.1998 22.7223L33.971 22.6793Z" fill="black"/>
<path d="M29.2268 26.573L28.4675 34.7686L28.7492 34.7831L29.5086 26.5876L29.2268 26.573Z" fill="black"/>
<path d="M25.5181 29.6591L24.5962 38.5098L24.8699 38.5269L25.7918 29.6763L25.5181 29.6591Z" fill="black"/>
<path d="M21.185 33.201L20.3235 44.5332L20.6417 44.5421L21.5033 33.2099L21.185 33.201Z" fill="black"/>
</svg>
