<svg width="29" height="28" viewBox="0 0 29 28" fill="none" xmlns="http://www.w3.org/2000/svg">
<path fill-rule="evenodd" clip-rule="evenodd" d="M18.4815 15.0594C18.8911 14.984 19.1974 14.8595 19.4877 14.8889C20.0527 14.9458 20.6121 15.0754 21.1684 15.1989C22.2304 15.4334 23.2903 15.6761 24.3466 15.9344C24.594 15.9948 24.8239 16.1276 25.0465 16.2205C24.9887 16.7743 24.7216 16.9297 24.3043 16.8605C24.0367 16.8161 23.7728 16.7469 23.5099 16.6777C22.4308 16.3941 21.3518 16.1074 20.2738 15.8187C19.7743 15.6854 19.2743 15.5522 18.7805 15.4008C18.7 15.3755 18.6483 15.2562 18.481 15.0594H18.4815Z" fill="#FFB27F"/>
<path fill-rule="evenodd" clip-rule="evenodd" d="M18.7749 12.0787C18.8524 11.62 19.1737 11.4331 19.465 11.2642C20.9004 10.4305 22.3487 9.61747 23.7935 8.79826C23.9123 8.73163 24.0352 8.62833 24.1592 8.6242C24.3549 8.618 24.5528 8.68257 24.7501 8.71717C24.6979 8.915 24.7093 9.18824 24.5812 9.2962C24.2738 9.55549 23.9107 9.7559 23.5522 9.94598C22.4712 10.5193 21.3839 11.0823 20.293 11.6376C19.9293 11.823 19.5528 11.9847 19.1716 12.1304C19.0729 12.1681 18.935 12.103 18.7754 12.0787H18.7749Z" fill="#FFB27F"/>
<path fill-rule="evenodd" clip-rule="evenodd" d="M15.7366 17.8093C16.1157 17.473 16.3363 17.6972 16.5026 17.8904C17.2836 18.7953 18.0387 19.7225 18.8146 20.6311C19.1317 21.0024 19.4804 21.3464 19.8109 21.7059C19.9205 21.8253 20.032 21.9461 20.1198 22.0809C20.2877 22.3377 20.3192 22.6486 20.0362 22.7881C19.8791 22.8645 19.5393 22.7721 19.3982 22.6357C19.0692 22.3165 18.8027 21.9311 18.5264 21.5613C17.6028 20.3268 16.686 19.0882 15.7361 17.8093H15.7366Z" fill="#FFB27F"/>
<path fill-rule="evenodd" clip-rule="evenodd" d="M16.1917 10.145C16.2242 9.62848 16.2144 9.1042 16.2981 8.59594C16.4943 7.41723 16.7356 6.24575 16.9608 5.07221C16.9856 4.93998 16.9763 4.74835 17.0584 4.6905C17.2603 4.54793 17.5238 4.35372 17.7293 4.38678C18.0393 4.43688 18.0579 4.72097 17.9752 5.03863C17.6953 6.11765 17.468 7.20959 17.1953 8.29016C17.11 8.62797 16.9587 8.95235 16.812 9.27104C16.6705 9.57889 16.4964 9.87125 16.3368 10.1703C16.2882 10.1621 16.2397 10.1538 16.1917 10.145Z" fill="#FFB27F"/>
<path fill-rule="evenodd" clip-rule="evenodd" d="M12.6947 11.271C12.1353 10.6326 11.6963 10.1254 11.2505 9.62384C10.6358 8.93221 10.0103 8.24885 9.40238 7.55154C9.22522 7.34855 9.05011 7.12386 8.95611 6.87748C8.90755 6.7499 8.9902 6.4844 9.10125 6.40743C9.21282 6.32996 9.43389 6.4033 9.60486 6.42706C9.64567 6.43326 9.67976 6.50196 9.71333 6.54432C10.4432 7.49162 11.1736 8.43893 11.9024 9.38727C12.0336 9.55824 12.1684 9.7287 12.2794 9.91258C12.499 10.2747 12.7867 10.6171 12.6952 11.271H12.6947Z" fill="#FFB27F"/>
<path fill-rule="evenodd" clip-rule="evenodd" d="M10.3312 16.2999C10.1013 16.5065 9.87041 16.712 9.64159 16.9202C8.37249 18.0762 7.10287 19.2311 5.83532 20.3887C5.51146 20.6841 5.25836 20.5695 4.98047 20.2559C5.06621 20.1092 5.11477 19.9357 5.22892 19.8443C6.16228 19.0943 7.10442 18.3556 8.05018 17.6222C8.49956 17.2735 8.95668 16.9347 9.42362 16.6108C9.67568 16.4357 9.95512 16.2999 10.2222 16.147C10.2583 16.1976 10.2945 16.2487 10.3306 16.2999H10.3312Z" fill="#FFB27F"/>
<path fill-rule="evenodd" clip-rule="evenodd" d="M10.2336 13.3516C9.66851 13.2106 9.22947 13.0965 8.78732 12.9921C7.38392 12.6616 5.97743 12.3454 4.57971 11.9921C4.42165 11.9519 4.20936 11.7158 4.20523 11.565C4.19851 11.3026 4.41958 11.112 4.70729 11.16C5.1076 11.2272 5.52547 11.285 5.89168 11.4467C7.03889 11.9544 8.1959 12.4172 9.42162 12.7055C9.7057 12.7721 10.0874 12.7871 10.2331 13.3511L10.2336 13.3516Z" fill="#FFB27F"/>
<path fill-rule="evenodd" clip-rule="evenodd" d="M19.5657 8.34798C19.591 8.20026 19.5776 8.03032 19.6473 7.90739C20.295 6.77155 20.9567 5.64398 21.6168 4.51485C21.6715 4.42136 21.7366 4.32942 21.8136 4.25349C22.0192 4.04843 22.2418 3.8945 22.5264 4.12797C22.7888 4.34336 22.6788 4.57735 22.5264 4.77828C21.9024 5.60007 21.2609 6.40791 20.6375 7.23022C20.4572 7.46782 20.3239 7.74055 20.153 7.9859C20.0388 8.15015 19.8942 8.29375 19.7635 8.44612C19.6974 8.41358 19.6318 8.38052 19.5657 8.34798Z" fill="#FFB27F"/>
<path fill-rule="evenodd" clip-rule="evenodd" d="M22.4287 13.2632C22.7221 12.7183 23.2448 12.4342 23.7546 12.2601C24.5764 11.9797 25.4452 11.8356 26.297 11.6481C26.5692 11.5882 26.8744 11.5649 26.9493 11.9358C27.0284 12.3278 26.7706 12.4683 26.4349 12.52C26.111 12.5695 25.7851 12.6119 25.4643 12.6775C24.5103 12.8727 23.4974 12.8128 22.6136 13.3232C22.5842 13.3402 22.5176 13.2937 22.4287 13.2627V13.2632Z" fill="#FFB27F"/>
<path fill-rule="evenodd" clip-rule="evenodd" d="M21.0212 18.8892C21.701 18.6155 22.0734 18.9543 22.4407 19.1149C23.1385 19.4202 23.7919 19.8293 24.4582 20.2048C24.5971 20.2833 24.7661 20.3794 24.8255 20.5106C24.8921 20.6583 24.9184 20.9021 24.8373 21.0168C24.7552 21.133 24.5233 21.1805 24.3539 21.1862C24.2366 21.1898 24.1085 21.0814 23.9959 21.008C23.1731 20.4734 22.3492 19.9398 21.5347 19.3928C21.3746 19.2849 21.2526 19.1196 21.0212 18.8897V18.8892Z" fill="#FFB27F"/>
<path fill-rule="evenodd" clip-rule="evenodd" d="M12.862 18.5267C12.8383 18.7829 12.8414 19.0453 12.7872 19.2953C12.471 20.7565 12.141 22.2157 11.8156 23.6749C11.8094 23.7012 11.8068 23.7291 11.7954 23.7539C11.6725 24.0215 11.7309 24.5199 11.2396 24.3712C10.8207 24.2446 10.9772 23.8293 11.031 23.5277C11.078 23.2632 11.2076 23.0143 11.2892 22.755C11.7133 21.4084 12.1322 20.0602 12.5568 18.7142C12.5795 18.6429 12.6363 18.582 12.6771 18.5164C12.7386 18.5195 12.7995 18.5231 12.861 18.5267H12.862Z" fill="#FFB27F"/>
<path fill-rule="evenodd" clip-rule="evenodd" d="M15.216 21.6536C15.2811 21.7894 15.4061 21.9268 15.402 22.0601C15.3731 22.9929 15.8576 23.7734 16.1396 24.6122C16.3261 25.1665 16.3302 25.4082 16.044 25.5383C15.7088 25.6912 15.4283 25.5208 15.3126 24.9103C15.1308 23.9562 15.0384 22.9852 14.9232 22.0198C14.9103 21.9103 14.9965 21.7884 15.0368 21.6722C15.0967 21.666 15.1561 21.6603 15.216 21.6536Z" fill="#FFB27F"/>
<path fill-rule="evenodd" clip-rule="evenodd" d="M9.70411 20.8541C9.07394 22.0359 8.4443 23.2177 7.77799 24.4677C7.56621 24.4047 7.35134 24.3406 7.13388 24.2761C7.13388 24.134 7.10444 24.0395 7.13853 23.9842C7.37975 23.5948 7.62923 23.2105 7.88542 22.8308C8.32498 22.18 8.76455 21.5282 9.22374 20.8913C9.29037 20.7993 9.47064 20.7895 9.5977 20.741C9.63283 20.7782 9.66795 20.8164 9.70359 20.8536L9.70411 20.8541Z" fill="#FFB27F"/>
<path fill-rule="evenodd" clip-rule="evenodd" d="M13.184 5.97667C13.0761 5.83514 12.9175 5.70962 12.8679 5.5495C12.5931 4.66573 12.3318 3.77679 12.0998 2.88114C12.0627 2.73703 12.1489 2.50613 12.2584 2.39198C12.4573 2.18589 12.7672 2.28455 12.8292 2.56192C13.0239 3.43485 13.214 4.30933 13.3757 5.18845C13.4201 5.43019 13.3581 5.69155 13.3447 5.94361C13.2915 5.95446 13.2383 5.96531 13.1845 5.97615L13.184 5.97667Z" fill="#FFB27F"/>
<path fill-rule="evenodd" clip-rule="evenodd" d="M5.87982 15.7494C4.79356 16.0609 3.71454 16.3708 2.64637 16.6776C2.35092 16.1379 2.36383 15.9855 2.75484 15.8321C3.73934 15.4467 4.7574 15.4183 5.78684 15.6115C5.8199 15.6177 5.84056 15.6885 5.87982 15.7494Z" fill="#FFB27F"/>
<path fill-rule="evenodd" clip-rule="evenodd" d="M7.61434 9.61353C7.51361 9.60268 7.40411 9.61456 7.31424 9.57789C6.46404 9.2313 5.67634 8.7375 4.75537 8.55104C4.51467 8.50248 4.22799 8.32635 4.31942 7.96994C4.38502 7.71323 4.74091 7.60218 5.08647 7.74371C6.0658 8.14401 6.84472 8.84339 7.69337 9.43791C7.66702 9.49628 7.64068 9.55516 7.61434 9.61353Z" fill="#FFB27F"/>
<path fill-rule="evenodd" clip-rule="evenodd" d="M25.6585 22.8335C25.4193 22.6506 25.2179 22.4972 25.0237 22.3485C25.3729 21.7529 25.6668 21.6042 25.957 21.832C26.1864 22.0117 26.1461 22.1806 25.6585 22.833V22.8335Z" fill="#FFB27F"/>
<path fill-rule="evenodd" clip-rule="evenodd" d="M28.5133 11.928C28.27 11.693 28.0412 11.5649 27.9663 11.3764C27.8692 11.131 28.2168 10.8 28.5123 10.8129C28.7793 10.8247 29.0479 10.9466 28.9927 11.2344C28.9503 11.4549 28.7215 11.6403 28.5128 11.928H28.5133Z" fill="#FFB27F"/>
<path fill-rule="evenodd" clip-rule="evenodd" d="M22.8756 2.7938C22.8611 2.40279 23.1297 2.14815 23.404 2.17139C23.6726 2.1936 23.8538 2.32738 23.8735 2.62386C23.8947 2.93842 23.6689 3.11198 23.4412 3.09597C23.2242 3.08047 23.0202 2.87696 22.875 2.79432L22.8756 2.7938Z" fill="#FFB27F"/>
<path fill-rule="evenodd" clip-rule="evenodd" d="M6.69065 26.4748C6.54137 26.1613 6.39933 25.9914 6.39055 25.8142C6.37609 25.5379 6.74333 25.2796 7.02019 25.3183C7.28052 25.355 7.46182 25.5435 7.35852 25.761C7.24643 25.997 6.99178 26.1654 6.69117 26.4743L6.69065 26.4748Z" fill="#FFB27F"/>
<path fill-rule="evenodd" clip-rule="evenodd" d="M2.82602 8.01653C2.74234 7.91477 2.45205 7.6782 2.49234 7.58626C2.58273 7.3781 2.81414 7.15548 3.03004 7.09814C3.28263 7.03151 3.47529 7.24019 3.48613 7.53719C3.49646 7.81611 3.26093 8.03202 2.82602 8.01653Z" fill="#FFB27F"/>
<path fill-rule="evenodd" clip-rule="evenodd" d="M0.55851 17.7838C0.307995 17.5385 0.0864046 17.4125 0.0146076 17.2276C-0.0732017 17.0018 0.252211 16.7069 0.527003 16.7353C0.780617 16.7616 1.05386 16.8582 0.988257 17.1733C0.949001 17.3613 0.754273 17.5173 0.55851 17.7844V17.7838Z" fill="#FFB27F"/>
<path fill-rule="evenodd" clip-rule="evenodd" d="M16.0718 27.9806C15.8616 27.7218 15.688 27.5906 15.6333 27.4207C15.5594 27.1913 15.8492 26.8654 16.0997 26.8742C16.3528 26.883 16.6333 26.9852 16.5677 27.2869C16.5207 27.5007 16.2986 27.6769 16.0723 27.9801L16.0718 27.9806Z" fill="#FFB27F"/>
<path fill-rule="evenodd" clip-rule="evenodd" d="M12.2289 0C12.4355 0.286155 12.6235 0.440596 12.6633 0.626546C12.7242 0.916833 12.5186 1.06508 12.2294 1.05371C11.9804 1.0439 11.6746 0.98708 11.7139 0.690594C11.7418 0.483984 11.9887 0.3063 12.2283 0H12.2289Z" fill="#FFB27F"/>
</svg>
