<svg width="105" height="89" viewBox="0 0 105 89" fill="none" xmlns="http://www.w3.org/2000/svg">
<g clip-path="url(#clip0_4001_7965)">
<path d="M16.2528 76.8567C17.296 77.9078 18.9428 79.0821 20.494 78.9268C20.917 78.9083 21.1007 78.2646 20.6582 78.1219C19.9744 77.8777 19.3102 77.7946 18.6469 77.4498C17.9837 77.1049 17.341 76.6594 16.8194 76.1339C16.4179 75.79 15.8113 76.4522 16.2528 76.8567Z" fill="black"/>
<path d="M22.6054 79.3575C23.9544 79.4231 25.3229 79.6498 26.6924 79.6147C27.1554 79.6567 27.219 78.8313 26.756 78.7893C25.3669 78.6632 23.9574 78.6377 22.6084 78.5722C22.0447 78.5096 22.0418 79.295 22.6054 79.3575Z" fill="black"/>
<path d="M28.7122 78.7162C30.5047 78.6626 32.3998 78.1059 33.8339 76.9836C34.2783 76.6027 33.8378 75.9364 33.3133 76.1962C31.7796 77.0362 30.367 77.7961 28.6331 78.3333C28.3713 78.3323 28.4905 78.7758 28.7122 78.7162Z" fill="black"/>
<path d="M36.2149 74.7984C37.6685 73.8372 39.3458 72.293 39.8158 70.5025C39.9584 70.06 39.2951 69.7151 39.0118 70.0765C38.5058 70.7593 38.201 71.4831 37.6549 72.1053C37.0883 72.8281 36.4016 73.3693 35.7148 73.9104C35.1091 74.3109 35.6698 75.1588 36.2149 74.7984Z" fill="black"/>
<path d="M41.3768 68.2525C42.47 66.7463 43.3014 65.2391 44.0126 63.5502C44.2969 62.927 43.3318 62.5206 43.1081 63.1037C42.4574 64.7526 41.7061 66.3809 40.8748 67.8881C40.652 68.2095 41.1141 68.5133 41.3768 68.2525Z" fill="black"/>
<path d="M44.6908 61.0146C45.2594 59.7682 45.7879 58.4613 46.296 57.2549C46.5803 56.6317 45.5351 56.1041 45.2908 56.7879C44.7623 58.0949 44.2543 59.3012 43.7257 60.6082C43.502 61.1914 44.4065 61.6378 44.6908 61.0146Z" fill="black"/>
<path d="M46.4899 54.2551C46.5955 52.9667 46.701 51.6783 46.8066 50.3898C46.8496 49.665 45.823 49.5604 45.78 50.2852C45.6744 51.5737 45.6294 52.8221 45.5639 54.1711C45.5619 54.6947 46.4879 54.7787 46.4899 54.2551Z" fill="black"/>
<path d="M46.9117 47.7924C46.735 46.6036 46.6188 45.3747 46.3209 44.266C46.1617 43.7619 45.3959 43.9201 45.3939 44.4437C45.47 45.612 45.848 46.8418 46.0453 47.9301C46.1038 48.4136 46.9703 48.2759 46.9117 47.7924Z" fill="black"/>
<path d="M45.4859 41.9478C44.8872 40.5157 44.1468 39.2644 43.1847 38.0726C42.6837 37.4464 41.8553 38.1682 42.3563 38.7944C43.2989 39.825 43.9992 41.0158 44.639 42.2467C44.8988 42.7712 45.7457 42.4724 45.4859 41.9478Z" fill="black"/>
<path d="M40.8737 36.5533C39.7504 35.381 38.3233 34.6707 36.6725 34.5437C35.6459 34.4391 35.5598 35.8887 36.5464 35.9327C37.956 35.9582 39.1418 36.5668 40.1049 37.4968C40.6871 37.9824 41.3953 37.0788 40.8737 36.5533Z" fill="black"/>
<path d="M33.7872 35.5798C32.4588 35.4137 30.425 35.3657 29.4745 36.4294C29.1306 36.8308 29.4099 37.5166 29.954 37.418C30.5988 37.3399 31.1439 36.9794 31.7085 36.7802C32.3737 36.6015 33.0389 36.4228 33.6837 36.3446C34.1672 36.2861 34.2503 35.6218 33.7872 35.5798Z" fill="black"/>
<path d="M27.5536 37.8724C26.1616 38.5317 25.13 39.7361 24.2791 41.0821C23.8736 41.7854 25.0995 42.4546 25.5255 41.6507C26.1546 40.3642 27.0241 39.4412 27.914 38.4175C28.1162 38.1968 27.8965 37.7328 27.5536 37.8724Z" fill="black"/>
<path d="M22.7431 43.7538C22.2956 44.9201 21.8677 46.2476 21.9233 47.5165C21.9614 48.1006 22.8874 48.1847 22.95 47.621C23.0956 46.3932 23.1601 45.306 23.547 44.1797C23.7707 43.5965 22.9668 43.1706 22.7431 43.7538Z" fill="black"/>
<path d="M21.849 50.1743C22.0863 51.3231 22.3842 52.4318 22.8432 53.521C23.1226 54.2068 24.2919 53.8689 23.9725 53.1225C23.533 52.1945 23.2146 51.1864 23.0173 50.0982C22.8992 49.3929 21.7309 49.4691 21.849 50.1743Z" fill="black"/>
<path d="M24.264 56.0641C24.8637 57.2343 25.605 58.2239 26.5681 59.1539C27.0497 59.6189 27.7374 58.816 27.2559 58.351C26.3729 57.5421 25.611 56.6532 24.9908 55.5835C24.7104 55.1595 24.0442 55.6 24.264 56.0641Z" fill="black"/>
<path d="M28.5323 60.8139C29.3742 61.824 30.4174 62.8751 31.6844 63.3431C32.2675 63.5668 32.6935 62.7629 32.1308 62.4386C31.0661 61.7499 29.9604 61.2624 29.0373 60.3929C28.756 60.2308 28.2715 60.5511 28.5323 60.8139Z" fill="black"/>
<path d="M33.9591 64.2778C35.1059 64.564 36.2527 64.8503 37.5001 65.1571C38.1438 65.3408 38.3695 64.2341 37.7053 64.151C36.4979 63.9048 35.3306 63.7191 34.1233 63.4729C33.6202 63.3703 33.4561 64.1752 33.9591 64.2778Z" fill="black"/>
<path d="M39.8934 65.2276C40.9807 65.2921 42.0278 65.2961 43.0545 65.4007C43.7793 65.4437 43.7031 64.2754 43.0184 64.293C41.9507 64.3896 40.9035 64.3856 39.8359 64.4823C39.4129 64.5008 39.4304 65.1856 39.8934 65.2276Z" fill="black"/>
<path d="M45.5226 65.1658C46.3285 65.0681 47.1344 64.9705 47.9608 64.7722C48.626 64.5935 49.5325 64.5164 50.018 63.9342C50.1597 63.7535 50.1001 63.5318 49.8588 63.4302C49.2151 63.2465 48.5088 63.6265 47.8837 63.8657C47.0973 64.1246 46.3109 64.3834 45.5246 64.6422C45.0811 64.7613 45.2002 65.2048 45.5226 65.1658Z" fill="black"/>
<path d="M51.7257 63.7601C53.317 63.6654 54.9298 63.2084 56.3423 62.4485C56.9274 62.1486 56.4479 61.16 55.8627 61.4599C54.4307 62.0586 53.0592 62.6173 51.6076 63.0548C51.1641 63.1739 51.3027 63.7786 51.7257 63.7601Z" fill="black"/>
<path d="M58.5214 61.2694C60.0335 60.7918 61.4656 60.1931 62.9182 59.4938C63.604 59.2144 63.1244 58.2258 62.4787 58.5657C61.0661 59.3256 59.6741 59.9849 58.3417 60.8659C58.16 60.9861 58.2996 61.3289 58.5214 61.2694Z" fill="black"/>
<path d="M65.2394 58.1325C66.3296 57.4117 67.4599 56.7514 68.7102 56.2729C69.396 55.9935 68.9164 55.0049 68.2707 55.3448C67.0399 55.9846 65.8891 56.7455 64.839 57.5269C64.4756 57.7672 64.8155 58.4129 65.2394 58.1325Z" fill="black"/>
<path d="M70.7917 54.8109C72.1632 54.2522 73.4351 53.4113 74.6865 52.6709C75.171 52.3505 74.6504 51.5632 74.1659 51.8835C72.9546 52.6845 71.6426 53.4649 70.5514 54.4475C70.4704 54.5882 70.5495 54.9711 70.7917 54.8109Z" fill="black"/>
<path d="M77.0073 51.0485C78.3388 50.4293 79.5501 49.6284 80.5211 48.464C80.9461 47.9219 80.1832 47.2947 79.7182 47.7763C78.8282 48.8 77.8582 49.7025 76.728 50.3628C76.3646 50.603 76.6039 51.2282 77.0073 51.0485Z" fill="black"/>
<path d="M82.259 46.8794C83.2886 46.1987 84.2382 45.3967 85.0676 44.4131C85.5931 43.8915 84.6495 43.1227 84.2246 43.6648C83.5163 44.5683 82.6274 45.3302 81.6984 46.0315C81.2539 46.4125 81.7745 47.1998 82.259 46.8794Z" fill="black"/>
<path d="M86.9856 42.4468C87.7739 41.6644 88.5623 40.882 89.3506 40.0996C89.8156 39.6181 89.0127 38.9303 88.5477 39.4119C87.7994 40.2548 87.0111 41.0372 86.3233 41.8402C85.9189 42.2817 86.5811 42.8883 86.9856 42.4468Z" fill="black"/>
<path d="M90.9894 38.7569C91.6772 37.954 92.3649 37.1511 93.0732 36.2476C93.4981 35.7055 92.6952 35.0177 92.2703 35.5598C91.6626 36.4839 91.055 37.4079 90.4473 38.332C90.2646 38.7139 90.7266 39.0177 90.9894 38.7569Z" fill="black"/>
<path d="M94.3287 34.7211C95.1766 34.1605 95.8038 33.3976 96.2503 32.4931C96.5346 31.8699 95.63 31.4234 95.3057 31.9861C94.9403 32.7499 94.4548 33.3321 93.728 33.8126C93.263 34.2942 93.7836 35.0815 94.3287 34.7211Z" fill="black"/>
<path d="M97.4596 31.17C98.1063 30.5683 98.6328 29.785 99.0588 28.9811C99.3225 28.4585 98.5587 28.0931 98.2549 28.5551C97.8895 29.319 97.3434 29.9412 96.7572 30.5028C96.2922 30.9844 97.0551 31.6115 97.4596 31.17Z" fill="black"/>
<path d="M16.5013 79.7381C16.3226 79.0729 16.0833 78.4477 15.9651 77.7424C15.886 77.3595 15.8069 76.9766 15.7483 76.4931C15.7093 76.1707 15.47 75.5455 15.7523 75.4459C16.0346 75.3463 17.1404 75.8338 17.5428 75.9159C18.2071 75.9989 18.8313 76.0214 19.5365 75.9033C20.1813 75.8252 20.1041 74.9187 19.4799 74.8962C18.3322 74.8717 17.286 74.6059 16.1998 74.2796C15.5561 74.0959 14.8107 74.1535 14.4659 74.8167C14.121 75.48 14.4794 76.5487 14.6582 77.2139C14.9365 78.1614 15.376 79.0895 15.9367 79.9374C16.1369 80.2402 16.6009 80.0205 16.5013 79.7381Z" fill="black"/>
</g>
<defs>
<clipPath id="clip0_4001_7965">
<rect width="99.8365" height="38.6276" fill="white" transform="translate(0 55.8311) rotate(-33.4728)"/>
</clipPath>
</defs>
</svg>
