<svg width="41" height="40" viewBox="0 0 41 40" fill="none" xmlns="http://www.w3.org/2000/svg">
<path fill-rule="evenodd" clip-rule="evenodd" d="M24.6736 7.40502C24.0571 7.13001 23.6462 7.08919 22.9078 7.23549C21.337 7.54979 19.8159 9.46867 18.2045 13.1953C17.4581 14.9209 17.1418 16.0211 16.2322 19.9598C15.839 21.6815 15.3233 23.7531 15.073 24.5541C14.7103 25.7838 14.6793 26.1099 14.8389 26.6201C15.0983 27.4288 15.4157 27.6378 16.1885 27.5913L16.8278 27.5509L18.1784 25.7579C20.3848 22.8589 24.94 14.9218 25.7172 12.6315C26.1187 11.4684 26.2008 10.8874 26.1146 9.87978C26.0003 8.57535 25.5479 7.80217 24.677 7.40338L24.6736 7.40502ZM24.5018 9.39034C24.936 10.3536 24.5651 11.9271 23.2633 14.5871C21.3724 18.4112 16.5987 26.3446 16.5407 25.7283C16.5359 25.615 16.7182 24.9268 16.949 24.2009C17.176 23.4549 17.6958 21.4251 18.1039 19.6592C18.9299 16.0424 19.3987 14.5812 20.3575 12.6505C21.7369 9.86792 22.6338 8.82809 23.6089 8.82842C24.1889 8.8174 24.2466 8.8621 24.5018 9.39034Z" fill="#FF7E29"/>
<path fill-rule="evenodd" clip-rule="evenodd" d="M30.4802 27.026C28.4508 26.1004 24.3632 27.5268 20.5142 30.4997C18.7473 31.8783 18.4177 32.3043 18.5169 33.0814C18.5585 33.4079 18.6961 33.7549 18.8224 33.8527C18.938 33.9421 19.7565 33.9309 20.6469 33.827C22.8174 33.5706 29.5401 32.4536 30.0977 32.2577C30.3474 32.1737 30.7749 31.86 31.0701 31.5728C31.979 30.6368 32.1551 28.8374 31.426 27.8501C31.0143 27.3103 30.907 27.2101 30.4789 27.025L30.4802 27.026ZM30.3239 29.2274C30.3905 29.4272 30.3996 29.8209 30.3606 30.0851C30.1785 31.0119 29.8207 31.1411 25.8893 31.6743C23.8884 31.9502 21.8373 32.3161 21.3282 32.4743C20.4291 32.7562 20.4207 32.767 20.7918 32.4289C21.6539 31.6951 23.9201 30.2432 25.297 29.5575C26.9794 28.7409 28.1593 28.382 29.0921 28.4398C29.8348 28.4795 30.1521 28.6885 30.3252 29.2284L30.3239 29.2274Z" fill="#FF7E29"/>
<path fill-rule="evenodd" clip-rule="evenodd" d="M7.5011 12.9321C6.19855 12.3304 4.52557 13.135 4.28117 14.4755C4.12272 15.2745 4.58596 17.2721 5.25287 18.6732C5.94361 20.1851 6.72421 22.3916 7.08943 23.9439C7.2244 24.508 7.41612 25.1182 7.53267 25.3008C7.72946 25.6185 8.37551 26.2107 8.4379 26.13C8.45557 26.1072 8.75459 25.8401 9.10801 25.5249C9.73202 24.9572 9.7497 24.9343 9.8699 23.9209C10.0991 22.053 10.1677 19.5818 10.0295 18.1666C9.86513 16.5464 9.22953 14.5078 8.69114 13.943C8.48702 13.7293 8.23204 13.4396 8.11403 13.3311C8.00538 13.2106 7.72161 13.0275 7.50214 12.9308L7.5011 12.9321ZM7.74567 15.6649C8.19439 16.6566 8.51083 18.6523 8.49542 20.3161C8.47766 22.8631 8.46831 22.8752 7.86222 21.1345C7.55709 20.2905 7.05661 19.0547 6.72258 18.3924C6.08224 17.1236 5.55954 15.4667 5.64367 14.9775C5.76858 14.1719 6.56612 13.9768 7.11241 14.6036C7.28159 14.7903 7.57209 15.2729 7.74701 15.666L7.74567 15.6649Z" fill="#FF7E29"/>
</svg>
