<svg width="30" height="30" viewBox="0 0 30 30" fill="none" xmlns="http://www.w3.org/2000/svg">
<mask id="mask0_47_22" style="mask-type:luminance" maskUnits="userSpaceOnUse" x="0" y="0" width="30" height="30">
<path fill-rule="evenodd" clip-rule="evenodd" d="M0 0H30V30H0V0Z" fill="white"/>
</mask>
<g mask="url(#mask0_47_22)">
<path fill-rule="evenodd" clip-rule="evenodd" d="M9.26748 3.34404C6.00114 3.34404 3.34401 6.00146 3.34401 9.26751V20.7323C3.34401 23.9987 6.00114 26.6561 9.26748 26.6561H20.7326C23.9986 26.6561 26.656 23.9987 26.656 20.7323V9.26751C26.656 6.00146 23.9986 3.34404 20.7326 3.34404H9.26748ZM20.7326 30.0001H9.26748C4.15748 30.0001 0 25.8429 0 20.7323V9.26748C0 4.15748 4.15748 0 9.26748 0H20.7326C25.8426 0 30.0001 4.15748 30.0001 9.26748V20.7323C30.0001 25.8429 25.8426 30.0001 20.7326 30.0001Z" fill="#0093FF"/>
</g>
<path fill-rule="evenodd" clip-rule="evenodd" d="M15.119 10.1644C12.5184 10.1644 10.4026 12.2801 10.4026 14.8807C10.4026 17.4815 12.5184 19.5972 15.119 19.5972C17.7196 19.5972 19.8354 17.4815 19.8354 14.8807C19.8354 12.2801 17.7196 10.1644 15.119 10.1644ZM15.119 22.6448C10.8378 22.6448 7.35522 19.1617 7.35522 14.8807C7.35522 10.6 10.8378 7.11694 15.119 7.11694C19.4001 7.11694 22.8831 10.6 22.8831 14.8807C22.8831 19.1617 19.4001 22.6448 15.119 22.6448Z" fill="#0093FF"/>
<path fill-rule="evenodd" clip-rule="evenodd" d="M25.3348 7.52544C25.3348 8.20244 24.7859 8.75132 24.1089 8.75132C23.4319 8.75132 22.8831 8.20244 22.8831 7.52544C22.8831 6.84845 23.4319 6.29956 24.1089 6.29956C24.7859 6.29956 25.3348 6.84845 25.3348 7.52544Z" fill="#0093FF"/>
</svg>
