<svg width="24" height="25" viewBox="0 0 24 25" fill="none" xmlns="http://www.w3.org/2000/svg">
<g clip-path="url(#clip0_2833_1386)">
<path d="M18.375 0.503906H5.625C2.5184 0.503906 0 3.0223 0 6.12891V18.8789C0 21.9855 2.5184 24.5039 5.625 24.5039H18.375C21.4816 24.5039 24 21.9855 24 18.8789V6.12891C24 3.0223 21.4816 0.503906 18.375 0.503906Z" fill="url(#paint0_radial_2833_1386)"/>
<path d="M18.375 0.503906H5.625C2.5184 0.503906 0 3.0223 0 6.12891V18.8789C0 21.9855 2.5184 24.5039 5.625 24.5039H18.375C21.4816 24.5039 24 21.9855 24 18.8789V6.12891C24 3.0223 21.4816 0.503906 18.375 0.503906Z" fill="url(#paint1_radial_2833_1386)"/>
<path d="M12.0008 3.12891C9.45478 3.12891 9.13519 3.14006 8.13525 3.18553C7.13719 3.23128 6.45591 3.38925 5.85984 3.62109C5.24316 3.86053 4.72013 4.18087 4.19906 4.70212C3.67753 5.22328 3.35719 5.74631 3.117 6.36272C2.8845 6.95897 2.72634 7.64053 2.68144 8.63812C2.63672 9.63816 2.625 9.95784 2.625 12.504C2.625 15.0502 2.63625 15.3687 2.68163 16.3687C2.72756 17.3667 2.88553 18.048 3.11719 18.6441C3.35681 19.2607 3.67716 19.7838 4.19841 20.3048C4.71938 20.8264 5.24241 21.1475 5.85862 21.3869C6.45516 21.6187 7.13653 21.7767 8.13441 21.8225C9.13444 21.8679 9.45375 21.8791 11.9997 21.8791C14.5461 21.8791 14.8646 21.8679 15.8646 21.8225C16.8626 21.7767 17.5447 21.6187 18.1412 21.3869C18.7576 21.1475 19.2799 20.8264 19.8007 20.3048C20.3223 19.7838 20.6425 19.2607 20.8828 18.6443C21.1133 18.048 21.2715 17.3665 21.3184 16.3688C21.3633 15.3689 21.375 15.0502 21.375 12.504C21.375 9.95784 21.3633 9.63834 21.3184 8.63831C21.2715 7.64025 21.1133 6.95906 20.8828 6.363C20.6425 5.74631 20.3223 5.22328 19.8007 4.70212C19.2793 4.18069 18.7578 3.86034 18.1406 3.62119C17.543 3.38925 16.8613 3.23119 15.8632 3.18553C14.8632 3.14006 14.5448 3.12891 11.9979 3.12891H12.0008ZM11.1598 4.81837C11.4095 4.818 11.688 4.81837 12.0008 4.81837C14.5041 4.81837 14.8007 4.82738 15.7892 4.87228C16.7032 4.91409 17.1994 5.06681 17.5298 5.19516C17.9674 5.36503 18.2793 5.56819 18.6072 5.89641C18.9353 6.22453 19.1384 6.537 19.3088 6.97453C19.4371 7.30453 19.59 7.80066 19.6316 8.71472C19.6765 9.70303 19.6863 9.99984 19.6863 12.5018C19.6863 15.0038 19.6765 15.3007 19.6316 16.289C19.5898 17.203 19.4371 17.6992 19.3088 18.0292C19.1389 18.4668 18.9353 18.7783 18.6072 19.1063C18.2791 19.4344 17.9676 19.6374 17.5298 19.8074C17.1997 19.9363 16.7032 20.0887 15.7892 20.1305C14.8009 20.1754 14.5041 20.1851 12.0008 20.1851C9.49753 20.1851 9.20081 20.1754 8.21259 20.1305C7.29853 20.0883 6.80241 19.9356 6.47166 19.8072C6.03422 19.6372 5.72166 19.4342 5.39353 19.1061C5.06541 18.7779 4.86234 18.4662 4.692 18.0285C4.56366 17.6984 4.41075 17.2023 4.36913 16.2882C4.32422 15.2999 4.31522 15.0031 4.31522 12.4995C4.31522 9.996 4.32422 9.70069 4.36913 8.71237C4.41094 7.79831 4.56366 7.30219 4.692 6.97172C4.86197 6.53419 5.06541 6.22172 5.39363 5.89359C5.72175 5.56547 6.03422 5.36231 6.47175 5.19206C6.80222 5.06316 7.29853 4.91081 8.21259 4.86881C9.07744 4.82972 9.41259 4.818 11.1598 4.81603V4.81837ZM17.0052 6.375C16.3841 6.375 15.8802 6.87844 15.8802 7.49963C15.8802 8.12072 16.3841 8.62463 17.0052 8.62463C17.6263 8.62463 18.1302 8.12072 18.1302 7.49963C18.1302 6.87853 17.6263 6.37462 17.0052 6.37462V6.375ZM12.0008 7.68947C9.34209 7.68947 7.18641 9.84516 7.18641 12.504C7.18641 15.1628 9.34209 17.3175 12.0008 17.3175C14.6597 17.3175 16.8146 15.1628 16.8146 12.504C16.8146 9.84525 14.6595 7.68947 12.0007 7.68947H12.0008ZM12.0008 9.37894C13.7267 9.37894 15.1259 10.778 15.1259 12.504C15.1259 14.2298 13.7267 15.6291 12.0008 15.6291C10.2749 15.6291 8.87588 14.2298 8.87588 12.504C8.87588 10.778 10.2749 9.37894 12.0008 9.37894Z" fill="white"/>
</g>
<defs>
<radialGradient id="paint0_radial_2833_1386" cx="0" cy="0" r="1" gradientUnits="userSpaceOnUse" gradientTransform="translate(6.375 26.3524) rotate(-90) scale(23.7858 22.1227)">
<stop stop-color="#FFDD55"/>
<stop offset="0.1" stop-color="#FFDD55"/>
<stop offset="0.5" stop-color="#FF543E"/>
<stop offset="1" stop-color="#C837AB"/>
</radialGradient>
<radialGradient id="paint1_radial_2833_1386" cx="0" cy="0" r="1" gradientUnits="userSpaceOnUse" gradientTransform="translate(-4.02009 2.23275) rotate(78.681) scale(10.6324 43.827)">
<stop stop-color="#3771C8"/>
<stop offset="0.128" stop-color="#3771C8"/>
<stop offset="1" stop-color="#6600FF" stop-opacity="0"/>
</radialGradient>
<clipPath id="clip0_2833_1386">
<rect width="24" height="24" fill="white" transform="translate(0 0.503906)"/>
</clipPath>
</defs>
</svg>
