<svg width="31" height="30" viewBox="0 0 31 30" fill="none" xmlns="http://www.w3.org/2000/svg">
<path fill-rule="evenodd" clip-rule="evenodd" d="M0 30H8.2797V10.3357H0V30Z" fill="#0093FF"/>
<path fill-rule="evenodd" clip-rule="evenodd" d="M11.2596 9.93601H16.9916V12.7228C16.9916 12.7228 17.873 9.91162 23.1723 9.91162C27.5474 9.91162 30.6756 11.559 30.6756 16.0829V29.9999H24.5543C24.5543 29.9999 24.5881 18.296 24.6222 17.9355C24.656 17.5745 24.283 14.6242 21.163 14.6242C18.043 14.6242 17.0591 16.7878 17.0591 18.4269V29.9999H11.2596V9.93601Z" fill="#0093FF"/>
<mask id="mask0_47_32" style="mask-type:luminance" maskUnits="userSpaceOnUse" x="0" y="0" width="8" height="8">
<path fill-rule="evenodd" clip-rule="evenodd" d="M0 0H7.42735V7.17966H0V0Z" fill="white"/>
</mask>
<g mask="url(#mask0_47_32)">
<path fill-rule="evenodd" clip-rule="evenodd" d="M7.42736 3.59004C7.42736 5.57245 5.76469 7.1797 3.71391 7.1797C1.66236 7.1797 -0.000305176 5.57245 -0.000305176 3.59004C-0.000305176 1.60724 1.66236 0 3.71391 0C5.76469 0 7.42736 1.60724 7.42736 3.59004Z" fill="#0093FF"/>
</g>
</svg>
