<svg width="24" height="25" viewBox="0 0 24 25" fill="none" xmlns="http://www.w3.org/2000/svg">
<g clip-path="url(#clip0_2833_1391)">
<path d="M18.375 0.503906H5.625C2.5184 0.503906 0 3.0223 0 6.12891V18.8789C0 21.9855 2.5184 24.5039 5.625 24.5039H18.375C21.4816 24.5039 24 21.9855 24 18.8789V6.12891C24 3.0223 21.4816 0.503906 18.375 0.503906Z" fill="white"/>
<path d="M18.375 0.503906H5.625C2.5184 0.503906 0 3.0223 0 6.12891V18.8789C0 21.9855 2.5184 24.5039 5.625 24.5039H18.375C21.4816 24.5039 24 21.9855 24 18.8789V6.12891C24 3.0223 21.4816 0.503906 18.375 0.503906Z" fill="#0A66C2"/>
<path d="M17.317 20.9119H20.0611C20.1605 20.9119 20.2559 20.8724 20.3262 20.8021C20.3965 20.7318 20.4361 20.6364 20.4361 20.537L20.4375 14.7393C20.4375 11.709 19.7845 9.37978 16.2433 9.37978C14.8972 9.32972 13.6277 10.0237 12.9427 11.1824C12.9393 11.188 12.9342 11.1924 12.9281 11.1949C12.9221 11.1973 12.9154 11.1977 12.909 11.196C12.9027 11.1943 12.8971 11.1906 12.8931 11.1854C12.8891 11.1802 12.8869 11.1739 12.8869 11.1673V10.0345C12.8869 9.93508 12.8474 9.83969 12.777 9.76937C12.7067 9.69904 12.6113 9.65953 12.5119 9.65953H9.90778C9.80832 9.65953 9.71294 9.69904 9.64262 9.76937C9.57229 9.83969 9.53278 9.93508 9.53278 10.0345V20.5364C9.53278 20.6359 9.57229 20.7312 9.64262 20.8016C9.71294 20.8719 9.80832 20.9114 9.90778 20.9114H12.6517C12.7511 20.9114 12.8465 20.8719 12.9168 20.8016C12.9871 20.7312 13.0267 20.6359 13.0267 20.5364V15.3452C13.0267 13.8773 13.3051 12.4558 15.1249 12.4558C16.9188 12.4558 16.942 14.1354 16.942 15.4403V20.5369C16.942 20.6363 16.9815 20.7317 17.0519 20.802C17.1222 20.8724 17.2176 20.9119 17.317 20.9119ZM3.5625 6.09403C3.5625 7.20628 4.47816 8.12147 5.5905 8.12147C6.70256 8.12137 7.61766 7.20563 7.61766 6.09356C7.61747 4.9815 6.70228 4.06641 5.59012 4.06641C4.47769 4.06641 3.5625 4.98178 3.5625 6.09403ZM4.21491 20.9119H6.96244C7.06189 20.9119 7.15728 20.8724 7.2276 20.802C7.29793 20.7317 7.33744 20.6363 7.33744 20.5369V10.0345C7.33744 9.93508 7.29793 9.83969 7.2276 9.76937C7.15728 9.69904 7.06189 9.65953 6.96244 9.65953H4.21491C4.11545 9.65953 4.02007 9.69904 3.94974 9.76937C3.87942 9.83969 3.83991 9.93508 3.83991 10.0345V20.5369C3.83991 20.6363 3.87942 20.7317 3.94974 20.802C4.02007 20.8724 4.11545 20.9119 4.21491 20.9119Z" fill="white"/>
</g>
<defs>
<clipPath id="clip0_2833_1391">
<rect width="24" height="24" fill="white" transform="translate(0 0.503906)"/>
</clipPath>
</defs>
</svg>
