<svg width="14" height="18" viewBox="0 0 14 18" fill="none" xmlns="http://www.w3.org/2000/svg">
<path d="M6.875 4C6.25693 4 5.65275 4.18328 5.13884 4.52666C4.62494 4.87004 4.2244 5.3581 3.98788 5.92911C3.75135 6.50013 3.68947 7.12847 3.81005 7.73466C3.93062 8.34085 4.22825 8.89767 4.66529 9.33471C5.10233 9.77175 5.65915 10.0694 6.26534 10.19C6.87153 10.3105 7.49987 10.2486 8.07089 10.0121C8.6419 9.7756 9.12996 9.37506 9.47334 8.86116C9.81672 8.34725 10 7.74307 10 7.125C10 6.2962 9.67076 5.50134 9.08471 4.91529C8.49866 4.32924 7.7038 4 6.875 4ZM6.875 9C6.50416 9 6.14165 8.89003 5.83331 8.68401C5.52496 8.47798 5.28464 8.18514 5.14273 7.84253C5.00081 7.49992 4.96368 7.12292 5.03603 6.75921C5.10837 6.39549 5.28695 6.0614 5.54917 5.79917C5.8114 5.53695 6.14549 5.35837 6.50921 5.28603C6.87292 5.21368 7.24992 5.25081 7.59253 5.39273C7.93514 5.53464 8.22798 5.77496 8.43401 6.08331C8.64003 6.39165 8.75 6.75416 8.75 7.125C8.75 7.62228 8.55246 8.09919 8.20083 8.45083C7.84919 8.80246 7.37228 9 6.875 9ZM6.875 0.25C5.05227 0.252068 3.30479 0.97706 2.01592 2.26592C0.72706 3.55479 0.00206776 5.30227 0 7.125C0 9.57812 1.13359 12.1781 3.28125 14.6445C4.24627 15.759 5.33239 16.7626 6.51953 17.6367C6.62462 17.7103 6.74982 17.7498 6.87812 17.7498C7.00643 17.7498 7.13163 17.7103 7.23672 17.6367C8.42168 16.7623 9.50569 15.7587 10.4688 14.6445C12.6133 12.1781 13.75 9.57812 13.75 7.125C13.7479 5.30227 13.0229 3.55479 11.7341 2.26592C10.4452 0.97706 8.69773 0.252068 6.875 0.25ZM6.875 16.3438C5.58359 15.3281 1.25 11.5977 1.25 7.125C1.25 5.63316 1.84263 4.20242 2.89752 3.14752C3.95242 2.09263 5.38316 1.5 6.875 1.5C8.36684 1.5 9.79758 2.09263 10.8525 3.14752C11.9074 4.20242 12.5 5.63316 12.5 7.125C12.5 11.5961 8.16641 15.3281 6.875 16.3438Z" fill="white"/>
</svg>
