<svg width="104" height="70" viewBox="0 0 104 70" fill="none" xmlns="http://www.w3.org/2000/svg">
<path d="M32.576 42V40.542L33.17 40.488C33.518 40.452 33.692 40.284 33.692 39.984V31.614L32.666 31.56V30.03H37.814C39.158 30.03 40.202 30.348 40.946 30.984C41.702 31.608 42.08 32.55 42.08 33.81C42.08 35.07 41.654 36.054 40.802 36.762C39.95 37.458 38.8221 37.806 37.4181 37.806H35.888V40.416L37.616 40.47V42H32.576ZM35.888 36.06H37.1841C38.9361 36.06 39.812 35.346 39.812 33.918C39.812 33.054 39.584 32.484 39.128 32.208C38.684 31.92 37.97 31.776 36.986 31.776H35.888V36.06Z" fill="#70A742"/>
<path d="M46.4332 29.166V40.506L47.4592 40.56V42H43.1752V40.632L43.7692 40.578C44.1172 40.542 44.2912 40.35 44.2912 40.002V31.128C44.2912 30.864 44.1412 30.72 43.8412 30.696L43.2112 30.66V29.166H46.4332Z" fill="#70A742"/>
<path d="M56.6546 33.306V40.002C56.6546 40.194 56.6846 40.326 56.7446 40.398C56.8166 40.47 56.9366 40.512 57.1046 40.524L57.6806 40.56V42H54.8186V40.956L54.7646 40.938C54.1646 41.802 53.3426 42.234 52.2986 42.234C51.0746 42.234 50.1686 41.844 49.5806 41.064C48.9926 40.284 48.6986 39.216 48.6986 37.86C48.6986 36.228 49.0946 34.956 49.8866 34.044C50.6786 33.132 51.8666 32.676 53.4506 32.676C54.4706 32.676 55.5386 32.886 56.6546 33.306ZM54.5666 39.138V34.476C54.2306 34.32 53.7686 34.242 53.1806 34.242C52.3766 34.242 51.7946 34.566 51.4346 35.214C51.0746 35.862 50.8946 36.72 50.8946 37.788C50.8946 39.732 51.5186 40.704 52.7666 40.704C53.2946 40.704 53.7266 40.548 54.0626 40.236C54.3986 39.912 54.5666 39.546 54.5666 39.138Z" fill="#70A742"/>
<path d="M58.6775 34.386V32.946H61.7195V34.116C62.0315 33.672 62.4455 33.324 62.9615 33.072C63.4775 32.808 64.0355 32.676 64.6355 32.676C65.5475 32.676 66.2495 32.94 66.7415 33.468C67.2455 33.984 67.4975 34.764 67.4975 35.808V40.506L68.5235 40.56V42H64.2395V40.632L64.8335 40.578C65.0135 40.554 65.1455 40.506 65.2295 40.434C65.3135 40.35 65.3555 40.2 65.3555 39.984V36.276C65.3555 35.616 65.2535 35.13 65.0495 34.818C64.8455 34.494 64.4555 34.332 63.8795 34.332C63.3155 34.332 62.8655 34.512 62.5295 34.872C62.1935 35.232 62.0255 35.658 62.0255 36.15V40.506L63.0515 40.56V42H58.7675V40.632L59.3615 40.578C59.5415 40.554 59.6735 40.506 59.7575 40.434C59.8415 40.35 59.8835 40.2 59.8835 39.984V34.998C59.8835 34.638 59.7335 34.452 59.4335 34.44L58.6775 34.386Z" fill="#70A742"/>
<path d="M70.8557 31.038H72.0257V32.946H74.4197L74.2397 34.458H72.0257V39.192C72.0257 39.72 72.1217 40.092 72.3137 40.308C72.5057 40.512 72.7997 40.614 73.1957 40.614C73.6037 40.614 74.0117 40.488 74.4197 40.236L74.9597 41.622C74.3597 42.042 73.5977 42.252 72.6737 42.252C72.1337 42.252 71.6777 42.18 71.3057 42.036C70.9337 41.904 70.6577 41.754 70.4777 41.586C70.2977 41.418 70.1597 41.172 70.0637 40.848C69.9677 40.524 69.9137 40.272 69.9017 40.092C69.8897 39.9 69.8837 39.624 69.8837 39.264V34.458H68.6057L68.7857 33.144C69.3497 33.096 69.7757 32.898 70.0637 32.55C70.3517 32.19 70.6157 31.686 70.8557 31.038Z" fill="#70A742"/>
<path d="M32.745 57.8944V56.4364L33.339 56.3824C33.687 56.3464 33.861 56.1784 33.861 55.8784V47.5084L32.835 47.4544V45.9244H37.983C39.327 45.9244 40.371 46.2424 41.115 46.8784C41.871 47.5024 42.249 48.4444 42.249 49.7044C42.249 50.9644 41.823 51.9484 40.971 52.6564C40.119 53.3524 38.991 53.7004 37.587 53.7004H36.057V56.3104L37.785 56.3644V57.8944H32.745ZM36.057 51.9544H37.353C39.105 51.9544 39.981 51.2404 39.981 49.8124C39.981 48.9484 39.753 48.3784 39.297 48.1024C38.853 47.8144 38.139 47.6704 37.155 47.6704H36.057V51.9544Z" fill="#046937"/>
<path d="M51.4622 49.2004V55.8964C51.4622 56.0884 51.4922 56.2204 51.5522 56.2924C51.6242 56.3644 51.7442 56.4064 51.9122 56.4184L52.4882 56.4544V57.8944H49.6262V56.8504L49.5722 56.8324C48.9722 57.6964 48.1502 58.1284 47.1062 58.1284C45.8822 58.1284 44.9762 57.7384 44.3882 56.9584C43.8002 56.1784 43.5062 55.1104 43.5062 53.7544C43.5062 52.1224 43.9022 50.8504 44.6942 49.9384C45.4862 49.0264 46.6742 48.5704 48.2582 48.5704C49.2782 48.5704 50.3462 48.7804 51.4622 49.2004ZM49.3742 55.0324V50.3704C49.0382 50.2144 48.5762 50.1364 47.9882 50.1364C47.1842 50.1364 46.6022 50.4604 46.2422 51.1084C45.8822 51.7564 45.7022 52.6144 45.7022 53.6824C45.7022 55.6264 46.3262 56.5984 47.5742 56.5984C48.1022 56.5984 48.5342 56.4424 48.8702 56.1304C49.2062 55.8064 49.3742 55.4404 49.3742 55.0324Z" fill="#046937"/>
<path d="M54.7091 55.8784V50.8924C54.7091 50.7004 54.6731 50.5684 54.6011 50.4964C54.5411 50.4124 54.4271 50.3644 54.2591 50.3524L53.5031 50.2984V48.8404H56.5451V50.1904C56.7611 49.7224 57.0971 49.3384 57.5531 49.0384C58.0091 48.7264 58.5311 48.5704 59.1191 48.5704C59.7191 48.5704 60.2891 48.7024 60.8291 48.9664V51.6484L59.1551 51.7744V50.9464C59.1551 50.7064 59.0951 50.5564 58.9751 50.4964C58.8431 50.4364 58.6811 50.4064 58.4891 50.4064C58.0091 50.4064 57.6131 50.5804 57.3011 50.9284C57.0011 51.2644 56.8511 51.6964 56.8511 52.2244V56.4004L58.4171 56.4724V57.8944H53.5931V56.5264L54.1871 56.4724C54.3671 56.4484 54.4991 56.4004 54.5831 56.3284C54.6671 56.2444 54.7091 56.0944 54.7091 55.8784Z" fill="#046937"/>
<path d="M69.9895 49.2004V55.8964C69.9895 56.0884 70.0195 56.2204 70.0795 56.2924C70.1515 56.3644 70.2715 56.4064 70.4395 56.4184L71.0155 56.4544V57.8944H68.1535V56.8504L68.0995 56.8324C67.4995 57.6964 66.6775 58.1284 65.6335 58.1284C64.4095 58.1284 63.5035 57.7384 62.9155 56.9584C62.3275 56.1784 62.0335 55.1104 62.0335 53.7544C62.0335 52.1224 62.4295 50.8504 63.2215 49.9384C64.0135 49.0264 65.2015 48.5704 66.7855 48.5704C67.8055 48.5704 68.8735 48.7804 69.9895 49.2004ZM67.9015 55.0324V50.3704C67.5655 50.2144 67.1035 50.1364 66.5155 50.1364C65.7115 50.1364 65.1295 50.4604 64.7695 51.1084C64.4095 51.7564 64.2295 52.6144 64.2295 53.6824C64.2295 55.6264 64.8535 56.5984 66.1015 56.5984C66.6295 56.5984 67.0615 56.4424 67.3975 56.1304C67.7335 55.8064 67.9015 55.4404 67.9015 55.0324Z" fill="#046937"/>
<path d="M76.6384 48.5704C77.1544 48.5704 77.6464 48.6424 78.1144 48.7864V46.9684C78.1144 46.7044 77.9584 46.5604 77.6464 46.5364L76.8724 46.4824V45.0604H80.2204V56.0044C80.2324 56.2804 80.3824 56.4184 80.6704 56.4184L81.3004 56.4544V57.8944H78.3844V56.8324L78.3304 56.8144C77.7904 57.6904 76.9744 58.1284 75.8824 58.1284C74.5144 58.1284 73.5544 57.6724 73.0024 56.7604C72.4984 55.9324 72.2464 54.9184 72.2464 53.7184C72.2464 52.1584 72.6304 50.9104 73.3984 49.9744C74.1784 49.0384 75.2584 48.5704 76.6384 48.5704ZM78.1144 55.0864V50.4244C77.6824 50.2324 77.2264 50.1364 76.7464 50.1364C75.9544 50.1364 75.3724 50.4544 75.0004 51.0904C74.6404 51.7264 74.4604 52.5364 74.4604 53.5204C74.4604 55.5364 75.1084 56.5444 76.4044 56.5444C76.8964 56.5444 77.3044 56.4064 77.6284 56.1304C77.9524 55.8424 78.1144 55.4944 78.1144 55.0864Z" fill="#046937"/>
<path d="M85.6089 48.8404V56.4004L86.6349 56.4544V57.8944H82.3509V56.5264L82.9449 56.4724C83.2929 56.4364 83.4669 56.2444 83.4669 55.8964V50.8924C83.4669 50.6884 83.4309 50.5504 83.3589 50.4784C83.2989 50.4064 83.1849 50.3704 83.0169 50.3704L82.3869 50.3344V48.8404H85.6089ZM83.3409 47.2924C83.0889 47.0404 82.9629 46.7224 82.9629 46.3384C82.9629 45.9544 83.0889 45.6364 83.3409 45.3844C83.5929 45.1204 83.9229 44.9884 84.3309 44.9884C84.7389 44.9884 85.0689 45.1204 85.3209 45.3844C85.5849 45.6364 85.7169 45.9544 85.7169 46.3384C85.7169 46.7224 85.5849 47.0404 85.3209 47.2924C85.0689 47.5324 84.7389 47.6524 84.3309 47.6524C83.9229 47.6524 83.5929 47.5324 83.3409 47.2924Z" fill="#046937"/>
<path d="M92.3931 50.2084C92.1051 50.1004 91.7571 50.0464 91.3491 50.0464C90.9411 50.0464 90.6111 50.1424 90.3591 50.3344C90.1191 50.5144 89.9991 50.7424 89.9991 51.0184C89.9991 51.2824 90.0411 51.4924 90.1251 51.6484C90.2211 51.7924 90.3651 51.9184 90.5571 52.0264C90.8571 52.1824 91.2171 52.3204 91.6371 52.4404C92.0571 52.5484 92.3691 52.6384 92.5731 52.7104C92.7771 52.7704 93.0291 52.8784 93.3291 53.0344C93.6411 53.1904 93.8751 53.3584 94.0311 53.5384C94.4511 53.9824 94.6611 54.5524 94.6611 55.2484C94.6611 56.1484 94.3311 56.8564 93.6711 57.3724C93.0231 57.8764 92.1951 58.1284 91.1871 58.1284C89.7231 58.1284 88.6191 57.9424 87.8751 57.5704V55.0684L89.4951 54.9424V55.8064C89.4951 56.3344 89.9991 56.5984 91.0071 56.5984C92.0151 56.5984 92.5191 56.2324 92.5191 55.5004C92.5191 55.2364 92.4291 55.0204 92.2491 54.8524C92.0811 54.6844 91.9131 54.5704 91.7451 54.5104C91.5771 54.4504 91.3731 54.3904 91.1331 54.3304C90.9051 54.2704 90.6771 54.2104 90.4491 54.1504C90.2331 54.0904 89.9931 54.0124 89.7291 53.9164C89.4771 53.8084 89.1951 53.6584 88.8831 53.4664C88.2711 53.0704 87.9651 52.4104 87.9651 51.4864C87.9651 50.5504 88.2951 49.8304 88.9551 49.3264C89.6151 48.8224 90.4431 48.5704 91.4391 48.5704C92.4471 48.5704 93.4431 48.8104 94.4271 49.2904V51.4504L92.8071 51.5764V50.8204C92.8071 50.5204 92.6691 50.3164 92.3931 50.2084Z" fill="#046937"/>
<path d="M100.316 48.5704C101.216 48.5704 101.93 48.7924 102.458 49.2364C102.986 49.6684 103.25 50.2804 103.25 51.0724C103.25 51.6004 103.136 52.0684 102.908 52.4764C102.68 52.8724 102.398 53.1844 102.062 53.4124C101.726 53.6404 101.318 53.8264 100.838 53.9704C100.034 54.2104 99.1282 54.3304 98.1202 54.3304C98.1562 54.9664 98.3542 55.4824 98.7142 55.8784C99.0742 56.2624 99.6262 56.4544 100.37 56.4544C101.114 56.4544 101.858 56.1904 102.602 55.6624L103.286 57.1204C103.046 57.3364 102.638 57.5584 102.062 57.7864C101.498 58.0144 100.85 58.1284 100.118 58.1284C98.6542 58.1284 97.5802 57.7264 96.8962 56.9224C96.2122 56.1064 95.8702 54.9904 95.8702 53.5744C95.8702 52.1584 96.2602 50.9704 97.0402 50.0104C97.8202 49.0504 98.9122 48.5704 100.316 48.5704ZM99.4882 52.6924C99.9322 52.6084 100.34 52.4344 100.712 52.1704C101.084 51.8944 101.27 51.5704 101.27 51.1984C101.27 50.4664 100.91 50.1004 100.19 50.1004C99.5182 50.1004 99.0022 50.3704 98.6422 50.9104C98.2822 51.4384 98.0842 52.0744 98.0482 52.8184C98.5762 52.8064 99.0562 52.7644 99.4882 52.6924Z" fill="#046937"/>
<path d="M34.728 66.903H35.493C36.852 66.903 37.824 66.219 37.824 64.851C37.824 63.645 37.014 63.015 35.691 63.015H33.63V69H34.728V66.903ZM34.728 66.03V63.888H35.277C36.159 63.888 36.69 64.032 36.69 64.959C36.69 65.76 36.159 66.03 35.376 66.03H34.728Z" fill="#152816"/>
<path d="M38.7542 69H42.3902V68.046H39.8522V63.015H38.7542V69Z" fill="#152816"/>
<path d="M43.7852 69L44.3162 67.416H46.4222L46.9622 69H48.1322L46.0172 63.015H44.7932L42.7232 69H43.7852ZM45.3692 64.023C45.3692 64.023 45.3872 64.023 45.3962 64.023L46.2062 66.588H44.5322L45.3692 64.023Z" fill="#152816"/>
<path d="M52.5152 63.015V67.173C52.5062 67.173 52.5062 67.173 52.4972 67.173L49.9772 63.015H48.8702V69H49.9502V64.779C49.9592 64.779 49.9682 64.779 49.9682 64.779L52.5512 69H53.6042V63.015H52.5152Z" fill="#152816"/>
<path d="M54.3874 63.015V63.969H56.0884V69H57.1774V63.969H58.9234V63.015H54.3874Z" fill="#152816"/>
<path d="M75.9223 66.903H76.6873C78.0463 66.903 79.0183 66.219 79.0183 64.851C79.0183 63.645 78.2083 63.015 76.8853 63.015H74.8243V69H75.9223V66.903ZM75.9223 66.03V63.888H76.4713C77.3533 63.888 77.8843 64.032 77.8843 64.959C77.8843 65.76 77.3533 66.03 76.5703 66.03H75.9223Z" fill="#152816"/>
<path d="M79.9396 69H83.6116V68.046H81.0376V66.426H83.1886V65.472H81.0376V63.969H83.5486V63.015H79.9396V69Z" fill="#152816"/>
<path d="M89.2749 66.021C89.2749 63.735 88.1139 62.907 86.7729 62.907C85.5129 62.907 84.1179 63.717 84.1179 66.021C84.1179 68.073 85.0719 69.108 86.6739 69.108C88.2489 69.108 89.2749 68.082 89.2749 66.021ZM85.2429 65.976C85.2429 64.905 85.6389 63.834 86.7189 63.834C87.8709 63.834 88.1589 65.13 88.1589 66.048C88.1589 67.128 87.8259 68.199 86.7369 68.199C85.5039 68.199 85.2429 67.002 85.2429 65.976Z" fill="#152816"/>
<path d="M91.4087 66.903H92.1737C93.5327 66.903 94.5047 66.219 94.5047 64.851C94.5047 63.645 93.6947 63.015 92.3717 63.015H90.3107V69H91.4087V66.903ZM91.4087 66.03V63.888H91.9577C92.8397 63.888 93.3707 64.032 93.3707 64.959C93.3707 65.76 92.8397 66.03 92.0567 66.03H91.4087Z" fill="#152816"/>
<path d="M95.4349 69H99.0709V68.046H96.5329V63.015H95.4349V69Z" fill="#152816"/>
<path d="M99.9259 69H103.598V68.046H101.024V66.426H103.175V65.472H101.024V63.969H103.535V63.015H99.9259V69Z" fill="#152816"/>
<path d="M29.6181 0C21.0451 0 14.0724 6.9197 14.0724 15.4275V26.559C13.5854 26.514 13.0954 26.487 12.5962 26.487H0V38.336C0 47.033 7.13 54.1088 15.8935 54.1088H22.5788V68.7887H28.1388V41.9145C28.1388 35.9194 24.6752 30.7169 19.6294 28.1651V15.4275C19.6294 9.96077 24.1065 5.51775 29.615 5.51775H36.6482V11.843C36.6482 16.6643 33.2814 20.7171 28.762 21.8098V27.4356C36.3669 26.2588 42.2082 19.7174 42.2082 11.843V0H29.6181ZM22.5819 41.9145V48.591H15.8965C10.1974 48.591 5.56303 43.9919 5.56303 38.336V32.0047H12.5993C18.1018 32.0047 22.5819 36.4508 22.5819 41.9145Z" fill="#70A742"/>
<path d="M69.3499 66.6144C69.3499 66.5878 69.3499 66.5611 69.3499 66.5365C69.3499 66.2287 69.3499 65.9209 69.3499 65.6131C69.3499 65.5228 69.419 65.4346 69.5011 65.4161C69.6134 65.3895 69.7085 65.4244 69.7603 65.5146C69.7841 65.5557 69.7884 65.5988 69.7884 65.6439C69.7884 65.9476 69.7884 66.2513 69.7884 66.557C69.7884 66.5755 69.7884 66.596 69.7884 66.6288C69.8446 66.5775 69.89 66.5365 69.9353 66.4934C70.1211 66.3169 70.3047 66.1405 70.4905 65.964C70.5813 65.8778 70.7239 65.8737 70.8081 65.9558C70.8967 66.0399 70.8967 66.1692 70.8059 66.2574C70.6828 66.3764 70.5575 66.4934 70.4322 66.6124C70.2248 66.8094 70.0196 67.0043 69.8122 67.2013C69.7927 67.2198 69.7863 67.2382 69.7863 67.2628C69.7863 67.3634 69.7884 67.466 69.7863 67.5665C69.7863 67.6035 69.7992 67.6117 69.836 67.6076C70.0995 67.5788 70.3458 67.4988 70.5791 67.3777C70.9529 67.1849 71.238 66.9058 71.4368 66.5488C71.5794 66.2944 71.6593 66.0235 71.6744 65.7342C71.6874 65.5023 71.6636 65.2766 71.5945 65.055C71.4929 64.7288 71.3136 64.4436 71.0609 64.2014C70.7368 63.8916 70.3436 63.7008 69.8921 63.631C69.5054 63.5715 69.1274 63.6146 68.7644 63.7582C68.2805 63.9491 67.9176 64.2691 67.6778 64.7103C67.5222 64.9955 67.4466 65.3033 67.4488 65.6254C67.4509 65.8635 67.4164 66.0974 67.3451 66.3251C67.1701 66.8853 66.8396 67.3429 66.3448 67.6937C65.943 67.9769 65.4915 68.141 64.9946 68.1903C64.7051 68.219 64.42 68.2006 64.1348 68.141C63.7092 68.0528 63.3268 67.8784 62.9941 67.6137C62.4497 67.1808 62.1214 66.6288 62.0241 65.9578C61.9788 65.6521 61.9961 65.3525 62.0868 65.055C62.1603 64.8191 62.2639 64.5933 62.3914 64.38C62.5578 64.1029 62.7479 63.8465 62.9531 63.6023C63.2253 63.2801 63.5234 62.9806 63.8388 62.6954C64.083 62.4738 64.34 62.2686 64.6014 62.0675C64.6101 62.0613 64.6187 62.0552 64.6295 62.049C64.7375 61.9834 64.7375 61.9813 64.8412 62.0572C65.0551 62.2173 65.2625 62.3814 65.4613 62.5558C65.6816 62.7487 65.8933 62.9498 66.0986 63.157C66.2368 63.2966 66.3664 63.4443 66.4939 63.5941C66.5155 63.6187 66.5155 63.6392 66.4961 63.6659C66.3988 63.8136 66.3016 63.9614 66.226 64.1214C66.2023 64.1748 66.1915 64.1748 66.1569 64.1296C65.9084 63.8157 65.6319 63.5243 65.336 63.2473C65.1545 63.077 64.9665 62.9088 64.7721 62.7508C64.7397 62.7261 64.7203 62.722 64.6879 62.7487C64.4848 62.9149 64.2882 63.0873 64.0981 63.2658C63.8626 63.4894 63.6358 63.7213 63.4284 63.9696C63.1864 64.2589 62.9639 64.5626 62.7997 64.9011C62.6917 65.1248 62.6139 65.3566 62.6118 65.6049C62.6096 65.8799 62.6679 66.1446 62.7824 66.399C62.9466 66.7601 63.1994 67.0515 63.5386 67.2731C63.774 67.427 64.0333 67.5316 64.3141 67.5829C64.6425 67.6445 64.9665 67.6342 65.2863 67.5501C65.5974 67.468 65.876 67.3285 66.1202 67.1233C66.4248 66.8668 66.6386 66.5549 66.7575 66.1856C66.8158 66.005 66.8439 65.8183 66.8439 65.6275C66.8417 65.2007 66.9433 64.7944 67.1528 64.4169C67.3559 64.0455 67.641 63.7418 67.9997 63.4997C68.3885 63.2371 68.8228 63.0832 69.2937 63.0401C69.8964 62.9847 70.4625 63.1037 70.9831 63.4053C71.4087 63.6515 71.7392 63.9839 71.9725 64.4025C72.141 64.7041 72.2426 65.0242 72.2771 65.3669C72.3182 65.7855 72.2577 66.1897 72.0957 66.5796C71.9444 66.9407 71.7155 67.2526 71.4152 67.5152C71.0371 67.8476 70.5942 68.0631 70.0844 68.1534C70.0045 68.1677 69.9267 68.178 69.8468 68.1862C69.8035 68.1903 69.7863 68.2108 69.7884 68.2518C69.7906 68.4304 69.7884 68.6068 69.7884 68.7853C69.7884 68.8264 69.7863 68.8674 69.769 68.9064C69.7279 69.0028 69.6329 69.0521 69.5249 69.0336C69.4212 69.0151 69.352 68.9392 69.3499 68.8346C69.3477 68.652 69.3499 68.4673 69.3499 68.2847C69.3499 68.1903 69.3477 68.1903 69.2462 68.1821C68.9805 68.1575 68.7255 68.0877 68.4793 67.9872C68.2481 67.8887 68.0342 67.7656 67.8398 67.6137C67.8074 67.5891 67.7923 67.5686 67.8204 67.5296C67.9197 67.3921 68.0018 67.2444 68.0774 67.0925C68.099 67.0494 68.1185 67.072 68.1401 67.0905C68.341 67.269 68.5722 67.4003 68.8292 67.4947C68.9826 67.5501 69.1403 67.587 69.3023 67.6076C69.3412 67.6117 69.352 67.5994 69.352 67.5665C69.352 67.4639 69.3499 67.3593 69.352 67.2567C69.352 67.2259 69.3348 67.2074 69.3131 67.189C68.9848 66.8771 68.6564 66.5652 68.328 66.2533C68.2567 66.1856 68.2416 66.0892 68.2848 66.0071C68.3259 65.9312 68.4123 65.8881 68.5095 65.8983C68.5657 65.9045 68.6089 65.9332 68.6499 65.9722C68.8638 66.1753 69.0777 66.3805 69.2937 66.5837C69.3088 66.598 69.324 66.6103 69.3369 66.6227C69.3412 66.6186 69.3456 66.6165 69.3499 66.6144Z" fill="#70A742"/>
<path d="M64.5366 65.096C64.5453 65.0447 64.5431 64.9976 64.5431 64.9524C64.5431 64.6549 64.5431 64.3574 64.5431 64.0619C64.5431 63.9675 64.5971 63.8977 64.6771 63.8793C64.77 63.8567 64.8499 63.8875 64.8931 63.9634C64.9125 63.9983 64.9147 64.0352 64.9147 64.0722C64.9147 64.3964 64.9147 64.7206 64.9147 65.0427C64.9147 65.0591 64.9169 65.0735 64.9169 65.0899C64.9406 65.096 64.9493 65.0776 64.9601 65.0673C65.0789 64.9545 65.1977 64.8416 65.3187 64.7288C65.3316 64.7164 65.3424 64.7062 65.3554 64.6959C65.4353 64.6323 65.5455 64.6344 65.6103 64.698C65.6816 64.7677 65.6859 64.8765 65.6125 64.9483C65.4699 65.0878 65.3252 65.2233 65.1804 65.3607C65.1026 65.4346 65.027 65.5064 64.9493 65.5803C64.9255 65.6029 64.9147 65.6275 64.9147 65.6603C64.9147 65.8634 64.9147 66.0666 64.9147 66.2677C64.9147 66.282 64.9061 66.3026 64.9255 66.3108C64.9428 66.3169 64.9493 66.2964 64.9579 66.2882C65.2193 66.042 65.4807 65.7937 65.7421 65.5495C65.8393 65.4592 65.9754 65.4777 66.0381 65.5803C66.0791 65.6501 66.064 65.7403 65.9949 65.8039C65.8782 65.9147 65.7616 66.0235 65.6449 66.1343C65.4353 66.3354 65.2258 66.5365 65.0162 66.7355C64.9687 66.7806 64.919 66.8237 64.8715 66.8689C64.7808 66.953 64.6749 66.953 64.5842 66.8689C64.3789 66.6739 64.1737 66.479 63.9685 66.2841C63.8 66.124 63.6315 65.964 63.4629 65.806C63.4176 65.7629 63.3917 65.7096 63.396 65.648C63.4025 65.5823 63.437 65.5331 63.5018 65.5085C63.5753 65.4777 63.6466 65.488 63.7071 65.5372C63.7524 65.5762 63.7956 65.6193 63.8388 65.6603C64.057 65.8655 64.2731 66.0727 64.4913 66.2779C64.5042 66.2902 64.5129 66.3128 64.5345 66.3046C64.5496 66.2984 64.5431 66.2759 64.5431 66.2595C64.5431 66.0584 64.5431 65.8573 64.5431 65.6562C64.5431 65.6172 64.5302 65.5885 64.5021 65.5618C64.2947 65.3669 64.0894 65.1699 63.8821 64.975C63.8453 64.9401 63.8108 64.9073 63.8021 64.856C63.7892 64.7739 63.8259 64.698 63.8993 64.6631C63.9728 64.6282 64.0592 64.6446 64.1197 64.7041C64.2515 64.8293 64.3833 64.9565 64.5172 65.0817C64.5172 65.0878 64.5237 65.0899 64.5366 65.096Z" fill="#70A742"/>
</svg>
