<svg width="169" height="53" viewBox="0 0 169 53" fill="none" xmlns="http://www.w3.org/2000/svg">
<g clip-path="url(#clip0_2682_18247)">
<path fill-rule="evenodd" clip-rule="evenodd" d="M56.7246 23.5696C46.3154 28.1551 43.7246 38.977 45.4671 49.4549C51.3136 44.7318 53.9274 35.8588 51.0385 28.6366C52.46 26.619 54.3401 24.9223 56.7246 23.5696ZM36.0438 42.8747C36.0209 42.6683 35.9979 42.4849 35.9521 42.2786C33.1549 44.1586 31.1143 46.3826 29.8304 49.0422C30.0138 49.0193 30.2202 49.0193 30.4265 48.9964C32.3983 48.7671 33.9345 48.6754 35.2872 48.8359C35.7457 48.8817 36.1584 48.9505 36.5711 49.0652C36.4794 46.8641 36.3189 44.8006 36.0438 42.8747ZM34.8516 37.1428C31.9856 39.2521 29.8992 42.5308 28.6611 46.8183C28.6382 46.8641 28.6382 46.91 28.6152 46.9558C28.4089 47.6437 28.2484 48.3544 28.0879 49.0881C28.1567 49.0881 28.2484 49.0881 28.3401 49.0881C29.8992 45.328 32.4671 42.9664 35.9521 42.1869C35.654 40.3985 35.3101 38.7248 34.8516 37.1428Z" fill="#00783F"/>
<path fill-rule="evenodd" clip-rule="evenodd" d="M33.8189 34.0706C33.7501 34.0935 33.6813 34.1164 33.6354 34.1393C33.5667 34.1623 33.4749 34.2081 33.4062 34.2311C33.131 34.3457 32.8788 34.4145 32.5808 34.2769C32.5578 34.254 32.6266 34.1852 32.7413 34.0935C32.8559 34.0247 32.9705 33.933 33.0164 33.933C33.154 33.8871 33.2457 33.8642 33.3374 33.8413C33.4291 33.8184 33.4979 33.8413 33.5437 33.8413C33.6125 33.8413 33.6584 33.8642 33.7042 33.8871C33.7271 33.8871 33.7271 33.8871 33.7501 33.9101C33.7271 33.8413 33.6813 33.7725 33.6584 33.6808C33.6125 33.7037 33.5437 33.7037 33.4979 33.7266C33.452 33.7266 33.4062 33.7266 33.3374 33.7266C33.2915 33.7266 33.2227 33.7266 33.154 33.7266C33.1769 33.6579 33.1998 33.612 33.2457 33.5662C33.2686 33.5203 33.3144 33.4744 33.3374 33.4286C33.3832 33.3598 33.452 33.291 33.4979 33.2452C33.452 33.1535 33.4291 33.0617 33.3832 32.97C33.3603 33.0388 33.3374 33.0847 33.3144 33.1535C33.2915 33.2222 33.2915 33.2681 33.2686 33.3369C33.2457 33.4057 33.2227 33.4515 33.1769 33.5432C33.131 33.612 33.0622 33.7037 32.9705 33.8184C32.9476 33.8413 32.833 33.9559 32.7183 34.0476C32.6266 34.1393 32.512 34.2081 32.512 34.1852C32.4432 33.8642 32.5808 33.612 32.833 33.3598C32.9705 33.2222 33.154 33.0617 33.3603 32.9242C33.3144 32.8325 33.2686 32.7408 33.2457 32.649C32.6725 31.4797 32.1451 30.5168 31.6407 29.7143C31.6407 29.7143 31.6407 29.7143 31.6407 29.6914C31.549 29.5538 31.4573 29.4162 31.3885 29.2787C31.2968 29.1411 31.228 29.0265 31.1363 28.9118C31.0446 28.7743 30.9529 28.6367 30.8612 28.5221C30.0587 27.3528 29.4855 26.8025 29.4167 26.7337V26.7108C28.7748 26 28.0869 25.3351 27.3532 24.739C26.2527 23.8219 25.0605 23.0423 23.7536 22.3774C23.2033 22.8131 22.6301 23.2945 22.1028 23.8448C21.2316 24.739 20.4749 25.7249 19.833 26.7796C20.8189 26.5044 22.6072 26.2064 25.4732 26.5503C25.4732 26.5503 20.4749 27.7425 19.833 29.164C19.191 30.5626 19.6954 31.5027 20.9793 33.2452C22.1716 34.873 23.1804 37.1199 22.7677 40.0547C22.7448 40.261 22.6989 40.4903 22.6531 40.6967L22.7219 40.6508L24.1434 39.5732C24.1434 39.5732 23.3638 42.3016 23.4555 44.8695C23.5014 46.2681 24.0517 48.0106 26.2986 48.7443C26.482 47.0935 26.8259 45.672 27.2615 44.388V44.3651C27.3074 44.2275 27.3762 44.0441 27.445 43.8607C27.4908 43.769 27.5137 43.6773 27.5367 43.6085C27.5596 43.5626 27.5825 43.5168 27.6055 43.4709C27.6055 43.448 27.6284 43.4251 27.6284 43.4021C27.6284 43.3792 27.6513 43.3563 27.6513 43.3104V43.2875C27.9264 42.6455 28.2474 42.0494 28.5913 41.4991C28.5455 41.3157 28.4767 41.1094 28.4079 40.9259C28.4767 41.0635 28.5684 41.224 28.6372 41.3845C28.8435 41.0635 29.027 40.7654 29.2333 40.4903C29.2333 40.3528 29.2104 40.2152 29.2104 40.0776C29.1645 40.2152 29.0958 40.3528 29.004 40.4674C28.8665 40.6279 28.7518 40.8342 28.5684 40.9489C28.4996 40.9947 28.3621 40.5132 28.3391 40.3986C28.3162 40.284 28.1786 39.7796 28.1786 39.6878C28.1786 39.2064 28.1786 38.7707 28.2933 38.358C28.4079 37.9453 28.5913 37.7619 28.6831 37.3492C28.7289 37.1429 28.7518 36.7302 28.6831 36.5238C28.6143 36.3175 28.6143 35.9736 28.6372 36.0194C28.7748 36.478 28.8435 37.0053 28.9582 37.4639C29.027 37.6931 29.0728 37.9224 29.1416 38.1517C29.0958 37.1199 29.0499 36.2487 29.0958 36.2716L29.4397 40.261C29.5543 40.1235 29.6689 39.963 29.7836 39.8254C29.8065 39.4356 29.8524 39.0459 29.9441 38.679C29.9212 38.9771 29.8982 39.3439 29.8753 39.7108C29.9212 39.642 29.9899 39.5732 30.0358 39.5274C32.191 37.0282 34.4379 36.1341 34.5755 36.0882C34.3003 35.3774 34.0711 34.7125 33.8189 34.0706ZM32.7642 32.993C32.6725 33.1305 32.5578 33.2681 32.512 33.3827C32.4432 33.5891 32.4432 33.7037 32.4203 33.8642C32.3973 34.0018 32.3286 34.1623 32.1451 34.4603C32.1222 34.5062 32.0076 34.6438 31.8929 34.7584C31.7783 34.873 31.6866 34.9647 31.6866 34.9418C31.6178 34.7584 31.6178 34.5979 31.6637 34.4374C31.6866 34.3457 31.7095 34.2769 31.7554 34.1852C31.8012 34.0935 31.8471 34.0247 31.9159 33.933C32.1681 33.5891 32.5349 33.2452 32.9476 32.8095C32.9705 32.7866 32.8788 32.8783 32.7642 32.993ZM32.0076 33.2452C32.0305 33.2222 31.9617 33.3369 31.8471 33.4974C31.7554 33.6579 31.6407 33.8642 31.6178 33.9789C31.5719 34.2311 31.5949 34.3686 31.5719 34.552C31.5719 34.7355 31.5032 34.9189 31.3427 35.2857C31.3197 35.3545 31.2051 35.515 31.1134 35.6755C31.0217 35.836 30.93 35.9506 30.907 35.9048C30.6778 35.515 30.7695 35.1252 30.9987 34.7125C31.251 34.2769 31.6178 33.8184 32.0076 33.2452ZM30.1046 35.8589C30.288 35.3545 30.609 34.7813 30.9529 34.0935C30.9758 34.0706 30.907 34.2081 30.8383 34.4145C30.7695 34.6208 30.6778 34.8501 30.6778 34.9877C30.6778 35.1252 30.6778 35.2399 30.7007 35.3316C30.7236 35.4233 30.7236 35.515 30.7465 35.6067C30.7695 35.7901 30.7465 36.0194 30.6319 36.455C30.609 36.5009 30.5861 36.5697 30.5631 36.6614C30.5402 36.7531 30.4943 36.8448 30.4485 36.9365C30.3797 37.1199 30.288 37.2804 30.2651 37.2346C29.8982 36.8219 29.9212 36.3863 30.1046 35.8589ZM29.1187 33.3827C29.1416 33.314 29.1645 33.1764 29.1645 33.0847C29.1645 33.0159 29.1645 32.9242 29.1645 32.9013C29.2104 33.1993 29.2562 33.5432 29.2792 33.8413C29.2792 34.1393 29.1875 34.3228 28.9582 34.5062C28.9353 34.5291 28.8894 34.3916 28.8894 34.3686C28.8894 34.3457 28.8665 34.254 28.8665 34.2311C28.8665 34.2081 28.8665 34.1393 28.8665 34.1393C28.8894 33.9789 28.9123 33.8413 28.9582 33.7266C28.9811 33.6579 29.004 33.6349 29.0499 33.5891C29.0728 33.5203 29.0958 33.4744 29.1187 33.3827ZM27.3991 32.6949C27.445 32.7408 27.5596 32.7866 27.6055 32.8095C27.7201 32.8554 27.7889 32.8325 27.9264 32.8783C28.0411 32.9012 28.1557 32.97 28.2704 33.0617C28.2933 33.0847 28.3621 33.1993 28.385 33.2222C28.4079 33.2452 28.4538 33.3598 28.4308 33.3598C28.3162 33.3827 28.2245 33.3598 28.1328 33.314C28.0869 33.291 28.064 33.2681 28.0182 33.2452C27.9723 33.2222 27.9494 33.1993 27.9035 33.1535C27.7201 32.97 27.5367 32.8095 27.3074 32.649C27.3074 32.649 27.3762 32.672 27.3991 32.6949ZM27.2157 32.3281C27.1698 32.3051 27.101 32.2822 27.0552 32.2593C27.0781 32.2593 27.1469 32.2822 27.1698 32.2822C27.1928 32.2822 27.2386 32.3051 27.2615 32.3281C27.2845 32.3281 27.3074 32.351 27.3532 32.351C27.3991 32.351 27.445 32.351 27.4908 32.3739C27.5367 32.3739 27.5596 32.3739 27.6055 32.3739C27.6513 32.3739 27.6742 32.3968 27.743 32.4198C27.7889 32.4427 27.8577 32.4886 27.9264 32.5573C27.9494 32.5803 28.0411 32.6949 28.064 32.7178C28.0869 32.7408 28.1557 32.8325 28.1328 32.8325C27.9035 32.8554 27.7659 32.7866 27.6055 32.649C27.5596 32.6261 27.5367 32.5803 27.4908 32.5344C27.445 32.5115 27.3991 32.4656 27.3532 32.4198C27.3074 32.3968 27.2615 32.3739 27.2157 32.3281ZM27.6284 33.1764C27.6742 33.2222 27.7889 33.2681 27.8577 33.291C27.9723 33.3369 28.064 33.3139 28.1786 33.3598C28.2933 33.4057 28.4079 33.4744 28.4996 33.5662C28.5226 33.5891 28.5913 33.7266 28.5913 33.7496C28.6143 33.7725 28.6372 33.9101 28.6143 33.9101C28.3621 33.9101 28.2245 33.8413 28.064 33.6579C28.0182 33.612 27.9952 33.5662 27.9494 33.5203C27.9035 33.4744 27.8806 33.4286 27.8118 33.3827C27.7201 33.2681 27.5825 33.1993 27.4679 33.0847C27.4679 33.0847 27.5825 33.1305 27.6284 33.1764ZM27.8577 33.7266C27.8806 33.7496 28.0182 33.8413 28.064 33.8642C28.1328 33.8871 28.1786 33.8871 28.2474 33.9101C28.3162 33.933 28.3391 33.933 28.4079 33.9559C28.5226 34.0018 28.6372 34.0935 28.7289 34.2081C28.7289 34.2081 28.7518 34.2769 28.7748 34.2998C28.7748 34.3228 28.7977 34.4145 28.8206 34.4145C28.8435 34.4374 28.8665 34.575 28.8435 34.575C28.5684 34.575 28.4309 34.4603 28.2704 34.2769C28.2016 34.1852 28.1557 34.0935 28.064 33.9789C28.0182 33.933 27.9723 33.8642 27.9264 33.8184C27.9035 33.7954 27.8577 33.7496 27.8347 33.7266C27.8118 33.7037 27.743 33.6579 27.743 33.6579C27.743 33.6349 27.8347 33.7037 27.8577 33.7266ZM27.9264 34.2311C27.9494 34.254 27.9723 34.2769 27.9952 34.2998C28.0182 34.3228 28.0869 34.3686 28.1099 34.3916C28.1328 34.4145 28.1786 34.4374 28.2245 34.4603C28.2933 34.4833 28.3391 34.5062 28.4079 34.5291C28.4538 34.552 28.4996 34.552 28.5684 34.575C28.6143 34.5979 28.6831 34.6208 28.7289 34.6667C28.7518 34.6896 28.7748 34.7125 28.7977 34.7584C28.8206 34.8043 28.8435 34.8272 28.8894 34.873C28.9123 34.9189 28.9582 35.0335 28.9582 35.1023C28.9582 35.1482 28.9811 35.2169 28.9811 35.2399C28.9811 35.2628 28.9811 35.3087 28.9582 35.3087C28.6831 35.2399 28.5226 35.1252 28.3621 34.896C28.2933 34.7813 28.2474 34.6667 28.1786 34.552C28.1557 34.4833 28.1099 34.4374 28.064 34.3686C28.0411 34.3457 28.0182 34.3228 27.9723 34.2769C27.9494 34.254 27.9264 34.2081 27.9035 34.1852C27.8806 34.2081 27.9035 34.2311 27.9264 34.2311ZM28.7518 32.5115C28.7289 32.4656 28.706 32.3739 28.706 32.3281C28.8206 32.6261 28.9582 32.9471 29.004 33.2222C29.0499 33.5203 28.9811 33.6579 28.7748 33.8413C28.7518 33.8642 28.706 33.7496 28.706 33.7037C28.706 33.6808 28.6601 33.5203 28.6601 33.4974C28.6601 33.3369 28.6601 33.2222 28.706 33.0847C28.7518 32.9471 28.7977 32.9012 28.8206 32.7637C28.7977 32.7178 28.7748 32.5803 28.7518 32.5115ZM28.6143 32.7178C28.6372 32.7866 28.6601 32.8095 28.6601 32.8783C28.6601 32.9471 28.6601 32.97 28.6601 33.0159C28.6372 33.1305 28.5913 33.1993 28.4996 33.291C28.4767 33.3139 28.4309 33.1993 28.4079 33.1764C28.4079 33.1535 28.3391 33.0159 28.3391 32.993C28.2933 32.8554 28.2933 32.7408 28.2933 32.6261C28.2933 32.5115 28.3162 32.4198 28.2933 32.2822C28.2933 32.2134 28.2474 32.0529 28.2245 31.9841C28.2016 31.9383 28.1786 31.8466 28.1786 31.8237C28.3391 32.1676 28.4996 32.4427 28.6143 32.7178ZM27.7659 31.4568C27.9494 31.6861 28.064 31.9841 28.1786 32.2134C28.2933 32.4427 28.3621 32.5803 28.2245 32.7866C28.2016 32.8095 28.1328 32.6949 28.1328 32.672C28.1099 32.649 28.0411 32.5115 28.0182 32.4886C27.9952 32.3968 27.9494 32.3281 27.9494 32.2593C27.9494 32.1905 27.9264 32.1446 27.9494 32.0988C27.9494 32.0529 27.9494 32.0071 27.9723 31.9612C27.9723 31.9154 27.9723 31.8466 27.9723 31.8007C27.9723 31.7549 27.9723 31.7319 27.9494 31.6861C27.9264 31.6402 27.9035 31.5944 27.8806 31.5714C27.8118 31.5485 27.7659 31.4568 27.7659 31.4568ZM26.8488 31.4797C27.0781 31.5944 27.3303 31.6632 27.5596 31.7778C27.6055 31.8007 27.6513 31.8236 27.6972 31.8695C27.743 31.9154 27.7659 31.9383 27.7889 32.0071C27.8118 32.0529 27.8347 32.1446 27.8577 32.1905C27.8577 32.2363 27.8806 32.2593 27.8806 32.3051C27.8806 32.351 27.8806 32.3968 27.8806 32.4427C27.8347 32.4198 27.8118 32.4198 27.7659 32.3968C27.7201 32.3739 27.7201 32.3739 27.6742 32.351C27.6284 32.3281 27.5825 32.2822 27.5367 32.2593C27.4908 32.2363 27.4679 32.1905 27.445 32.1446C27.422 32.0988 27.3991 32.0759 27.3762 32.03C27.3532 31.9841 27.3303 31.9383 27.3074 31.8924C27.2845 31.8466 27.2386 31.8007 27.2157 31.7549C27.1928 31.709 27.124 31.6632 27.0781 31.6173C26.9864 31.5485 26.9176 31.5027 26.8488 31.4797ZM26.3215 33.4744C26.6425 34.1393 26.9864 34.873 27.2157 35.515C27.422 36.1799 27.3074 36.6614 26.9635 37.2117C26.9405 37.2575 26.7342 37.0053 26.7113 36.9365C26.7113 36.8907 26.5966 36.7072 26.5737 36.6614C26.5508 36.5926 26.5049 36.478 26.482 36.4321C26.4132 36.0882 26.3674 35.7443 26.4132 35.4233C26.4361 35.2628 26.482 35.194 26.5049 35.0335C26.5279 34.873 26.5737 34.7584 26.5737 34.575C26.5737 34.3916 26.5279 34.0476 26.4591 33.8871C26.3903 33.7266 26.3215 33.4744 26.3215 33.4744ZM26.161 34.2998C26.4591 34.9189 26.3903 35.2857 26.0922 35.8589C26.0693 35.9048 25.8859 35.6755 25.84 35.6067C25.7942 35.5379 25.6107 35.2399 25.5878 35.194C25.4502 34.8501 25.3815 34.575 25.3815 34.254C25.3815 33.933 25.4732 33.7954 25.4044 33.4515C25.3815 33.291 25.221 32.97 25.1063 32.8325C24.9917 32.7178 24.8771 32.4886 24.8541 32.4656C25.3585 33.0159 25.8629 33.6808 26.161 34.2998ZM23.5014 31.709C23.9829 32.3281 24.5331 32.8554 25.0146 33.4057C25.1293 33.5432 25.1751 33.612 25.221 33.7266C25.2898 33.8413 25.3127 33.933 25.3127 34.0476C25.3356 34.2998 25.2898 34.5291 25.1522 34.7584C25.1293 34.8043 24.9458 34.6208 24.9 34.552C24.8541 34.4833 24.6478 34.2311 24.6249 34.1852C24.4414 33.9101 24.3497 33.6808 24.3039 33.3827C24.2351 33.1076 24.2122 32.9242 24.0975 32.6261C24.0517 32.4886 23.8682 32.1676 23.7307 32.03C23.5931 31.9383 23.4785 31.6632 23.5014 31.709ZM22.2404 31.1587C22.7906 31.5256 23.2721 32.0988 23.6619 32.5573C24.0517 33.0159 24.3039 33.2681 24.1663 33.8413C24.1434 33.9101 23.9141 33.7266 23.8682 33.6808C23.7995 33.6349 23.5473 33.4057 23.5014 33.3598C23.3638 33.1993 23.2492 33.0388 23.1804 32.9013C23.1116 32.7637 23.0658 32.672 23.0428 32.5573C23.0199 32.4427 22.997 32.351 22.9741 32.2364C22.9511 32.1217 22.9282 31.9841 22.8823 31.8695C22.8365 31.7778 22.8136 31.709 22.7448 31.6173C22.676 31.5485 22.5843 31.4339 22.5155 31.388C22.355 31.3192 22.1945 31.1358 22.2404 31.1587ZM20.7042 31.9612C20.5667 31.9154 20.3603 31.8695 20.1998 31.8466C20.773 31.9383 21.392 31.9383 21.9652 32.0071C22.1028 32.03 22.1945 32.0529 22.3321 32.0988C22.4467 32.1446 22.5384 32.2363 22.6301 32.3281C22.7219 32.4198 22.8365 32.5803 22.8823 32.6949C22.9511 32.7866 22.9741 32.8554 23.0199 32.9471C23.0658 33.0388 23.0887 33.1305 23.1346 33.2222C23.0428 33.2222 22.9511 33.1993 22.8594 33.1993C22.7677 33.1764 22.7219 33.1764 22.6072 33.1535C22.4926 33.1305 22.3321 33.0847 22.2404 33.0388C22.1257 32.993 22.034 32.9242 21.9423 32.8554C21.8506 32.7866 21.7589 32.7178 21.6901 32.649C21.5984 32.5803 21.5296 32.4886 21.4379 32.4198C21.3462 32.351 21.2545 32.2593 21.1169 32.1905C20.9793 32.0759 20.8418 32.03 20.7042 31.9612ZM21.1628 33.4286C21.1857 33.4286 21.392 33.4286 21.4379 33.4286C21.4838 33.4286 21.6213 33.4286 21.6901 33.4515C21.7589 33.4515 21.8277 33.4515 21.9194 33.4515C22.0111 33.4515 22.1257 33.4057 22.2174 33.3827C22.3092 33.3598 22.3779 33.3369 22.4926 33.3369C22.6072 33.3369 22.676 33.3139 22.8136 33.3598C22.9511 33.3827 23.1346 33.4515 23.318 33.5432C23.3638 33.5662 23.6619 33.7496 23.7307 33.7954C23.7995 33.8184 24.0058 34.0018 23.9599 34.0247C23.4785 34.2311 23.1116 34.1623 22.6531 33.9789C22.5384 33.933 22.4467 33.8642 22.3092 33.8184C22.1945 33.7725 22.0799 33.7037 21.9423 33.6579C21.8277 33.612 21.6901 33.5662 21.5525 33.5203C21.4608 33.4515 21.3003 33.4515 21.1628 33.4286ZM22.2862 34.1852C22.4238 34.2311 22.6989 34.2769 22.8365 34.2769C23.1346 34.2769 23.2721 34.2081 23.5702 34.2081C23.8682 34.2081 24.1434 34.254 24.4644 34.3916C24.5102 34.4145 24.7624 34.6208 24.8312 34.6667C24.9 34.7125 25.0605 34.9189 25.0146 34.9418C24.7624 35.0565 24.5561 35.0794 24.3039 35.0794C24.1892 35.0794 24.0975 35.0335 23.9829 35.0106C23.8682 34.9647 23.7995 34.9418 23.6619 34.873C23.1116 34.6208 22.5843 34.3457 21.9882 34.1393C21.9194 34.1164 22.1487 34.1393 22.2862 34.1852ZM22.7448 35.0335C22.6989 35.0106 22.9511 35.0565 23.0887 35.1252C23.2263 35.194 23.5473 35.2399 23.6848 35.2399C23.9829 35.2399 24.1434 35.1711 24.4644 35.1711C24.7624 35.1711 25.0376 35.2399 25.3356 35.4233C25.3815 35.4462 25.6337 35.6984 25.6795 35.7672C25.7483 35.8131 25.8859 36.0653 25.84 36.0882C25.2898 36.2716 24.9 36.1799 24.4185 35.9048C24.3039 35.836 24.2122 35.7672 24.0746 35.6984C23.9599 35.6296 23.8453 35.5609 23.7077 35.4692C23.4097 35.2628 23.0658 35.1711 22.7448 35.0335ZM23.9141 36.157C23.8453 36.1341 23.6848 36.0653 23.6619 36.0653C23.6848 36.0653 23.937 36.1341 24.0058 36.157C24.0975 36.1799 24.4414 36.3175 24.6019 36.3175C24.7624 36.3175 24.8771 36.3175 25.0146 36.2945C25.1522 36.2716 25.221 36.2716 25.3815 36.2716C25.7025 36.2945 25.9776 36.4092 26.2527 36.6155C26.2756 36.6385 26.3674 36.7302 26.4132 36.776C26.4591 36.8219 26.5508 36.9824 26.5966 37.0282C26.6654 37.0741 26.803 37.3722 26.7342 37.3722C26.1381 37.5326 25.7254 37.3951 25.2439 37.0741C24.9917 36.9136 24.8312 36.7302 24.6019 36.5468C24.4873 36.455 24.3268 36.3404 24.1892 36.2716C24.0746 36.2487 23.9829 36.1799 23.9141 36.157ZM24.6249 37.3951C24.5561 37.3492 24.4644 37.3034 24.3956 37.2575C24.3726 37.2575 24.4414 37.2575 24.4873 37.2804C24.5331 37.3034 24.6478 37.3492 24.7166 37.3951C24.7853 37.418 24.9458 37.4868 25.0376 37.5097C25.1293 37.5326 25.2439 37.5785 25.3127 37.5785C25.4732 37.6014 25.6107 37.6014 25.7483 37.6014C25.8859 37.6014 25.9776 37.6014 26.1381 37.6014C26.2756 37.6244 26.4132 37.6473 26.5508 37.6931C26.6196 37.7161 26.6883 37.7619 26.7801 37.8307C26.8718 37.8995 26.9405 37.9453 27.0552 38.0371C27.1698 38.1288 27.3074 38.358 27.3762 38.5185C27.422 38.5873 27.4908 38.7478 27.5137 38.7937C27.5367 38.8624 27.5367 38.9312 27.5137 38.9312C26.8488 39 26.4132 38.8395 25.9088 38.4268C25.6566 38.2205 25.4961 38.0141 25.2668 37.7849C25.1522 37.6702 25.0146 37.5785 24.8771 37.4868C24.8083 37.4868 24.7166 37.4409 24.6249 37.3951ZM28.2016 40.4674C28.2474 40.582 28.3621 41.0635 28.2704 41.0864C28.0411 41.1323 27.8806 41.0406 27.6972 40.9947C27.5137 40.9489 27.3762 40.8572 27.2386 40.7425C26.9635 40.5362 26.7801 40.3298 26.5737 40.0776C26.3674 39.8254 26.161 39.5503 25.9088 39.2981C25.6566 39.0459 25.3356 38.7707 25.0376 38.5873C25.0834 38.6102 25.3127 38.7249 25.3815 38.7707C25.4732 38.8166 25.8171 39 25.9776 39.0229C26.3215 39.1147 26.5508 39.0688 26.9176 39.1605C27.2845 39.2522 27.5825 39.4815 27.8577 39.8483C27.9264 39.8942 28.1328 40.3528 28.2016 40.4674ZM27.8118 38.8166C27.7889 38.8395 27.7201 38.7937 27.6972 38.7478C27.6742 38.702 27.5825 38.5415 27.5596 38.4727C27.4908 38.3122 27.3991 38.06 27.3532 37.8995C27.3303 37.739 27.3074 37.6473 27.2845 37.5326C27.2845 37.418 27.2845 37.3263 27.2845 37.2346C27.2845 37.0512 27.3074 36.9136 27.3532 36.776C27.3991 36.6155 27.445 36.5238 27.4908 36.3633C27.5367 36.2028 27.5825 36.0653 27.6284 35.8819C27.6513 35.7901 27.6513 35.6526 27.6513 35.5379C27.6513 35.4233 27.6284 35.2399 27.6055 35.1482C27.5825 35.0565 27.5596 34.873 27.5596 34.8272C27.5596 34.7813 27.5367 34.6896 27.5596 34.7125C27.5825 34.8042 27.6055 34.9647 27.6284 35.0565C27.6513 35.1711 27.6972 35.2857 27.7201 35.3774C27.7659 35.5609 27.7889 35.7672 27.8577 35.9506C27.9723 36.2945 28.1328 36.6155 28.2016 36.9824C28.3621 37.6702 28.2704 38.1975 27.8118 38.8166ZM28.9811 36.2716C28.8894 36.2487 28.8206 36.2028 28.7518 36.157C28.6831 36.1111 28.6372 36.0653 28.5913 35.9965C28.4996 35.8819 28.4538 35.7672 28.4079 35.6296C28.3621 35.4921 28.2933 35.3545 28.2245 35.2169C28.1557 35.0794 28.064 34.9418 27.9723 34.8272C27.9952 34.8501 28.064 34.9189 28.0869 34.9418C28.1099 34.9647 28.2474 35.0794 28.2933 35.1252C28.4309 35.194 28.5226 35.2169 28.6601 35.2857C28.7977 35.3774 28.8894 35.4921 28.9582 35.6984C28.9811 35.7443 29.004 35.9506 29.004 35.9965C29.0499 36.0653 29.027 36.2716 28.9811 36.2716ZM29.0499 35.2399C29.0499 35.2169 29.027 35.1482 29.027 35.1023C29.027 35.0335 29.004 34.896 29.027 34.8501C29.027 34.7813 29.027 34.7355 29.0499 34.6896C29.0499 34.6438 29.0728 34.5979 29.0958 34.575C29.1187 34.5062 29.1416 34.4603 29.1875 34.3916C29.2104 34.3457 29.2562 34.2998 29.3021 34.2311C29.348 34.1852 29.3709 34.1164 29.4167 34.0476C29.4397 34.0247 29.4626 33.9559 29.4626 33.9101C29.4855 33.8642 29.4855 33.7954 29.4855 33.7496C29.4855 33.7037 29.5084 33.6349 29.5084 33.612C29.5084 33.5891 29.5084 33.5662 29.5084 33.5662C29.5084 33.612 29.5084 33.6808 29.5084 33.7266C29.5084 33.7725 29.5084 33.8184 29.5084 33.8642C29.5084 33.9559 29.4855 34.0247 29.4855 34.1164C29.4855 34.2769 29.5084 34.4374 29.5084 34.575C29.4855 34.896 29.3709 35.1023 29.1187 35.2857C29.0728 35.2857 29.0499 35.2628 29.0499 35.2399ZM29.0958 35.9965C29.0958 35.9506 29.0958 35.7214 29.1187 35.6755C29.1875 35.4692 29.2333 35.2857 29.325 35.1482C29.4167 34.9877 29.5085 34.9418 29.6002 34.7813C29.646 34.7125 29.7148 34.5291 29.7148 34.4374C29.7148 34.3457 29.7377 34.2311 29.7607 34.2311C29.7607 34.4374 29.7148 34.6667 29.7148 34.8501C29.7148 35.0565 29.7148 35.2169 29.6689 35.4004C29.646 35.5838 29.6231 35.7214 29.5314 35.8819C29.4855 35.9506 29.4397 36.0194 29.3709 36.0653C29.3021 36.1111 29.2333 36.1799 29.1416 36.2028C29.0728 36.2716 29.0958 36.0423 29.0958 35.9965ZM29.8294 38.679C29.8065 38.7478 29.7836 38.7937 29.7607 38.7707C29.325 38.4498 29.2333 37.9453 29.325 37.3492C29.3709 37.0512 29.4626 36.7302 29.5543 36.3863C29.6002 36.2028 29.6689 36.0423 29.7148 35.836C29.7377 35.7443 29.7836 35.6526 29.8065 35.5609C29.8294 35.4692 29.8524 35.3545 29.8982 35.2628C29.9211 35.2399 29.8982 35.2857 29.8982 35.3316C29.8753 35.4004 29.8524 35.4921 29.8294 35.6067C29.8065 35.7214 29.7836 35.836 29.7607 35.9506C29.7377 36.0653 29.7377 36.1799 29.7607 36.2487C29.7836 36.4092 29.8065 36.5238 29.8294 36.6155C29.8524 36.7072 29.8982 36.8219 29.9211 36.9136C29.9441 37.0053 29.967 37.1199 29.967 37.2804C29.967 37.3492 29.967 37.4409 29.967 37.5326C29.967 37.6244 29.967 37.739 29.9441 37.8536C29.9441 37.9453 29.8982 38.1975 29.8524 38.4039C29.8753 38.5185 29.8524 38.6102 29.8294 38.679ZM32.0764 36.6614C32.0076 36.7072 31.9617 36.7531 31.8929 36.799C31.8241 36.8448 31.7783 36.8907 31.7324 36.9595C31.6178 37.0741 31.5261 37.1658 31.4573 37.2804C31.2739 37.5097 31.1592 37.7161 31.0217 37.9224C30.7695 38.3351 30.5402 38.6332 30.0129 38.7937C29.9899 38.7937 29.9899 38.7707 29.9899 38.679C29.9899 38.6102 30.0129 38.5185 30.0358 38.4039C30.0816 38.1975 30.1734 37.9683 30.2192 37.8995C30.288 37.8078 30.3338 37.7161 30.4026 37.6473C30.4485 37.5785 30.5173 37.5097 30.5631 37.4639C30.6548 37.3721 30.7465 37.3034 30.8383 37.2804C30.93 37.2346 31.0217 37.2117 31.1134 37.1887C31.2051 37.1658 31.3197 37.1199 31.4344 37.0741C31.4802 37.0512 31.5719 37.0053 31.6407 36.9595C31.7095 36.9136 31.8012 36.8448 31.87 36.799C31.9388 36.7531 32.0076 36.7072 32.0534 36.6614C32.0534 36.6614 32.0764 36.6385 32.0764 36.6614ZM32.489 35.7901C32.4203 35.836 32.3744 35.8589 32.3056 35.9048C32.191 35.9736 32.0993 36.0653 31.9846 36.157C31.7783 36.3404 31.6178 36.5238 31.4802 36.6843C31.1592 37.0053 30.8841 37.2575 30.4026 37.2804C30.3568 37.2804 30.4026 37.1199 30.4943 36.9595C30.5402 36.8677 30.5861 36.776 30.6319 36.7072C30.6778 36.6385 30.7236 36.5697 30.7465 36.5468C31.0446 36.2258 31.228 36.1341 31.4114 36.0882C31.5032 36.0653 31.5719 36.0653 31.6637 36.0423C31.7554 36.0423 31.8471 36.0194 31.9617 35.9965C32.0764 35.9736 32.2598 35.8819 32.3973 35.7901C32.5578 35.7214 32.6725 35.6526 32.6495 35.6984C32.6266 35.7214 32.5578 35.7443 32.489 35.7901ZM32.6725 35.2628C32.5808 35.3316 32.4891 35.4004 32.3973 35.4692C32.3056 35.5379 32.2139 35.6067 32.1451 35.6526C31.8241 35.9048 31.5261 36.0653 31.0905 36.0194C31.0446 36.0194 31.1134 35.8818 31.228 35.7443C31.3427 35.6067 31.4573 35.4692 31.5261 35.4233C31.8241 35.194 32.0076 35.1482 32.1681 35.1252C32.3286 35.1023 32.4661 35.1482 32.6954 35.1252C32.81 35.1252 32.9705 35.0565 33.1081 35.0106C33.2457 34.9647 33.3603 34.9418 33.3374 34.9418C33.0852 35.0106 32.8559 35.1252 32.6725 35.2628ZM32.7413 34.8501C32.6725 34.896 32.5808 34.9418 32.512 34.9647C32.4432 35.0106 32.3744 35.0335 32.2827 35.0565C32.1222 35.1023 31.9617 35.1023 31.7783 35.0565C31.7324 35.0565 31.8241 34.9418 31.9388 34.8272C32.0534 34.7125 32.1681 34.6208 32.2368 34.5979C32.5349 34.4374 32.6954 34.4145 32.833 34.4145C32.9705 34.4145 33.0852 34.4603 33.2686 34.4603C33.3603 34.4603 33.5208 34.4374 33.6354 34.4145C33.773 34.3916 33.8647 34.3916 33.8418 34.3916C33.4062 34.4374 33.0622 34.6667 32.7413 34.8501Z" fill="#5BB447"/>
<path d="M37.831 9.7442C36.8451 9.60663 36.7305 17.5396 36.7305 17.5396C36.7305 17.5396 38.8857 9.88177 37.831 9.7442Z" fill="#F89A1C"/>
<path d="M33.4988 11.9451C32.811 11.9681 33.6823 17.3331 33.6823 17.3331C33.6823 17.3331 34.2096 11.9222 33.4988 11.9451Z" fill="#F89A1C"/>
<path d="M28.9802 9.99633C28.0172 10.2027 30.608 17.7 30.608 17.7C30.608 17.7 30.0119 9.76705 28.9802 9.99633Z" fill="#F89A1C"/>
<path d="M25.818 13.963C25.2448 14.1923 27.6751 18.5486 27.6751 18.5486C27.6751 18.5486 26.437 13.7337 25.818 13.963Z" fill="#F89A1C"/>
<path d="M24.6478 17.0583C24.3727 17.2187 25.9317 19.2364 25.9317 19.2364C25.9317 19.2364 24.9459 16.8748 24.6478 17.0583Z" fill="#F89A1C"/>
<path d="M28.4086 15.4761C28.1106 15.5678 29.2111 17.8835 29.2111 17.8835C29.2111 17.8835 28.7296 15.3844 28.4086 15.4761Z" fill="#F89A1C"/>
<path d="M31.9389 14.7423C31.6179 14.7653 32.1223 17.2873 32.1223 17.2873C32.1223 17.2873 32.2828 14.7194 31.9389 14.7423Z" fill="#F89A1C"/>
<path d="M35.3323 14.7423C35.0113 14.7194 35.1948 17.2873 35.1948 17.2873C35.1948 17.2873 35.6762 14.7423 35.3323 14.7423Z" fill="#F89A1C"/>
<path d="M38.8861 15.0405C38.5651 14.9488 38.2441 17.4938 38.2441 17.4938C38.2441 17.4938 39.2071 15.1093 38.8861 15.0405Z" fill="#F89A1C"/>
<path d="M42.3017 16.3474C42.0036 16.2099 41.2012 18.6402 41.2012 18.6402C41.2012 18.6402 42.5998 16.485 42.3017 16.3474Z" fill="#F89A1C"/>
<path d="M45.1456 18.021C44.8934 17.8376 43.7012 20.1075 43.7012 20.1075C43.7012 20.1075 45.4207 18.2274 45.1456 18.021Z" fill="#F89A1C"/>
<path d="M48.0564 20.314C47.8271 20.0847 46.1992 22.0565 46.1992 22.0565C46.1992 22.0565 48.2856 20.5662 48.0564 20.314Z" fill="#F89A1C"/>
<path d="M50.4877 23.0192C50.3043 22.7441 48.3555 24.3949 48.3555 24.3949C48.3555 24.3949 50.6712 23.2943 50.4877 23.0192Z" fill="#F89A1C"/>
<path d="M51.0601 25.977C50.9684 25.7936 49.5469 26.6649 49.5469 26.6649C49.5469 26.6649 51.1518 26.1834 51.0601 25.977Z" fill="#F89A1C"/>
<path d="M53.5145 23.0422C53.1705 22.492 49.1582 25.7706 49.1582 25.7706C49.1582 25.7706 53.8813 23.6384 53.5145 23.0422Z" fill="#F89A1C"/>
<path d="M53.1708 18.044C52.5059 17.3103 47.3242 23.2945 47.3242 23.2945C47.3242 23.2945 53.8815 18.8236 53.1708 18.044Z" fill="#F89A1C"/>
<path d="M48.5617 16.76C48.0114 16.3244 45.0996 21.1851 45.0996 21.1851C45.0996 21.1851 49.1349 17.2186 48.5617 16.76Z" fill="#F89A1C"/>
<path d="M46.246 12.5414C45.3748 12.0829 42.5547 19.4885 42.5547 19.4885C42.5547 19.4885 47.1632 13.0229 46.246 12.5414Z" fill="#F89A1C"/>
<path d="M41.4998 12.8166C40.812 12.5873 39.7344 18.2505 39.7344 18.2505C39.7344 18.2505 42.2106 13.0688 41.4998 12.8166Z" fill="#F89A1C"/>
<path d="M5.52539 37.2117C5.52539 37.2117 6.05273 32.5803 9.40017 33.8872C9.85872 35.9965 8.16208 36.4322 6.90105 36.7073C6.07566 36.8907 5.52539 37.2117 5.52539 37.2117Z" fill="#53843F"/>
<path d="M9.92786 42.3932C9.92786 42.3932 8.7127 37.8994 12.3123 37.8765C13.5275 39.6648 12.106 40.6966 11.0284 41.4073C10.3176 41.9117 9.92786 42.3932 9.92786 42.3932Z" fill="#8BC53F"/>
<path d="M14.9039 41.1093C14.9039 41.1093 11.3272 38.1287 14.2619 36.0422C16.2795 36.8218 15.7063 38.4726 15.2478 39.6648C14.9497 40.4902 14.9039 41.1093 14.9039 41.1093Z" fill="#53843F"/>
<path d="M9.2408 38.7019C9.2408 38.7019 8.25491 35.0564 11.1667 35.0564C12.1526 36.5008 11.0062 37.3262 10.135 37.9224C9.53886 38.3121 9.2408 38.7019 9.2408 38.7019Z" fill="#53843F"/>
<path d="M7.13142 43.5625C7.13142 43.5625 6.14553 39.917 9.05735 39.917C10.0432 41.3614 8.89685 42.1868 8.0256 42.783C7.42948 43.1727 7.13142 43.5625 7.13142 43.5625Z" fill="#53843F"/>
<path d="M5.64041 40.6507C5.64041 40.6507 5.38821 36.8906 8.25417 37.4638C8.91907 39.0687 7.63512 39.6648 6.67216 40.0775C6.03019 40.3297 5.64041 40.6507 5.64041 40.6507Z" fill="#8BC53F"/>
<path d="M7.22266 28.6597C7.22266 28.6597 10.914 25.8166 12.2897 29.1182C11.0974 30.9066 9.60714 30.0124 8.52953 29.3016C7.81878 28.8431 7.22266 28.6597 7.22266 28.6597Z" fill="#53843F"/>
<path d="M2.38477 27.0089C2.38477 27.0089 6.0532 24.1429 7.47471 27.4674C6.3054 29.2787 4.8151 28.3616 3.71457 27.6509C2.98089 27.1694 2.38477 27.0089 2.38477 27.0089Z" fill="#53843F"/>
<path d="M3.73633 32.7406C3.73633 32.7406 6.37301 30.0351 7.86331 32.5342C7.12963 34.1163 5.82275 33.5431 4.88271 33.1074C4.24074 32.8094 3.73633 32.7406 3.73633 32.7406Z" fill="#53843F"/>
<path d="M0.0234375 34.5291C0.0234375 34.5291 0.59663 30.7919 3.25624 31.9612C3.57723 33.6808 2.17864 33.9788 1.14689 34.1623C0.481991 34.2998 0.0234375 34.5291 0.0234375 34.5291Z" fill="#53843F"/>
<path d="M0 29.9664C0 29.9664 2.63668 27.261 4.12698 29.7601C3.3933 31.3421 2.08642 30.7689 1.14638 30.3333C0.504409 30.0352 0 29.9664 0 29.9664Z" fill="#8BC53F"/>
<path d="M2.98092 37.4639C2.98092 37.4639 2.75165 33.7038 5.61761 34.277C6.28251 35.8819 4.99856 36.478 4.01267 36.8678C3.34777 37.1429 2.98092 37.4639 2.98092 37.4639Z" fill="#8BC53F"/>
<path d="M4.58594 29.8977C4.58594 29.8977 7.7041 27.7654 8.66707 30.5167C7.63532 31.9153 6.46601 31.1128 5.61768 30.4938C5.04449 30.0582 4.58594 29.8977 4.58594 29.8977Z" fill="#8BC53F"/>
<path d="M13.5506 21.9189C13.5506 21.9189 12.152 26.3669 15.7517 26.5045C17.0356 24.762 15.66 23.6844 14.6053 22.9278C13.9175 22.4004 13.5506 21.9189 13.5506 21.9189Z" fill="#53843F"/>
<path d="M8.39062 18.9612C8.39062 18.9612 13.0449 18.6402 12.3571 22.1711C10.3624 22.9965 9.65165 21.4145 9.14724 20.2222C8.80332 19.4427 8.39062 18.9612 8.39062 18.9612Z" fill="#8BC53F"/>
<path d="M10.4785 25.9542C10.4785 25.9542 14.0094 24.6244 14.3074 27.5133C12.9776 28.6368 12.0376 27.5592 11.3498 26.7567C10.8912 26.2064 10.4785 25.9542 10.4785 25.9542Z" fill="#8BC53F"/>
<path d="M6.39648 22.7212C6.39648 22.7212 10.0649 23.6383 8.6434 26.1833C6.90089 26.3438 6.7404 24.9222 6.64869 23.8905C6.57991 23.1797 6.39648 22.7212 6.39648 22.7212Z" fill="#8BC53F"/>
<path d="M3.5312 21.6208C3.5312 21.6208 3.09557 25.3581 5.98446 24.9454C6.74108 23.3634 5.48005 22.7214 4.54002 22.2628C3.89804 21.9648 3.5312 21.6208 3.5312 21.6208Z" fill="#8BC53F"/>
<path d="M5.77734 18.5027C5.77734 18.5027 9.44577 19.4198 8.02426 21.9648C6.28175 22.1253 6.12126 20.7037 6.02955 19.672C5.96076 18.9842 5.77734 18.5027 5.77734 18.5027Z" fill="#53843F"/>
<path d="M8.23047 22.4231C8.23047 22.4231 11.9448 21.8041 11.6696 24.693C10.1335 25.5184 9.42271 24.3032 8.9183 23.3861C8.57438 22.7671 8.23047 22.4231 8.23047 22.4231Z" fill="#53843F"/>
<path d="M19.6029 19.3967C19.6029 19.3967 23.1796 22.4003 20.2219 24.4637C18.2043 23.6842 18.8004 22.0334 19.259 20.8182C19.58 20.0158 19.6029 19.3967 19.6029 19.3967Z" fill="#53843F"/>
<path d="M18.664 13.2292C18.664 13.2292 14.6975 15.6825 17.3113 18.1587C19.4206 17.6772 19.0767 15.9576 18.8016 14.6966C18.6182 13.8483 18.664 13.2292 18.664 13.2292Z" fill="#53843F"/>
<path d="M16.0039 22.0105C16.0039 22.0105 19.7411 22.4461 18.6635 25.1516C16.9669 25.5184 16.623 24.1428 16.3937 23.134C16.2332 22.4232 16.0039 22.0105 16.0039 22.0105Z" fill="#8BC53F"/>
<path d="M12.7246 18.7549C12.7246 18.7549 16.4618 19.1905 15.3842 21.896C13.6876 22.2628 13.3437 20.8872 13.1144 19.8783C12.9768 19.1905 12.7246 18.7549 12.7246 18.7549Z" fill="#53843F"/>
<path d="M16.1875 18.3879C16.1875 18.3879 19.7642 19.5573 18.1822 22.0105C16.4397 22.0334 16.3709 20.6349 16.348 19.5802C16.348 18.8465 16.1875 18.3879 16.1875 18.3879Z" fill="#8BC53F"/>
<path d="M12.9766 15.1323C12.9766 15.1323 16.5991 16.1641 15.1088 18.6632C13.3663 18.7549 13.2517 17.3334 13.1829 16.3016C13.16 15.5909 12.9766 15.1323 12.9766 15.1323Z" fill="#53843F"/>
<path d="M8.91797 15.6366C8.91797 15.6366 12.6781 15.5449 12.0132 18.365C10.3853 18.984 9.83508 17.6542 9.46823 16.6912C9.23896 16.0493 8.91797 15.6366 8.91797 15.6366Z" fill="#8BC53F"/>
<path d="M20.0843 15.1782C20.0843 15.1782 22.9502 17.6315 20.5428 19.2823C18.915 18.6403 19.3964 17.3105 19.7862 16.3246C20.0384 15.6826 20.0843 15.1782 20.0843 15.1782Z" fill="#8BC53F"/>
<path d="M23.7986 16.6914C23.7986 16.6914 20.4283 18.3651 22.3542 20.5433C24.0738 20.314 23.9362 18.9154 23.8216 17.8607C23.7069 17.1729 23.7986 16.6914 23.7986 16.6914Z" fill="#53843F"/>
<path d="M23.1564 41.4304C23.1564 41.4304 20.5198 47.9877 26.3663 49.478C30.3328 50.5098 33.3134 49.1341 36.2023 49.822C39.2058 50.5556 40.3064 52.4816 40.3064 52.4816C36.2023 49.2946 31.2958 52.0001 28.04 51.7708C25.7702 51.6103 23.4086 50.8308 22.2623 47.8272C21.6432 46.2223 21.8037 43.9525 23.1564 41.4304Z" fill="#A87C4F"/>
<path d="M18.5028 27.6048C18.4569 27.9487 18.1588 28.178 17.8379 28.1321C17.4939 28.0863 17.2647 27.7882 17.3105 27.4672C17.3564 27.1233 17.6544 26.8941 17.9754 26.9399C18.2964 26.9628 18.5257 27.2838 18.5028 27.6048Z" fill="#F6921E"/>
<path d="M16.3021 30.8148C16.2562 31.1587 15.9582 31.4109 15.6142 31.3651C15.2703 31.3192 15.0181 31.0212 15.064 30.6772C15.1098 30.3333 15.4079 30.0811 15.7518 30.127C16.0957 30.1499 16.3479 30.4709 16.3021 30.8148Z" fill="#F6921E"/>
<path d="M16.9427 33.8871C16.8968 34.231 16.5988 34.4832 16.2549 34.4373C15.911 34.3915 15.6588 34.0934 15.7046 33.7495C15.7505 33.4056 16.0485 33.1534 16.3924 33.1992C16.7134 33.2451 16.9656 33.5432 16.9427 33.8871Z" fill="#F6921E"/>
<path d="M12.8172 31.067C12.7714 31.4109 12.4733 31.6402 12.1523 31.5943C11.8084 31.5485 11.5791 31.2504 11.625 30.9294C11.6708 30.5855 11.9689 30.3562 12.2899 30.4021C12.6338 30.425 12.8631 30.7231 12.8172 31.067Z" fill="#F6921E"/>
<path d="M22.9269 50.5555C22.904 50.5326 22.904 50.5326 22.9269 50.5555C22.7893 50.4867 20.6341 49.2257 19.8316 46.268C19.1897 43.9065 20.8634 39.0917 18.5248 36.8448C15.3149 33.7724 11.807 36.8218 11.5089 37.074C12.8387 35.5149 14.4207 34.7583 15.7964 34.6896C17.2637 34.6208 18.3643 34.9876 19.2126 35.5837C17.1262 30.7918 10.4772 32.5343 10.0645 32.649C11.3484 32.1446 12.5865 31.8465 13.71 31.7319C13.4578 31.4567 13.2285 31.0899 13.068 30.5855C12.8616 29.9206 12.9304 29.0264 13.4119 28.0864C13.366 28.2239 12.5406 30.5855 14.4436 31.4109C14.8105 31.5714 15.1773 31.6631 15.4983 31.709C16.1174 31.7548 16.6906 31.8694 17.2179 32.0299C17.1033 31.6631 17.0345 31.2733 17.0345 30.8606C16.9428 30.7918 16.874 30.7231 16.8052 30.6543C16.0944 29.8747 15.6359 28.8659 16.4842 27.3527C16.9428 26.5502 17.9516 25.7248 19.4419 25.1746C19.4419 25.1746 15.8422 26.8941 17.195 29.2786C17.2637 29.3703 17.3096 29.485 17.3784 29.5537C17.516 29.3015 17.6535 29.0493 17.8599 28.7742C18.6165 27.8112 20.1756 27.0317 22.4683 26.8483C22.0556 26.9171 16.9886 27.9717 18.754 31.8007C19.0063 32.328 19.2814 32.8095 19.6024 33.2451C19.7629 33.4056 22.4454 36.3862 21.8264 41.0176C21.2302 45.7636 20.8863 46.3597 22.9269 50.5555Z" fill="#6D6E70"/>
<path d="M36.1808 49.8217C33.2919 49.1339 30.3343 50.4866 26.3448 49.4778C20.5212 47.9875 23.135 41.4302 23.135 41.4302C21.7822 43.9522 21.6217 46.2221 22.2408 47.8499C23.3872 50.8535 25.7487 51.633 28.0186 51.7935C31.2743 52.0228 36.1808 49.3173 40.2849 52.5043C40.2849 52.5043 39.1843 50.5554 36.1808 49.8217Z" fill="#6D6E70"/>
<path d="M21.8732 41.0176C22.4923 36.3862 19.8097 33.4056 19.6492 33.2451C19.3283 32.8095 19.0531 32.328 18.8009 31.8007C17.0355 27.9717 22.1025 26.94 22.5152 26.8483C20.2224 27.0317 18.6634 27.7883 17.9067 28.7742C17.7004 29.0264 17.5399 29.3015 17.4253 29.5537C17.3565 29.462 17.3106 29.3703 17.2418 29.2786C15.8891 26.8941 19.4888 25.1746 19.4888 25.1746C17.9755 25.7248 16.9896 26.5502 16.5311 27.3527C15.6828 28.8659 16.1413 29.8977 16.8521 30.6543C16.9209 30.7231 16.9896 30.7918 17.0813 30.8606C17.0584 31.2504 17.1272 31.6402 17.2648 32.0299C16.7374 31.8694 16.1642 31.7548 15.5452 31.709C15.2242 31.6631 14.8574 31.5714 14.4905 31.4109C12.5875 30.5855 13.39 28.2239 13.4588 28.0864C13.0002 29.0264 12.9314 29.9206 13.1149 30.5855C13.2753 31.0899 13.4817 31.4567 13.7568 31.7319C12.6334 31.8465 11.3953 32.1446 10.1113 32.649C10.524 32.5343 17.1731 30.7918 19.2595 35.5837C18.4112 34.9876 17.3106 34.6208 15.8433 34.6896C14.4447 34.7583 12.8627 35.492 11.5558 37.074C11.8538 36.8218 15.3618 33.7724 18.5716 36.8448C20.9103 39.0917 19.2365 43.9065 19.8785 46.268C20.681 49.2257 22.8362 50.4867 22.9508 50.5555C20.8873 46.3597 21.2313 45.7636 21.8732 41.0176Z" fill="#6D6E70"/>
<path d="M15.2249 28.9575C16.0045 29.2785 16.6235 29.5766 16.6235 29.5766C16.6235 29.5766 15.9357 29.4619 15.0645 29.2556L15.2249 28.9575Z" fill="#6D6E70"/>
<path d="M7.19922 45.5115L7.38264 45.6261C7.38264 45.6261 7.24507 45.4198 7.29093 45.1905C7.29093 45.1905 7.45142 45.5573 7.6807 45.5573C7.90998 45.5573 8.46024 46.1076 8.80416 45.8554C9.12515 45.6032 9.5837 45.0758 10.4091 45.0758C11.2345 45.0758 12.1287 45.2134 12.5414 45.1217C12.9541 45.03 13.3668 44.8924 14.1005 44.9612C14.8112 45.03 15.1093 44.8695 15.2927 44.7319C15.4761 44.5944 15.9576 44.2275 15.9576 44.2275C15.9576 44.2275 15.9576 43.6772 16.0952 43.4709C16.2098 43.2645 16.3474 43.6085 16.3474 43.7231L16.4161 43.7002C16.4161 43.7002 16.2327 43.2416 15.8659 43.0353C15.499 42.8289 15.0863 42.9436 14.9258 43.1728C14.9258 43.1728 14.9717 42.8748 15.3385 42.7831C15.7054 42.6914 16.1869 42.7601 16.4849 43.1041C16.4849 43.1041 16.7371 42.9206 16.9206 43.0123C17.104 43.1041 17.2186 43.5397 17.2415 43.7002C17.2415 43.7002 17.3103 43.7231 17.3562 43.769C17.3791 43.8148 17.5855 44.0899 17.5855 44.0899L18.2733 43.8836C18.2733 43.8836 18.2962 44.4339 17.6084 44.5256C17.6084 44.5256 17.6313 44.9153 17.7001 45.0071C17.7689 45.0988 17.9064 45.2593 17.746 45.4656C17.746 45.4656 17.8147 45.649 17.7001 45.7178L17.6772 45.7637C17.6772 45.7637 17.5167 45.9929 17.3791 46.0159C17.2186 46.0617 17.0811 46.0388 17.0811 46.0388C17.0811 46.0388 16.783 46.4744 16.783 46.7496C16.783 46.7496 16.6913 46.5891 16.6913 46.3827L16.6454 46.4974C16.6454 46.4974 16.5996 46.1534 16.6913 45.8554C16.6913 45.8554 16.5996 45.672 16.5308 45.7178C16.4849 45.7407 16.2327 45.97 16.2327 45.97C16.2327 45.97 15.4073 47.575 15.4073 47.6667C15.4073 47.7354 15.3844 47.8501 15.3385 47.8959C15.2927 47.9418 14.8341 48.5608 14.8112 48.5608C14.7883 48.5608 14.8341 48.5379 14.7883 48.5608C14.7195 48.5838 14.3985 48.6526 14.3985 48.6526L14.1005 49.455C14.1005 49.455 14.1234 49.7302 14.0317 49.8448C13.94 49.9824 13.7336 50.8078 13.7565 50.8765C13.7565 50.9453 13.8024 51.1517 13.8024 51.1517C13.8024 51.1517 13.9858 51.4039 14.0087 51.4727C14.0317 51.5414 14.0546 51.7249 14.0546 51.7249H13.6419V51.8395C13.6419 51.8395 13.1604 51.8624 13.1604 51.8395C13.1375 51.8166 12.977 51.5185 12.977 51.4956C12.977 51.4727 12.977 51.1058 12.977 51.1058C12.977 51.1058 12.9999 51.06 12.977 51.037C12.9541 51.0141 13.1604 50.1199 13.1604 50.1199L13.1375 48.7443L13.1833 48.5838C13.1833 48.5838 12.6331 48.836 12.5184 48.8589C12.4267 48.8818 11.5784 48.9048 11.3033 48.8589C11.0281 48.813 10.6154 48.6984 10.6154 48.6984C10.6154 48.6984 10.5467 49.5009 10.5467 49.5926C10.5467 49.6843 10.7989 50.8307 10.8218 50.8765C10.8447 50.9224 11.0281 51.0829 11.0281 51.0829C11.0281 51.1058 11.1428 51.4039 11.1428 51.4039L11.1199 51.4727H10.5925L10.5237 51.2892L10.455 51.2434V51.1058C10.455 51.1058 10.1569 49.9824 10.0881 49.8219C10.0193 49.6843 9.95054 49.4321 9.95054 49.4092C9.95054 49.3862 10.0193 49.1111 10.0193 49.1111L9.56077 48.4691C9.53784 48.4691 9.05636 49.3633 9.03343 49.4321C9.01051 49.5238 8.94172 50.2116 8.94172 50.2116L8.98758 50.9224L9.07929 51.0829L9.171 51.3809L9.14807 51.4727H8.71245L8.66659 51.2205L8.62074 51.1287C8.62074 51.1287 8.66659 49.7989 8.66659 49.7072C8.66659 49.6155 8.59781 49.2945 8.62074 49.2487C8.64366 49.2028 8.89587 48.836 8.94172 48.4233C8.98758 48.0106 8.9188 47.7125 8.73537 47.3915C8.55195 47.0705 8.3456 46.7037 8.39146 46.3827C8.29975 46.4286 7.29093 46.2222 7.19922 45.5115ZM16.8518 43.5855C16.7601 43.127 16.5996 43.2416 16.5996 43.2416L16.8518 43.5855ZM13.3209 51.2205L13.5043 50.1429C13.5043 50.1429 13.298 50.9453 13.298 50.9683C13.298 50.9912 13.3209 51.2205 13.3209 51.2205Z" fill="#6D6E70"/>
<path d="M36.9595 19.2593C36.9366 19.2593 36.8907 19.2364 36.8678 19.2364C36.7532 19.2135 36.6614 19.1905 36.5468 19.1676C35.6068 18.9842 34.9877 18.9612 34.8043 18.9383C34.7584 18.9383 34.7584 18.9383 34.7584 18.9383C32.9242 18.8008 31.0212 19.0071 29.3246 19.4886C27.605 19.9471 25.9771 20.7267 24.5098 21.7126C27.3299 22.8819 29.7144 24.4868 31.7091 26.5274C31.8008 26.6191 31.8925 26.7108 31.9613 26.8025C32.2823 27.1464 32.5803 27.4904 32.8784 27.8343C34.575 29.8748 35.9507 32.2822 37.0512 34.9877C38.4957 34.5292 40.0777 34.2769 41.7743 34.2082H41.8431H42.187L42.1182 34.0247C41.4992 32.5803 42.0724 31.3422 43.2188 30.7002C43.6085 31.5944 43.8378 32.1905 43.5856 33.0159C43.4022 33.5891 43.15 34.0018 42.5997 34.3687L43.6544 37.6473C43.9066 36.6844 44.2047 35.859 44.2964 35.5609C44.2964 35.538 44.3193 35.515 44.3193 35.4921C44.3422 35.4692 44.3422 35.4463 44.3422 35.4463C45.3052 32.9701 46.7267 30.8149 48.6297 28.9807C46.635 24.0512 42.2787 20.3598 36.9595 19.2593ZM40.5591 29.2099C39.6879 27.5133 39.986 26.2064 41.3845 25.4727C42.1641 27.1694 41.8431 28.2699 40.5591 29.2099ZM40.4904 22.8819C41.3158 24.6015 40.9948 25.6791 39.6191 26.5732C38.8396 25.0371 38.8625 23.6614 40.4904 22.8819ZM37.8078 20.635C39.3898 21.6896 39.665 22.7902 38.9313 24.2575C37.4868 23.3175 36.799 22.1253 37.8078 20.635ZM36.2487 23.7302C38.0142 23.3404 38.8854 24.418 39.2293 26.0918C37.5786 26.2293 36.6614 25.5874 36.2487 23.7302ZM37.1659 26.321C38.7249 26.0459 39.7796 26.8713 40.1235 28.7514C38.5186 28.7972 37.6015 28.1553 37.1659 26.321ZM41.0177 31.3422C39.2523 31.3881 38.6791 31.0212 38.06 29.0036C39.665 28.6826 40.7196 29.6226 41.0177 31.3422ZM41.9577 34.0247C41.1553 34.1623 40.6509 34.0018 40.0777 33.612C39.3669 33.1306 39.1835 32.5115 38.9313 31.5715C40.3987 31.3422 41.7285 32.1217 41.9577 34.0247ZM41.4533 31.8008C40.6279 30.2646 40.8572 28.866 42.3246 28.1323C43.1041 30.1041 42.8748 30.7461 41.4533 31.8008Z" fill="#F89A1C"/>
<path d="M43.3112 39.1145C43.3112 39.0916 43.3112 39.0916 43.3112 39.0687V39.0458C43.3112 39.0458 43.3112 39.0458 43.3112 39.0228C43.3112 38.9999 43.3112 38.9999 43.3112 38.977C43.3342 38.9082 43.3342 38.8394 43.3571 38.7706C43.3571 38.7477 43.38 38.7248 43.38 38.6789C43.4029 38.5184 43.4488 38.3808 43.4947 38.2204L42.1878 34.208C42.0502 34.2309 41.9126 34.2539 41.7751 34.2768C40.1472 34.5519 38.634 35.0105 37.2812 35.6525C38.8862 39.7565 39.8721 45.4426 40.1472 50.8994C40.537 51.1974 40.9268 51.5413 41.3395 51.9311C42.0961 51.5872 42.8068 51.1974 43.5176 50.7618C42.8068 46.9329 42.6693 42.6454 43.3112 39.1145Z" fill="#5BB447"/>
<path d="M57.9145 42.8289C56.195 42.8289 55.3008 43.8835 55.3008 45.328C55.3008 46.7495 56.1491 47.7812 57.7311 47.7812C58.6941 47.7812 59.4507 47.3915 59.8175 46.589V46.7724C59.8175 48.5837 59.1985 49.6613 57.3643 49.6613C56.8369 49.6613 56.5159 49.6384 56.0574 49.5696V50.395C56.493 50.4409 56.7911 50.4867 57.3184 50.4867C59.5195 50.4867 60.7117 49.1798 60.7117 46.8412V46.3597C60.7117 44.4796 60.0697 42.8289 57.9145 42.8289ZM57.8458 46.9788C56.7911 46.9788 56.2408 46.2909 56.2408 45.328C56.2408 44.365 56.814 43.6772 57.9145 43.6772C59.1068 43.6772 59.6341 44.4338 59.6341 45.305C59.6341 46.3826 58.8775 46.9788 57.8458 46.9788Z" fill="black"/>
<path d="M63.6016 47.1853V48.0107H67.3617V47.1853H63.6016Z" fill="black"/>
<path d="M69.9531 43.0352V43.8606H71.581V50.4179H72.544V43.0352H69.9531Z" fill="black"/>
<path d="M75.1113 49.5925V49.134C75.1113 48.6525 75.2718 48.4232 75.8909 48.1481L77.2894 47.5061C78.3212 47.0246 78.9861 46.3368 78.9861 45.2592V45.1217C78.9861 43.9294 78.2066 42.8518 76.5328 42.8518C74.8591 42.8518 74.0566 43.9294 74.0566 45.1904H74.9967C74.9967 44.2504 75.5699 43.7001 76.5099 43.7001C77.4499 43.7001 78.0231 44.2504 78.0231 45.1904C78.0231 45.97 77.5875 46.4515 76.9226 46.7495L75.5469 47.3915C74.4693 47.8959 74.1254 48.3315 74.1254 49.2257V50.4409H79.0549V49.6155H75.1113V49.5925Z" fill="black"/>
<path d="M85.7488 43.0352H84.0751L81.3926 50.4179H82.3785L83.158 48.2168H86.6201L87.4226 50.4179H88.4314L85.7488 43.0352ZM83.5019 47.3226L84.6942 43.9293H85.061L86.2991 47.3226H83.5019Z" fill="black"/>
<path d="M91.6878 42.9895H89.418V50.4181H90.4039V47.8502H91.6649C93.4762 47.8502 94.4162 46.9331 94.4162 45.5115V45.3511C94.4391 43.9066 93.4991 42.9895 91.6878 42.9895ZM91.8712 46.9789H90.4268V43.8608H91.8712C92.903 43.8608 93.4303 44.5257 93.4303 45.4198C93.4303 46.2911 92.903 46.9789 91.8712 46.9789Z" fill="black"/>
<path d="M99.1172 47.575C100.034 47.277 100.608 46.5891 100.608 45.4428V45.2823C100.608 43.6773 99.5299 42.9895 97.925 42.9895H95.5176V50.4181H96.5035V47.7585H98.0855L100.08 50.4181H101.295L99.1172 47.575ZM96.4805 46.8643V43.8608H98.0855C99.0026 43.8608 99.5758 44.5027 99.5758 45.374C99.5758 46.2452 99.0026 46.8643 98.0855 46.8643H96.4805Z" fill="black"/>
<path d="M102.189 43.0352V50.4179H103.175V43.0352H102.189Z" fill="black"/>
<path d="M105.925 49.5237V43.0352H104.939V50.4179H109.112V49.5237H105.925Z" fill="black"/>
<path d="M110.167 49.1111L109.227 51.7248L110.006 52.0229L110.969 49.4321L110.167 49.1111Z" fill="black"/>
<path d="M114.845 49.5925V49.134C114.845 48.6525 115.006 48.4232 115.625 48.1481L117 47.5061C118.032 47.0246 118.697 46.3368 118.697 45.2592V45.1217C118.697 43.9294 117.917 42.8518 116.244 42.8518C114.57 42.8518 113.768 43.9294 113.768 45.1904H114.708C114.708 44.2504 115.281 43.7001 116.221 43.7001C117.184 43.7001 117.734 44.2504 117.734 45.1904C117.734 45.97 117.321 46.4515 116.634 46.7495L115.258 47.3915C114.18 47.8959 113.836 48.3315 113.836 49.2257V50.4409H118.766V49.6155H114.845V49.5925Z" fill="black"/>
<path d="M122.708 42.8289C120.599 42.8289 119.682 44.4109 119.682 46.4514V47.0017C119.682 48.9505 120.507 50.6013 122.708 50.6013C124.909 50.6013 125.735 48.9505 125.735 47.0017V46.4514C125.735 44.4109 124.817 42.8289 122.708 42.8289ZM122.708 49.7072C121.31 49.7072 120.668 48.7901 120.668 46.7036C120.668 44.5714 121.332 43.7001 122.708 43.7001C124.084 43.7001 124.749 44.5484 124.749 46.7036C124.749 48.7901 124.107 49.7072 122.708 49.7072Z" fill="black"/>
<path d="M127.798 49.5925V49.134C127.798 48.6525 127.959 48.4232 128.578 48.1481L129.954 47.5061C130.985 47.0246 131.65 46.3368 131.65 45.2592V45.1217C131.65 43.9294 130.871 42.8518 129.197 42.8518C127.523 42.8518 126.721 43.9294 126.721 45.1904H127.661C127.661 44.2504 128.234 43.7001 129.174 43.7001C130.114 43.7001 130.687 44.2504 130.687 45.1904C130.687 45.97 130.252 46.4515 129.587 46.7495L128.211 47.3915C127.133 47.8959 126.789 48.3315 126.789 49.2257V50.4409H131.719V49.6155H127.798V49.5925Z" fill="black"/>
<path d="M137.153 47.8959V45.1904H136.236V47.8959H133.347L133.256 47.7125L136.121 43.3791L135.434 42.8518L132.361 47.4832V48.6754H136.213V50.4179H137.13V48.6754H138.116V47.8959H137.153Z" fill="black"/>
<path d="M130.803 37.5327H92.6055V38.702H130.803V37.5327Z" fill="#F89A1C"/>
<path d="M169 37.5327H130.803V38.702H169V37.5327Z" fill="#00783F"/>
<path d="M92.6057 37.5327H54.4082V38.702H92.6057V37.5327Z" fill="#5BB447"/>
<path d="M57.4805 7.84106V13.2061H58.5122V7.84106H57.4805Z" fill="#F89A1C"/>
<path d="M63.626 7.84106V12.3349H63.5114L61.2645 7.84106H59.5449V13.2061H60.5079V8.71232H60.5996L62.8465 13.2061H64.5661V7.84106H63.626Z" fill="#F89A1C"/>
<path d="M65.1387 7.84106V8.75817H66.6978V13.2061H67.7295V8.75817H69.2886V7.84106H65.1387Z" fill="#F89A1C"/>
<path d="M70.8247 12.3349V10.9363H72.9111V10.0651H70.8247V8.75821H73.0487V7.88696H69.793V13.252H73.0946V12.3808H70.8247V12.3349Z" fill="#F89A1C"/>
<path d="M76.9454 11.2573C77.5873 11.0051 77.9771 10.5007 77.9771 9.69821V9.58357C77.9771 8.39133 77.1517 7.84106 75.8678 7.84106H73.873V13.2291H74.9048V11.4407H75.8678L77.1288 13.2291H78.3439L76.9454 11.2573ZM75.9824 10.5695H74.9277V8.71232H75.9824C76.5556 8.71232 76.9224 9.10209 76.9224 9.65235C76.9224 10.1797 76.5556 10.5695 75.9824 10.5695Z" fill="#F89A1C"/>
<path d="M82.9527 7.84106V12.3349H82.861L80.6141 7.84106H78.8945V13.2061H79.8575V8.71232H79.9492L82.1961 13.2061H83.9157V7.84106H82.9527Z" fill="#F89A1C"/>
<path d="M87.9508 7.84106H86.2541L84.4199 13.2061H85.4517L85.9102 11.7846H88.2718L88.7533 13.2061H89.8309L87.9508 7.84106ZM86.2312 10.9134L86.9649 8.73524H87.24L87.9737 10.9134H86.2312Z" fill="#F89A1C"/>
<path d="M89.3965 7.84106V8.75817H90.9556V13.2061H91.9873V8.75817H93.5464V7.84106H89.3965Z" fill="#F89A1C"/>
<path d="M94.0723 7.84106V13.2061H95.104V7.84106H94.0723Z" fill="#F89A1C"/>
<path d="M98.6809 7.70361C96.8009 7.70361 95.8379 9.12513 95.8379 10.432V10.5925C95.8379 11.7847 96.7321 13.3438 98.6809 13.3438C100.607 13.3438 101.501 11.7847 101.501 10.5925V10.432C101.501 9.12513 100.561 7.70361 98.6809 7.70361ZM98.6809 12.3809C97.5804 12.3809 96.9155 11.5325 96.9155 10.5237C96.9155 9.46905 97.6033 8.66658 98.6809 8.66658C99.7585 8.66658 100.446 9.46905 100.446 10.5237C100.446 11.5325 99.7815 12.3809 98.6809 12.3809Z" fill="#F89A1C"/>
<path d="M106.293 7.84106V12.3349H106.201L103.954 7.84106H102.234V13.2061H103.197V8.71232H103.289L105.536 13.2061H107.256V7.84106H106.293Z" fill="#F89A1C"/>
<path d="M111.293 7.84106H109.596L107.762 13.2061H108.793L109.252 11.7846H111.591L112.072 13.2061H113.15L111.293 7.84106ZM109.573 10.9134L110.307 8.73524H110.582L111.316 10.9134H109.573Z" fill="#F89A1C"/>
<path d="M114.731 12.289V7.84106H113.699V13.2061H116.909V12.289H114.731Z" fill="#F89A1C"/>
<path d="M77.1509 15.2927V21.0017H77.0363L74.1703 15.2927H71.9922V22.1022H73.2303V16.4162H73.3678L76.2338 22.1252H78.4119V15.2927H77.1509Z" fill="#008E00"/>
<path d="M67.4746 15.1094C65.0672 15.1094 63.875 16.9207 63.875 18.5944V18.8007C63.875 20.314 65.0214 22.3087 67.4746 22.3087C69.9279 22.3087 71.0743 20.3369 71.0743 18.8007V18.5944C71.0743 16.9207 69.8591 15.1094 67.4746 15.1094ZM67.4746 21.0706C66.0761 21.0706 65.2048 19.993 65.2048 18.709C65.2048 17.3563 66.0761 16.3475 67.4746 16.3475C68.8503 16.3475 69.7216 17.3563 69.7216 18.709C69.7216 19.993 68.8732 21.0706 67.4746 21.0706Z" fill="#008E00"/>
<path d="M62.2019 19.6491C62.0415 20.5433 61.2848 21.0935 60.276 21.0935C58.9004 21.0935 58.1438 20.0847 58.1438 18.732C58.1438 17.3563 58.8774 16.3704 60.2302 16.3704C61.2161 16.3704 61.9497 16.8748 62.0873 17.8149H63.4171C63.2566 16.2099 62.0644 15.1553 60.2072 15.1553C57.8228 15.1553 56.791 16.9666 56.791 18.6403V18.8008C56.791 20.3369 57.7998 22.3087 60.2531 22.3087C62.2019 22.3087 63.3483 21.0935 63.5318 19.6491H62.2019Z" fill="#008E00"/>
<path d="M83.7082 16.4391V15.3157H79.7188V22.1252H81.0486V19.2822H83.5935V18.1587H81.0486V16.4162H83.7082V16.4391Z" fill="#008E00"/>
<path d="M85.8635 21.0017V19.2134H88.5231V18.1129H85.8635V16.4391H88.6836V15.3157H84.5566V22.1252H88.7524V21.0017H85.8635Z" fill="#008E00"/>
<path d="M93.6594 19.649C94.4848 19.328 94.9663 18.686 94.9663 17.6543V17.4938C94.9663 15.9805 93.9116 15.2698 92.2838 15.2698H89.7617V22.1252H91.0915V19.8553H92.3296L93.9346 22.1252H95.4936L93.6594 19.649ZM92.4213 18.7777H91.0686V16.3932H92.4213C93.155 16.3932 93.6136 16.8747 93.6136 17.5855C93.6365 18.2962 93.155 18.7777 92.4213 18.7777Z" fill="#008E00"/>
<path d="M97.4182 21.0017V19.2134H100.078V18.1129H97.4182V16.4391H100.238V15.3157H96.1113V22.1252H100.307V21.0017H97.4182Z" fill="#008E00"/>
<path d="M106.475 15.3157V21.0247H106.36L103.495 15.3157H101.316V22.1252H102.555V16.4162H102.692L105.558 22.1252H107.736V15.3157H106.475Z" fill="#008E00"/>
<path d="M114.041 19.6491C113.881 20.5433 113.124 21.0935 112.115 21.0935C110.74 21.0935 109.983 20.0847 109.983 18.732C109.983 17.3563 110.717 16.3704 112.069 16.3704C113.055 16.3704 113.789 16.8748 113.927 17.8149H115.256C115.096 16.2099 113.881 15.1553 112.047 15.1553C109.662 15.1553 108.607 16.9666 108.607 18.6403V18.8008C108.607 20.3369 109.616 22.3087 112.092 22.3087C114.041 22.3087 115.188 21.0935 115.371 19.6491H114.041Z" fill="#008E00"/>
<path d="M117.412 21.0017V19.2134H120.072V18.1129H117.412V16.4391H120.232V15.3157H116.105V22.1252H120.301V21.0017H117.412Z" fill="#008E00"/>
<path d="M128.783 20.4745C128.714 20.5203 128.623 20.5433 128.531 20.5433C128.416 20.5433 128.302 20.4974 128.21 20.4057C128.095 20.314 128.05 20.1764 128.05 20.0389C127.683 20.6579 127.018 21.0477 126.169 21.0477C124.771 21.0477 123.9 19.9701 123.9 18.6861C123.9 17.8837 124.198 17.2187 124.725 16.7831C124.496 16.5768 124.289 16.3016 124.198 16.0265C124.152 15.8889 124.106 15.7743 124.083 15.6597C123.074 16.3246 122.547 17.471 122.547 18.5715V18.8008C122.547 20.314 123.693 22.3087 126.147 22.3087C128.21 22.3087 129.333 20.933 129.654 19.5803C129.448 19.9242 129.15 20.2681 128.783 20.4745Z" fill="#F89A1C"/>
<path d="M60.1852 25.6331H57.5027L54.6367 34.0704H56.2875L57.0212 31.8235H60.6896L61.4692 34.0704H63.1658L60.1852 25.6331ZM57.4568 30.4479L58.6032 27.0087H59.0388L60.2081 30.4479H57.4568Z" fill="#0F1D63"/>
<path d="M67.2476 29.783V30.9981H69.632V31.9382C69.1735 32.4655 68.4169 32.7865 67.5227 32.7865C65.826 32.7865 64.7714 31.686 64.7714 29.783C64.7714 28.0634 65.7573 26.8941 67.3393 26.8941C68.5086 26.8941 69.4945 27.5361 69.632 28.6366H71.2828C71.0994 26.7107 69.5403 25.3809 67.3393 25.3809C64.588 25.3809 63.0977 27.5361 63.0977 29.6454V29.8976C63.0977 32.1445 64.6109 34.2539 67.5227 34.2539C69.1506 34.2539 70.4116 33.6119 71.1453 32.5114V30.9523H71.856V29.7371H67.2476V29.783Z" fill="#0F1D63"/>
<path d="M77.5648 30.9754C78.5736 30.5856 79.1927 29.7831 79.1927 28.5221V28.3158C79.1927 26.4586 77.9087 25.5645 75.8682 25.5645H72.75V34.0477H74.3779V31.2276H75.914L77.9087 34.0477H79.8347L77.5648 30.9754ZM76.0516 29.9207H74.3779V26.986H76.0516C76.9458 26.986 77.519 27.5821 77.519 28.4533C77.519 29.3246 76.9458 29.9207 76.0516 29.9207Z" fill="#0F1D63"/>
<path d="M84.4421 25.4038C81.4844 25.4038 79.9941 27.6507 79.9941 29.7142V29.9664C79.9941 31.8465 81.4157 34.2998 84.4421 34.2998C87.4915 34.2998 88.8901 31.8465 88.8901 29.9664V29.7142C88.8901 27.6278 87.3769 25.4038 84.4421 25.4038ZM84.4421 32.7636C82.6996 32.7636 81.6449 31.4338 81.6449 29.8518C81.6449 28.1781 82.7225 26.94 84.4421 26.94C86.1617 26.94 87.2164 28.1781 87.2164 29.8518C87.2164 31.4338 86.1617 32.7636 84.4421 32.7636Z" fill="#0F1D63"/>
<path d="M95.1036 29.7373C95.631 29.3934 95.9519 28.8661 95.9519 28.0636V27.9031C95.9519 26.4128 94.9431 25.5874 93.0401 25.5874H90.0137V34.1394H93.384C95.31 34.1394 96.2959 33.2682 96.2959 31.7779V31.6174C96.2959 30.6315 95.8373 30.0354 95.1036 29.7373ZM91.6186 26.8943H93.2006C93.9802 26.8943 94.347 27.3528 94.347 28.0407C94.347 28.7285 93.9802 29.1871 93.2006 29.1871H91.6186V26.8943ZM93.4987 32.8096H91.6186V30.4481H93.4987C94.2782 30.4481 94.668 30.8837 94.668 31.6174C94.668 32.374 94.2553 32.8096 93.4987 32.8096Z" fill="#0F1D63"/>
<path d="M97.5117 25.6331V34.0704H99.1396V25.6331H97.5117Z" fill="#0F1D63"/>
<path d="M113.354 25.5874H110.305V34.1165H113.354C116.403 34.1165 117.894 31.9842 117.894 29.9666V29.7144C117.917 27.5592 116.403 25.5874 113.354 25.5874ZM113.469 32.5803H111.955V27.1006H113.469C115.211 27.1006 116.243 28.1324 116.243 29.829C116.243 31.434 115.211 32.5803 113.469 32.5803Z" fill="#0F1D63"/>
<path d="M118.949 25.6331V34.0704H120.577V25.6331H118.949Z" fill="#0F1D63"/>
<path d="M127.662 25.6331L125.667 32.6948H125.254L123.099 25.6331H121.402L124.085 34.0704H126.79L129.289 25.6331H127.662Z" fill="#0F1D63"/>
<path d="M131.788 32.6719V30.4708H135.09V29.0952H131.788V27.0317H135.273V25.656H130.16V34.0934H135.365V32.7177H131.788V32.6719Z" fill="#0F1D63"/>
<path d="M141.418 30.9754C142.427 30.5856 143.046 29.7831 143.046 28.5221V28.3158C143.046 26.4586 141.762 25.5645 139.721 25.5645H136.58V34.0477H138.231V31.2276H139.744L141.739 34.0477H143.665L141.418 30.9754ZM139.905 29.9207H138.254V26.986H139.905C140.799 26.986 141.372 27.5821 141.372 28.4533C141.372 29.3246 140.799 29.9207 139.905 29.9207Z" fill="#0F1D63"/>
<path d="M147.655 29.0951L146.921 29.0264C146.073 28.9576 145.729 28.522 145.729 27.9946C145.729 27.3526 146.21 26.8024 147.173 26.8024C148.182 26.8024 148.663 27.4214 148.663 28.0863H150.268C150.268 26.4355 149.076 25.3809 147.173 25.3809C145.316 25.3809 144.124 26.3897 144.124 27.9946C144.124 29.4161 145.155 30.3332 146.783 30.4708L147.517 30.5167C148.572 30.6084 149.076 30.9981 149.076 31.5713C149.076 32.2821 148.48 32.8324 147.265 32.8324C145.935 32.8324 145.408 32.1675 145.408 31.4796H143.803C143.803 33.0846 145.018 34.2539 147.265 34.2539C149.351 34.2539 150.681 33.1763 150.681 31.5713C150.658 30.1269 149.443 29.2556 147.655 29.0951Z" fill="#0F1D63"/>
<path d="M151.713 25.6331V34.0704H153.364V25.6331H151.713Z" fill="#0F1D63"/>
<path d="M154.234 25.6331V27.0775H156.665V34.0704H158.316V27.0775H160.746V25.6331H154.234Z" fill="#0F1D63"/>
<path d="M166.478 25.6331L164.758 29.5995H164.323L162.443 25.6331H160.746L163.291 30.8376H163.704V34.0704H165.309V30.8376H165.721L168.06 25.6331H166.478Z" fill="#0F1D63"/>
<path d="M135.824 15.3157V21.0247H135.71L132.844 15.3157H131.972C132.11 15.4074 132.248 15.4762 132.385 15.5679C132.5 15.6367 132.591 15.7742 132.591 15.9118C132.614 16.0494 132.569 16.1869 132.5 16.3016C132.385 16.4391 132.27 16.5538 132.156 16.6455L134.907 22.1252H137.085V15.3157H135.824ZM131.124 17.0123C130.964 17.0123 130.803 16.9894 130.643 16.9435V22.1252H131.881V16.806C131.651 16.9435 131.399 17.0123 131.124 17.0123Z" fill="#008E00"/>
<path d="M126.147 16.118C126.17 16.0951 126.17 16.0722 126.193 16.0263C126.284 15.8887 126.422 15.7741 126.583 15.7053C126.812 15.5907 127.11 15.5448 127.431 15.5677C128.165 15.6365 128.852 16.2785 129.173 17.1727C129.38 17.7459 129.38 18.3191 129.242 18.8464C129.15 19.0757 129.036 19.282 128.875 19.4884C128.898 19.1215 128.738 18.7547 128.531 18.5025C128.233 18.1356 127.821 17.9064 127.431 17.6771C127.385 17.6542 127.339 17.6312 127.293 17.5854L127.247 17.5625C126.835 17.3102 126.491 17.1039 126.239 16.6453C126.147 16.4619 126.101 16.2785 126.147 16.118Z" fill="#F89A1C"/>
<path d="M125.849 15.0175C125.803 14.5819 125.391 14.4443 125.024 14.5819C124.932 14.6277 124.818 14.6965 124.749 14.7882C124.634 14.6736 124.542 14.5589 124.405 14.4672C124.29 14.3526 124.153 14.2609 123.992 14.1921C123.855 14.1004 123.694 14.0316 123.534 13.9858C123.373 13.9399 123.213 13.917 123.029 13.894C122.983 13.894 122.938 13.917 122.938 13.9858C122.938 14.0316 122.96 14.0775 123.006 14.0775C123.167 14.0775 123.327 14.0775 123.465 14.1233C123.625 14.1462 123.763 14.215 123.9 14.2838C124.038 14.3526 124.176 14.4443 124.313 14.536C124.428 14.6277 124.565 14.7194 124.68 14.8341C124.634 14.8799 124.588 14.9487 124.565 15.0175C124.474 14.9716 124.382 14.9029 124.29 14.857C124.153 14.7882 124.015 14.7424 123.878 14.6965C123.74 14.6736 123.579 14.6507 123.442 14.6736C123.304 14.6736 123.144 14.7194 123.006 14.7424C122.96 14.7424 122.938 14.7882 122.938 14.8341C122.938 14.8799 122.983 14.9029 123.029 14.9029C123.167 14.857 123.304 14.8341 123.442 14.8112C123.579 14.7882 123.717 14.7882 123.855 14.8112C123.992 14.8341 124.13 14.8799 124.267 14.9258C124.359 14.9716 124.451 15.0175 124.542 15.0634C124.451 15.2697 124.451 15.5678 124.588 15.9117C124.703 16.2097 125.001 16.5537 125.299 16.7141C125.207 16.5078 125.299 16.2785 125.391 16.0951C125.62 15.7053 125.895 15.4073 125.849 15.0175ZM124.955 15.5678C124.886 15.5907 124.818 15.5678 124.772 15.499C124.749 15.4302 124.772 15.3614 124.84 15.3156C124.909 15.2926 124.978 15.3156 125.024 15.3843C125.047 15.4531 125.024 15.5219 124.955 15.5678Z" fill="#0F1D63"/>
<path d="M126.354 14.9717C127.775 13.3668 129.701 12.335 131.787 11.8994C132.131 14.9717 127.706 14.1693 126.354 14.9717Z" fill="#0F1D63"/>
<path d="M128.188 14.903C129.586 14.8113 130.962 15.224 132.108 15.9806C130.847 17.5626 129.173 15.1552 128.188 14.903Z" fill="#0F1D63"/>
<path d="M129.472 16.8059C129.311 16.3474 129.036 15.9347 128.715 15.6137C128.371 15.2927 127.959 15.0863 127.546 15.0634C127.225 15.0405 126.927 15.0634 126.675 15.178C126.445 15.2698 126.239 15.4303 126.101 15.6366C125.872 15.9805 125.826 16.3932 126.01 16.7601C126.262 17.2874 126.675 17.5167 127.087 17.7689L127.133 17.7918C127.179 17.8147 127.225 17.8377 127.271 17.8835C127.638 18.1128 128.004 18.3421 128.302 18.6631C128.6 18.9611 128.715 19.6031 128.486 20.0846C129.036 19.7636 129.426 19.0758 129.541 18.4567C129.701 17.8835 129.655 17.3333 129.472 16.8059ZM129.403 18.0669C129.403 18.1357 129.38 18.2045 129.38 18.2733C129.357 18.4567 129.311 18.6401 129.22 18.8236C129.22 18.8465 129.22 18.8465 129.197 18.8694C129.197 18.8923 129.197 18.8923 129.174 18.9153C129.174 18.9382 129.151 18.9611 129.151 18.984C129.151 19.007 129.128 19.0299 129.128 19.0528C129.105 19.0758 129.105 19.1216 129.082 19.1445C129.082 19.1445 129.082 19.1675 129.059 19.1675C129.036 19.2133 129.013 19.2592 128.99 19.2821C128.99 19.305 128.967 19.305 128.967 19.328C128.967 19.328 128.967 19.328 128.967 19.3509C128.944 19.3967 128.921 19.4197 128.876 19.4655V19.4197C128.876 19.3738 128.876 19.3509 128.876 19.305C128.876 19.2821 128.876 19.2821 128.876 19.2592C128.876 19.2362 128.876 19.1904 128.853 19.1675C128.853 19.1216 128.83 19.0758 128.83 19.0299C128.83 19.007 128.807 18.984 128.807 18.9611C128.807 18.9611 128.807 18.9611 128.807 18.9382C128.807 18.9153 128.784 18.9153 128.784 18.8923C128.784 18.8694 128.761 18.8694 128.761 18.8465C128.761 18.8236 128.738 18.8236 128.738 18.8006C128.738 18.8006 128.738 18.7777 128.715 18.7777C128.715 18.7548 128.715 18.7548 128.692 18.7318C128.646 18.6401 128.6 18.5713 128.532 18.5026C128.509 18.4796 128.486 18.4338 128.44 18.4109C128.417 18.3879 128.394 18.365 128.371 18.3421C128.348 18.3191 128.302 18.2733 128.28 18.2504C128.257 18.2274 128.211 18.2045 128.188 18.1586L128.165 18.1357C128.027 18.044 127.913 17.9523 127.775 17.8606C127.706 17.8147 127.615 17.7689 127.546 17.723C127.523 17.7001 127.477 17.6772 127.431 17.6542C127.385 17.6313 127.339 17.6084 127.294 17.5625L127.225 17.5396C127.179 17.5167 127.133 17.4708 127.064 17.4479C126.996 17.402 126.95 17.3791 126.881 17.3333L126.858 17.3103C126.835 17.2874 126.812 17.2645 126.789 17.2645C126.743 17.2415 126.72 17.2186 126.675 17.1957L126.652 17.1728C126.629 17.1498 126.583 17.1269 126.56 17.081C126.537 17.0581 126.514 17.0352 126.491 16.9893C126.468 16.9664 126.422 16.9206 126.399 16.8747C126.377 16.8288 126.354 16.8059 126.331 16.7601C126.308 16.7142 126.285 16.6683 126.262 16.6454C126.239 16.5766 126.216 16.5079 126.193 16.4391C126.17 16.3703 126.17 16.3015 126.17 16.2327C126.17 16.1869 126.17 16.141 126.17 16.0952C126.193 15.9576 126.239 15.843 126.331 15.7283C126.422 15.5907 126.56 15.4761 126.72 15.3844C126.743 15.3615 126.766 15.3615 126.812 15.3385H126.835C126.904 15.3156 126.973 15.2927 127.041 15.2698H127.064C127.202 15.2468 127.362 15.2468 127.523 15.2468C127.546 15.2468 127.546 15.2468 127.569 15.2468C127.615 15.2468 127.683 15.2698 127.729 15.2698C127.752 15.2698 127.775 15.2698 127.775 15.2927C127.936 15.3385 128.073 15.3844 128.211 15.4761C128.28 15.522 128.348 15.5678 128.417 15.6137C128.44 15.6366 128.463 15.6366 128.486 15.6595C128.646 15.7971 128.807 15.9576 128.944 16.1639C128.944 16.1639 128.967 16.1869 128.967 16.2098C128.99 16.2556 129.036 16.3015 129.059 16.3474C129.105 16.4161 129.128 16.4849 129.174 16.5537C129.22 16.6454 129.265 16.7371 129.288 16.8288C129.38 17.081 129.426 17.3333 129.449 17.5855C129.426 17.7918 129.426 17.9294 129.403 18.0669Z" fill="#0F1D63"/>
<path d="M128.371 18.342C128.302 18.2732 128.256 18.2273 128.188 18.1815C128.669 17.6312 128.921 16.9205 128.921 16.1868C129.013 16.3014 129.082 16.439 129.15 16.5995C129.128 16.8287 129.082 17.0351 129.013 17.2414C128.852 17.6541 128.646 18.021 128.371 18.342Z" fill="#0F1D63"/>
<path d="M126.858 16.164C126.767 16.462 126.629 16.7371 126.446 16.9664C126.377 16.8976 126.331 16.8289 126.285 16.7371C126.56 16.3244 126.721 15.843 126.767 15.3386C126.858 15.3156 126.927 15.2698 127.019 15.2698C127.019 15.5908 126.95 15.8888 126.858 16.164Z" fill="#0F1D63"/>
<path d="M127.57 16.5308C127.455 16.8747 127.294 17.1957 127.065 17.4708C126.996 17.425 126.928 17.3791 126.836 17.3333C127.294 16.7601 127.524 16.0264 127.455 15.2698C127.478 15.2698 127.478 15.2698 127.501 15.2698C127.57 15.2698 127.638 15.2927 127.707 15.3156C127.753 15.7283 127.707 16.1181 127.57 16.5308Z" fill="#0F1D63"/>
<path d="M128.28 16.8747C128.165 17.2415 127.982 17.5625 127.753 17.8606C127.684 17.8147 127.615 17.7688 127.523 17.723C128.028 17.1039 128.28 16.2785 128.165 15.4761C128.257 15.5219 128.349 15.5907 128.441 15.6595C128.463 16.0951 128.418 16.4849 128.28 16.8747Z" fill="#0F1D63"/>
<path d="M128.67 18.7319C129.014 18.4338 129.266 18.044 129.427 17.6313C129.449 17.8377 129.427 18.067 129.404 18.2733C129.243 18.5485 129.037 18.7777 128.807 18.9841C128.762 18.8924 128.716 18.8236 128.67 18.7319Z" fill="#0F1D63"/>
<path d="M58.5573 0.940085V0.573242H57.1816V2.91187H57.6402V1.92598H58.5114V1.53621H57.6402V0.940085H58.5573Z" fill="#982065"/>
<path d="M59.9568 0.504395C59.1314 0.504395 58.7188 1.12344 58.7188 1.69663V1.76542C58.7188 2.29275 59.1085 2.98059 59.9568 2.98059C60.8052 2.98059 61.1949 2.29275 61.1949 1.76542V1.69663C61.172 1.12344 60.7593 0.504395 59.9568 0.504395ZM59.9568 2.54496C59.4754 2.54496 59.1773 2.17812 59.1773 1.74249C59.1773 1.28394 59.4754 0.940021 59.9568 0.940021C60.4383 0.940021 60.7364 1.28394 60.7364 1.74249C60.7135 2.17812 60.4154 2.54496 59.9568 2.54496Z" fill="#982065"/>
<path d="M62.8454 2.04059C63.1206 1.92595 63.304 1.69668 63.304 1.35276V1.30691C63.304 0.77957 62.9371 0.550293 62.3869 0.550293H61.5156V2.91184H61.9742V2.1323H62.3869L62.9371 2.91184H63.4645L62.8454 2.04059ZM62.4098 1.76546H61.9513V0.940064H62.4098C62.662 0.940064 62.8225 1.10056 62.8225 1.35276C62.8225 1.58204 62.662 1.76546 62.4098 1.76546Z" fill="#982065"/>
<path d="M64.129 2.5221V1.90305H65.0461V1.51328H64.129V0.940085H65.1149V0.573242H63.6934V2.91187H65.1378V2.5221H64.129Z" fill="#982065"/>
<path d="M66.352 1.53612L66.1456 1.51319C65.9163 1.49026 65.8017 1.37563 65.8017 1.21513C65.8017 1.03171 65.9393 0.871216 66.2144 0.871216C66.4895 0.871216 66.6271 1.03171 66.6271 1.23806H67.0627C67.0627 0.779505 66.7188 0.481445 66.1915 0.481445C65.6871 0.481445 65.3432 0.756578 65.3432 1.21513C65.3432 1.6049 65.6412 1.85711 66.0768 1.90296L66.2832 1.92589C66.5813 1.94882 66.7188 2.06346 66.7188 2.22395C66.7188 2.4303 66.5583 2.56787 66.2144 2.56787C65.8476 2.56787 65.6871 2.38444 65.6871 2.17809H65.2285C65.2285 2.61372 65.5724 2.95764 66.1915 2.95764C66.7647 2.95764 67.1315 2.65958 67.1315 2.20102C67.2003 1.81125 66.8564 1.55905 66.352 1.53612Z" fill="#982065"/>
<path d="M67.2012 0.573242V0.985941H67.889V2.93479H68.3476V0.963013H69.0354V0.573242H67.2012Z" fill="#982065"/>
<path d="M71.1221 0.573242H70.3884L69.5859 2.91187H70.0445L70.2508 2.29282H71.2826L71.4889 2.91187H71.9475L71.1221 0.573242ZM70.3655 1.90305L70.6865 0.940085H70.8011L71.1221 1.90305H70.3655Z" fill="#982065"/>
<path d="M73.9427 0.573242V2.5221H73.8968L72.9109 0.573242H72.1543V2.91187H72.567V0.940085H72.6129L73.5987 2.91187H74.3553V0.573242H73.9427Z" fill="#982065"/>
<path d="M75.6843 0.550293H74.8359V2.93477H75.6843C76.5326 2.93477 76.9453 2.33865 76.9453 1.78839V1.69668C76.9453 1.10056 76.5097 0.550293 75.6843 0.550293ZM75.7072 2.49915H75.2945V0.962991H75.7072C76.1887 0.962991 76.4867 1.26105 76.4867 1.71961C76.4867 2.17816 76.1887 2.49915 75.7072 2.49915Z" fill="#982065"/>
<path d="M79.1686 0.940085V0.573242H77.793V2.91187H78.2515V1.92598H79.1228V1.53621H78.2515V0.940085H79.1686Z" fill="#982065"/>
<path d="M80.6138 0.573242H79.8572L79.0547 2.91187H79.5132L79.7196 2.29282H80.7513L80.9577 2.91187H81.4162L80.6138 0.573242ZM79.8801 1.90305L80.2011 0.940085H80.3157L80.6367 1.90305H79.8801Z" fill="#982065"/>
<path d="M82.9978 2.04059C83.2729 1.92595 83.4563 1.69668 83.4563 1.35276V1.30691C83.4563 0.77957 83.0895 0.550293 82.5392 0.550293H81.668V2.91184H82.1265V2.1323H82.5392L83.0895 2.91184H83.6168L82.9978 2.04059ZM82.5851 1.76546H82.1265V0.940064H82.5851C82.8373 0.940064 82.9978 1.10056 82.9978 1.35276C82.9978 1.58204 82.8373 1.76546 82.5851 1.76546Z" fill="#982065"/>
<path d="M85.7028 0.573242L85.1067 1.97183H85.0609L84.4647 0.573242H83.8457V2.91187H84.2584V1.05472L84.8316 2.43039H85.2901L85.8633 1.05472V2.91187H86.3219V0.573242H85.7028Z" fill="#982065"/>
<path d="M88.1579 0.550293H87.3555V2.91184H87.814V2.17816H88.1579C88.7541 2.17816 89.098 1.8801 89.098 1.37569V1.32983C89.098 0.848353 88.7541 0.550293 88.1579 0.550293ZM88.2038 1.78839H87.814V0.940064H88.2038C88.4789 0.940064 88.6394 1.10056 88.6394 1.35276C88.6165 1.62789 88.4789 1.78839 88.2038 1.78839Z" fill="#982065"/>
<path d="M90.6794 2.04059C90.9545 1.92595 91.138 1.69668 91.138 1.35276V1.30691C91.138 0.77957 90.7711 0.550293 90.2209 0.550293H89.3496V2.91184H89.8082V2.1323H90.2209L90.7711 2.91184H91.2985L90.6794 2.04059ZM90.2438 1.76546H89.7852V0.940064H90.2438C90.496 0.940064 90.6565 1.10056 90.6565 1.35276C90.6565 1.58204 90.496 1.76546 90.2438 1.76546Z" fill="#982065"/>
<path d="M92.5818 0.504395C91.7564 0.504395 91.3438 1.12344 91.3438 1.69663V1.76542C91.3438 2.29275 91.7335 2.98059 92.5818 2.98059C93.4302 2.98059 93.8199 2.29275 93.8199 1.76542V1.69663C93.8199 1.12344 93.4072 0.504395 92.5818 0.504395ZM92.5818 2.54496C92.1004 2.54496 91.8023 2.17812 91.8023 1.74249C91.8023 1.28394 92.1004 0.940021 92.5818 0.940021C93.0633 0.940021 93.3614 1.28394 93.3614 1.74249C93.3614 2.17812 93.0633 2.54496 92.5818 2.54496Z" fill="#982065"/>
<path d="M94.9889 0.550293H94.1406V2.93477H94.9889C95.8373 2.93477 96.25 2.33865 96.25 1.78839V1.69668C96.25 1.10056 95.8373 0.550293 94.9889 0.550293ZM95.0119 2.49915H94.5992V0.962991H95.0119C95.4934 0.962991 95.7914 1.26105 95.7914 1.71961C95.7914 2.17816 95.4934 2.49915 95.0119 2.49915Z" fill="#982065"/>
<path d="M98.061 0.573242V1.99476C98.061 2.33867 97.8547 2.54502 97.5108 2.54502C97.1439 2.54502 96.9605 2.31575 96.9605 1.99476V0.573242H96.502V1.97183C96.502 2.59088 96.8459 2.98065 97.5108 2.98065C98.1757 2.98065 98.5196 2.59088 98.5196 1.97183V0.573242H98.061Z" fill="#982065"/>
<path d="M100.63 2.04057C100.584 2.36156 100.309 2.54498 99.9652 2.54498C99.4837 2.54498 99.2315 2.20107 99.2315 1.74251C99.2315 1.26103 99.4837 0.940042 99.9422 0.940042C100.286 0.940042 100.538 1.12346 100.584 1.44445H101.043C100.974 0.894187 100.584 0.527344 99.9422 0.527344C99.1168 0.527344 98.75 1.14639 98.75 1.71958V1.78837C98.75 2.3157 99.0939 3.00353 99.9422 3.00353C100.607 3.00353 100.997 2.59084 101.066 2.08643H100.63V2.04057Z" fill="#982065"/>
<path d="M101.798 2.5221V1.90305H102.716V1.51328H101.798V0.940085H102.761V0.573242H101.34V2.91187H102.784V2.5221H101.798Z" fill="#982065"/>
<path d="M104.482 2.04059C104.757 1.92595 104.941 1.69668 104.941 1.35276V1.30691C104.941 0.77957 104.574 0.550293 104.024 0.550293H103.152V2.91184H103.611V2.1323H104.024L104.574 2.91184H105.101L104.482 2.04059ZM104.047 1.76546H103.588V0.940064H104.047C104.299 0.940064 104.459 1.10056 104.459 1.35276C104.459 1.58204 104.299 1.76546 104.047 1.76546Z" fill="#982065"/>
<path d="M107.555 0.504395C106.729 0.504395 106.316 1.12344 106.316 1.69663V1.76542C106.316 2.29275 106.706 2.98059 107.555 2.98059C108.403 2.98059 108.793 2.29275 108.793 1.76542V1.69663C108.793 1.12344 108.38 0.504395 107.555 0.504395ZM107.555 2.54496C107.073 2.54496 106.775 2.17812 106.775 1.74249C106.775 1.28394 107.073 0.940021 107.555 0.940021C108.036 0.940021 108.334 1.28394 108.334 1.74249C108.334 2.17812 108.036 2.54496 107.555 2.54496Z" fill="#982065"/>
<path d="M110.443 2.04059C110.718 1.92595 110.902 1.69668 110.902 1.35276V1.30691C110.902 0.77957 110.535 0.550293 109.985 0.550293H109.113V2.91184H109.572V2.1323H109.985L110.535 2.91184H111.062L110.443 2.04059ZM110.03 1.76546H109.572V0.940064H110.03C110.283 0.940064 110.443 1.10056 110.443 1.35276C110.443 1.58204 110.283 1.76546 110.03 1.76546Z" fill="#982065"/>
<path d="M112.277 1.71954V2.06346H112.942V2.31566C112.804 2.45323 112.598 2.54494 112.346 2.54494C111.887 2.54494 111.566 2.24688 111.566 1.71954C111.566 1.23806 111.841 0.917071 112.277 0.917071C112.598 0.917071 112.873 1.10049 112.919 1.39855H113.377C113.331 0.871216 112.896 0.481445 112.277 0.481445C111.52 0.481445 111.107 1.07757 111.107 1.67369V1.74247C111.107 2.36152 111.52 2.95764 112.346 2.95764C112.804 2.95764 113.148 2.77421 113.354 2.47615V2.06346H113.561V1.71954H112.277Z" fill="#982065"/>
<path d="M115.096 0.573242H114.34L113.537 2.91187H113.996L114.202 2.29282H115.211L115.417 2.91187H115.876L115.096 0.573242ZM114.34 1.90305L114.661 0.940085H114.775L115.096 1.90305H114.34Z" fill="#982065"/>
<path d="M117.894 0.573221V2.52207H117.848L116.862 0.550293H116.105V2.88892H116.518V0.940064H116.564L117.55 2.91184H118.307V0.573221H117.894Z" fill="#982065"/>
<path d="M118.789 0.573242V2.91187H119.248V0.573242H118.789Z" fill="#982065"/>
<path d="M120.119 2.5221L120.096 2.47624L121.357 0.940085V0.573242H119.591V0.940085H120.806L120.829 0.985941L119.568 2.5221V2.91187H121.38V2.5221H120.119Z" fill="#982065"/>
<path d="M122.985 0.573242H122.228L121.426 2.91187H121.884L122.091 2.29282H123.122L123.329 2.91187H123.787L122.985 0.573242ZM122.228 1.90305L122.549 0.940085H122.664L122.985 1.90305H122.228Z" fill="#982065"/>
<path d="M123.604 0.573242V0.985941H124.291V2.93479H124.75V0.963013H125.438V0.573242H123.604Z" fill="#982065"/>
<path d="M125.666 0.573242V2.91187H126.125V0.573242H125.666Z" fill="#982065"/>
<path d="M127.662 0.504395C126.837 0.504395 126.424 1.12344 126.424 1.69663V1.76542C126.424 2.29275 126.814 2.98059 127.662 2.98059C128.51 2.98059 128.9 2.29275 128.9 1.76542V1.69663C128.9 1.12344 128.487 0.504395 127.662 0.504395ZM127.662 2.54496C127.18 2.54496 126.882 2.17812 126.882 1.74249C126.882 1.28394 127.18 0.940021 127.662 0.940021C128.143 0.940021 128.441 1.28394 128.441 1.74249C128.441 2.17812 128.143 2.54496 127.662 2.54496Z" fill="#982065"/>
<path d="M130.986 0.573221V2.52207H130.94L129.954 0.550293H129.197V2.88892H129.61V0.940064H129.656L130.642 2.91184H131.398V0.573221H130.986Z" fill="#982065"/>
<path d="M133.347 1.53612L133.14 1.51319C132.911 1.49026 132.796 1.37563 132.796 1.21513C132.796 1.03171 132.934 0.871216 133.209 0.871216C133.484 0.871216 133.622 1.03171 133.622 1.23806H134.057C134.057 0.779505 133.713 0.481445 133.186 0.481445C132.682 0.481445 132.338 0.756578 132.338 1.21513C132.338 1.6049 132.636 1.85711 133.071 1.90296L133.278 1.92589C133.576 1.94882 133.713 2.06346 133.713 2.22395C133.713 2.4303 133.553 2.56787 133.209 2.56787C132.842 2.56787 132.682 2.38444 132.682 2.17809H132.246C132.246 2.61372 132.59 2.95764 133.209 2.95764C133.782 2.95764 134.149 2.65958 134.149 2.20102C134.195 1.81125 133.851 1.55905 133.347 1.53612Z" fill="#982065"/>
<path d="M15.2249 28.9807C16.0045 29.3017 16.6235 29.5998 16.6235 29.5998C16.6235 29.5998 15.9357 29.4851 15.0645 29.2788L15.2249 28.9807Z" fill="#6D6E70"/>
<path d="M132.109 0.0229277C131.994 0.206349 131.834 0.619048 131.742 0.940035L132.086 0.89418C132.132 0.619048 132.224 0.229277 132.315 0L132.109 0.0229277Z" fill="#982065"/>
<path d="M28.6377 46.8413C28.6147 46.8872 28.6147 46.933 28.5918 46.9789L28.6835 46.933C28.6835 46.8872 28.6606 46.8642 28.6377 46.8413Z" fill="#982065"/>
<path d="M108.951 31.388C108.355 33.1534 106.704 34.4374 104.732 34.4374C102.761 34.4374 101.087 33.1534 100.514 31.388C100.903 31.3421 101.5 31.2504 102.004 31.1358C102.096 31.1129 102.187 31.0899 102.279 31.067C103.127 30.8607 103.105 31.1817 103.976 31.1587C104.916 31.1358 104.893 31.067 106.314 30.9524C106.979 30.9065 107.14 30.9753 107.461 31.1129C107.713 31.2046 108.057 31.3192 108.768 31.388C108.836 31.3651 108.905 31.3651 108.951 31.388Z" fill="#00B1FF"/>
<path d="M104.733 25.5186C102.28 25.5186 100.285 27.5133 100.285 29.9665C100.285 30.448 100.354 30.9295 100.514 31.3651C101.088 33.1305 102.761 34.4145 104.733 34.4145C106.705 34.4145 108.356 33.1535 108.952 31.3651C109.112 30.9295 109.181 30.448 109.181 29.9665C109.181 27.5133 107.186 25.5186 104.733 25.5186ZM104.733 32.9242C103.518 32.9242 102.463 32.1676 102.005 31.1129C101.867 30.769 101.775 30.3792 101.775 29.9665C101.775 28.3387 103.105 27.0089 104.733 27.0089C106.361 27.0089 107.691 28.3387 107.691 29.9665C107.691 30.3563 107.622 30.7231 107.484 31.0671C107.026 32.1676 105.971 32.9242 104.733 32.9242Z" fill="#0F1D63"/>
<path d="M105.994 31.0211C106.384 30.9982 106.728 30.8836 107.049 30.7001C107.072 30.7689 107.026 30.8148 107.003 30.8377C106.888 30.9523 106.751 31.0211 106.613 31.067C106.384 31.1358 106.178 31.1587 105.948 31.1816C105.398 31.2275 104.848 31.1816 104.297 31.1358C103.793 31.1128 103.289 31.0899 102.784 31.2504C102.761 31.2504 102.761 31.2504 102.738 31.2504C102.761 31.1587 102.83 31.1128 102.899 31.0899C103.082 30.9753 103.289 30.9753 103.495 30.9523C103.518 30.9523 103.564 30.9523 103.587 30.9523C103.61 30.9523 103.655 30.9753 103.655 30.9294C103.655 30.9065 103.633 30.8836 103.61 30.8606C103.472 30.7001 103.289 30.5626 103.128 30.425C102.899 30.2416 102.67 30.0811 102.372 30.0352C102.349 30.0352 102.303 30.0352 102.303 29.9894C102.303 29.9435 102.326 29.9206 102.349 29.8977C102.509 29.8059 102.67 29.7601 102.853 29.7601C103.013 29.7601 102.991 29.783 103.036 29.6225C103.082 29.4391 103.151 29.2786 103.243 29.141C103.266 29.1181 103.289 29.0723 103.334 29.0723C103.38 29.0952 103.38 29.141 103.38 29.164C103.38 29.3933 103.403 29.5996 103.472 29.806C103.564 30.0811 103.701 30.3104 103.976 30.4021C103.976 30.4021 103.976 30.4021 103.999 30.425C103.793 30.425 103.655 30.3104 103.564 30.1728C103.403 29.9664 103.334 29.7142 103.289 29.4391C103.289 29.4162 103.289 29.3933 103.289 29.3703C103.289 29.3703 103.289 29.3703 103.266 29.3474C103.197 29.485 103.174 29.6225 103.151 29.783C103.151 29.8059 103.151 29.806 103.151 29.8289C103.151 29.9206 103.105 29.9435 103.036 29.9206C102.899 29.8977 102.738 29.8977 102.601 29.9435C102.876 30.0123 103.082 30.1728 103.289 30.3562C103.426 30.4709 103.541 30.5855 103.678 30.7001C103.839 30.8377 104.022 30.8836 104.229 30.7918C104.297 30.746 104.389 30.746 104.481 30.7918C104.596 30.8377 104.687 30.8606 104.802 30.7918C104.894 30.746 104.985 30.746 105.054 30.8148C105.146 30.8836 105.237 30.8606 105.329 30.8148C105.421 30.7689 105.513 30.7689 105.604 30.7918C105.65 30.8148 105.719 30.8148 105.765 30.8148C106.063 30.7001 106.246 30.4938 106.384 30.2187C106.223 30.2874 106.063 30.3791 105.879 30.4021C105.902 30.3562 105.948 30.3562 105.971 30.3333C106.155 30.2416 106.338 30.1499 106.43 29.9435C106.476 29.8289 106.498 29.7142 106.498 29.5996C106.498 29.5079 106.476 29.485 106.384 29.462C106.063 29.3933 105.788 29.462 105.49 29.5996C105.146 29.7372 104.848 29.9435 104.527 30.1269C104.343 30.2186 104.183 30.3104 103.954 30.3104C103.816 30.3104 103.724 30.2645 103.655 30.1269C103.885 30.2874 104.114 30.1957 104.32 30.0811C104.596 29.9435 104.848 29.7601 105.1 29.5996C105.421 29.4162 105.742 29.2786 106.109 29.2786C106.223 29.2786 106.361 29.3015 106.476 29.3245C106.544 29.3474 106.567 29.3703 106.59 29.4391C106.636 29.9435 106.453 30.3791 106.132 30.7689C106.086 30.8148 106.063 30.8606 106.017 30.9065C106.017 30.9753 105.994 30.9753 105.994 31.0211Z" fill="#6D6E70"/>
<path d="M105.376 29.8518C105.399 30.1499 105.605 30.3333 105.834 30.5167C105.697 30.5396 105.536 30.425 105.422 30.2874C105.353 30.1499 105.307 30.0123 105.376 29.8518Z" fill="#6D6E70"/>
<path d="M105.214 30.2415C105.123 30.2873 105.054 30.3332 104.985 30.379C104.939 30.402 104.893 30.4478 104.939 30.5166C104.985 30.5624 105.031 30.6083 105.1 30.5854C105.169 30.5624 105.214 30.4937 105.283 30.4478C105.26 30.5624 105.192 30.6542 105.077 30.6771C104.985 30.7 104.871 30.6312 104.825 30.5166C104.802 30.4478 104.825 30.379 104.916 30.3332C105.008 30.2873 105.077 30.2415 105.214 30.2415Z" fill="#6D6E70"/>
<path d="M106.108 29.829C106.108 29.8978 106.062 29.9436 105.994 29.9436C105.925 29.9436 105.879 29.8978 105.879 29.829C105.879 29.7602 105.925 29.6914 105.994 29.6914C106.039 29.7143 106.085 29.7602 106.108 29.829Z" fill="#6D6E70"/>
<path d="M102.945 31.5944C103.496 31.2276 104.229 31.3422 104.825 31.4569C105.444 31.6174 106.063 31.3652 106.683 31.2964C106.063 31.434 105.444 31.7549 104.802 31.6403C104.183 31.5486 103.541 31.2964 102.945 31.5944Z" fill="white"/>
<path d="M102.877 31.8006C103.221 31.6401 103.634 31.7548 103.977 31.8924C104.321 32.0299 104.711 31.9611 105.055 31.9611C104.688 31.9841 104.298 32.1216 103.932 31.9841C103.588 31.8694 103.244 31.686 102.877 31.8006Z" fill="white"/>
</g>
<defs>
<clipPath id="clip0_2682_18247">
<rect width="169" height="52.5044" fill="white"/>
</clipPath>
</defs>
</svg>
