<svg width="17" height="19" viewBox="0 0 17 19" fill="none" xmlns="http://www.w3.org/2000/svg">
<path fill-rule="evenodd" clip-rule="evenodd" d="M12.3409 14.539C8.66652 13.3646 3.73439 10.9527 1.75752 9.35826C0.695049 8.50101 0.330488 7.59157 0.879389 7.07421C1.35274 6.62308 1.89373 6.75048 3.2135 7.6282C4.91188 8.79299 13.361 13.065 14.2787 13.2283C14.9583 13.3633 15.1603 13.514 15.301 14.027C15.4533 14.5823 15.3919 14.6902 14.8543 14.9073C14.3753 15.0841 13.7334 15.0085 12.3409 14.539Z" fill="#FFB27F"/>
<path fill-rule="evenodd" clip-rule="evenodd" d="M9.32115 7.56965C8.71031 7.36927 7.49774 6.83772 6.6232 6.37427C4.24132 5.16211 3.23471 3.46622 4.48474 2.79763C5.01299 2.51509 5.30279 2.63535 6.35782 3.52935C6.78402 3.90462 7.99494 4.71231 9.01397 5.34738C10.0512 5.97271 10.9519 6.67111 11.0386 6.92633C11.317 7.68227 10.5428 7.97041 9.32342 7.56843L9.32115 7.56965Z" fill="#FFB27F"/>
</svg>
