<svg width="16" height="13" viewBox="0 0 16 13" fill="none" xmlns="http://www.w3.org/2000/svg">
<path d="M15.3846 0H0.615385C0.452174 0 0.295649 0.0648351 0.180242 0.180242C0.064835 0.295649 0 0.452174 0 0.615385V11.0769C0 11.4033 0.12967 11.7164 0.360484 11.9472C0.591298 12.178 0.904349 12.3077 1.23077 12.3077H14.7692C15.0957 12.3077 15.4087 12.178 15.6395 11.9472C15.8703 11.7164 16 11.4033 16 11.0769V0.615385C16 0.452174 15.9352 0.295649 15.8198 0.180242C15.7044 0.0648351 15.5478 0 15.3846 0ZM13.8023 1.23077L8 6.55L2.19769 1.23077H13.8023ZM14.7692 11.0769H1.23077V2.01462L7.58385 7.83846C7.69738 7.94268 7.84588 8.00051 8 8.00051C8.15412 8.00051 8.30262 7.94268 8.41615 7.83846L14.7692 2.01462V11.0769Z" fill="white"/>
</svg>
