<svg width="20" height="20" viewBox="0 0 20 20" fill="none" xmlns="http://www.w3.org/2000/svg">
<path d="M17.8469 6.98009L10.3469 1.98009C10.2442 1.91157 10.1235 1.875 10 1.875C9.87653 1.875 9.75583 1.91157 9.65312 1.98009L2.15313 6.98009C2.06751 7.03722 1.99732 7.1146 1.9488 7.20537C1.90029 7.29614 1.87493 7.39748 1.875 7.50041V15.6254C1.875 15.9569 2.0067 16.2749 2.24112 16.5093C2.47554 16.7437 2.79348 16.8754 3.125 16.8754H16.875C17.2065 16.8754 17.5245 16.7437 17.7589 16.5093C17.9933 16.2749 18.125 15.9569 18.125 15.6254V7.50041C18.1251 7.39748 18.0997 7.29614 18.0512 7.20537C18.0027 7.1146 17.9325 7.03722 17.8469 6.98009ZM10 3.25119L16.3992 7.51759L11.1648 11.2504H8.83672L3.60234 7.51759L10 3.25119ZM3.125 15.6254V8.71369L8.27344 12.3856C8.37944 12.4613 8.50645 12.502 8.63672 12.502H11.3633C11.4935 12.502 11.6206 12.4613 11.7266 12.3856L16.875 8.71369V15.6254H3.125Z" fill="#213430"/>
</svg>
