<svg width="60" height="53" viewBox="0 0 60 53" fill="none" xmlns="http://www.w3.org/2000/svg">
<g clip-path="url(#clip0_8_105)">
<path d="M0 47.8506C0.261798 45.5268 0.558043 43.2099 0.778505 40.8793C1.53175 33.0875 2.27121 25.2958 2.9969 17.504C3.03135 17.2015 3.11402 16.9059 3.19669 16.4796C6.82742 17.8546 10.3893 19.1403 13.9166 20.5222C14.1991 20.6322 14.4127 21.299 14.3989 21.6978C14.2404 26.2147 14.0338 30.7248 13.8271 35.2417C13.5791 40.7418 13.3173 46.2304 13.0417 51.7075C13.0417 52.0925 12.9728 52.4775 12.9177 53.0207L0 48.655V47.8506Z" fill="white"/>
<path d="M60 48.6549L47.0479 52.9999C46.9514 51.0199 46.855 49.2187 46.7723 47.4243C46.3727 38.9679 46.0007 30.5116 45.5598 22.0621C45.5115 21.0171 45.7665 20.5014 46.8068 20.1439C50.1137 18.9958 53.3724 17.7239 56.8378 16.4314C56.9962 17.8408 57.1685 19.1814 57.2925 20.5152L59.7727 46.9636C59.8249 47.2648 59.9009 47.5613 60 47.8505V48.6549Z" fill="white"/>
<path d="M29.907 33.2273C25.8491 27.4453 21.805 21.7046 19.1113 15.1252C16.7482 9.35699 20.4065 2.22066 26.7448 0.446889C28.2619 0.0156351 29.8507 -0.105335 31.4158 0.0912372C32.9809 0.287809 34.4901 0.797873 35.8529 1.59082C37.2156 2.38377 38.4038 3.44326 39.3461 4.70573C40.2884 5.96819 40.9654 7.40761 41.3366 8.93761C41.8094 11.2051 41.5688 13.5631 40.6476 15.6889C39.0148 19.9377 33.1175 29.611 29.907 33.2273ZM30.031 7.92698C28.9582 7.92638 27.9271 8.34206 27.1557 9.08616C26.3844 9.83027 25.9331 10.8445 25.8974 11.9145C25.8306 12.4898 25.8859 13.0727 26.0598 13.6253C26.2337 14.1778 26.5222 14.6876 26.9066 15.1215C27.291 15.5554 27.7627 15.9037 28.2909 16.1436C28.8191 16.3836 29.392 16.5098 29.9724 16.5142C30.5527 16.5186 31.1275 16.4009 31.6592 16.169C32.191 15.937 32.6679 15.5959 33.0588 15.1678C33.4497 14.7398 33.7459 14.2344 33.9281 13.6845C34.1104 13.1346 34.1745 12.5526 34.1164 11.9764C34.1074 10.9005 33.6732 9.87158 32.9082 9.11333C32.1432 8.35509 31.1092 7.92875 30.031 7.92698V7.92698Z" fill="white"/>
<path d="M45.2911 52.9381C40.62 51.5631 36.0799 50.1881 31.5536 48.813C31.3797 48.7178 31.231 48.5827 31.1196 48.419C31.0083 48.2553 30.9374 48.0675 30.9128 47.8711C30.8715 43.7461 30.9128 39.6211 30.9128 35.496C30.9301 35.1047 31.0513 34.725 31.2642 34.396C34.4816 29.5834 37.7196 24.7709 41.0541 19.8002C40.8474 19.8002 40.9783 19.7658 41.0954 19.8002C44.3817 20.9621 43.7547 19.9102 43.9476 23.389C44.4575 32.7253 44.8639 42.0755 45.3255 51.4187C45.3117 51.8931 45.2911 52.3331 45.2911 52.9381Z" fill="white"/>
<path d="M18.9597 19.814C22.3011 24.8053 25.4909 29.5628 28.6876 34.3754C28.952 34.7859 29.0952 35.2624 29.1009 35.7504C29.1331 39.7425 29.1331 43.7347 29.1009 47.7268C29.1009 48.1118 28.8116 48.7512 28.5222 48.8406C23.9614 50.2637 19.3799 51.5906 14.6745 53.0206C14.764 50.8893 14.8467 48.8956 14.9432 46.9155C15.3427 38.7204 15.7699 30.5253 16.1075 22.3302C16.1626 21.0446 16.6035 20.3846 17.8505 20.1852C18.2305 20.0944 18.6017 19.9702 18.9597 19.814V19.814Z" fill="white"/>
</g>
<defs>
<clipPath id="clip0_8_105">
<rect width="60" height="53" fill="white"/>
</clipPath>
</defs>
</svg>
