<svg width="90" height="90" viewBox="0 0 90 90" fill="none" xmlns="http://www.w3.org/2000/svg">
<path fill-rule="evenodd" clip-rule="evenodd" d="M72.8652 90H17.1359C14.816 90 12.918 88.1019 12.918 85.782V14.0246C12.918 11.7047 14.816 9.80664 17.1359 9.80664H30.5278C31.1078 9.80664 31.5823 10.2812 31.5823 10.8611V20.246C31.5823 20.7732 32.0568 21.2478 32.5841 21.2478H57.3644C57.9443 21.2478 58.3661 20.7732 58.3661 20.246V10.8611C58.3661 10.2812 58.8406 9.80664 59.4206 9.80664H72.8652C75.1851 9.80664 77.0832 11.7047 77.0832 14.0246V85.782C77.0832 88.1019 75.1851 90 72.8652 90ZM17.1359 11.9156C15.976 11.9156 15.0269 12.8646 15.0269 14.0246V85.782C15.0269 86.942 15.976 87.891 17.1359 87.891H72.8652C74.0252 87.891 74.9742 86.942 74.9742 85.782V14.0246C74.9742 12.8646 74.0252 11.9156 72.8652 11.9156H60.4751V20.246C60.4751 21.9332 59.1043 23.3567 57.3644 23.3567H32.5841C30.8969 23.3567 29.4733 21.9332 29.4733 20.246V11.9156H17.1359Z" fill="#213430"/>
<path fill-rule="evenodd" clip-rule="evenodd" d="M67.3831 82.3018H22.6204C20.6169 82.3018 19.0352 80.6673 19.0352 78.7166V21.0364C19.0352 19.0856 20.6169 17.4512 22.6204 17.4512H30.529C31.109 17.4512 31.5835 17.9257 31.5835 18.5057V20.2455C31.5835 20.7728 32.058 21.2473 32.5852 21.2473H57.3656C57.9455 21.2473 58.3673 20.7728 58.3673 20.2455V18.5057C58.3673 17.9257 58.8418 17.4512 59.4218 17.4512H67.3831C69.3866 17.4512 70.9684 19.0856 70.9684 21.0364V78.7166C70.9684 80.6673 69.3866 82.3018 67.3831 82.3018ZM22.6204 19.5601C21.7768 19.5601 21.1441 20.2455 21.1441 21.0364V78.7166C21.1441 79.5074 21.7768 80.1928 22.6204 80.1928H67.3831C68.2267 80.1928 68.8594 79.5074 68.8594 78.7166V21.0364C68.8594 20.2455 68.2267 19.5601 67.3831 19.5601H60.4763V20.2455C60.4763 21.9327 59.1055 23.3563 57.3656 23.3563H32.5852C30.8981 23.3563 29.4745 21.9327 29.4745 20.2455V19.5601H22.6204Z" fill="#213430"/>
<path fill-rule="evenodd" clip-rule="evenodd" d="M57.3637 23.3579H32.5834C30.8962 23.3579 29.4727 21.9344 29.4727 20.2472V9.01697C29.4727 7.27708 30.8962 5.90625 32.5834 5.90625H57.3637C59.1036 5.90625 60.4744 7.27708 60.4744 9.01697V20.2472C60.4744 21.9344 59.1036 23.3579 57.3637 23.3579ZM32.5834 8.01521C32.0561 8.01521 31.5816 8.43701 31.5816 9.01697V20.2472C31.5816 20.7744 32.0561 21.249 32.5834 21.249H57.3637C57.9437 21.249 58.3655 20.7744 58.3655 20.2472V9.01697C58.3655 8.43701 57.9437 8.01521 57.3637 8.01521H32.5834Z" fill="#213430"/>
<path fill-rule="evenodd" clip-rule="evenodd" d="M52.0888 8.01406H37.906C37.2734 8.01406 36.8516 7.53954 36.8516 6.95958V2.10896C36.8516 0.949033 37.7479 0 38.9078 0H51.0871C52.1943 0 53.1433 0.949033 53.1433 2.10896V6.95958C53.1433 7.53954 52.6688 8.01406 52.0888 8.01406ZM38.9605 5.9051H51.0343V2.10896H38.9605V5.9051Z" fill="#213430"/>
<path fill-rule="evenodd" clip-rule="evenodd" d="M52.6209 48.191C51.6718 48.191 50.6174 48.0328 49.4047 47.6638C49.0884 47.5583 48.8247 47.2947 48.7193 46.9783C47.7703 44.1312 47.9284 41.7587 49.2465 39.9133C51.6191 36.5917 56.997 36.1172 60.0022 36.1172C60.8458 36.1172 61.4258 36.1699 61.4258 36.1699C61.9003 36.1699 62.2694 36.539 62.3748 36.9608C62.4803 37.4353 62.2694 37.8571 61.9003 38.1207C59.8441 39.2806 59.0532 41.2314 58.2623 43.1822C57.2606 45.5021 56.1534 48.191 52.6209 48.191ZM50.5646 45.7657C51.3555 45.9766 52.0409 46.082 52.6209 46.082C54.6771 46.082 55.2571 44.8167 56.3116 42.3386C56.8388 41.0733 57.4715 39.5443 58.526 38.2789C56.1007 38.3843 52.5154 39.017 50.9864 41.126C50.1428 42.2859 50.0374 43.8676 50.5646 45.7657Z" fill="#213430"/>
<path fill-rule="evenodd" clip-rule="evenodd" d="M46.6614 56.7829C46.0814 56.7829 45.6069 56.3084 45.6069 55.7285C45.6069 55.2012 45.6069 54.7267 45.6069 54.2522C45.6596 50.1924 45.7124 46.7126 44.7106 43.6019C43.8143 40.7548 42.1271 38.3295 39.4382 35.9569C39.0164 35.5351 38.9637 34.9024 39.3327 34.4279C39.7545 34.0061 40.3872 33.9534 40.8617 34.3752C43.867 37.0641 45.7124 39.7531 46.7141 42.9692C47.8213 46.3963 47.7686 50.0343 47.7159 54.2522V55.7285C47.7159 56.3084 47.2414 56.7829 46.6614 56.7829Z" fill="#213430"/>
<path fill-rule="evenodd" clip-rule="evenodd" d="M41.4951 44.9733C36.5918 44.9733 35.0628 41.3881 33.6393 37.9083C32.4266 35.0084 31.2139 32.0559 28.1032 30.2633C27.7342 30.0524 27.5233 29.5779 27.6287 29.1034C27.7342 28.6816 28.1032 28.3125 28.5777 28.3125C28.5777 28.3125 29.3686 28.2598 30.634 28.2598C34.9046 28.2598 42.6023 28.9452 45.9767 33.6376C47.822 36.1684 48.0329 39.49 46.6621 43.5497C46.5567 43.8661 46.293 44.1297 45.9767 44.1824C44.2368 44.7097 42.7605 44.9733 41.4951 44.9733ZM31.6357 30.3687C33.6393 32.3722 34.641 34.8503 35.59 37.1174C37.119 40.8081 38.1735 42.8643 41.4951 42.8643C42.4442 42.8643 43.5514 42.7062 44.8168 42.3371C45.7658 39.2264 45.6076 36.6956 44.2368 34.8503C41.6533 31.1596 35.1682 30.4742 31.6357 30.3687Z" fill="#213430"/>
<path fill-rule="evenodd" clip-rule="evenodd" d="M46.6612 51.1945C46.3976 51.1945 46.1867 51.089 45.9758 50.9309C45.5013 50.5618 45.5013 49.8764 45.8703 49.4546L48.9283 45.9221C49.3501 45.5003 49.9828 45.4475 50.4046 45.8693C50.8791 46.2384 50.9318 46.9238 50.51 47.3456L47.4521 50.8254C47.2412 51.089 46.9248 51.1945 46.6612 51.1945Z" fill="#213430"/>
<path fill-rule="evenodd" clip-rule="evenodd" d="M52.5144 63.3219H27.1014C26.5214 63.3219 26.0469 62.8473 26.0469 62.2674C26.0469 61.6874 26.5214 61.2129 27.1014 61.2129H52.5144C53.1471 61.2129 53.5688 61.6874 53.5688 62.2674C53.5688 62.8473 53.1471 63.3219 52.5144 63.3219Z" fill="#213430"/>
<path fill-rule="evenodd" clip-rule="evenodd" d="M52.5144 69.2789H27.1014C26.5214 69.2789 26.0469 68.8571 26.0469 68.2244C26.0469 67.6444 26.5214 67.1699 27.1014 67.1699H52.5144C53.1471 67.1699 53.5688 67.6444 53.5688 68.2244C53.5688 68.8571 53.1471 69.2789 52.5144 69.2789Z" fill="#213430"/>
<path fill-rule="evenodd" clip-rule="evenodd" d="M52.5144 75.2906H27.1014C26.5214 75.2906 26.0469 74.8161 26.0469 74.2361C26.0469 73.6562 26.5214 73.1816 27.1014 73.1816H52.5144C53.1471 73.1816 53.5688 73.6562 53.5688 74.2361C53.5688 74.8161 53.1471 75.2906 52.5144 75.2906Z" fill="#213430"/>
<path fill-rule="evenodd" clip-rule="evenodd" d="M62.8485 63.3219H58.367C57.787 63.3219 57.3125 62.8473 57.3125 62.2674C57.3125 61.6874 57.787 61.2129 58.367 61.2129H62.8485C63.4285 61.2129 63.903 61.6874 63.903 62.2674C63.903 62.8473 63.4285 63.3219 62.8485 63.3219Z" fill="#213430"/>
<path fill-rule="evenodd" clip-rule="evenodd" d="M62.8485 69.2789H58.367C57.787 69.2789 57.3125 68.8571 57.3125 68.2244C57.3125 67.6444 57.787 67.1699 58.367 67.1699H62.8485C63.4285 67.1699 63.903 67.6444 63.903 68.2244C63.903 68.8571 63.4285 69.2789 62.8485 69.2789Z" fill="#213430"/>
<path fill-rule="evenodd" clip-rule="evenodd" d="M62.8485 75.2906H58.367C57.787 75.2906 57.3125 74.8161 57.3125 74.2361C57.3125 73.6562 57.787 73.1816 58.367 73.1816H62.8485C63.4285 73.1816 63.903 73.6562 63.903 74.2361C63.903 74.8161 63.4285 75.2906 62.8485 75.2906Z" fill="#213430"/>
</svg>
