<svg width="90" height="90" viewBox="0 0 90 90" fill="none" xmlns="http://www.w3.org/2000/svg">
<path d="M45 43.5C55.7696 43.5 64.5 34.7696 64.5 24C64.5 13.2304 55.7696 4.5 45 4.5C34.2304 4.5 25.5 13.2304 25.5 24C25.5 34.7696 34.2304 43.5 45 43.5Z" stroke="#213430" stroke-width="3" stroke-miterlimit="10" stroke-linecap="round" stroke-linejoin="round"/>
<path d="M39 29.25C39 32.148 41.688 34.497 45 34.497C48.312 34.497 51 32.148 51 29.25C51 26.349 48.312 24 45 24C41.688 24 39 21.651 39 18.747C39 15.849 41.688 13.5 45 13.5C48.312 13.5 51 15.849 51 18.747" stroke="#213430" stroke-width="3" stroke-miterlimit="10" stroke-linecap="round" stroke-linejoin="round"/>
<path d="M45 13.5V10.5" stroke="#213430" stroke-width="3" stroke-miterlimit="10" stroke-linecap="round" stroke-linejoin="round"/>
<path d="M45 37.5V34.5" stroke="#213430" stroke-width="3" stroke-miterlimit="10" stroke-linecap="round" stroke-linejoin="round"/>
<path d="M45 43.5V85.5" stroke="#213430" stroke-width="3" stroke-miterlimit="10" stroke-linecap="round" stroke-linejoin="round"/>
<path d="M13.5 58.5C20.754 70.74 31.818 80.145 45 85.503C58.182 80.145 69.246 70.74 76.5 58.5" stroke="#213430" stroke-width="3" stroke-miterlimit="10" stroke-linecap="round" stroke-linejoin="round"/>
<path d="M55.7442 79.941C51.7482 46.5 79.4982 54.999 82.4982 37.5C82.4982 37.5 85.4982 45.753 85.4982 58.5C85.4982 73.5 75.1212 84.624 55.7442 79.941Z" stroke="#213430" stroke-width="3" stroke-miterlimit="10" stroke-linecap="round" stroke-linejoin="round"/>
<path d="M34.254 79.941C38.25 46.5 10.5 54.999 7.5 37.5C7.5 37.5 4.5 45.753 4.5 58.5C4.5 73.5 14.877 84.624 34.254 79.941Z" stroke="#213430" stroke-width="3" stroke-miterlimit="10" stroke-linecap="round" stroke-linejoin="round"/>
<path d="M70.5 22.5H76.5" stroke="#213430" stroke-width="3" stroke-miterlimit="10" stroke-linecap="round" stroke-linejoin="round"/>
<path d="M66.332 9.94922L71.528 6.94922" stroke="#213430" stroke-width="3" stroke-miterlimit="10" stroke-linecap="round" stroke-linejoin="round"/>
<path d="M22.1599 12.5487L16.9609 9.55469" stroke="#213430" stroke-width="3" stroke-miterlimit="10" stroke-linecap="round" stroke-linejoin="round"/>
<path d="M19.4922 25.5039L13.4922 25.5099" stroke="#213430" stroke-width="3" stroke-miterlimit="10" stroke-linecap="round" stroke-linejoin="round"/>
<path d="M23.6647 38.0547L18.4688 41.0607" stroke="#213430" stroke-width="3" stroke-miterlimit="10" stroke-linecap="round" stroke-linejoin="round"/>
<path d="M67.8359 35.4531L73.0379 38.4531" stroke="#213430" stroke-width="3" stroke-miterlimit="10" stroke-linecap="round" stroke-linejoin="round"/>
</svg>
