<svg width="90" height="90" viewBox="0 0 90 90" fill="none" xmlns="http://www.w3.org/2000/svg">
<g clip-path="url(#clip0_2931_4708)">
<path d="M75.6018 41.1107C75.0536 41.5898 74.9973 42.4226 75.4763 42.971C75.9555 43.5193 76.7882 43.5756 77.3366 43.0964C85.0305 36.3745 88.4982 26.0572 89.8803 20.5053C90.1607 19.3789 89.9431 18.185 89.2836 17.2296C88.624 16.2743 87.5846 15.6476 86.432 15.5107C76.9959 14.3883 66.0922 15.4043 58.2359 20.8277C51.0807 25.7672 49.4382 34.4404 53.106 40.8089C50.0459 44.6422 47.7373 48.9859 46.2655 53.6292C45.3388 48.3415 43.5537 43.272 40.9854 38.6118C41.0176 38.5735 41.0506 38.5361 41.0826 38.4976C46.9871 31.3493 46.3367 20.088 37.847 13.0757C33.447 9.44129 27.8101 6.81864 21.0933 5.28073C20.384 5.11848 19.6763 5.56198 19.5141 6.27161C19.3515 6.98141 19.7951 7.6884 20.5049 7.851C26.8176 9.29627 32.0875 11.7381 36.1679 15.1087C43.1971 20.9144 44.0369 30.0594 39.5493 36.1769C38.0502 33.8002 36.3374 31.5463 34.4203 29.4445C29.3599 23.8965 20.4058 18.1449 20.027 17.9027C19.4139 17.5105 18.5984 17.69 18.2062 18.3033C17.8141 18.9168 17.9932 19.7321 18.6067 20.1242C18.6965 20.1817 27.6439 25.928 32.4723 31.2213C34.4553 33.3954 36.2061 35.7422 37.715 38.2249C32.5261 42.9937 23.9583 43.6814 17.1869 38.0882C6.95308 29.6356 3.62027 14.7218 2.66261 8.70196C2.4754 7.52739 3.35484 6.43543 4.56685 6.39623C6.86642 6.32188 10.465 6.33647 14.551 6.82567C15.2726 6.91127 15.9302 6.39641 16.0169 5.67342C16.1034 4.95043 15.5875 4.29424 14.8645 4.20776C10.6144 3.69887 6.8724 3.68393 4.48195 3.76092C1.70197 3.85039 -0.37981 6.36143 0.0584123 9.11627C0.626362 12.6859 1.79337 18.1346 4.12687 23.8211C6.9689 30.747 10.7979 36.2312 15.5075 40.1213C23.0263 46.3316 32.7903 45.9159 39.0458 40.5678C42.5247 47.1414 44.3762 54.5432 44.3715 62.1871L44.3699 64.6832C39.9147 65.0685 35.7656 67.3588 32.7683 71.1152C29.8312 71.7225 27.1755 73.2944 25.0608 75.6837C24.4484 76.3762 23.89 77.1327 23.3944 77.9411C20.0845 77.7008 16.8 79.0751 14.4588 81.7208L14.4111 81.7747C13.9407 82.3123 13.6069 82.9493 13.4255 83.637H6.71015C5.98189 83.637 5.39179 84.2272 5.39179 84.9553C5.39179 85.6834 5.98189 86.2737 6.71015 86.2737H83.0813C83.8096 86.2737 84.3997 85.6834 84.3997 84.9553C84.3997 84.2272 83.8096 83.637 83.0813 83.637H78.0025C77.8209 82.9495 77.4871 82.3125 77.0165 81.7744L76.9699 81.7217C74.6282 79.0751 71.3421 77.7015 68.0336 77.9411C67.538 77.1325 66.9796 76.3758 66.3668 75.6837C64.2525 73.2944 61.597 71.7225 58.6597 71.1152C55.6564 67.351 51.4964 65.0595 47.031 64.6811C47.2847 56.7683 49.9682 49.2278 54.7032 43.0442C58.9135 47.863 65.8368 49.2318 71.7694 46.7229C72.44 46.4394 72.754 45.6658 72.4701 44.9952C72.1866 44.3246 71.4124 44.0108 70.7425 44.2945C65.7041 46.4251 59.8219 45.1901 56.4116 40.9738C56.5232 40.848 56.634 40.7214 56.7473 40.5969C60.9875 35.9482 66.1428 32.199 72.0698 29.4533C72.7306 29.1472 73.018 28.3636 72.712 27.7029C72.4061 27.0423 71.6228 26.7547 70.9615 27.0607C64.7858 29.9216 59.4027 33.8227 54.9544 38.6542C52.5759 33.5973 53.9958 26.9586 59.7339 22.9974C68.6643 16.8322 81.1618 17.5388 86.1207 18.1286C86.5278 18.1771 86.8805 18.3896 87.1135 18.7273C87.3466 19.065 87.4206 19.4703 87.3217 19.8681C84.2756 32.1032 78.6713 38.429 75.6018 41.1107ZM56.873 73.1135C57.0764 73.3831 57.3756 73.5644 57.7089 73.6199C60.2486 74.0425 62.5595 75.3605 64.3924 77.4315C65.0658 78.1925 65.6626 79.0496 66.1657 79.9791C66.4331 80.4729 66.9829 80.7434 67.5387 80.6524C70.2932 80.2001 73.0111 81.227 74.9962 83.4703L75.0325 83.5113C75.0687 83.5528 75.0991 83.5951 75.1304 83.6373H16.2978C16.3291 83.5953 16.3591 83.5531 16.3953 83.5118L16.4326 83.4695C18.4172 81.2272 21.1346 80.2005 23.8894 80.6524C24.4431 80.7429 24.9947 80.4729 25.2625 79.9791C25.7655 79.0498 26.3623 78.1925 27.0356 77.4315C28.8684 75.3605 31.1796 74.0425 33.7191 73.6199C34.0524 73.5645 34.3518 73.3831 34.5551 73.1135C37.3617 69.3945 41.4289 67.2615 45.7141 67.2615C49.9993 67.2615 54.0665 69.3945 56.873 73.1135Z" fill="#213430"/>
</g>
<defs>
<clipPath id="clip0_2931_4708">
<rect width="90" height="90" fill="white"/>
</clipPath>
</defs>
</svg>
