<svg width="90" height="90" viewBox="0 0 90 90" fill="none" xmlns="http://www.w3.org/2000/svg">
<path d="M81.3997 34.7408H80.3087C78.6205 34.7408 77.0921 33.6719 76.3844 31.9494C75.7062 30.3079 76.0355 28.4772 77.2248 27.2904L78.0038 26.5089C79.2521 25.2606 79.9401 23.602 79.9401 21.8376C79.9401 20.0733 79.2521 18.4147 78.0038 17.1688L72.8386 12.0036C70.3419 9.507 65.9926 9.507 63.496 12.0036L62.7146 12.785C61.5277 13.9743 59.6995 14.3012 57.9843 13.591C56.3305 12.9153 55.2641 11.3868 55.2641 9.69867V8.60518C55.2641 4.96348 52.3006 2 48.6589 2H41.3509C37.7092 2 34.7458 4.96348 34.7458 8.60518V9.69621C34.7458 11.3844 33.6768 12.9128 31.9543 13.6205C30.3079 14.2987 28.4821 13.9719 27.2953 12.7826L26.5139 12.0011C24.0173 9.50454 19.6679 9.50454 17.1713 12.0011L12.0061 17.1664C10.7578 18.4146 10.0697 20.0733 10.0697 21.8352C10.0697 23.602 10.7578 25.2606 12.0036 26.5065L12.785 27.2879C13.9743 28.4748 14.3036 30.3079 13.5959 32.0182C12.9177 33.6719 11.3893 34.7384 9.70112 34.7384H8.60518C4.96348 34.7384 2 37.7019 2 41.3436V48.654C2 52.2957 4.96348 55.2592 8.60518 55.2592H9.69621C11.3844 55.2592 12.9128 56.3281 13.6205 58.0506C14.2987 59.6921 13.9694 61.5228 12.7801 62.7096L12.0011 63.4911C10.7528 64.7393 10.0648 66.398 10.0648 68.1623C10.0648 69.9267 10.7528 71.5853 12.0011 72.8312L17.1664 77.9964C19.663 80.493 24.0123 80.493 26.5089 77.9964L27.2904 77.215C28.4797 76.0281 30.3104 75.6964 32.0206 76.4065C33.6744 77.0847 34.7433 78.6132 34.7433 80.3013V81.3923C34.7433 85.034 37.7068 87.9975 41.3485 87.9975H48.6564C52.2981 87.9975 55.2616 85.034 55.2616 81.3923V80.3013C55.2616 78.6132 56.3305 77.0847 58.0531 76.377C59.697 75.6964 61.5252 76.0232 62.7121 77.215L63.4935 77.9964C65.9901 80.493 70.3395 80.493 72.8361 77.9964L78.0013 72.8312C79.2496 71.5829 79.9376 69.9242 79.9376 68.1623C79.9376 66.3956 79.2496 64.7369 78.0038 63.4911L77.2223 62.7096C76.033 61.5228 75.7038 59.6896 76.3942 58.0236L75.2713 57.5199L76.3967 58.0089C76.3992 58.0015 76.4065 57.9867 76.409 57.9794C77.0872 56.3256 78.6156 55.2592 80.3038 55.2592H81.3948C85.0365 55.2592 88 52.2957 88 48.654V41.3436C88.0049 37.7043 85.0414 34.7408 81.3997 34.7408ZM85.5476 48.6564C85.5476 50.9442 83.6875 52.8043 81.3997 52.8043H80.3087C77.6204 52.8043 75.2 54.4704 74.1409 57.0481L75.2762 57.5149L74.1114 57.1119C73.0499 59.6773 73.5905 62.5573 75.4826 64.4494L76.264 65.2308C77.0479 66.0147 77.4804 67.0566 77.4804 68.1648C77.4804 69.2706 77.0479 70.3125 76.264 71.0963L71.0988 76.2616C69.5311 77.8268 66.7985 77.8268 65.2308 76.2616L64.4494 75.4801C62.5548 73.5856 59.6749 73.0499 57.0456 74.1335C54.4679 75.1951 52.8019 77.6155 52.8019 80.3038V81.3948C52.8019 83.6825 50.9417 85.5427 48.654 85.5427H41.346C39.0583 85.5427 37.1981 83.6801 37.1981 81.3948V80.3038C37.1981 77.6155 35.5321 75.1951 32.888 74.109C32.0157 73.7477 31.1065 73.5708 30.2121 73.5708C28.4772 73.5708 26.8014 74.2318 25.5531 75.4777L24.7716 76.2591C23.2039 77.8244 20.4714 77.8244 18.9036 76.2591L13.7384 71.0939C12.9546 70.31 12.5221 69.2681 12.5221 68.1623C12.5221 67.0541 12.9546 66.0122 13.7384 65.2283L14.5174 64.4469C16.412 62.5524 16.9501 59.6749 15.8615 57.0431C14.8024 54.4655 12.382 52.7994 9.69375 52.7994H8.60518C6.31745 52.7994 4.45728 50.9368 4.45728 48.6515V41.3411C4.45728 39.0534 6.31745 37.1932 8.60518 37.1932H9.69621C12.3845 37.1932 14.8049 35.5272 15.891 32.8856C16.9526 30.3202 16.412 27.4403 14.5199 25.5481L13.7384 24.7667C12.9546 23.9829 12.5221 22.941 12.5221 21.8327C12.5221 20.727 12.9546 19.6851 13.7384 18.9012L18.9036 13.736C20.4714 12.1707 23.2039 12.1707 24.7716 13.736L25.5531 14.5174C27.4452 16.412 30.3251 16.9452 32.9544 15.8615C35.5321 14.8024 37.2006 12.382 37.2006 9.69375V8.60518C37.2006 6.31745 39.0607 4.45728 41.3485 4.45728H48.6564C50.9442 4.45728 52.8043 6.3199 52.8043 8.60518V9.69621C52.8043 12.3845 54.4704 14.8049 57.1144 15.891C59.6749 16.955 62.5573 16.4144 64.4494 14.5199L65.2308 13.7384C66.7985 12.1732 69.5311 12.1732 71.0988 13.7384L76.264 18.9036C77.0479 19.6875 77.4804 20.7294 77.4804 21.8352C77.4804 22.9434 77.0479 23.9853 76.264 24.7692L75.485 25.5506C73.5905 27.4452 73.0523 30.3226 74.1409 32.9544C75.2 35.5321 77.6204 37.1981 80.3087 37.1981H81.3997C83.6875 37.1981 85.5476 39.0607 85.5476 41.346V48.6564Z" fill="#213430"/>
<path d="M45.0037 20.9941C31.7664 20.9941 20.9961 31.7644 20.9961 45.0018C20.9961 49.6608 22.3304 54.1822 24.8565 58.0819C24.8737 58.1065 24.8933 58.1286 24.9081 58.1532C24.9105 58.1581 24.9155 58.163 24.9179 58.1679C29.3975 64.9549 36.8972 69.0095 45.0037 69.0095C53.1472 69.0095 60.6788 64.9254 65.1535 58.0795C67.6771 54.1847 69.0114 49.6608 69.0114 45.0043C69.0114 31.7644 58.2411 20.9941 45.0037 20.9941ZM45.0037 66.5522C38.3027 66.5522 32.0907 63.4437 28.0067 58.2048C32.9164 57.1064 38.8311 56.4773 45.0037 56.4773C51.1764 56.4773 57.0911 57.1039 62.0008 58.2023C57.9143 63.4437 51.7023 66.5522 45.0037 66.5522ZM63.4997 55.9981C58.5901 54.8064 52.5771 54.1208 46.311 54.0372V47.7294L48.7732 45.2647C49.277 45.363 49.7684 45.4318 50.2427 45.4318C51.4934 45.4318 52.6434 45.0853 53.678 44.3973C57.4573 41.8786 58.133 35.5806 58.16 35.3152C58.2141 34.7697 57.8897 34.2684 57.3786 34.0669C56.87 33.8629 56.2729 34.0374 55.9411 34.4748C55.9337 34.4846 55.1646 35.4553 52.7884 35.9983C49.8004 36.679 47.6109 38.6522 46.9303 41.2716C46.6452 42.3725 46.6919 43.1662 46.8393 43.724L45.0824 45.481L43.1829 43.579C43.3058 43.0286 43.3402 42.2939 43.0748 41.2716C42.3966 38.6522 40.2071 36.679 37.2166 35.9983C34.8625 35.4602 34.086 34.5043 34.0836 34.5043C33.7666 34.0374 33.1719 33.8433 32.6485 34.0399C32.1202 34.2315 31.7885 34.7574 31.845 35.3176C31.872 35.583 32.5478 41.881 36.3271 44.3998C37.3616 45.0878 38.5116 45.4343 39.7624 45.4343C40.2759 45.4343 40.8141 45.3532 41.3621 45.2377L43.8562 47.7318V54.0372C37.5336 54.1109 31.4592 54.799 26.5078 56.0006C24.5321 52.6685 23.4534 48.899 23.4534 45.0018C23.4534 33.1184 33.1203 23.4514 45.0037 23.4514C56.8872 23.4514 66.5541 33.1184 66.5541 45.0018C66.5541 48.899 65.4729 52.6734 63.4997 55.9981ZM49.1811 42.859C49.1738 42.6575 49.1934 42.3455 49.3114 41.8933C49.4785 41.2495 50.2623 39.0969 53.3389 38.3942C54.0244 38.2394 54.6191 38.0477 55.1302 37.8413C54.6117 39.5294 53.7246 41.4166 52.3215 42.3528C51.4271 42.9475 50.3999 43.1121 49.1811 42.859ZM37.6933 42.3578C36.2951 41.4264 35.4056 39.5368 34.8847 37.8462C35.3958 38.0501 35.9855 38.2394 36.6711 38.3966C39.7476 39.0994 40.5315 41.252 40.6986 41.8958C40.8141 42.3479 40.8362 42.66 40.8288 42.8615C39.6125 43.1121 38.5878 42.95 37.6933 42.3578Z" fill="#213430"/>
</svg>
