<svg width="90" height="90" viewBox="0 0 90 90" fill="none" xmlns="http://www.w3.org/2000/svg">
<path fill-rule="evenodd" clip-rule="evenodd" d="M12.8123 81.9332C12.2323 81.9332 11.7578 81.4587 11.7578 80.8787V9.01582C11.7578 4.05975 15.8176 0 20.7736 0H75.0267C76.7666 0 78.1902 1.42355 78.1902 3.16344V72.7592C78.1902 73.3392 77.7156 73.8137 77.1357 73.8137H20.9318C17.0302 73.8137 13.8668 76.9772 13.8668 80.8787C13.8668 81.4587 13.3923 81.9332 12.8123 81.9332ZM20.7736 2.10896C16.9775 2.10896 13.8668 5.21968 13.8668 9.01582V75.0264C15.5539 73.0229 18.0847 71.7048 20.9318 71.7048H76.0812V3.16344C76.0812 2.58348 75.6067 2.10896 75.0267 2.10896H20.7736Z" fill="#213430"/>
<path fill-rule="evenodd" clip-rule="evenodd" d="M77.1357 90.0003H20.9318C15.8703 90.0003 11.7578 85.8879 11.7578 80.8791C11.7578 75.8176 15.8703 71.7051 20.9318 71.7051H77.1357C77.7156 71.7051 78.1902 72.1796 78.1902 72.7596C78.1902 73.0232 78.1374 73.2868 78.032 73.445C76.503 75.6594 75.7121 78.1901 75.7121 80.8791C75.7121 83.5153 76.503 86.046 78.032 88.2604C78.1374 88.4186 78.1902 88.6295 78.1902 88.8404C78.1902 89.4204 77.7156 90.0003 77.1357 90.0003ZM20.9318 73.814C17.0302 73.814 13.8668 76.9775 13.8668 80.8791C13.8668 84.7279 17.0302 87.8914 20.9318 87.8914H75.2903C74.1831 85.7297 73.6032 83.3044 73.6032 80.8791C73.6032 78.401 74.1831 75.9757 75.2903 73.814H20.9318Z" fill="#213430"/>
<path fill-rule="evenodd" clip-rule="evenodd" d="M23.0935 73.8137C22.5136 73.8137 22.0391 73.3392 22.0391 72.7592V1.05448C22.0391 0.474517 22.5136 0 23.0935 0C23.6735 0 24.148 0.474517 24.148 1.05448V72.7592C24.148 73.3392 23.6735 73.8137 23.0935 73.8137Z" fill="#213430"/>
<path fill-rule="evenodd" clip-rule="evenodd" d="M62.4793 79.1383H27.5232C26.9433 79.1383 26.4688 78.6637 26.4688 78.0838C26.4688 77.4511 26.9433 77.0293 27.5232 77.0293H62.4793C63.0593 77.0293 63.5338 77.4511 63.5338 78.0838C63.5338 78.6637 63.0593 79.1383 62.4793 79.1383Z" fill="#213430"/>
<path fill-rule="evenodd" clip-rule="evenodd" d="M62.4793 84.7281H27.5232C26.9433 84.7281 26.4688 84.2536 26.4688 83.6736C26.4688 83.0937 26.9433 82.6191 27.5232 82.6191H62.4793C63.0593 82.6191 63.5338 83.0937 63.5338 83.6736C63.5338 84.2536 63.0593 84.7281 62.4793 84.7281Z" fill="#213430"/>
<path fill-rule="evenodd" clip-rule="evenodd" d="M50.1404 65.957C49.5605 65.957 49.0859 65.4824 49.0859 64.9025V46.66C49.0859 46.0273 49.5605 45.6055 50.1404 45.6055C50.7204 45.6055 51.1949 46.0273 51.1949 46.66V64.9025C51.1949 65.4824 50.7204 65.957 50.1404 65.957Z" fill="#213430"/>
<path fill-rule="evenodd" clip-rule="evenodd" d="M50.1421 58.5757C49.8258 58.5757 49.5094 58.4703 49.3513 58.2066C49.1404 57.9958 49.0349 57.6794 49.0877 57.3631C49.5094 54.3051 50.9857 51.458 53.2529 49.4017C55.52 47.3455 58.4198 46.2383 61.4251 46.2383C61.7414 46.2383 62.0578 46.3437 62.2687 46.5546C62.4268 46.8182 62.5323 47.0819 62.5323 47.3982C62.1105 50.5089 60.6342 53.3033 58.3144 55.4123C56.0472 57.4685 53.1474 58.5757 50.1421 58.5757ZM60.1597 48.4C58.1562 48.6636 56.2054 49.5599 54.6764 50.9834C53.0947 52.407 51.9348 54.3051 51.4075 56.414C53.4638 56.1504 55.3618 55.2541 56.9435 53.8305C58.5253 52.407 59.6325 50.5089 60.1597 48.4Z" fill="#213430"/>
<path fill-rule="evenodd" clip-rule="evenodd" d="M50.142 47.7158C50.0892 47.7158 50.0892 47.7158 50.0365 47.6631C49.7729 47.6631 49.4566 47.5049 49.2984 47.294C47.3476 44.816 46.3986 41.8107 46.504 38.7C46.6622 35.642 47.8748 32.7422 49.9838 30.6332C50.1947 30.4223 50.511 30.2641 50.8274 30.3169C51.091 30.3169 51.4073 30.475 51.5655 30.6859C53.4636 33.164 54.4653 36.222 54.3599 39.28C54.2017 42.3379 52.9891 45.2378 50.8801 47.3995C50.6692 47.5576 50.4056 47.7158 50.142 47.7158ZM50.6692 33.0585C49.4038 34.693 48.7184 36.6965 48.613 38.8054C48.5075 40.9671 49.0875 43.0761 50.1947 44.9214C51.4601 43.287 52.1455 41.2835 52.2509 39.1745C52.3564 37.0655 51.7764 34.9039 50.6692 33.0585Z" fill="#213430"/>
<path fill-rule="evenodd" clip-rule="evenodd" d="M50.0894 58.5757C47.0842 58.5757 44.1843 57.4685 41.9172 55.4123C39.6501 53.3033 38.1211 50.5089 37.752 47.3982C37.6993 47.0819 37.8047 46.8182 37.9629 46.5546C38.1738 46.3437 38.4901 46.2383 38.7538 46.2383C41.8118 46.2383 44.7116 47.3455 46.9787 49.4017C49.2986 51.458 50.7748 54.3051 51.1439 57.3631C51.1966 57.6794 51.0912 57.9958 50.933 58.2066C50.7221 58.4703 50.4058 58.5757 50.1422 58.5757H50.0894ZM40.0719 48.4C40.5991 50.5089 41.7063 52.407 43.3407 53.8305C44.8697 55.2541 46.8205 56.1504 48.8241 56.414C48.2968 54.3051 47.1896 52.407 45.6079 50.9834C44.0262 49.5599 42.0754 48.6636 40.0719 48.4Z" fill="#213430"/>
<path fill-rule="evenodd" clip-rule="evenodd" d="M62.3187 73.8145H37.9602C37.6439 73.8145 37.3275 73.709 37.1166 73.4454C36.9057 73.2345 36.853 72.9182 36.9057 72.6018C37.802 67.593 43.4962 63.8496 50.1395 63.8496C56.73 63.8496 62.4242 67.593 63.3205 72.6018C63.3732 72.9182 63.3205 73.2345 63.1096 73.4454C62.8987 73.709 62.6351 73.8145 62.3187 73.8145ZM39.331 71.7055H60.8952C59.4716 68.3839 55.1483 65.9586 50.1395 65.9586C45.078 65.9586 40.7546 68.3839 39.331 71.7055Z" fill="#213430"/>
<path fill-rule="evenodd" clip-rule="evenodd" d="M66.1706 25.9923H34.0616C31.4781 25.9923 29.4219 23.936 29.4219 21.3525V11.0713C29.4219 8.48787 31.4781 6.37891 34.0616 6.37891H66.1706C68.754 6.37891 70.8103 8.48787 70.8103 11.0713V21.3525C70.8103 23.936 68.754 25.9923 66.1706 25.9923ZM34.0616 8.48787C32.638 8.48787 31.5308 9.6478 31.5308 11.0713V21.3525C31.5308 22.7761 32.6908 23.8833 34.0616 23.8833H66.1706C67.5941 23.8833 68.7013 22.7761 68.7013 21.3525V11.0713C68.7013 9.6478 67.5941 8.48787 66.1706 8.48787H34.0616Z" fill="#213430"/>
<path fill-rule="evenodd" clip-rule="evenodd" d="M62.3759 13.7613H37.8592C37.2792 13.7613 36.8047 13.2868 36.8047 12.7068C36.8047 12.1269 37.2792 11.6523 37.8592 11.6523H62.3759C62.9558 11.6523 63.4303 12.1269 63.4303 12.7068C63.4303 13.2868 62.9558 13.7613 62.3759 13.7613Z" fill="#213430"/>
<path fill-rule="evenodd" clip-rule="evenodd" d="M62.3759 20.773H37.8592C37.2792 20.773 36.8047 20.2985 36.8047 19.7185C36.8047 19.1386 37.2792 18.6641 37.8592 18.6641H62.3759C62.9558 18.6641 63.4303 19.1386 63.4303 19.7185C63.4303 20.2985 62.9558 20.773 62.3759 20.773Z" fill="#213430"/>
</svg>
