<svg width="90" height="90" viewBox="0 0 90 90" fill="none" xmlns="http://www.w3.org/2000/svg">
<g clip-path="url(#clip0_2931_5555)">
<path d="M85.7556 64.0484C84.3885 61.9299 81.6495 61.3741 79.6196 62.7489L78.5505 63.3108L73.0143 58.8961C67.4958 54.4954 60.8177 52.0997 54.032 51.7766C54.3563 50.0125 55.2407 47.6492 57.5054 45.3838C58.1746 45.5683 60.6409 45.6292 61.4117 45.6292C65.9273 45.6292 69.9249 44.7481 73.3302 42.9984C73.9779 42.6655 74.233 41.8708 73.9002 41.2232C73.5671 40.5751 72.772 40.3204 72.125 40.6531C68.8138 42.3547 64.8253 43.1296 60.2496 42.9696C68.5118 36.0691 77.7632 30.596 81.8744 28.2899C81.1665 30.6939 79.6987 34.2524 76.7554 37.2472C76.2451 37.7665 76.2525 38.6013 76.7718 39.1115C77.2907 39.6213 78.1253 39.6148 78.6361 39.0952C83.037 34.6172 84.5081 29.0588 84.9363 26.877C85.2117 25.4736 84.0115 24.231 82.5513 24.2498C69.6263 24.4964 57.4242 30.0231 55.8041 42.9882C55.7881 43.1157 55.7858 43.2428 55.7933 43.369C54.9932 44.1489 54.3296 44.9424 53.7808 45.7302V34.7622C59.489 29.5657 61.2902 22.7078 59.8802 15.0218C58.6951 8.56253 55.495 3.02454 54.174 0.943642C54.174 0.943467 54.174 0.943467 54.174 0.943467C53.398 -0.279443 51.5739 -0.349053 50.7537 0.943467C49.4327 3.02454 46.2326 8.56235 45.0475 15.0218C43.6411 22.6885 45.4263 29.5531 51.1439 34.7599V45.5072C50.6271 44.7928 50.0147 44.0754 49.29 43.369C49.2975 43.2428 49.2952 43.1157 49.2792 42.9882C47.6615 30.0428 35.4521 24.496 22.532 24.2496C21.0583 24.2354 19.873 25.4811 20.147 26.8766C22.2026 37.3523 30.1261 45.6318 43.6191 45.6318C44.3944 45.6318 46.912 45.5671 47.578 45.3834C49.8472 47.6508 50.7331 50.0063 51.0567 51.7682C45.8362 51.9859 40.6431 53.4321 35.9541 56.14C35.4226 55.951 34.9395 55.7909 34.5358 55.6701C30.594 54.4894 26.2118 55.0027 22.512 57.0773L13.0389 62.3889C11.8603 61.1891 9.98756 60.8847 8.46002 61.7671L5.38859 63.5402C3.5842 64.5823 2.96369 66.898 4.00554 68.7026L15.2105 88.1095C16.2529 89.9148 18.5604 90.539 20.3729 89.4927L23.4441 87.7196C25.2197 86.6943 25.8453 84.4366 24.8724 82.6454L27.1844 80.5945C27.8555 79.9993 28.8027 79.8002 29.6561 80.0749L40.3102 83.4993C41.6375 84.0136 43.1074 84.2263 44.5757 84.0762L65.8614 81.892C67.4012 81.7341 68.8982 81.1806 70.191 80.2913C85.8402 69.5198 84.9013 70.1879 85.0381 70.0598C86.6721 68.5306 86.9806 65.9461 85.7556 64.0484ZM78.5106 27.1772C73.8327 29.9003 66.0837 34.7265 58.9643 40.6103C61.7277 30.7948 71.9853 27.9681 78.5106 27.1772ZM46.1238 40.6141C39.0126 34.7365 31.2726 29.914 26.5917 27.1883C35.3832 28.2789 43.7207 32.0441 46.1238 40.6141ZM23.2045 28.2878C27.3138 30.5925 36.5695 36.0675 44.835 42.971C29.6631 43.5008 24.7409 33.5555 23.2045 28.2878ZM57.2868 15.4978C58.4169 21.6577 57.2363 26.8475 53.7808 30.9701V5.5739C55.0858 8.11569 56.5785 11.6371 57.2868 15.4978ZM47.6411 15.4978C48.349 11.6396 49.84 8.12044 51.1443 5.57935V30.9667C47.6909 26.8447 46.5112 21.6561 47.6411 15.4978ZM71.3704 60.9578L76.0015 64.6508L70.2067 67.6967C68.3061 68.6961 66.2928 69.3252 64.2041 69.5744L64.2352 69.0603C64.2393 68.9924 64.2382 68.9246 64.2317 68.8569C63.9433 65.8009 61.7066 63.3632 58.7922 62.9287C58.7804 62.9269 58.7684 62.9252 58.7565 62.9239L48.1759 61.6397C44.8241 61.1347 44.3681 59.6657 39.1781 57.4144C49.5953 52.3556 62.2166 53.6581 71.3704 60.9578ZM83.298 68.0745L68.6966 78.1192C67.767 78.7587 66.6939 79.1561 65.5924 79.2691L44.3067 81.4534C42.8514 81.6026 41.9499 81.2577 41.1552 81.0014L30.4627 77.5646C28.7258 77.0068 26.7991 77.4116 25.4347 78.6223L23.5304 80.3113L19.2644 72.9224C18.9004 72.2917 18.0937 72.0762 17.4635 72.4398C16.833 72.8039 16.617 73.6102 16.981 74.2407C17.7124 75.5076 21.0558 81.2983 22.5438 83.8756C22.8586 84.4213 22.6711 85.1212 22.1256 85.4362L19.0544 87.2093C18.5064 87.5254 17.8091 87.3375 17.4938 86.7912L6.28947 67.3846C5.97464 66.8391 6.16203 66.139 6.70765 65.824L9.7789 64.0509C10.328 63.7338 11.025 63.9241 11.3395 64.469L13.8929 68.8917C14.2571 69.5222 15.0634 69.7381 15.6938 69.3742C16.3243 69.0102 16.5403 68.2039 16.1763 67.5733L14.4665 64.612L23.802 59.3774C26.8824 57.65 30.5193 57.2198 33.7797 58.1961C41.9645 60.647 42.9483 63.5255 47.8041 64.2497C47.8159 64.2514 47.8278 64.2532 47.8398 64.2544L58.4197 65.5385C60.0942 65.7964 61.3879 67.2144 61.5968 69.0093L61.551 69.7632L48.1019 70.6416C47.3752 70.6892 46.8246 71.3166 46.8721 72.0433C46.9178 72.7406 47.4975 73.2757 48.1864 73.2757C48.2154 73.2757 48.2444 73.2748 48.2738 73.2729C62.5078 71.9869 65.6591 73.0662 71.4336 70.0304C81.4992 64.7352 80.9325 65.0491 81.0659 64.9544C81.8801 64.3776 82.9726 64.5981 83.5406 65.478C84.0686 66.2965 83.9609 67.3967 83.298 68.0745Z" fill="#213430"/>
</g>
<defs>
<clipPath id="clip0_2931_5555">
<rect width="90" height="90" fill="white"/>
</clipPath>
</defs>
</svg>
