<svg width="39" height="56" viewBox="0 0 39 56" fill="none" xmlns="http://www.w3.org/2000/svg">
<path fill-rule="evenodd" clip-rule="evenodd" d="M9.53036 7.47894C9.20626 8.00118 9.10625 9.51846 9.2173 11.4049C9.49536 15.4557 9.19853 19.4147 8.16893 26.2279C7.45961 30.9265 7.40003 31.9845 7.93244 32.83C8.46319 33.7885 8.59139 33.8159 9.56506 33.2464C11.0741 32.4071 11.6567 31.1616 12.6175 26.8564C14.0482 20.5256 14.5373 10.8311 13.5846 8.10208C13.2858 7.24613 11.3186 6.21123 10.5564 6.48465C10.2766 6.585 9.81361 7.0491 9.53566 7.48136L9.53036 7.47894Z" fill="#FFB27F"/>
<path fill-rule="evenodd" clip-rule="evenodd" d="M26.6298 25.7222C25.4723 26.8932 23.2856 28.6996 21.7591 29.7825C15.9368 33.9357 13.7878 37.3219 16.5716 37.9594C17.2653 38.1088 17.6587 37.9287 19.0144 36.7967C19.9003 36.063 22.0674 34.6309 23.7608 33.5986C26.8114 31.7663 29.7628 29.1933 31.2915 27.1076C32.2343 25.7569 31.7734 23.9276 30.3744 23.5943C29.1229 23.2409 29.0325 23.3132 26.6298 25.7222Z" fill="#FFB27F"/>
<path fill-rule="evenodd" clip-rule="evenodd" d="M19.4579 43.3971C18.6907 44.9421 20.8831 45.5002 29.6841 46.0582C35.5898 46.4305 37.5943 46.2073 38.1553 45.0711C38.5599 44.2563 37.9634 42.8097 37.0893 42.4636C35.9258 42.0432 32.4131 41.9346 27.232 42.1452C22.3627 42.3916 19.7116 42.8151 19.4526 43.3947L19.4579 43.3971Z" fill="#FFB27F"/>
</svg>
