<svg width="40" height="30" viewBox="0 0 40 30" fill="none" xmlns="http://www.w3.org/2000/svg">
<mask id="mask0_47_6" style="mask-type:luminance" maskUnits="userSpaceOnUse" x="0" y="0" width="40" height="30">
<path fill-rule="evenodd" clip-rule="evenodd" d="M0 0H39.0909V30H0V0Z" fill="white"/>
</mask>
<g mask="url(#mask0_47_6)">
<path fill-rule="evenodd" clip-rule="evenodd" d="M32.6608 2.27807C32.6608 2.27807 30.6013 -0.109018 27.0001 0.00388219C22.7371 0.13758 18.7765 2.63493 19.2338 9.03395C19.2338 9.03395 12.8127 10.907 2.81894 1.80996C2.81894 1.80996 -0.3963 6.82678 5.28814 11.5537C5.28814 11.5537 3.69225 11.9773 1.56071 10.8404C1.56071 10.8404 0.419064 15.0768 7.73389 18.2875C7.73389 18.2875 5.26469 18.9563 4.14649 18.2875C4.14649 18.2875 4.79906 22.7917 11.3685 23.8616C11.3685 23.8616 7.9905 27.0723 0 26.9832C0 26.9832 16.616 35.1219 28.1376 24.6638C36.3648 17.1948 35.2234 7.2282 35.2234 7.2282C35.2234 7.2282 37.6461 6.51448 39.0909 3.99502C39.0909 3.99502 36.3416 4.81998 34.7575 4.68629C34.7575 4.68629 37.7858 2.8779 38.0189 0.738396C38.0189 0.738396 35.4332 2.5009 32.6608 2.27807Z" fill="#0093FF"/>
</g>
</svg>
