<svg width="74" height="48" viewBox="0 0 74 48" fill="none" xmlns="http://www.w3.org/2000/svg">
<g clip-path="url(#clip0_50_2352)">
<path d="M50.823 0.00859424C63.8951 0.0999473 74.0833 10.8589 73.9983 24.4757C73.9183 37.4978 63.33 48.0896 50.5096 48.0034C37.786 47.9086 27.4777 37.0307 27.5827 23.8087C27.6877 10.6245 38.1393 -0.0793115 50.823 0.00859424ZM50.738 36.6619C57.4824 36.686 63.0099 31.0617 63.0366 24.1482C63.0633 17.064 57.6324 11.364 50.8413 11.3398C49.2223 11.3143 47.6145 11.6211 46.1109 12.2424C44.6073 12.8637 43.2379 13.7872 42.0817 14.9594C40.9256 16.1316 40.0058 17.5293 39.3755 19.0715C38.7452 20.6138 38.417 22.2699 38.4098 23.9442C38.4027 25.6185 38.7167 27.2776 39.3338 28.8255C39.9508 30.3735 40.8586 31.7795 42.0047 32.9622C43.1508 34.145 44.5123 35.081 46.0105 35.716C47.5087 36.351 49.1138 36.6725 50.733 36.6619H50.738Z" fill="white"/>
<path d="M32.005 6.38961C30.7265 8.05637 29.3213 9.59041 28.2461 11.3416C24.3338 17.7191 23.5971 24.5568 25.8424 31.7306C26.0441 32.3718 25.9458 32.6924 25.4157 33.0561C24.1471 33.9179 22.9153 34.8625 21.4734 35.9259C22.8619 35.8518 24.0488 35.926 25.184 35.6984C26.8026 35.383 27.7627 35.8536 28.6312 37.391C30.0697 39.9369 32.1567 41.9535 34.5521 43.5806C35.0955 43.9495 35.2856 44.3253 35.1222 44.9854C34.9055 45.8696 34.7771 46.778 34.6021 47.7157H0.580091C0.513414 44.6907 0.246705 41.8139 2.70709 39.3439C8.51301 33.5335 14.1289 27.518 19.8148 21.5801C20.9816 20.3735 21.7851 18.9463 22.0568 17.2486C22.3635 15.3388 21.4751 13.4979 19.9081 12.6964C18.2412 11.8346 15.8525 12.1069 14.779 13.5738C13.8589 14.8303 13.2621 16.3454 12.572 17.7725C12.3936 18.1397 12.2853 18.3758 11.8219 18.3741C7.98793 18.3569 4.15399 18.3741 0.32005 18.3741C0.212671 18.3678 0.105779 18.3546 0 18.3345C0.256707 9.75244 5.59922 2.98197 11.9569 0.946346C19.6064 -1.50123 28.5595 0.970476 32.005 6.38961Z" fill="white"/>
</g>
<defs>
<clipPath id="clip0_50_2352">
<rect width="74" height="48" fill="white"/>
</clipPath>
</defs>
</svg>
