<svg width="72" height="53" viewBox="0 0 72 53" fill="none" xmlns="http://www.w3.org/2000/svg">
<g clip-path="url(#clip0_19_192)">
<path d="M44.038 13.9847C43.7049 14.1829 43.435 14.4712 43.2598 14.816C43.0845 15.1609 43.011 15.5481 43.0479 15.9328C43.0798 27.2788 43.0798 38.6247 43.0479 49.9706C43.0479 51.3995 42.3974 52.3998 41.1968 52.8285C40.6777 53.0385 40.1031 53.0705 39.5636 52.9196C39.0242 52.7687 38.5504 52.4434 38.217 51.9949C37.8185 51.4008 37.5934 50.7083 37.5665 49.9944C37.5138 44.6025 37.5425 39.2105 37.5378 33.7996C37.5378 32.6326 36.9829 32.1277 35.8206 32.2039C35.6491 32.2006 35.4787 32.2321 35.3198 32.2965C35.161 32.3609 35.0169 32.4569 34.8965 32.5785C34.7761 32.7002 34.6819 32.8451 34.6195 33.0042C34.5572 33.1634 34.5281 33.3335 34.534 33.5042C34.534 34.2759 34.534 35.0523 34.534 35.8239C34.534 40.5871 34.534 45.3503 34.534 50.1135C34.534 52.3188 32.3912 53.6525 30.5018 52.6618C30.1074 52.4702 29.7685 52.1816 29.5174 51.8232C29.2663 51.4647 29.1112 51.0484 29.0669 50.6136C29.0286 50.2402 29.0142 49.8647 29.0238 49.4895C29.0238 38.2627 29.0238 27.0311 29.0238 15.8042C29.0322 15.4187 28.9357 15.038 28.7445 14.7026C28.5534 14.3672 28.2747 14.0895 27.9381 13.899L24.0781 17.8143C23.3176 18.5812 22.5619 19.3576 21.7727 20.0959C21.5994 20.2486 21.4632 20.4387 21.3745 20.6516C21.2859 20.8645 21.247 21.0947 21.2609 21.3248C21.2609 30.8893 21.2609 40.4553 21.2609 50.023C21.2713 50.3266 21.2601 50.6307 21.2274 50.9327C21.161 51.5226 20.8668 52.0636 20.4071 52.4413C19.9474 52.8191 19.3582 53.0041 18.7641 52.9571C18.1921 52.9351 17.6505 52.6948 17.2516 52.286C16.8527 51.8772 16.627 51.3313 16.6213 50.7613C16.5782 48.4607 16.6213 46.1648 16.5974 43.8689C16.5974 41.4873 16.5974 39.1058 16.5974 36.7623C16.5974 35.8096 16.2099 35.3333 15.3537 35.3333C14.4976 35.3333 14.0288 35.7334 14.0288 36.7623C14.0288 41.2873 14.0288 45.8123 14.0288 50.3374C14.0288 51.9949 13.0722 53.0286 11.5847 52.9809C11.0621 52.9684 10.5601 52.7752 10.1648 52.4346C9.76949 52.0939 9.50545 51.627 9.41792 51.1137C9.36214 50.7194 9.33974 50.3211 9.35096 49.923C9.35096 40.3966 9.35096 30.8781 9.35096 21.3676C9.36767 21.1396 9.33345 20.9107 9.25075 20.6974C9.16804 20.4841 9.03892 20.2917 8.87265 20.134C6.14628 17.4539 3.44702 14.7659 0.774863 12.0699C0.420585 11.7614 0.17369 11.349 0.0696923 10.8919C-0.0343051 10.4349 0.00995571 9.95677 0.196108 9.52635C0.379911 9.05831 0.714357 8.66416 1.1471 8.4056C1.57984 8.14703 2.08646 8.03864 2.58766 8.09739C3.15592 8.20453 3.68182 8.47052 4.1039 8.86427C6.7633 11.4507 9.36531 14.1038 12.0056 16.7092C12.4113 17.146 12.9002 17.4982 13.4438 17.7452C13.9874 17.9922 14.5748 18.1293 15.172 18.1483C15.7692 18.1674 16.3643 18.0681 16.9226 17.8562C17.481 17.6443 17.9915 17.3241 18.4245 16.9141C20.5482 14.8897 22.5906 12.7748 24.7191 10.6457C24.5277 10.4409 24.346 10.2408 24.1547 10.0455C22.3562 8.25458 20.5434 6.47791 18.7689 4.6679C18.315 4.22992 18.0399 3.64015 17.9966 3.01221C17.9533 2.38428 18.1449 1.76261 18.5345 1.26698C19.4194 0.1 20.7539 -0.285818 21.964 0.314344C22.256 0.463762 22.5223 0.658287 22.7532 0.890689C25.8718 3.98676 28.9712 7.08283 32.0802 10.2027C32.578 10.7382 33.1803 11.1667 33.8502 11.4621C34.5202 11.7576 35.2437 11.9136 35.9763 11.9208C36.709 11.9279 37.4354 11.786 38.111 11.5036C38.7866 11.2213 39.3972 10.8046 39.9054 10.2789C43.0192 7.14476 46.1378 4.0201 49.2659 0.909742C50.5191 -0.33345 52.0927 -0.295345 53.3029 0.98119C53.5534 1.22374 53.7516 1.51473 53.8851 1.8363C54.0186 2.15787 54.0847 2.50323 54.0793 2.85117C54.074 3.19911 53.9972 3.54228 53.8538 3.85961C53.7104 4.17694 53.5034 4.46172 53.2455 4.69648C51.4662 6.50649 49.6581 8.28316 47.8597 10.0741C47.6779 10.2551 47.5057 10.4456 47.3049 10.6552C49.4716 12.8082 51.5522 14.9802 53.7477 17.0284C55.484 18.6526 58.2247 18.4573 60.004 16.6807C62.6602 14.0514 65.3069 11.4157 67.9439 8.77377C68.2247 8.45339 68.5937 8.22213 69.0053 8.10867C69.4168 7.99521 69.8527 8.00454 70.259 8.1355C70.681 8.25798 71.061 8.49394 71.3572 8.81745C71.6534 9.14097 71.8543 9.53952 71.9378 9.96933C72.0167 10.3735 71.9836 10.7914 71.842 11.1783C71.7005 11.5651 71.4558 11.9063 71.1343 12.1652C68.4525 14.8262 65.7868 17.4999 63.1369 20.1864C62.8647 20.4852 62.7057 20.8693 62.6873 21.2724C62.665 30.8432 62.665 40.4093 62.6873 49.9706C62.6988 50.3692 62.6715 50.768 62.606 51.1614C62.4898 51.6712 62.2031 52.1265 61.7929 52.4527C61.3827 52.7789 60.8733 52.9566 60.3484 52.9566C59.8234 52.9566 59.3141 52.7789 58.9038 52.4527C58.4936 52.1265 58.2069 51.6712 58.0907 51.1614C58.0315 50.8153 58.0058 50.4644 58.0142 50.1135C58.0142 45.6678 58.0142 41.2127 58.0142 36.748C58.0142 35.7953 57.6555 35.3762 56.8376 35.319C55.881 35.2809 55.4457 35.7191 55.4409 36.748C55.4409 41.1777 55.4409 45.6091 55.4409 50.042C55.4576 50.4854 55.4158 50.929 55.3165 51.3614C55.1597 51.8356 54.8525 52.2463 54.4412 52.5317C54.0298 52.8172 53.5366 52.9619 53.0355 52.9442C52.5345 52.9265 52.0528 52.7472 51.6628 52.4335C51.2728 52.1197 50.9957 51.6883 50.873 51.2043C50.7995 50.8134 50.769 50.4157 50.7822 50.0182C50.7822 40.4918 50.7822 30.9496 50.7822 21.3915C50.7945 21.1389 50.7508 20.8867 50.654 20.6529C50.5573 20.419 50.41 20.2093 50.2225 20.0387C48.3093 18.2001 46.3961 16.3187 44.5307 14.4467C44.368 14.2895 44.1958 14.1276 44.038 13.9847Z" fill="white"/>
<path d="M35.9785 5.1248e-05C37.038 -0.00456861 38.0753 0.303257 38.9594 0.884732C39.8436 1.46621 40.5351 2.29531 40.9468 3.26754C41.3586 4.23977 41.4721 5.31162 41.2731 6.348C41.0741 7.38438 40.5715 8.33891 39.8286 9.09128C39.0857 9.84366 38.1358 10.3602 37.0986 10.5758C36.0614 10.7914 34.9833 10.6965 34.0002 10.3029C33.0171 9.90934 32.173 9.23477 31.5743 8.36422C30.9755 7.49367 30.649 6.46611 30.6357 5.41103C30.6263 4.70545 30.7573 4.00499 31.0213 3.35014C31.2853 2.6953 31.6771 2.09907 32.1739 1.59591C32.6707 1.09275 33.2627 0.692642 33.9158 0.418724C34.5688 0.144806 35.2699 0.00250594 35.9785 5.1248e-05V5.1248e-05Z" fill="white"/>
<path d="M15.3059 17.0665C14.4078 17.0646 13.5303 16.7974 12.7847 16.2987C12.0391 15.8001 11.4588 15.0923 11.1173 14.2651C10.7758 13.4378 10.6884 12.5283 10.8662 11.6515C11.0439 10.7748 11.4789 9.97031 12.116 9.33986C12.7531 8.70941 13.5637 8.28135 14.4452 8.10986C15.3267 7.93838 16.2395 8.03117 17.068 8.3765C17.8966 8.72183 18.6036 9.30417 19.0996 10.0498C19.5957 10.7955 19.8584 11.6709 19.8546 12.5653C19.8528 13.1583 19.7336 13.7451 19.504 14.2922C19.2744 14.8394 18.9388 15.3361 18.5164 15.7541C18.094 16.1721 17.5931 16.5031 17.0422 16.7283C16.4914 16.9535 15.9014 17.0684 15.3059 17.0665V17.0665Z" fill="white"/>
<path d="M52.1358 12.5367C52.1368 11.644 52.4029 10.7715 52.9007 10.0291C53.3985 9.28664 54.1057 8.70741 54.9333 8.3643C55.7609 8.02118 56.6719 7.92951 57.5517 8.10082C58.4315 8.27213 59.2407 8.69877 59.8776 9.32704C60.5145 9.95531 60.9505 10.7571 61.1308 11.6316C61.3111 12.5061 61.2276 13.4142 60.8909 14.2415C60.5542 15.0689 59.9792 15.7785 59.2384 16.2812C58.4976 16.7839 57.624 17.0571 56.7276 17.0665C56.1259 17.0748 55.5286 16.9635 54.9706 16.7393C54.4126 16.5151 53.905 16.1825 53.4775 15.7608C53.0501 15.3391 52.7113 14.8368 52.4809 14.2832C52.2505 13.7297 52.1332 13.1359 52.1358 12.5367V12.5367Z" fill="white"/>
</g>
<defs>
<clipPath id="clip0_19_192">
<rect width="72" height="53" fill="white"/>
</clipPath>
</defs>
</svg>
