<svg width="24" height="24" viewBox="0 0 24 24" fill="none" xmlns="http://www.w3.org/2000/svg">
<path d="M23.47 6.63203C23.3323 6.1233 23.0638 5.65951 22.6911 5.28684C22.3185 4.91417 21.8547 4.64562 21.346 4.50794C19.4835 4 11.9878 4 11.9878 4C11.9878 4 4.49177 4.01537 2.62933 4.52331C2.1206 4.661 1.65681 4.92956 1.28415 5.30225C0.911497 5.67494 0.642976 6.13875 0.505331 6.6475C-0.0580132 9.95669 -0.276545 14.9991 0.520799 18.1759C0.658459 18.6847 0.926986 19.1485 1.29964 19.5211C1.6723 19.8938 2.13608 20.1623 2.6448 20.3C4.50724 20.808 12.0031 20.808 12.0031 20.808C12.0031 20.808 19.4989 20.808 21.3612 20.3C21.87 20.1624 22.3338 19.8938 22.7064 19.5211C23.0791 19.1485 23.3477 18.6847 23.4853 18.1759C24.0795 14.8621 24.2626 9.82272 23.47 6.63203Z" fill="#FF0000"/>
<path d="M9.60156 16.0061L15.8198 12.4044L9.60156 8.80273V16.0061Z" fill="white"/>
</svg>
