<svg width="25" height="24" viewBox="0 0 25 24" fill="none" xmlns="http://www.w3.org/2000/svg">
<path d="M21.5 8V16C21.5 17.3261 20.9732 18.5979 20.0355 19.5355C19.0979 20.4732 17.8261 21 16.5 21H8.5C7.17392 21 5.90215 20.4732 4.96447 19.5355C4.02678 18.5979 3.5 17.3261 3.5 16V8C3.5 6.67392 4.02678 5.40215 4.96447 4.46447C5.90215 3.52678 7.17392 3 8.5 3H16.5C17.8261 3 19.0979 3.52678 20.0355 4.46447C20.9732 5.40215 21.5 6.67392 21.5 8Z" stroke="#71717A" stroke-width="1.5" stroke-linecap="round" stroke-linejoin="round"/>
<path d="M11.5 21V12C11.5 9.813 12 8 15.5 8M9.5 13H15.5" stroke="#71717A" stroke-width="1.5" stroke-linecap="round" stroke-linejoin="round"/>
</svg>
