<svg width="25" height="24" viewBox="0 0 25 24" fill="none" xmlns="http://www.w3.org/2000/svg">
<path d="M12.5 7.5C11.61 7.5 10.74 7.76392 9.99993 8.25839C9.25991 8.75285 8.68314 9.45566 8.34254 10.2779C8.00195 11.1002 7.91283 12.005 8.08647 12.8779C8.2601 13.7508 8.68868 14.5526 9.31802 15.182C9.94736 15.8113 10.7492 16.2399 11.6221 16.4135C12.495 16.5872 13.3998 16.4981 14.2221 16.1575C15.0443 15.8169 15.7471 15.2401 16.2416 14.5001C16.7361 13.76 17 12.89 17 12C16.9988 10.8069 16.5243 9.66304 15.6806 8.81939C14.837 7.97575 13.6931 7.50124 12.5 7.5ZM12.5 15C11.9067 15 11.3266 14.8241 10.8333 14.4944C10.3399 14.1648 9.95542 13.6962 9.72836 13.1481C9.5013 12.5999 9.44189 11.9967 9.55764 11.4147C9.6734 10.8328 9.95912 10.2982 10.3787 9.87868C10.7982 9.45912 11.3328 9.1734 11.9147 9.05764C12.4967 8.94189 13.0999 9.0013 13.6481 9.22836C14.1962 9.45542 14.6648 9.83994 14.9944 10.3333C15.3241 10.8266 15.5 11.4067 15.5 12C15.5 12.7956 15.1839 13.5587 14.6213 14.1213C14.0587 14.6839 13.2956 15 12.5 15ZM17 2.25H8C6.60807 2.25149 5.27358 2.80509 4.28933 3.78933C3.30509 4.77358 2.75149 6.10807 2.75 7.5V16.5C2.75149 17.8919 3.30509 19.2264 4.28933 20.2107C5.27358 21.1949 6.60807 21.7485 8 21.75H17C18.3919 21.7485 19.7264 21.1949 20.7107 20.2107C21.6949 19.2264 22.2485 17.8919 22.25 16.5V7.5C22.2485 6.10807 21.6949 4.77358 20.7107 3.78933C19.7264 2.80509 18.3919 2.25149 17 2.25ZM20.75 16.5C20.75 17.4946 20.3549 18.4484 19.6516 19.1516C18.9484 19.8549 17.9946 20.25 17 20.25H8C7.00544 20.25 6.05161 19.8549 5.34835 19.1516C4.64509 18.4484 4.25 17.4946 4.25 16.5V7.5C4.25 6.50544 4.64509 5.55161 5.34835 4.84835C6.05161 4.14509 7.00544 3.75 8 3.75H17C17.9946 3.75 18.9484 4.14509 19.6516 4.84835C20.3549 5.55161 20.75 6.50544 20.75 7.5V16.5ZM18.5 7.125C18.5 7.3475 18.434 7.56501 18.3104 7.75002C18.1868 7.93502 18.0111 8.07922 17.8055 8.16436C17.6 8.24951 17.3738 8.27179 17.1555 8.22838C16.9373 8.18498 16.7368 8.07783 16.5795 7.9205C16.4222 7.76316 16.315 7.56271 16.2716 7.34448C16.2282 7.12625 16.2505 6.90005 16.3356 6.69448C16.4208 6.48891 16.565 6.31321 16.75 6.1896C16.935 6.06598 17.1525 6 17.375 6C17.6734 6 17.9595 6.11853 18.1705 6.3295C18.3815 6.54048 18.5 6.82663 18.5 7.125Z" fill="#71717A"/>
</svg>
